<svg width="68" height="64" viewBox="0 0 68 64" fill="none" xmlns="http://www.w3.org/2000/svg">
<g clip-path="url(#clip0)">
<path d="M54.6 2H65.1V12.5H67.1V0H54.6V2Z" fill="#F1CC46"/>
<path d="M2 12.6V2H12.1V0H0V12.6H2Z" fill="#F1CC46"/>
<path d="M12.1 61.9001H2V51.3H0V63.9001H12.1V61.9001Z" fill="#F1CC46"/>
<path d="M65.1 51.1V61.9H54.6V63.9H67.1V51.1H65.1Z" fill="#F1CC46"/>
<path d="M38.7071 49.476V43.6397C38.7023 41.2472 36.7667 39.3074 34.3744 39.2975H31.9818V37.3371C32.1053 37.2366 32.2194 37.125 32.3228 37.0038C33.6366 35.6626 34.3713 33.8587 34.3682 31.9811V25.2307C34.9467 24.8867 35.362 24.3889 35.6975 23.7582C36.119 22.9667 36.3571 21.9769 36.3571 20.9713C36.3585 20.8238 36.2947 20.6831 36.1828 20.5868C36.0713 20.4905 35.9227 20.4481 35.7769 20.4713L31.0884 21.2085C30.2757 21.3374 29.4446 21.2924 28.6506 21.0766L26.5035 20.4967C25.7775 20.2976 25.0007 20.4509 24.405 20.9105C24.2084 21.0594 24.0355 21.2365 23.8917 21.4365C21.6991 22.6842 20.3432 25.0115 20.3393 27.5343V31.9811C20.3396 33.8598 21.0771 35.6634 22.3935 37.0038C22.5005 37.1137 22.6533 37.2193 22.7256 37.3213V39.2975H20.3704C17.9851 39.2975 16.0728 41.2545 16.0728 43.6397V49.476C16.0728 49.7556 16.2716 50 16.5513 50H38.1935C38.478 49.9921 38.7051 49.7604 38.7071 49.476ZM25.016 21.7147C25.2603 21.5269 25.5595 21.4249 25.8676 21.4246C25.9928 21.4249 26.1176 21.4413 26.2385 21.4741L28.3862 22.0543C29.3178 22.3074 30.2924 22.3599 31.2457 22.2088L35.3221 21.5679C35.1447 23.3867 34.164 24.3519 33.3002 24.6404C32.7739 24.72 27.2176 25.5519 24.6764 25.5519C24.5592 25.5519 24.4634 25.4581 24.4612 25.3409V22.8288C24.4615 22.391 24.6665 21.9786 25.016 21.7145V21.7147ZM23.4488 22.98V25.3409C23.4491 25.9468 23.8931 26.4612 24.4925 26.5499C23.4965 27.323 22.4364 27.6767 21.3517 27.6044V27.5343C21.3593 25.7844 22.124 24.1234 23.4488 22.98ZM21.3517 31.9811V28.6179C21.424 28.6227 21.5398 28.6258 21.6291 28.6258C23.5527 28.6258 25.0431 27.5411 26.032 26.5126C28.7596 26.3366 32.6327 25.7629 33.3558 25.6522V31.9811C33.3606 33.594 32.7313 35.1443 31.6036 36.2976C30.4618 37.4702 28.9608 38.1159 27.3662 38.1159C25.7623 38.1125 24.229 37.456 23.1194 36.2976C21.9875 35.1459 21.3528 33.596 21.3517 31.9811ZM27.3625 39.1283C28.6373 39.1292 29.887 38.7727 30.9694 38.099V39.58C28.8596 41.2813 25.849 41.2825 23.738 39.5822V38.0879C24.8242 38.769 26.0803 39.1297 27.3625 39.1283ZM37.6947 48.9876H17.0852V43.6397C17.0852 41.813 18.5436 40.3099 20.3704 40.3099H23.0547C25.5436 42.407 29.1814 42.407 31.6703 40.3099H34.3744C36.2077 40.3192 37.6904 41.8062 37.6947 43.6397V48.9876Z" fill="white"/>
<path d="M24.8705 32.8441C25.8781 32.843 26.6945 32.0266 26.6956 31.019C26.6956 30.7396 26.4691 30.5128 26.1894 30.5128C25.9101 30.5128 25.6832 30.7396 25.6832 31.019C25.6832 31.4679 25.3197 31.8317 24.8708 31.8317C24.4222 31.8317 24.0584 31.4679 24.0584 31.019C24.0584 30.7396 23.8319 30.5128 23.5522 30.5128C23.2726 30.5128 23.046 30.7396 23.046 31.019C23.0472 32.0263 23.8632 32.8427 24.8705 32.8441Z" fill="white"/>
<path d="M29.874 32.8441C30.8813 32.8427 31.6977 32.0266 31.6988 31.019C31.6988 30.7396 31.4722 30.5128 31.1926 30.5128C30.9132 30.5128 30.6864 30.7396 30.6864 31.019C30.6864 31.4679 30.3228 31.8317 29.874 31.8317C29.4254 31.8317 29.0616 31.4679 29.0616 31.019C29.0616 30.7396 28.835 30.5128 28.5554 30.5128C28.2757 30.5128 28.0492 30.7396 28.0492 31.019C28.0503 32.0266 28.8667 32.843 29.874 32.8441Z" fill="white"/>
<path d="M50.4495 15H37.6121C37.3311 15.0093 37.1099 15.2429 37.1161 15.524V25.068C37.1144 25.1994 37.1664 25.3259 37.2599 25.4183C37.3534 25.511 37.4805 25.5612 37.6121 25.5579H39.5025V27.8397C39.5053 28.1202 39.7338 28.3462 40.0143 28.3459C40.1216 28.3428 40.2256 28.3066 40.3115 28.2422L44.0258 25.5579H50.4495C50.5792 25.5604 50.7043 25.5093 50.795 25.4166C50.8854 25.3237 50.9337 25.1977 50.9281 25.068V15.524C50.9281 15.2443 50.7292 15 50.4495 15V15ZM49.9157 24.5455H43.8625C43.7543 24.5483 43.6495 24.5844 43.5625 24.6491L40.5149 26.851V25.068C40.5197 24.7867 40.2976 24.5539 40.0163 24.5455H38.1285V16.0124H49.9157V24.5455Z" fill="white"/>
<path d="M39.8454 18.6157H44.7286C45.008 18.6157 45.2348 18.3891 45.2348 18.1095C45.2348 17.8298 45.008 17.6033 44.7286 17.6033H39.8454C39.5658 17.6033 39.3392 17.8298 39.3392 18.1095C39.3392 18.3891 39.5658 18.6157 39.8454 18.6157Z" fill="white"/>
<path d="M39.8454 20.7851H48.3443C48.6237 20.7851 48.8505 20.5586 48.8505 20.2789C48.8505 19.9993 48.6237 19.7727 48.3443 19.7727H39.8454C39.5658 19.7727 39.3392 19.9993 39.3392 20.2789C39.3392 20.5586 39.5658 20.7851 39.8454 20.7851Z" fill="white"/>
<path d="M39.8454 22.9545H48.3443C48.6237 22.9545 48.8505 22.728 48.8505 22.4483C48.8505 22.1687 48.6237 21.9421 48.3443 21.9421H39.8454C39.5658 21.9421 39.3392 22.1687 39.3392 22.4483C39.3392 22.728 39.5658 22.9545 39.8454 22.9545Z" fill="white"/>
</g>
<defs>
<clipPath id="clip0">
<rect width="67.1" height="63.9" fill="white"/>
</clipPath>
</defs>
</svg>
