<svg width="116" height="37" viewBox="0 0 116 37" fill="none" xmlns="http://www.w3.org/2000/svg">
<path d="M38.9988 33.5085C38.6473 33.7815 38.3348 34.2106 37.9442 34.2886C36.9092 34.5422 35.8547 34.7567 34.7806 34.7958C32.7106 34.8738 30.6405 34.8153 28.3362 34.8153C28.6681 35.2834 28.883 35.6149 29.1173 35.9465C28.7853 36.2391 28.4338 36.5512 27.9651 36.9608C27.9456 36.6292 27.9261 36.4341 27.9065 36.2001C27.7308 36.1416 27.516 36.0831 27.184 36.005C27.516 35.6344 27.7698 35.3419 28.1409 34.9518C27.8284 34.8933 27.6917 34.8543 27.5355 34.8543C22.1261 34.8738 16.6971 34.9128 11.2877 34.9518C9.00282 34.9713 6.71797 34.9908 4.4136 34.9518C3.61292 34.9323 2.81225 34.8348 2.03111 34.6787C1.64053 34.6007 1.30855 34.3081 0.957031 34.1131C0.996088 34.0156 1.03515 33.9181 1.0742 33.8205C1.42572 33.9181 1.79676 33.9766 2.12875 34.0936C3.20282 34.4252 3.49575 34.2886 3.53481 33.2159C3.59339 30.2512 3.59339 27.267 3.63245 24.3023C3.63245 23.8537 3.41764 23.6782 3.00754 23.7367C2.69508 23.7952 2.40215 23.9123 2.08969 23.9708C1.7577 24.0293 1.40619 24.0683 1.0742 24.1268C1.03515 24.0488 0.996088 23.9708 0.957031 23.8732C1.15232 23.7172 1.3476 23.4832 1.56242 23.4051C1.81629 23.2881 2.12875 23.2686 2.42168 23.2491C3.61292 23.1906 3.94491 22.6445 3.53481 21.4937C3.43717 21.2206 3.53481 20.8891 3.55434 20.5965C3.57387 20.3234 3.63245 20.0699 3.63245 19.7968C3.61292 14.8037 3.57387 9.81052 3.53481 4.81737C3.53481 4.70034 3.55434 4.58332 3.55434 4.44678C3.67151 3.43255 3.67151 3.45206 4.687 3.45206C6.85467 3.43255 9.02235 3.39354 11.19 3.33503C11.483 3.33503 11.7759 3.17899 11.9907 3.12048C12.3617 3.218 12.6937 3.35453 13.0062 3.35453C14.6661 3.35453 16.3261 3.33503 17.986 3.31553C18.2399 3.31553 18.4937 3.29602 18.7671 3.27652C18.9429 2.18427 17.9079 1.8917 17.5954 1.07251C17.8493 1.18954 18.1422 1.24805 18.357 1.42359C18.6109 1.63814 18.8843 1.93071 18.9624 2.22327C19.2358 3.35453 20.0365 3.35453 20.9543 3.35453C25.485 3.37404 30.0156 3.43255 34.5658 3.47156C35.5227 3.49107 35.5227 3.51057 35.5227 4.46629C35.4836 8.89381 35.4836 13.3408 35.4446 17.7683C35.425 19.3092 35.3665 20.8305 35.3079 22.3714C35.2883 22.976 35.4641 23.2491 36.1281 23.2296C36.5968 23.2101 37.0655 23.3661 37.5537 23.4441C37.5341 23.5612 37.5146 23.6782 37.5146 23.7952C37.1436 23.7757 36.753 23.7757 36.382 23.7172C35.4836 23.5807 35.3274 23.6587 35.3079 24.5559C35.2298 27.5596 35.1907 30.5438 35.1321 33.5475C35.1321 33.9961 35.3665 34.2106 35.757 34.1521C36.4405 34.0351 37.124 33.84 37.788 33.645C38.1395 33.5475 38.4715 33.3719 38.823 33.2159C38.8816 33.3329 38.9402 33.4304 38.9988 33.5085ZM31.9294 28.5153C32.2028 27.9497 32.4567 27.4036 32.7496 26.8379C33.1988 25.9407 33.6675 25.063 34.1752 24.0683C33.1402 24.0878 31.9099 24.6924 31.8904 25.18C31.8123 26.2918 31.9099 27.4036 31.9294 28.5153C31.4022 30.2902 31.9294 31.7336 33.316 32.9233C33.6675 33.2159 34.019 33.528 34.3705 33.8205C34.4486 33.7815 34.5072 33.7425 34.5853 33.7035C34.5853 30.5048 34.5853 27.306 34.5853 23.8928C34.39 24.3999 34.2924 24.7314 34.1557 25.0435C33.6089 26.3308 33.023 27.5986 31.9294 28.5153ZM4.687 4.66133C4.47218 4.58332 4.25737 4.5248 3.98397 4.42728C3.98397 7.62602 3.98397 10.7467 3.98397 13.7309C4.74558 12.4826 5.48767 11.1368 6.34693 9.88853C7.1476 8.71827 7.26478 7.95759 6.58127 6.84584C6.7375 6.65079 6.97185 6.49476 6.97185 6.29971C7.0109 5.69507 7.0109 5.07093 6.97185 4.46629C6.95232 4.29075 6.7375 3.97868 6.6008 3.95917C5.87824 3.90066 5.17521 3.93967 4.39407 3.93967C4.53077 4.27124 4.60888 4.46629 4.687 4.66133ZM10.2527 10.3761C10.9752 10.9808 11.7368 11.5464 12.4399 12.1706C13.0843 12.7362 13.6897 13.3603 14.3732 14.004C15.1543 11.917 15.8769 9.96655 16.619 7.9966C16.3846 7.95759 16.287 7.89908 16.2089 7.91858C14.6075 7.9966 13.2991 7.50899 12.3227 6.16318C12.2055 6.00714 11.7173 5.96813 11.522 6.08516C10.4675 6.72881 9.45198 7.43097 8.31932 8.17214C8.65131 8.54273 8.90518 8.79628 9.13952 9.06935C9.47151 9.45944 9.76444 9.84953 10.0964 10.2591C9.88161 10.1421 9.62774 10.0446 9.43245 9.88853C9.10047 9.59597 8.82706 9.26439 8.49508 8.97182C7.94828 8.48421 7.51865 8.64025 7.38195 9.36191C7.34289 9.57646 7.34289 9.79101 7.34289 10.0251C7.38195 12.8922 7.421 15.7789 7.46006 18.646C7.46006 19.1922 7.6944 19.3677 8.22168 19.3482C9.41292 19.2897 10.6042 19.2117 11.7954 19.2117C12.3227 19.2117 12.5961 18.9971 12.7523 18.529C13.1624 17.3588 13.6311 16.208 14.0217 15.0182C14.0998 14.8037 13.9436 14.3941 13.7678 14.2185C12.8304 13.2238 11.8345 12.2876 10.8776 11.3124C10.6432 11.0003 10.4675 10.6687 10.2527 10.3761ZM22.3995 33.9181C23.4735 33.645 24.5671 33.4109 25.6412 33.0794C26.4809 32.8258 26.5981 32.3772 26.1685 31.597C26.0123 31.3045 25.7974 31.0314 25.6998 30.7193C25.4459 29.9781 25.3092 29.2175 25.0358 28.4958C24.4109 26.9159 23.7274 25.3556 23.1025 23.7757C22.5752 22.4689 21.5597 21.5717 20.4271 20.811C20.3099 20.733 20.1146 20.733 19.8998 20.694C19.8607 20.9281 19.8022 21.1231 19.7826 21.2987C19.724 23.2881 19.6654 25.2776 19.6459 27.2865C19.6264 29.3735 19.6264 31.48 19.6264 33.567C19.6264 33.9376 19.5873 34.3862 20.1341 34.3276C20.8958 34.2496 21.6574 34.0546 22.3995 33.9181ZM14.256 33.762C15.6816 33.9571 17.0877 34.1521 18.4742 34.3472C18.8843 34.4057 19.0601 34.2496 19.0601 33.7815C19.0796 29.7246 19.1186 25.6482 19.1577 21.5912C19.1577 21.3377 19.0405 20.9086 18.8843 20.8696C18.5914 20.7915 18.2399 20.8891 17.9079 20.9671C17.7712 21.0061 17.654 21.1816 17.5368 21.2987C16.4237 22.4299 15.4473 23.7367 14.1584 24.6339C12.3617 25.8822 11.7759 27.6766 11.2096 29.5686C11.1314 29.8026 11.1119 30.0562 11.0729 30.2707C11.4634 30.3097 11.7368 30.3487 11.9516 30.3877C11.4634 30.7973 11.0338 31.1679 10.5846 31.5385C10.8971 31.8701 11.2096 32.2017 11.4244 32.4357C11.8149 32.3187 12.1665 32.1431 12.225 32.2212C12.3813 32.3967 12.4008 32.6893 12.4984 33.0013C12.5766 33.0404 12.7328 33.1184 12.889 33.1769C13.7483 33.5085 14.0412 33.2744 13.8654 32.3577C13.7873 31.8701 13.553 31.4215 13.3772 30.9339C14.2755 31.0899 14.5294 31.8506 14.256 33.762ZM23.8055 14.5111C24.0594 14.2965 24.157 14.2185 24.2547 14.1405C25.9927 12.5021 27.7308 10.8638 29.4493 9.22538C29.8984 8.79628 30.6015 8.48421 29.8789 7.62601C30.9725 7.9966 31.2069 7.89908 31.285 7.00187C31.3631 6.12417 31.3436 5.24647 31.285 4.36877C31.285 4.19323 30.9921 3.95917 30.7968 3.88115C30.5624 3.78363 30.2695 3.84215 29.9961 3.84215C27.4964 3.80314 24.9772 3.76413 22.4776 3.72512C22.3995 3.72512 22.3213 3.78363 22.1065 3.84215C25.0358 4.27124 27.5355 5.30498 29.5665 7.27493C27.9846 6.51426 26.4419 5.63656 24.821 4.9344C23.2001 4.23224 21.4426 3.99818 19.4702 4.03719C20.9348 7.5675 22.3409 10.9808 23.8055 14.5111ZM30.7772 8.62074C29.9961 9.34241 29.4298 9.90804 28.8439 10.4542C27.4183 11.8 25.9537 13.1458 24.5476 14.5306C24.3133 14.7647 24.0984 15.2328 24.1961 15.5058C24.5281 16.5396 24.9577 17.5538 25.3873 18.5485C25.4654 18.7241 25.7388 18.9386 25.9146 18.9191C27.516 18.8996 29.1173 18.8411 30.7382 18.8021C31.1287 18.7826 31.285 18.6265 31.285 18.2169C31.285 15.4278 31.3045 12.6192 31.285 9.83002C31.285 9.43993 30.9725 9.04984 30.7772 8.62074ZM6.91326 31.675C6.11259 32.3382 5.3705 32.9233 4.64794 33.5085C4.58935 33.4304 4.51124 33.3524 4.45265 33.2744C5.0971 32.6893 5.72201 32.1041 6.38599 31.558C6.8742 31.1679 7.03043 30.6998 7.0109 30.0952C6.97185 28.9639 6.99137 27.8327 6.99137 26.7014C6.99137 25.2386 6.40552 24.5169 4.76511 24.1658C5.39003 25.5701 5.97589 26.8574 6.56175 28.1447C6.48363 28.1837 6.40552 28.2227 6.3274 28.2618C5.40956 26.9745 4.92134 25.4531 4.23784 24.0293C4.1402 24.2243 4.10114 24.3804 4.10114 24.5559C4.10114 25.8432 4.10114 27.1305 4.10114 28.4178C4.10114 30.0562 4.10114 31.675 4.1402 33.3134C4.1402 33.567 4.2769 33.9571 4.45265 34.0156C5.56579 34.3472 7.03043 33.0404 6.91326 31.675ZM29.5079 28.5738C29.5665 28.5738 29.625 28.5543 29.7032 28.5543C29.6446 27.4036 30.1914 26.5064 30.7968 25.6091C31.0897 25.18 31.3045 24.5949 31.324 24.0878C31.3631 23.1516 31.2069 22.1959 31.2069 21.2401C31.2069 20.733 31.0311 20.616 30.5819 20.616C29.4102 20.6355 28.2385 20.616 27.0668 20.6355C26.891 20.6355 26.7153 20.694 26.3638 20.7525C27.4378 23.4051 28.4729 25.9797 29.5079 28.5738ZM6.8742 9.84953C6.54222 10.2201 6.24929 10.4932 6.03447 10.8052C4.687 12.7557 4.02302 14.8817 4.06208 17.2612C4.12067 19.3872 4.1402 19.4262 6.24929 19.3092C6.85467 19.2702 6.99137 19.0166 6.97185 18.49C6.91326 17.1832 6.8742 15.8569 6.85467 14.5501C6.8742 13.0288 6.8742 11.5269 6.8742 9.84953ZM11.7564 21.1036C10.4284 21.1036 9.15905 21.0841 7.87016 21.1426C7.73346 21.1426 7.51865 21.5522 7.49912 21.7863C7.46006 22.742 7.47959 23.6782 7.47959 24.6339C7.47959 24.9265 7.49912 25.2386 7.61629 25.4921C8.04592 26.5064 8.53414 27.5011 9.02235 28.5543C9.92067 26.0968 10.819 23.6197 11.7564 21.1036ZM34.8978 4.70034C34.8392 4.68084 34.7611 4.66133 34.7025 4.62233C34.0385 5.28548 33.3745 5.96813 32.7106 6.63129C31.5584 7.78205 31.4803 8.65975 32.4176 10.0056C32.7692 10.5127 33.1011 11.0198 33.3745 11.5464C33.9213 12.6972 34.4291 13.8479 34.9368 14.9402C34.8978 11.5854 34.8978 8.13313 34.8978 4.70034ZM32.0075 10.1421C31.8708 10.3761 31.8318 10.4152 31.8318 10.4542C31.8123 13.0288 31.8123 15.6033 31.8123 18.1779C31.8123 18.6656 32.0661 18.8216 32.4958 18.8021C33.0621 18.7631 33.6089 18.6851 34.1752 18.6851C34.7415 18.6851 34.9368 18.4315 34.8197 17.9244C34.4291 16.2665 34.0971 14.6086 33.5698 13.0093C33.2378 12.034 32.5739 11.1563 32.0075 10.1421ZM18.0641 11.0393C17.986 11.0393 17.9274 11.0393 17.8493 11.0393C17.4392 12.2096 17.0681 13.3993 16.5995 14.5306C16.2284 15.4278 16.1503 16.13 17.1267 16.6371C17.2634 16.7151 17.3415 16.8906 17.4587 17.0077C17.9665 17.4758 18.4742 17.9439 19.1382 18.5485C19.2163 15.8374 19.3725 13.3213 18.0641 11.0393ZM9.60821 3.93967C9.04188 3.93967 8.47555 3.90066 7.92875 3.95917C7.71393 3.97868 7.40148 4.27124 7.38195 4.44678C7.32336 5.26597 7.32336 6.10467 7.38195 6.92385C7.421 7.64552 7.98733 7.91858 8.59272 7.52849C9.49104 6.94336 10.3308 6.2607 11.2877 5.79259C12.0493 5.42201 11.8931 4.89539 11.8149 4.32976C11.7173 3.74462 11.2096 3.95917 10.858 3.93967C10.4479 3.90066 10.0183 3.93967 9.60821 3.93967ZM31.8318 24.2633C32.652 23.9513 33.3355 23.7172 33.9995 23.4246C34.1947 23.3466 34.3705 23.1126 34.4486 22.9175C34.5658 22.586 34.6244 22.2154 34.6634 21.8448C34.8197 20.5575 34.7611 20.4795 33.4331 20.499C33.0621 20.499 32.691 20.499 32.3395 20.577C32.1442 20.616 31.8513 20.8501 31.8513 20.9866C31.8123 22.0788 31.8318 23.1516 31.8318 24.2633ZM6.99137 24.7314C6.99137 23.6197 6.99137 22.5469 6.97185 21.4937C6.97185 21.3767 6.83515 21.1621 6.75703 21.1621C5.97589 21.1426 5.21427 21.1621 4.43313 21.2011C4.35501 21.2011 4.25737 21.3572 4.21831 21.4742C4.02302 21.9228 4.51124 23.4051 4.94087 23.6392C5.58531 23.9903 6.22976 24.3218 6.99137 24.7314ZM16.5604 7.25543C16.2284 6.41674 15.916 5.59755 15.5449 4.81737C15.4863 4.68084 15.1153 4.58332 14.92 4.64183C14.3146 4.81737 13.7287 5.07093 13.1429 5.30498C12.6547 5.50003 12.5766 5.77309 12.9281 6.18268C13.6702 7.06039 14.7442 7.78205 16.5604 7.25543ZM17.0486 20.7525C16.2675 20.811 15.4668 20.8696 14.6856 20.9476C14.549 20.9671 14.3537 21.1036 14.3146 21.2401C13.8264 22.4494 13.3772 23.6587 12.85 25.024C14.2951 23.5417 15.6426 22.1764 17.0486 20.7525ZM17.0486 7.1384C18.2399 6.51426 18.8062 5.65606 18.9624 4.48579C19.021 4.0957 18.8257 3.92016 18.4742 3.95917C17.8298 4.01769 17.1658 4.0762 16.5409 4.23224C16.3846 4.27124 16.1503 4.70034 16.2089 4.87588C16.4237 5.61705 16.7362 6.31921 17.0486 7.1384ZM16.0136 16.364C15.6621 17.3588 15.3496 18.1779 15.0372 19.0556C16.3065 19.0556 17.4587 19.0556 18.6109 19.0556C18.65 18.9971 18.6695 18.9191 18.7085 18.8606C17.8298 18.0609 16.99 17.2612 16.0136 16.364ZM34.39 3.95917C33.8432 3.95917 33.023 3.93967 32.2224 3.97868C32.0857 3.97868 31.8708 4.15422 31.8708 4.25174C31.8318 5.05142 31.8318 5.85111 31.8318 6.65079C31.9099 6.6703 31.9685 6.7093 32.0466 6.72881C32.8473 5.77309 33.6479 4.83687 34.39 3.95917ZM12.225 19.6408C11.854 19.6408 11.5611 19.6213 11.2486 19.6408C10.2331 19.6798 9.19811 19.6993 8.18262 19.7968C7.94828 19.8163 7.73346 20.0699 7.49912 20.2064C7.73346 20.3429 7.98733 20.5575 8.22168 20.577C9.23717 20.616 10.2722 20.5575 11.2877 20.5965C11.8735 20.5965 12.1665 20.3819 12.225 19.6408ZM25.6998 19.5628C25.9732 19.7968 26.0904 19.9724 26.2075 19.9724C27.7698 19.9919 29.3126 20.0114 30.8749 19.9919C30.9921 19.9919 31.1287 19.7383 31.2459 19.6213C31.1092 19.5237 30.953 19.3482 30.8163 19.3482C29.8008 19.3482 28.7658 19.3677 27.7503 19.4067C27.1254 19.4262 26.52 19.4847 25.6998 19.5628ZM13.1819 33.801C12.2055 33.2354 11.2291 32.6698 10.2527 32.1041C10.0183 32.9818 10.2917 33.645 11.0143 34.0351C11.8931 34.5032 12.5961 34.4447 13.1819 33.801ZM30.3085 29.8416C31.9294 28.6128 30.9921 27.0915 31.2069 25.7847C30.2109 26.9354 30.0156 28.2423 30.3085 29.8416ZM33.2183 20.1089C33.6089 20.0894 33.9995 20.1479 34.39 20.0699C34.5658 20.0309 34.683 19.7578 34.8197 19.6018C34.6634 19.4652 34.4877 19.2117 34.3314 19.2117C33.6089 19.2117 32.8668 19.2507 32.1442 19.3287C31.988 19.3482 31.8513 19.5628 31.6951 19.6798C31.8318 19.8163 31.949 20.0504 32.1247 20.0894C32.4762 20.1479 32.8668 20.1089 33.2183 20.1089ZM5.72201 19.7578C5.72201 19.7383 5.72201 19.7188 5.72201 19.7188C5.31191 19.7773 4.90181 19.7773 4.51124 19.8943C4.35501 19.9333 4.17925 20.1869 4.17925 20.3429C4.17925 20.4795 4.45265 20.694 4.58935 20.694C5.27286 20.694 5.93683 20.6355 6.62033 20.5575C6.75703 20.538 6.97185 20.3039 6.95232 20.1869C6.91326 20.0309 6.7375 19.8163 6.58127 19.7773C6.3274 19.7188 6.01494 19.7578 5.72201 19.7578ZM15.1543 4.01769C15.1348 3.92016 15.1153 3.82264 15.0762 3.72512C14.4318 3.72512 13.7873 3.70561 13.1429 3.72512C12.1665 3.76413 12.0493 3.99818 12.4594 5.07093C13.3772 4.70034 14.2755 4.36877 15.1543 4.01769ZM8.33885 29.7051C8.45602 28.4178 8.16309 27.3255 7.53818 26.1748C7.2843 28.5153 7.46006 29.315 8.33885 29.7051ZM19.7045 18.412C20.7005 17.9244 20.6809 16.7151 19.7045 15.2718C19.7045 16.3445 19.7045 17.3392 19.7045 18.412ZM23.6688 34.2886C24.8601 34.6787 26.0513 34.2106 26.2661 33.2939C25.4264 33.606 24.5671 33.9376 23.6688 34.2886ZM31.7927 31.9286C31.7341 32.8063 32.2419 33.2744 33.3745 33.5085C32.8082 32.9428 32.3591 32.4942 31.7927 31.9286ZM19.9584 18.8606C20.017 18.9581 20.056 19.0751 20.1146 19.1727C20.4661 19.0556 20.7981 18.9386 21.1496 18.8216C21.052 18.646 20.9348 18.4705 20.8372 18.295C20.5442 18.49 20.2513 18.6656 19.9584 18.8606ZM15.1934 34.4252C14.6271 34.3081 14.0803 33.6645 13.3772 34.4252C14.0803 34.4252 14.6466 34.4252 15.1934 34.4252ZM30.621 30.5243C30.5234 30.5828 30.4257 30.6413 30.3281 30.7193C30.6015 31.1094 30.8553 31.4995 31.1287 31.8701C31.2264 31.8116 31.3045 31.7531 31.4022 31.6945C31.1483 31.3045 30.8749 30.9144 30.621 30.5243ZM8.26073 30.6218C7.40148 31.0509 7.34289 31.1679 7.5577 31.8701C7.85063 31.3825 8.06545 30.9924 8.26073 30.6218ZM22.1456 21.7278C22.1261 20.8501 21.9698 20.694 21.384 20.811C21.6183 21.0841 21.8527 21.3572 22.1456 21.7278Z" fill="#C5C5C5"/>
<path d="M50.091 29.5881C49.3294 29.5881 48.763 29.6271 48.1772 29.5686C47.9819 29.5491 47.7476 29.276 47.6499 29.081C46.7711 26.994 47.2984 27.111 44.6425 27.111C44.5058 27.111 44.3496 27.1305 44.2129 27.111C43.3927 26.9745 42.9045 27.3061 42.7287 28.1253C42.6896 28.2813 42.592 28.4373 42.5334 28.5934C42.0843 29.6856 41.7718 29.8417 40.522 29.4516C40.9125 28.4764 41.2836 27.5206 41.6742 26.5649C42.4358 24.6535 43.2169 22.7225 43.959 20.7916C44.1543 20.2845 44.4472 20.1479 44.9354 20.1479C46.4391 20.1479 46.4196 20.1479 46.9469 21.5523C47.8647 23.9513 48.8216 26.3504 49.7785 28.7494C49.8762 28.9445 49.9543 29.159 50.091 29.5881ZM45.0135 22.391C44.5449 23.5612 44.1738 24.5365 43.7442 25.6287C44.662 25.6287 45.4041 25.6287 46.2829 25.6287C45.8533 24.5365 45.4822 23.5612 45.0135 22.391Z" fill="#C5C5C5"/>
<path d="M78.0169 29.0224C77.2553 29.2564 76.5132 29.627 75.7711 29.6855C74.5604 29.7831 73.7402 29.0419 73.7011 27.8326C73.623 26.2527 73.662 24.6729 73.7011 23.093C73.7011 22.898 73.994 22.5664 74.1893 22.5274C74.6775 22.4494 75.2048 22.5079 75.7711 22.5079C75.7711 23.8732 75.7711 25.18 75.7711 26.4868C75.7711 26.7794 75.7516 27.0719 75.8102 27.3645C75.9274 27.9496 76.3375 28.1642 76.9038 27.9886C77.5678 27.7741 78.0755 27.1304 78.0755 26.4088C78.095 25.3555 78.095 24.3218 78.0755 23.2686C78.056 22.7029 78.3099 22.4689 78.8567 22.5079C79.0715 22.5274 79.3058 22.5274 79.5206 22.5079C80.1065 22.4494 80.2822 22.7419 80.2822 23.2881C80.2627 25.141 80.2627 26.9939 80.2822 28.8273C80.2822 29.3735 80.1455 29.6855 79.5402 29.5685C79.3644 29.549 79.2082 29.549 79.0324 29.5685C78.4856 29.588 77.8998 29.705 78.0169 29.0224Z" fill="#C5C5C5"/>
<path d="M92.1752 25.9797C92.1752 26.5063 92.1361 27.0525 92.1947 27.5791C92.2337 27.8521 92.4876 28.0667 92.6048 28.3398C92.7415 28.6323 92.9368 28.9639 92.9368 29.276C92.9368 29.432 92.5267 29.6661 92.2923 29.6856C91.6479 29.7636 90.9839 29.7831 90.4176 29.276C90.3004 29.1589 89.9684 29.237 89.7341 29.2955C89.2263 29.4125 88.7186 29.6856 88.2108 29.7051C87.0196 29.7636 86.2775 29.198 86.0236 28.1642C85.7893 27.2085 86.258 26.0967 87.2344 25.6676C87.8203 25.4141 88.5038 25.3556 89.1287 25.219C89.4997 25.141 90.027 25.2385 90.027 24.6144C90.027 23.9903 89.6169 23.7172 89.0896 23.7367C88.5233 23.7562 87.957 23.9513 87.3906 24.0293C87.1368 24.0683 86.8634 23.9903 86.59 23.9708C86.6876 23.5807 86.6486 22.9955 86.9024 22.8005C87.8007 22.0983 90.4566 22.1373 91.3159 22.8785C91.7065 23.2296 91.9603 23.8342 92.097 24.3608C92.2337 24.868 92.1166 25.4336 92.1166 25.9602C92.1556 25.9797 92.1556 25.9797 92.1752 25.9797ZM90.0661 26.9744C89.9684 26.8964 89.7731 26.5649 89.5193 26.5258C88.7967 26.4088 88.0937 26.8964 88.0741 27.4426C88.0546 27.9692 88.3866 28.2617 88.8748 28.2812C89.5193 28.3008 90.0465 27.8131 90.0661 26.9744Z" fill="#C5C5C5"/>
<path d="M103.443 26.5063C102.936 26.5063 102.428 26.5063 101.901 26.5063C101.354 26.5063 101.295 26.7989 101.471 27.228C101.803 27.9887 102.701 28.4373 103.678 28.2812C104.068 28.2227 104.439 28.0862 104.83 28.0472C105.064 28.0277 105.533 28.1447 105.533 28.2032C105.533 28.5933 105.572 29.1589 105.338 29.3345C103.717 30.6023 100.045 29.549 99.3618 27.5986C98.4049 24.8874 99.6938 22.1763 102.779 22.3324C104.127 22.3909 105.064 23.1906 105.377 24.4974C105.845 26.3893 105.767 26.4673 103.853 26.4673C103.736 26.5063 103.6 26.5063 103.443 26.5063ZM101.393 25.258C101.979 25.258 102.506 25.258 103.033 25.258C103.443 25.258 103.541 25.024 103.443 24.6729C103.287 24.1463 103.014 23.7172 102.389 23.7367C101.822 23.7757 101.412 24.3998 101.393 25.258Z" fill="#C5C5C5"/>
<path d="M69.9321 29.7832C68.4675 29.7637 67.1981 29.3736 66.5537 27.9108C65.9092 26.4285 65.9092 24.9461 66.9247 23.6198C67.8426 22.4105 69.2096 22.2545 70.6352 22.3715C70.8695 22.391 71.1234 22.4496 71.3577 22.4886C71.9826 22.6056 72.3537 23.3273 72.0022 23.8734C71.9241 23.9904 71.6897 24.0489 71.514 24.0294C71.182 24.0099 70.85 23.8929 70.4985 23.8539C69.7759 23.7759 69.151 23.8929 68.7604 24.6146C68.2527 25.5703 68.1941 26.526 68.7604 27.4622C69.1705 28.1644 69.8735 28.3399 70.6547 28.2814C70.85 28.2619 71.0453 28.2034 71.221 28.1839C71.553 28.1449 71.9826 27.8718 72.0412 28.4959C72.0803 28.9836 72.1389 29.5102 71.4163 29.5687C70.9476 29.6272 70.4399 29.7052 69.9321 29.7832Z" fill="#C5C5C5"/>
<path d="M59.4843 22.4496C59.7967 22.4691 60.0115 22.4886 60.2263 22.4886C60.7146 22.4691 60.9489 22.6641 60.9294 23.1712C60.9099 23.6588 60.695 23.9124 60.2068 23.8539C59.5038 23.7759 59.3085 24.0879 59.3476 24.7511C59.4061 25.6093 59.3476 26.448 59.4061 27.3062C59.4452 27.9498 59.7772 28.3204 60.4802 28.3399C60.6755 28.3399 61.027 28.5935 61.027 28.691C60.988 29.0031 60.9098 29.4907 60.695 29.6077C59.1132 30.4074 57.2971 29.2761 57.258 27.5012C57.2385 26.526 57.2775 25.5508 57.2385 24.5755C57.2189 24.322 57.0237 24.0294 56.8284 23.8539C56.4183 23.5223 56.3987 22.8396 56.8284 22.5081C57.0041 22.3715 57.1799 22.196 57.2385 22.001C57.3947 21.4548 58.7617 20.8892 59.2499 21.2208C59.3671 21.2988 59.4257 21.5133 59.4452 21.6694C59.4843 21.9034 59.4647 22.1375 59.4843 22.4496Z" fill="#C5C5C5"/>
<path d="M82.4304 29.5686C82.3913 29.2175 82.3328 28.925 82.3328 28.6519C82.3328 25.8043 82.3523 22.9566 82.3523 20.109C82.3523 19.6408 82.5476 19.4263 82.9967 19.4458C83.1139 19.4458 83.2311 19.4458 83.3678 19.4458C84.4809 19.4458 84.52 19.4653 84.52 20.5771C84.52 23.3077 84.5004 26.0383 84.5395 28.7494C84.5395 29.3736 84.3637 29.6466 83.6998 29.5686C83.2897 29.5296 82.8796 29.5686 82.4304 29.5686Z" fill="#C5C5C5"/>
<path d="M98.1315 28.34C98.3072 29.5297 98.1705 29.7053 96.9988 29.7248C95.1631 29.7443 94.4406 29.0616 94.4406 27.2477C94.4406 26.3505 94.4601 25.4338 94.421 24.5366C94.4015 24.3025 94.1867 24.088 94.0695 23.8539C93.9328 23.6004 93.7375 23.3468 93.718 23.0932C93.718 22.8982 93.9719 22.6836 94.1281 22.4886C94.2258 22.3521 94.382 22.2155 94.421 22.0595C94.5773 21.4354 95.788 20.9087 96.3153 21.2988C96.452 21.3964 96.5301 21.6304 96.5301 21.8059C96.4911 22.3911 96.784 22.6056 97.3308 22.5276C97.7995 22.4691 98.151 22.5276 98.1315 23.1518C98.1119 23.7174 97.8776 23.9709 97.3113 23.8929C96.6864 23.8149 96.5106 24.127 96.5301 24.7121C96.5692 25.3753 96.5301 26.0189 96.5301 26.6821C96.5497 28.0864 96.7059 28.2619 98.1315 28.34Z" fill="#C5C5C5"/>
<path d="M53.3523 23.2101C53.9381 22.9176 54.4849 22.586 55.0513 22.391C55.559 22.2154 55.93 22.4105 55.9691 23.0541C56.0082 24.0488 55.9691 24.1464 55.227 24.1268C53.9967 24.1268 53.3523 24.751 53.3523 25.9993C53.3523 26.955 53.3327 27.8912 53.3523 28.8469C53.3718 29.354 53.2156 29.5881 52.6492 29.5686C51.2432 29.5491 51.2432 29.5686 51.2432 28.1838C51.2432 26.5064 51.2627 24.829 51.2236 23.1516C51.2236 22.6445 51.3603 22.4105 51.8876 22.469C52.0634 22.4885 52.2196 22.469 52.3954 22.469C52.9422 22.469 53.4694 22.4885 53.3523 23.2101Z" fill="#C5C5C5"/>
<path d="M62.5114 26.0189C62.5114 25.1412 62.5504 24.2635 62.4918 23.3858C62.4528 22.6641 62.7457 22.4106 63.4292 22.4886C63.6245 22.5081 63.8588 22.4301 63.9955 22.5081C64.2299 22.6446 64.5619 22.8787 64.5619 23.0737C64.6009 25.0632 64.6009 27.0526 64.5619 29.0616C64.5619 29.2371 64.2299 29.5492 64.0541 29.5492C62.2184 29.5492 62.5114 29.8223 62.4918 28.1254C62.5114 27.4232 62.5114 26.7211 62.5114 26.0189Z" fill="#C5C5C5"/>
<path d="M42.3968 33.2941C42.2991 33.6452 42.2406 33.9963 42.0843 34.3279C42.0062 34.5034 41.7719 34.6984 41.5766 34.7374C41.4399 34.757 41.186 34.5229 41.147 34.3669C40.9126 33.6062 40.7173 32.826 40.5611 32.0458C40.522 31.8898 40.6783 31.6752 40.7564 31.4997C40.9517 31.6362 41.2446 31.7338 41.3227 31.9093C41.4985 32.2799 41.5375 32.6895 41.6938 33.3136C41.8305 32.7675 41.889 32.3969 42.0257 32.0848C42.1234 31.8508 42.3382 31.6752 42.514 31.4607C42.6897 31.6557 42.9241 31.8313 43.0217 32.0653C43.1584 32.3384 43.1779 32.67 43.3927 33.0015C43.5099 32.631 43.588 32.2409 43.7443 31.8898C43.8224 31.7338 44.0177 31.6167 44.1739 31.4802C44.252 31.6557 44.4082 31.8508 44.3692 32.0068C44.1739 32.8065 43.9786 33.6062 43.7052 34.3864C43.6466 34.5424 43.3537 34.6984 43.1584 34.7179C43.0217 34.7179 42.8264 34.4839 42.7678 34.3083C42.6507 33.9963 42.6116 33.6452 42.5335 33.3331C42.4749 33.3136 42.4358 33.3136 42.3968 33.2941Z" fill="#C5C5C5"/>
<path d="M55.5005 34.6982C54.2507 34.7372 53.6648 33.9571 54.153 32.8648C54.4264 32.2407 55.8716 31.8896 56.3988 32.3187C56.4379 32.3577 56.4574 32.3967 56.4965 32.4357C56.7308 32.8063 56.516 34.8738 56.2426 35.2053C55.9301 35.5564 54.8365 35.732 54.4655 35.4394C54.3679 35.3614 54.2702 35.1858 54.3093 35.0883C54.3288 35.0103 54.5241 34.9128 54.6413 34.9128C54.9342 34.8933 55.2466 34.9128 55.5396 34.9128C55.5005 34.8348 55.5005 34.7762 55.5005 34.6982ZM55.7739 33.4109C55.5786 33.1769 55.4419 33.0208 55.3052 32.8648C55.1881 33.0403 54.9732 33.2354 54.9537 33.4109C54.9537 33.5865 55.149 33.7815 55.2662 33.9571C55.4224 33.801 55.5591 33.645 55.7739 33.4109Z" fill="#C5C5C5"/>
<path d="M59.0741 32.2212C59.4842 32.4942 59.7576 32.6893 60.031 32.8648C60.4607 33.1379 60.7731 33.4695 60.6169 33.9961C60.4607 34.5227 60.0506 34.7958 59.5233 34.7958C59.2108 34.7958 58.8788 34.7763 58.5859 34.6787C58.4687 34.6397 58.4297 34.3862 58.3516 34.2301C58.4883 34.1716 58.625 34.1131 58.7812 34.0936C58.8398 34.0741 58.9179 34.1521 58.996 34.1521C59.2108 34.1131 59.4452 34.0546 59.66 33.9961C59.5428 33.8206 59.4452 33.606 59.2889 33.45C59.1132 33.2939 58.8007 33.2354 58.7031 33.0404C58.5273 32.7478 58.332 32.3577 58.4102 32.0847C58.4883 31.8116 58.8984 31.6361 59.1718 31.441C59.2304 31.402 59.3671 31.402 59.4647 31.4215C59.7967 31.5385 60.1091 31.6946 60.4216 31.8311C60.1287 31.9091 59.8553 31.9871 59.5623 32.0651C59.4842 32.0847 59.3866 32.1237 59.0741 32.2212Z" fill="#C5C5C5"/>
<path d="M66.4559 33.9767C66.5145 33.6841 66.5731 33.3915 66.6317 33.099C66.6903 32.7674 66.495 32.2603 67.0613 32.2603C67.6472 32.2603 67.4909 32.7869 67.53 33.138C67.53 33.216 67.53 33.2745 67.53 33.3525C67.53 34.7568 67.198 35.0494 65.8115 34.7373C65.5771 34.6788 65.2842 34.4058 65.2451 34.1912C65.1475 33.6646 65.167 33.138 65.2061 32.5919C65.2256 32.4553 65.499 32.2408 65.6357 32.2603C65.7724 32.2603 66.0067 32.4943 66.0263 32.6504C66.1044 33.06 66.0849 33.4891 66.1239 33.9182C66.2216 33.9377 66.3387 33.9572 66.4559 33.9767Z" fill="#C5C5C5"/>
<path d="M75.1461 32.9821C75.0875 33.3331 75.0094 33.6647 74.9704 34.0158C74.9313 34.3474 74.9899 34.796 74.4822 34.6985C74.3064 34.6594 74.1892 34.2694 74.0916 34.0158C74.0525 33.9183 74.0916 33.7817 74.0916 33.6452C74.0916 32.1239 74.1111 32.0849 75.6148 32.2214C75.8882 32.2409 76.2593 32.592 76.3374 32.865C76.4741 33.3136 76.435 33.8208 76.4155 34.3084C76.4155 34.4644 76.1226 34.718 76.0444 34.6985C75.8687 34.6594 75.6343 34.4644 75.5953 34.2889C75.5172 33.8793 75.5367 33.4502 75.5172 33.0211C75.3805 33.0016 75.2633 32.9821 75.1461 32.9821Z" fill="#C5C5C5"/>
<path d="M63.4096 33.5085C63.4096 34.2886 62.8237 34.8348 62.0426 34.7958C61.281 34.7763 60.7537 34.1911 60.7732 33.4109C60.7928 32.6893 61.3786 32.1627 62.1402 32.1822C62.8628 32.2017 63.4291 32.7868 63.4096 33.5085ZM61.5153 33.5085C61.7692 33.762 61.9254 33.9376 62.1012 34.1131C62.2379 33.8986 62.4722 33.684 62.4918 33.45C62.4918 33.2549 62.2574 33.0599 62.1207 32.8648C61.9254 33.0599 61.7692 33.2354 61.5153 33.5085Z" fill="#C5C5C5"/>
<path d="M73.6815 33.5279C73.6815 34.2691 73.1347 34.8152 72.3926 34.8152C71.631 34.8152 71.0452 34.2301 71.0647 33.4694C71.0842 32.7283 71.6505 32.1821 72.3731 32.1821C73.1542 32.1821 73.6815 32.7283 73.6815 33.5279ZM72.9394 33.5084C72.7051 33.2159 72.5489 33.0403 72.3926 32.8648C72.2364 33.0793 72.0021 33.2744 71.9825 33.4889C71.963 33.684 72.1973 33.8985 72.334 34.1131C72.5098 33.9375 72.6856 33.762 72.9394 33.5084Z" fill="#C5C5C5"/>
<path d="M52.4735 32.9624C52.3759 33.1965 52.2392 33.411 52.1806 33.6451C52.122 33.8791 52.2196 34.1522 52.122 34.3667C52.0439 34.5423 51.79 34.6203 51.6338 34.7568C51.5361 34.6203 51.3799 34.4837 51.3604 34.3472C51.3213 34.1327 51.3604 33.9181 51.3604 33.7036C51.3799 32.1237 51.3799 32.1042 52.8836 32.2407C53.118 32.2602 53.4695 32.5333 53.5085 32.7283C53.6062 33.294 53.6062 33.8791 53.5671 34.4642C53.5671 34.5813 53.2547 34.7178 53.0789 34.7568C53.0008 34.7763 52.8055 34.5228 52.786 34.3862C52.7469 33.9571 52.7664 33.5085 52.7664 33.0794C52.6883 33.0014 52.5907 32.9819 52.4735 32.9624Z" fill="#C5C5C5"/>
<path d="M77.9192 33.0405C78.0364 33.099 78.1926 33.138 78.2903 33.2356C78.5051 33.4891 78.8566 33.7622 78.8761 34.0353C78.8761 34.2693 78.5246 34.6594 78.2708 34.7179C77.8802 34.7959 77.431 34.6399 77.0209 34.5619C76.9819 34.5619 76.9233 34.3668 76.9623 34.3083C77.0209 34.2303 77.1381 34.1328 77.2357 34.1328C77.4506 34.1133 77.6849 34.1523 77.8997 34.1718C77.9192 34.1133 77.9388 34.0548 77.9583 33.9962C77.7435 33.8792 77.4701 33.7817 77.3139 33.6062C77.1381 33.4111 76.9038 33.0405 76.9819 32.904C77.1186 32.6114 77.431 32.3384 77.7435 32.2408C78.0169 32.1628 78.3684 32.3384 78.7004 32.3969C78.6418 32.5334 78.6223 32.748 78.5051 32.8065C78.3684 32.8845 78.1536 32.8455 77.9778 32.865C77.9388 32.9235 77.9388 32.982 77.9192 33.0405Z" fill="#C5C5C5"/>
<path d="M63.6048 21.7669C62.6284 21.6304 62.1402 20.8892 62.5503 20.07C62.6088 19.953 62.8041 19.875 62.9604 19.8555C63.1752 19.8165 63.39 19.8555 63.6243 19.8555C64.5812 19.8555 64.9327 20.3236 64.5617 21.2013C64.4445 21.4548 63.9368 21.5719 63.6048 21.7669Z" fill="#C5C5C5"/>
<path d="M69.0338 34.8155C68.858 34.7764 68.7213 34.7764 68.6628 34.7179C68.4675 34.5034 68.0964 34.2303 68.1355 34.0353C68.2722 33.3331 67.491 32.6309 68.1745 31.9873C68.5261 31.6752 68.819 31.8703 69.1119 32.1433C69.3853 32.4164 69.4048 32.5334 69.1705 32.904C68.9947 33.1771 69.1705 33.7232 69.2291 34.1328C69.2486 34.2888 69.4634 34.4839 69.4244 34.5814C69.3658 34.7179 69.1314 34.7569 69.0338 34.8155Z" fill="#C5C5C5"/>
<path d="M49.5637 32.5137C49.3489 32.7088 49.056 32.8648 49.0755 32.9818C49.0951 33.3914 49.1341 33.84 49.3294 34.1716C49.5833 34.5812 49.4075 34.7372 49.0755 34.7567C48.5287 34.7957 48.2163 34.5032 48.1577 33.957C48.1186 33.528 47.9819 33.0989 47.9819 32.6698C47.9819 32.4162 48.1382 32.1236 48.3139 31.9286C48.4116 31.8116 48.7435 31.8116 48.8998 31.8896C49.1536 32.0456 49.3294 32.2797 49.5637 32.5137Z" fill="#C5C5C5"/>
<path d="M44.7596 33.4696C44.7596 33.45 44.7596 33.4305 44.7596 33.3915C44.7401 32.1823 44.994 31.9482 46.1266 32.2018C46.2438 32.2213 46.3805 32.3773 46.3805 32.4748C46.4 32.5918 46.3024 32.8064 46.2243 32.8259C45.6189 32.9819 45.5798 33.4305 45.5408 33.9377C45.5212 34.2107 45.2869 34.6593 45.1307 34.6788C44.5643 34.7373 44.7987 34.2497 44.7792 33.9572C44.7596 33.8206 44.7792 33.6451 44.7596 33.4696Z" fill="#C5C5C5"/>
<path d="M64.6202 33.0598C64.6202 33.4694 64.6593 33.879 64.6007 34.2886C64.5812 34.4447 64.3859 34.5812 64.2492 34.7177C64.1125 34.5812 63.8586 34.4642 63.8391 34.3276C63.8001 33.4499 63.8001 32.5917 63.8391 31.714C63.8391 31.5775 64.093 31.441 64.2101 31.3044C64.3273 31.4605 64.5421 31.597 64.5617 31.753C64.6398 32.1821 64.6007 32.6112 64.6202 33.0598Z" fill="#C5C5C5"/>
<path d="M69.8735 33.4695C69.8735 33.1769 69.8149 32.8843 69.893 32.6113C69.9321 32.4552 70.1664 32.2797 70.3226 32.2602C70.4203 32.2407 70.6742 32.4747 70.6937 32.5918C70.7327 33.1769 70.7523 33.762 70.6937 34.3277C70.6742 34.4837 70.4398 34.6982 70.2836 34.7178C70.1469 34.7178 69.9125 34.5032 69.8735 34.3472C69.8149 34.0741 69.8539 33.762 69.8735 33.4695Z" fill="#C5C5C5"/>
<path d="M47.6108 33.5085C47.5913 33.8011 47.6304 34.0936 47.5327 34.3667C47.4741 34.5227 47.2398 34.6593 47.064 34.6788C46.9664 34.6788 46.732 34.4642 46.732 34.3277C46.693 33.8206 46.6735 33.3135 46.732 32.8064C46.7516 32.6113 46.9859 32.4358 47.1421 32.2407C47.2984 32.4163 47.5132 32.5723 47.5913 32.7868C47.6694 33.0014 47.6108 33.255 47.6108 33.5085Z" fill="#C5C5C5"/>
<path d="M49.9347 33.4305C49.9347 33.1574 49.8762 32.8843 49.9543 32.6308C49.9933 32.4748 50.2277 32.3577 50.3644 32.2212C50.4815 32.3577 50.6964 32.4943 50.7159 32.6503C50.7745 33.1769 50.794 33.723 50.7549 34.2497C50.7354 34.4252 50.5206 34.5812 50.3839 34.7373C50.2277 34.5617 49.9933 34.4252 49.9347 34.2107C49.8566 33.9766 49.9152 33.684 49.9347 33.4305Z" fill="#C5C5C5"/>
<path d="M37.0069 31.3239C36.6163 31.0704 36.4406 30.9533 36.2062 30.7973C36.1476 30.9729 36.089 31.1289 36.0305 31.2849C35.9719 31.2849 35.9133 31.2849 35.8547 31.2849C35.7766 30.7778 35.6985 30.2902 35.6008 29.7246C35.8352 29.7831 36.05 29.8221 36.2843 29.8806C36.3625 29.6856 36.4406 29.4905 36.5773 29.1589C36.753 29.393 36.9483 29.6075 36.9288 29.6465C36.5382 30.1342 36.7335 30.6413 37.0069 31.3239Z" fill="#C5C5C5"/>
<path d="M10.1356 35.147C10.1746 35.6736 10.2723 35.9467 10.1942 36.1807C10.0965 36.4343 9.90122 36.7268 9.66688 36.8244C9.53018 36.9024 9.10055 36.7073 9.04196 36.5513C8.98338 36.3563 9.10055 36.0442 9.25678 35.8491C9.45206 35.6151 9.74499 35.459 10.1356 35.147Z" fill="#C5C5C5"/>
<path d="M30.582 36.6291C30.9531 36.4731 31.1093 36.395 31.3241 36.317C31.246 35.9855 31.1679 35.6539 31.0312 35.1468C31.1679 35.1273 31.4608 35.0687 31.7342 34.9907C31.7733 35.2443 31.8123 35.4978 31.8709 35.7514C32.0272 36.395 31.8319 36.8046 31.1288 36.8437C31.0117 36.8437 30.875 36.7461 30.582 36.6291Z" fill="#C5C5C5"/>
<path d="M3.20273 31.0314C2.9098 31.1874 2.59734 31.3435 2.24582 31.519C2.10912 31.2069 1.9529 30.8363 1.8162 30.4657C1.79667 30.4072 1.97242 30.2317 2.0896 30.2122C2.38253 30.1342 2.71451 30.1147 3.08556 30.0562C3.10508 30.3292 3.14414 30.6998 3.20273 31.0314Z" fill="#C5C5C5"/>
<path d="M15.1935 3.13998C15.5254 2.59386 14.7052 2.14525 15.4278 1.83318C16.2089 1.50161 16.0722 2.51584 16.5995 2.61336C16.5995 2.69138 16.5995 2.7694 16.5995 2.82791C16.2285 2.92543 15.8379 3.00345 15.1935 3.13998Z" fill="#C5C5C5"/>
<path d="M7.26479 35.888C7.36244 36.8047 7.22574 36.9608 6.52271 36.7657C6.58129 36.4536 6.54223 36.083 6.69846 35.8685C6.91328 35.5954 7.30385 35.4199 7.61631 35.2249C7.65537 35.4004 7.77254 35.5954 7.71395 35.732C7.65537 35.81 7.40149 35.8295 7.26479 35.888Z" fill="#C5C5C5"/>
<path d="M22.0674 2.10648C21.7355 2.47706 21.423 2.84765 21.091 3.21823C21.0129 3.15972 20.9348 3.12071 20.8762 3.0622C20.9934 2.84765 21.1301 2.61359 21.2863 2.34053C21.0715 2.30152 20.8762 2.26251 20.7004 2.24301C20.6809 2.16499 20.6614 2.10648 20.6614 2.06747C21.091 1.96995 21.5011 1.87242 21.9307 1.7749C21.9698 1.89193 22.0089 2.00896 22.0674 2.10648Z" fill="#C5C5C5"/>
<path d="M14.0216 1.17012C13.6505 1.44318 13.299 1.69674 12.928 1.9698C12.8694 1.91129 12.8303 1.85277 12.7717 1.77475C12.9865 1.32615 13.3576 1.07259 13.8653 0.955566C13.9239 1.01408 13.963 1.0921 14.0216 1.17012Z" fill="#C5C5C5"/>
<path d="M50.9503 31.6361C50.6769 31.8311 50.5207 32.0261 50.4035 32.0066C50.2473 31.9871 50.1106 31.7921 49.9543 31.6751C50.091 31.558 50.1887 31.3825 50.3449 31.363C50.4816 31.324 50.6378 31.48 50.9503 31.6361Z" fill="#C5C5C5"/>
<path d="M70.8695 31.6363C70.5961 31.8313 70.4399 32.0264 70.3227 32.0069C70.1665 31.9874 70.0298 31.7923 69.8735 31.6948C70.0102 31.5778 70.1274 31.4022 70.2641 31.3827C70.4203 31.3437 70.5766 31.4802 70.8695 31.6363Z" fill="#C5C5C5"/>
<path d="M47.7672 31.6946C47.4547 31.8701 47.2985 32.0262 47.1618 32.0067C47.0251 31.9872 46.8884 31.8311 46.7517 31.7336C46.8689 31.6166 46.9665 31.3825 47.0837 31.3825C47.2399 31.363 47.4157 31.519 47.7672 31.6946Z" fill="#C5C5C5"/>
<path d="M22.419 33.9181C21.3645 33.0209 21.6965 31.207 23.0635 30.4463C24.0009 29.9002 24.8601 29.9587 25.485 30.6803C25.114 30.6413 24.8211 30.6023 24.5281 30.5828C22.9463 30.5243 21.9308 31.7531 22.3019 33.2939C22.3409 33.489 22.3605 33.7035 22.419 33.9181C22.3995 33.9181 22.419 33.9181 22.419 33.9181Z" fill="#C5C5C5"/>
<path d="M24.4694 33.255C24.2546 32.9039 24.0788 32.7284 24.0398 32.5334C24.0202 32.4358 24.3132 32.1628 24.3717 32.2018C24.5475 32.2603 24.7428 32.4358 24.7818 32.5919C24.8209 32.7284 24.6451 32.9039 24.4694 33.255Z" fill="#C5C5C5"/>
<path d="M4.68701 4.66138C5.4291 5.05147 5.91731 5.65611 6.2493 6.41678C5.64391 5.90966 4.94088 5.50007 4.68701 4.66138Z" fill="#C5C5C5"/>
</svg>
