<svg width="98" height="55" viewBox="0 0 98 55" fill="none" xmlns="http://www.w3.org/2000/svg">
<g clip-path="url(#clip0)">
<path d="M46.3588 0C46.4771 0.0233051 46.5874 0.0543785 46.7057 0.0621469C48.8344 0.233051 50.9789 0.302966 53.0998 0.574859C57.7199 1.16525 62.1508 2.37712 66.1007 4.92514C70.4685 7.73729 73.157 11.7069 74.4106 16.6631C75.199 19.7627 75.4119 22.9167 75.2148 26.1017C75.1202 27.6476 74.9388 29.1935 74.7969 30.7394C74.7812 30.8948 74.7417 31.0424 74.7023 31.2288C73.6695 31.3531 72.6446 31.524 71.6117 31.5862C69.8536 31.7027 68.0954 31.8192 66.3372 31.8114C63.5857 31.7959 60.8656 31.4386 58.2639 30.4753C54.4006 29.0537 51.7358 26.3891 49.9697 22.7768C48.7319 20.2444 47.9672 17.5565 47.3207 14.8376C46.4692 11.2641 45.665 7.68291 44.782 4.11723C44.4351 2.72669 43.9463 1.375 43.5205 0C44.4666 0 45.4127 0 46.3588 0ZM72.2504 29.0847C72.2819 28.9915 72.3055 28.9682 72.2977 28.9449C72.2661 28.8206 72.2346 28.6963 72.1952 28.572C71.7142 27.0339 71.0362 25.5812 70.2162 24.1907C67.441 19.4675 63.7907 15.5056 59.4307 12.173C57.3178 10.5572 55.055 9.1822 52.5242 8.2733C52.2956 8.19562 52.0669 8.12571 51.8304 8.05579C51.8698 8.23446 51.9565 8.34322 52.0433 8.45975C54.9841 12.1419 58.1062 15.6766 61.3623 19.0869C64.2401 22.101 67.1808 25.0607 70.4212 27.7097C71.0047 28.1914 71.6275 28.6186 72.2504 29.0847Z" fill="#C5C5C5"/>
<path d="M0 46.144C0.055189 45.6623 0.110378 45.1729 0.173451 44.6913C0.772647 40.3643 3.5321 37.2259 7.79742 36.2004C11.4162 35.3304 14.9799 35.5712 18.3858 37.1482C18.8037 37.3424 19.1979 37.5677 19.5763 37.824C19.7025 37.9095 19.8208 38.1037 19.8208 38.2513C19.8365 43.324 19.8286 48.3968 19.8286 53.4695C19.8286 54.0832 19.5527 54.3473 18.9377 54.3629C18.1335 54.3784 17.3372 54.3629 16.5331 54.3707C16.1073 54.3784 15.8787 54.1687 15.792 53.7725C15.6816 53.2675 15.5791 52.7704 15.4529 52.2033C15.3268 52.312 15.2479 52.3664 15.1849 52.4363C13.8682 53.889 12.1889 54.6037 10.2573 54.829C9.72904 54.8911 9.19292 54.9533 8.66468 55.0077C8.37297 55.0077 8.08914 55.0077 7.79742 55.0077C7.30861 54.9377 6.81191 54.8911 6.33097 54.7979C2.81464 54.1143 0.583427 51.7139 0.165567 48.1793C0.126146 47.752 0.0630732 47.3403 0 46.9208C0 46.6644 0 46.4003 0 46.144ZM15.2479 43.7513C15.2637 43.7513 15.2874 43.7513 15.3031 43.7513C15.3031 42.6404 15.2795 41.5218 15.3189 40.4109C15.3347 39.9526 15.1691 39.7351 14.7512 39.5875C13.4425 39.1291 12.1101 38.966 10.7303 39.1136C8.09702 39.3855 6.25213 40.7061 5.31392 43.1531C4.66742 44.8544 4.62011 46.6178 5.05374 48.3735C5.44795 49.9738 6.48865 50.9836 8.12067 51.3643C8.49911 51.4575 8.89332 51.5041 9.27964 51.5507C11.1403 51.7449 12.796 51.2944 14.1599 49.9971C14.8143 49.3756 15.2243 48.6065 15.2479 47.6976C15.2716 46.3925 15.2479 45.0719 15.2479 43.7513Z" fill="#C5C5C5"/>
<path d="M77.8167 55C77.2806 54.9145 76.7365 54.8524 76.2004 54.7436C72.9995 54.1222 70.7761 51.8227 70.2715 48.6377C69.9325 46.4858 69.9877 44.3573 70.784 42.2987C72.0218 39.1059 74.3634 37.0628 77.6984 36.2316C81.5932 35.2683 85.3933 35.5713 89.0043 37.4357C89.635 37.762 89.8794 38.1349 89.8715 38.8651C89.8321 43.6038 89.8479 48.3425 89.8479 53.0734C89.8479 53.2443 89.8558 53.4075 89.84 53.5784C89.8085 54.0755 89.5483 54.3397 89.0358 54.3474C88.2238 54.363 87.4038 54.363 86.5917 54.3552C86.0872 54.3474 85.9137 54.2076 85.8033 53.7182C85.6929 53.2288 85.5904 52.7394 85.4722 52.1723C85.3303 52.3044 85.2514 52.3743 85.1726 52.452C83.8717 53.8736 82.2081 54.5805 80.3081 54.8058C79.7641 54.8679 79.2201 54.9301 78.6761 54.9922C78.3922 55 78.1084 55 77.8167 55ZM85.3224 43.7747C85.3224 42.6638 85.2987 41.5452 85.3382 40.4343C85.3539 39.9604 85.1805 39.7351 84.7547 39.5875C83.4381 39.1214 82.0899 38.9738 80.6944 39.1214C78.3134 39.3778 76.5316 40.5197 75.5382 42.6716C74.6551 44.5748 74.5921 46.5791 75.1361 48.5833C75.4751 49.834 76.2714 50.7351 77.525 51.1779C78.9441 51.6829 80.4027 51.7916 81.8455 51.3488C83.8165 50.7429 85.4564 49.4223 85.3382 46.7655C85.2909 45.7712 85.3224 44.769 85.3224 43.7747Z" fill="#C5C5C5"/>
<path d="M92.0317 21.8213C90.7308 21.7436 89.5718 21.9378 88.4286 22.2408C84.8098 23.2119 81.5773 24.8898 78.7626 27.3369C78.6838 27.4068 78.6049 27.4611 78.4709 27.5699C78.4709 27.3446 78.463 27.166 78.4709 26.995C78.6286 24.9675 78.5892 22.9322 78.4551 20.9046C78.4394 20.6949 78.5103 20.4385 78.6365 20.2754C81.0175 16.9816 83.1699 13.5558 85.1015 9.9901C85.1646 9.88134 85.2198 9.76482 85.2276 9.61722C81.9636 11.4428 79.8191 14.286 77.9584 17.4555C77.785 16.7796 77.6273 16.1504 77.4539 15.5212C77.0281 13.9908 76.4447 12.5304 75.6799 11.1398C75.5459 10.899 75.5932 10.7514 75.743 10.565C77.0439 8.91807 78.7074 7.72174 80.5839 6.78953C83.2014 5.49999 86.0003 4.7853 88.8622 4.28812C88.9095 4.28035 88.9647 4.28812 89.0436 4.28812C88.9647 4.97174 88.8701 5.63205 88.8228 6.29236C88.7361 7.51976 88.673 8.74716 88.5942 9.97456C88.468 11.9089 88.3419 13.8432 88.2 15.7775C88.1684 16.197 88.0581 16.6165 87.9713 17.0904C91.4246 17.0748 94.6886 17.8672 97.929 19.0169C97.5033 19.5918 97.0854 20.1045 96.7306 20.6561C95.5007 22.5515 94.2944 24.4626 93.0645 26.358C92.1657 27.7486 91.2117 29.0847 90.0054 30.2422C87.9792 32.1843 85.5667 32.9534 82.7678 32.6349C81.2461 32.464 79.7955 32.0212 78.3684 31.5007C78.0925 31.3997 78.0136 31.2599 78.0531 30.988C78.1477 30.3898 78.195 29.7839 78.2975 29.178C78.3132 29.0614 78.4551 28.9294 78.5734 28.875C83.1856 27.0028 87.5298 24.6257 91.7399 22.0078C91.8188 21.9845 91.874 21.9301 92.0317 21.8213Z" fill="#C5C5C5"/>
<path d="M60.8498 48.925C60.9523 48.7153 61.0233 48.5987 61.0785 48.4667C62.7026 44.7379 64.3346 41.0168 65.943 37.2802C66.2426 36.5888 66.6447 36.2315 67.4567 36.2859C68.3713 36.348 69.2937 36.3014 70.2162 36.3014C70.9337 36.3014 71.1702 36.651 70.8706 37.3035C70.1847 38.7718 69.483 40.2322 68.7813 41.6927C66.9522 45.5147 65.123 49.3367 63.2939 53.1665C63.2308 53.2986 63.1678 53.4229 63.1047 53.555C62.8366 54.1298 62.4188 54.4328 61.7407 54.3784C61.1258 54.3318 60.5029 54.3473 59.888 54.3784C59.3124 54.4095 58.934 54.1609 58.6974 53.6715C58.2875 52.8325 57.8775 51.9935 57.4754 51.1545C55.323 46.6256 53.1785 42.1044 51.0025 37.5987C50.5847 36.7287 50.6241 36.216 51.854 36.2859C52.7055 36.3325 53.5649 36.3247 54.4164 36.2859C55.0707 36.2548 55.4334 36.5422 55.6778 37.1093C56.5214 39.0747 57.3808 41.0324 58.2402 42.99C59.0444 44.8389 59.8564 46.6955 60.6606 48.5444C60.7 48.6453 60.7473 48.7308 60.8498 48.925Z" fill="#C5C5C5"/>
<path d="M30.5432 48.9098C30.6457 48.7156 30.7087 48.5991 30.7639 48.467C32.3802 44.7537 34.0043 41.0327 35.6206 37.3194C35.6994 37.1407 35.7861 36.9698 35.8808 36.7989C36.07 36.4649 36.3538 36.3018 36.748 36.3018C37.8281 36.3018 38.9004 36.3018 39.9805 36.3018C40.5561 36.3018 40.8241 36.6669 40.5955 37.2029C40.3432 37.801 40.0515 38.3759 39.7676 38.9585C37.5128 43.6817 35.2579 48.4049 32.9952 53.128C32.9478 53.2213 32.9005 53.3145 32.8611 53.4077C32.5773 54.0991 32.0964 54.4409 31.3079 54.371C30.7639 54.3166 30.2042 54.3321 29.6523 54.371C29.0058 54.4176 28.6037 54.1301 28.3435 53.5864C27.9414 52.7551 27.5472 51.9317 27.1451 51.1005C24.977 46.5638 22.8088 42.027 20.6486 37.4903C20.5855 37.3583 20.5145 37.234 20.4751 37.1019C20.3332 36.6203 20.5697 36.3095 21.0743 36.3095C22.115 36.3018 23.1478 36.3251 24.1886 36.3018C24.7562 36.2862 25.1031 36.5193 25.316 37.0242C25.9231 38.4381 26.5538 39.8441 27.1688 41.258C28.2252 43.6817 29.2738 46.1054 30.3303 48.5214C30.3776 48.6301 30.4486 48.7389 30.5432 48.9098Z" fill="#C5C5C5"/>
<path d="M43.3155 45.3206C43.3155 42.7959 43.3155 40.2712 43.3155 37.7465C43.3155 36.6744 43.694 36.3093 44.782 36.3015C45.4758 36.3015 46.1775 36.2938 46.8713 36.3015C47.6912 36.3093 48.1012 36.7133 48.1406 37.5212C48.1485 37.6144 48.1406 37.6999 48.1406 37.7931C48.1406 42.827 48.1406 47.8686 48.1406 52.9025C48.1406 53.1045 48.1248 53.3143 48.0775 53.5162C47.9514 54.06 47.6124 54.3397 47.0447 54.3475C46.2169 54.363 45.389 54.363 44.5612 54.3552C43.7255 54.3397 43.3155 53.928 43.3155 53.089C43.3076 51.3411 43.3155 49.5932 43.3155 47.8453C43.3155 47.0064 43.3155 46.1596 43.3155 45.3206Z" fill="#C5C5C5"/>
<path d="M45.7122 28.6731C46.1143 28.6964 46.5322 28.6809 46.9264 28.743C47.7936 28.8906 48.2824 29.3645 48.4165 30.2112C48.4874 30.6385 48.4874 31.0968 48.4165 31.5241C48.2588 32.4641 47.6754 32.9612 46.611 33.0311C45.933 33.0778 45.247 33.0545 44.569 32.9923C43.686 32.9146 43.1656 32.4174 43.0395 31.5396C42.9764 31.0968 42.9764 30.6307 43.0395 30.1879C43.1814 29.248 43.8437 28.7197 44.8055 28.6886C45.1051 28.6809 45.4126 28.6886 45.7122 28.6886C45.7043 28.6886 45.7043 28.6809 45.7122 28.6731Z" fill="#C5C5C5"/>
</g>
<defs>
<clipPath id="clip0">
<rect width="98" height="55" fill="white"/>
</clipPath>
</defs>
</svg>
