<svg width="68" height="18" viewBox="0 0 68 18" fill="none" xmlns="http://www.w3.org/2000/svg">
<path d="M11.2727 0C10.8839 0 10.4952 0.0299037 10.1064 0.0897111C8.52154 0.299037 6.93665 0.956918 5.68069 1.94374C4.27522 3.08008 3.3482 4.51546 3.04917 6.10035C2.95946 6.57881 2.92955 7.11708 2.86975 7.62544C2.80994 8.43284 2.75013 9.24024 2.481 9.77851C2.30158 10.1374 2.06235 10.3766 1.34466 10.3766C0.95591 10.3766 0.597066 10.5859 0.447548 10.9447C0.268125 11.2737 0.327933 11.6923 0.537259 11.9914C2.89965 15.1313 6.87684 15.4901 9.65788 15.4901C9.71769 15.4901 9.8074 15.4901 9.86721 15.4901C9.92702 15.4901 9.95692 15.4901 10.0167 15.4901C10.1064 15.4901 10.1662 15.4901 10.256 15.4901C10.3457 15.4901 10.4354 15.4901 10.5251 15.4901C11.8109 15.4901 13.1865 15.4303 14.4425 14.9518C15.4891 14.5631 16.4759 13.9351 17.3132 13.1277C18.2103 12.2605 18.8682 11.2438 19.2271 10.1673C19.6158 8.97111 19.7354 7.74505 19.5261 6.57881C19.3467 5.47237 18.8981 4.42575 18.2103 3.49873C17.4328 2.4521 16.3862 1.55499 15.1901 0.927014C13.9939 0.328941 12.6183 0 11.2727 0ZM11.2727 1.01673C15.818 1.01673 19.8849 5.08363 18.33 9.86822C17.702 11.7821 15.9377 13.337 14.1434 14.0248C12.9772 14.4734 11.6016 14.5033 10.5849 14.5033C10.4055 14.5033 10.2261 14.5033 10.0765 14.5033C10.0167 14.5033 9.95692 14.5033 9.92702 14.5033C9.86721 14.5033 9.8074 14.5033 9.71769 14.5033C7.08616 14.5033 3.49772 14.1743 1.40447 11.4232C4.27522 11.4232 3.70705 8.22351 4.06589 6.30968C4.63406 3.40902 7.50482 1.46528 10.256 1.10644C10.5849 1.04663 10.9138 1.01673 11.2727 1.01673Z" fill="white"/>
<path d="M8.37204 15.2209C8.46175 16.3274 7.62445 17.3142 6.51801 17.4338C5.41158 17.5235 4.42476 16.7161 4.30514 15.5798C4.21543 14.4733 5.02283 13.4865 6.15917 13.3669C7.26561 13.2473 8.25243 14.0846 8.37204 15.2209Z" fill="white"/>
<path d="M6.93688 15.3705C6.93688 15.7293 6.66774 16.0283 6.36871 16.0283C6.06967 16.0283 5.80054 15.7293 5.80054 15.3705C5.80054 15.0116 6.06967 14.7126 6.36871 14.7126C6.66774 14.7126 6.93688 15.0116 6.93688 15.3705Z" fill="black"/>
<path d="M15.3398 15.2209C15.4295 16.3274 14.5922 17.3142 13.4858 17.4338C12.3794 17.5235 11.3925 16.7161 11.2729 15.5798C11.1832 14.4733 11.9906 13.4865 13.1269 13.3669C14.2633 13.2473 15.2501 14.0846 15.3398 15.2209Z" fill="white"/>
<path d="M13.9042 15.3705C13.9042 15.7293 13.635 16.0283 13.336 16.0283C13.037 16.0283 12.7678 15.7293 12.7678 15.3705C12.7678 15.0116 13.037 14.7126 13.336 14.7126C13.635 14.7126 13.9042 15.0116 13.9042 15.3705Z" fill="black"/>
<path d="M9.56837 6.07051C9.56837 6.60878 9.11981 7.05734 8.58155 7.05734C8.04328 7.05734 7.59473 6.60878 7.59473 6.07051C7.59473 5.53225 8.04328 5.1136 8.58155 5.1136C9.11981 5.08369 9.56837 5.53225 9.56837 6.07051Z" fill="white"/>
<path d="M14.2031 5.92093C14.2031 6.4592 13.7546 6.90776 13.2163 6.90776C12.678 6.90776 12.2295 6.4592 12.2295 5.92093C12.2295 5.38267 12.678 4.93411 13.2163 4.93411C13.7546 4.93411 14.2031 5.38267 14.2031 5.92093Z" fill="white"/>
<path d="M10.9137 11.2736C10.0764 11.2736 9.26899 11.0045 8.64102 10.4961C7.98314 9.98778 7.56448 9.3 7.47477 8.58231C7.44487 8.31318 7.65419 8.04404 7.92333 8.01414C8.19246 7.98424 8.46159 8.19356 8.4915 8.4627C8.61111 9.53923 9.89697 10.2569 11.0034 10.227C12.379 10.1971 13.306 9.35981 13.4854 8.55241C13.5452 8.28327 13.8144 8.10385 14.0835 8.16366C14.3526 8.22347 14.532 8.4926 14.4722 8.76173C14.3227 9.41961 13.9041 10.0177 13.306 10.4662C12.678 10.9148 11.9005 11.1839 11.0333 11.2138C10.9735 11.2736 10.9436 11.2736 10.9137 11.2736Z" fill="white"/>
<path d="M24.2807 12.081L21.6192 4.36583C21.5594 4.1864 21.4697 3.88737 21.4697 3.61823C21.4697 2.90055 22.0379 2.21276 22.9649 2.21276C23.7424 2.21276 24.2508 2.69122 24.4601 3.40891L26.1347 8.94109L27.8392 3.40891C28.0485 2.66132 28.6466 2.15295 29.4241 2.15295H29.6035C30.4109 2.15295 30.9791 2.66132 31.1884 3.40891L32.9527 8.97099L34.6572 3.37901C34.8666 2.72112 35.345 2.18286 36.1524 2.18286C37.0196 2.18286 37.5878 2.84074 37.5878 3.61823C37.5878 3.82756 37.528 4.09669 37.4981 4.24621L34.747 12.081C34.418 13.0379 33.79 13.4565 33.0425 13.4565H32.9527C32.2051 13.4565 31.5772 13.0379 31.2781 12.1408L29.5437 6.63851L27.7794 12.1408C27.4804 13.0379 26.8524 13.4565 26.1048 13.4565H26.0151C25.2376 13.4565 24.6096 13.0379 24.2807 12.081Z" fill="white"/>
<path d="M44.4059 9.38959V8.85133C43.8676 8.6121 43.1798 8.43267 42.4323 8.43267C41.1165 8.43267 40.2792 8.97094 40.2792 9.92786V9.95776C40.2792 10.7951 40.967 11.2735 41.9837 11.2735C43.4191 11.3034 44.4059 10.5259 44.4059 9.38959ZM37.2888 10.1073V10.0774C37.2888 7.68508 39.1129 6.57865 41.6847 6.57865C42.7911 6.57865 43.5686 6.75807 44.3461 7.0272V6.84778C44.3461 5.56192 43.5387 4.84423 42.0136 4.84423C41.1464 4.84423 40.4586 4.96385 39.8605 5.14327C39.6811 5.20308 39.5615 5.23298 39.412 5.23298C38.6943 5.23298 38.1261 4.69471 38.1261 3.97702C38.1261 3.43876 38.485 2.9603 38.9634 2.78088C39.9502 2.42203 40.9969 2.21271 42.4622 2.21271C44.1667 2.21271 45.3628 2.66126 46.1403 3.43876C46.9477 4.24616 47.3365 5.47221 47.3365 6.93749V11.9015C47.3365 12.7388 46.6786 13.3967 45.8413 13.3967C44.9442 13.3967 44.3461 12.7687 44.3461 12.1108V12.0809C43.5985 12.9182 42.5519 13.4565 41.0567 13.4565C38.9634 13.4565 37.2888 12.2603 37.2888 10.1073Z" fill="white"/>
<path d="M47.8152 12.0213V11.9614C47.8152 11.3634 48.0245 10.9746 48.503 10.4663L53.5866 4.87427H49.2506C48.5628 4.87427 47.9946 4.33601 47.9946 3.61832C47.9946 2.93054 48.5628 2.36237 49.2506 2.36237H56.0387C56.9059 2.36237 57.5339 2.87073 57.5339 3.61832V3.67813C57.5339 4.2762 57.3246 4.66495 56.8461 5.17331L51.7625 10.7653H56.2779C56.9657 10.7653 57.5339 11.3335 57.5339 12.0213C57.5339 12.709 56.9657 13.2772 56.2779 13.2772H49.3104C48.4432 13.2473 47.8152 12.7389 47.8152 12.0213Z" fill="white"/>
<path d="M65.0097 6.93766C64.8303 5.56209 64.0229 4.60517 62.7071 4.60517C61.4213 4.60517 60.584 5.53219 60.3447 6.93766H65.0097ZM63.0361 13.4866C59.7467 13.4866 57.3245 11.184 57.3245 7.83477V7.80487C57.3245 4.69489 59.5373 2.12317 62.737 2.12317C66.3853 2.12317 68.0001 5.11354 68.0001 7.38622C68.0001 8.28333 67.3721 8.8814 66.5647 8.8814H60.4344C60.7335 10.2869 61.7203 11.0345 63.0959 11.0345C63.9631 11.0345 64.6509 10.7653 65.3087 10.2869C65.548 10.1374 65.7274 10.0476 66.0563 10.0476C66.7441 10.0476 67.2525 10.5859 67.2525 11.2737C67.2525 11.6923 67.0731 11.9914 66.8338 12.2007C65.847 12.9782 64.621 13.4866 63.0361 13.4866Z" fill="white"/>
</svg>
