<svg width="68" height="64" viewBox="0 0 68 64" fill="none" xmlns="http://www.w3.org/2000/svg">
<g clip-path="url(#clip0)">
<path d="M54.6 2H65.1V12.5H67.1V0H54.6V2Z" fill="#F1CC46"/>
<path d="M2 12.6V2H12.1V0H0V12.6H2Z" fill="#F1CC46"/>
<path d="M12.1 61.9H2V51.3H0V63.9H12.1V61.9Z" fill="#F1CC46"/>
<path d="M65.1 51.1V61.9H54.6V63.9H67.1V51.1H65.1Z" fill="#F1CC46"/>
<path d="M47.5825 17.0078H44.324V16.0508C44.324 14.92 43.4041 14 42.2733 14C41.1425 14 40.2225 14.92 40.2225 16.0508V17.0078H28.7381V16.0508C28.7381 14.92 27.8181 14 26.6873 14C25.5565 14 24.6365 14.92 24.6365 16.0508V17.0331C24.5784 17.017 24.5175 17.0078 24.4543 17.0078H21.7306C19.8459 17.0078 18.3126 18.5411 18.3126 20.4258V32.0696C18.3126 32.4472 18.6187 32.7532 18.9962 32.7532C19.3737 32.7532 19.6798 32.4472 19.6798 32.0696V24.0488H44.324C44.7015 24.0488 45.0076 23.7428 45.0076 23.3652C45.0076 22.9877 44.7015 22.6816 44.324 22.6816H19.6798V20.4258C19.6798 19.295 20.5998 18.375 21.7306 18.375H24.4543C24.5175 18.375 24.5784 18.3657 24.6365 18.3497V19.2295C24.6365 20.3603 25.5565 21.2803 26.6873 21.2803C27.8181 21.2803 28.7381 20.3603 28.7381 19.2295V18.375H40.2225V19.2295C40.2225 20.3603 41.1425 21.2803 42.2733 21.2803C43.4041 21.2803 44.324 20.3603 44.324 19.2295V18.375H47.5825C48.7133 18.375 49.6333 19.295 49.6333 20.4258V46.4019C49.6333 47.0806 49.0812 47.6328 48.4024 47.6328C47.7237 47.6328 47.1715 47.0806 47.1715 46.4019V44.6335C47.1715 44.256 46.8654 43.95 46.4879 43.95H38.5363C38.1588 43.95 37.8527 44.256 37.8527 44.6335C37.8527 45.0111 38.1588 45.3171 38.5363 45.3171H45.8044V46.4019C45.8044 46.847 45.917 47.2662 46.115 47.6328H18.5981C17.9197 47.6328 17.3677 47.0808 17.3677 46.4023V45.3171H32.6682C33.0457 45.3171 33.3518 45.0111 33.3518 44.6335C33.3518 44.256 33.0457 43.95 32.6682 43.95H25.838C27.0325 42.9212 27.791 41.3995 27.791 39.7031C27.791 36.6123 25.2764 34.0977 22.1856 34.0977C19.0947 34.0977 16.5801 36.6123 16.5801 39.7031C16.5801 41.3995 17.3386 42.9212 18.5331 43.95H16.6841C16.3066 43.95 16.0005 44.256 16.0005 44.6335V46.4023C16.0005 47.8347 17.1658 49 18.5981 49H48.4024C49.835 49 51.0005 47.8345 51.0005 46.4019V20.4258C51.0005 18.5411 49.4672 17.0078 47.5825 17.0078ZM27.3709 19.2295C27.3709 19.6064 27.0642 19.9131 26.6873 19.9131C26.3104 19.9131 26.0037 19.6064 26.0037 19.2295V16.0508C26.0037 15.6738 26.3104 15.3672 26.6873 15.3672C27.0642 15.3672 27.3709 15.6738 27.3709 16.0508V19.2295ZM42.9568 19.2295C42.9568 19.6064 42.6502 19.9131 42.2733 19.9131C41.8963 19.9131 41.5897 19.6064 41.5897 19.2295V16.0508C41.5897 15.6738 41.8963 15.3672 42.2733 15.3672C42.6502 15.3672 42.9568 15.6738 42.9568 16.0508V19.2295ZM17.9473 39.7031C17.9473 37.3661 19.8486 35.4648 22.1856 35.4648C24.5226 35.4648 26.4239 37.3661 26.4239 39.7031C26.4239 42.0401 24.5226 43.9414 22.1856 43.9414C19.8486 43.9414 17.9473 42.0401 17.9473 39.7031Z" fill="white"/>
<path d="M48.0137 22.8819C47.8867 22.7548 47.7103 22.6816 47.5305 22.6816C47.3507 22.6816 47.1744 22.7548 47.0472 22.8819C46.9201 23.0091 46.8469 23.1854 46.8469 23.3652C46.8469 23.545 46.92 23.7214 47.0472 23.8485C47.1744 23.9757 47.3507 24.0488 47.5305 24.0488C47.7103 24.0488 47.8867 23.9757 48.0137 23.8485C48.1409 23.7214 48.2141 23.545 48.2141 23.3652C48.2141 23.1854 48.141 23.0091 48.0137 22.8819Z" fill="white"/>
<path d="M36.416 44.1499C36.2889 44.0228 36.1125 43.9503 35.9327 43.9503C35.753 43.9503 35.5766 44.0228 35.4494 44.1499C35.3223 44.2778 35.2491 44.4534 35.2491 44.6332C35.2491 44.8137 35.3222 44.9894 35.4494 45.1172C35.5766 45.2444 35.753 45.3168 35.9327 45.3168C36.1125 45.3168 36.2889 45.2444 36.416 45.1172C36.5431 44.9894 36.6163 44.813 36.6163 44.6332C36.6163 44.4534 36.5432 44.2778 36.416 44.1499Z" fill="white"/>
<path d="M31.4664 34.7812C30.0341 34.7812 28.8688 35.9466 28.8688 37.3789C28.8688 38.8112 30.0341 39.9766 31.4664 39.9766C32.8988 39.9766 34.0641 38.8112 34.0641 37.3789C34.0641 35.9466 32.8988 34.7812 31.4664 34.7812ZM31.4664 38.6094C30.788 38.6094 30.236 38.0574 30.236 37.3789C30.236 36.7004 30.788 36.1484 31.4664 36.1484C32.1449 36.1484 32.6969 36.7004 32.6969 37.3789C32.6969 38.0574 32.1449 38.6094 31.4664 38.6094Z" fill="white"/>
<path d="M37.8467 34.7812C36.4143 34.7812 35.249 35.9466 35.249 37.3789C35.249 38.8112 36.4143 39.9766 37.8467 39.9766C39.279 39.9766 40.4443 38.8112 40.4443 37.3789C40.4443 35.9466 39.279 34.7812 37.8467 34.7812ZM37.8467 38.6094C37.1682 38.6094 36.6162 38.0574 36.6162 37.3789C36.6162 36.7004 37.1682 36.1484 37.8467 36.1484C38.5251 36.1484 39.0772 36.7004 39.0772 37.3789C39.0772 38.0574 38.5251 38.6094 37.8467 38.6094Z" fill="white"/>
<path d="M44.2269 34.7812C42.7946 34.7812 41.6293 35.9466 41.6293 37.3789C41.6293 38.8112 42.7946 39.9766 44.2269 39.9766C45.6593 39.9766 46.8246 38.8112 46.8246 37.3789C46.8246 35.9466 45.6593 34.7812 44.2269 34.7812ZM44.2269 38.6094C43.5485 38.6094 42.9965 38.0574 42.9965 37.3789C42.9965 36.7004 43.5485 36.1484 44.2269 36.1484C44.9054 36.1484 45.4574 36.7004 45.4574 37.3789C45.4574 38.0574 44.9054 38.6094 44.2269 38.6094Z" fill="white"/>
<path d="M25.0863 27.6719C23.654 27.6719 22.4886 28.8372 22.4886 30.2695C22.4886 31.7019 23.654 32.8672 25.0863 32.8672C26.5186 32.8672 27.684 31.7019 27.684 30.2695C27.684 28.8372 26.5186 27.6719 25.0863 27.6719ZM25.0863 31.5C24.4078 31.5 23.8558 30.948 23.8558 30.2695C23.8558 29.5911 24.4078 29.0391 25.0863 29.0391C25.7648 29.0391 26.3168 29.5911 26.3168 30.2695C26.3168 30.948 25.7648 31.5 25.0863 31.5Z" fill="white"/>
<path d="M37.8467 27.6719C36.4143 27.6719 35.249 28.8372 35.249 30.2695C35.249 31.7019 36.4143 32.8672 37.8467 32.8672C39.279 32.8672 40.4443 31.7019 40.4443 30.2695C40.4443 28.8372 39.279 27.6719 37.8467 27.6719ZM37.8467 31.5C37.1682 31.5 36.6162 30.948 36.6162 30.2695C36.6162 29.5911 37.1682 29.0391 37.8467 29.0391C38.5251 29.0391 39.0772 29.5911 39.0772 30.2695C39.0772 30.948 38.5251 31.5 37.8467 31.5Z" fill="white"/>
<path d="M44.2269 27.6719C42.7946 27.6719 41.6293 28.8372 41.6293 30.2695C41.6293 31.7019 42.7946 32.8672 44.2269 32.8672C45.6593 32.8672 46.8246 31.7019 46.8246 30.2695C46.8246 28.8372 45.6593 27.6719 44.2269 27.6719ZM44.2269 31.5C43.5485 31.5 42.9965 30.948 42.9965 30.2695C42.9965 29.5911 43.5485 29.0391 44.2269 29.0391C44.9054 29.0391 45.4574 29.5911 45.4574 30.2695C45.4574 30.948 44.9054 31.5 44.2269 31.5Z" fill="white"/>
<path d="M31.4664 27.6719C30.0341 27.6719 28.8688 28.8372 28.8688 30.2695C28.8688 31.7019 30.0341 32.8672 31.4664 32.8672C32.8988 32.8672 34.0641 31.7019 34.0641 30.2695C34.0641 28.8372 32.8988 27.6719 31.4664 27.6719ZM31.4664 31.5C30.788 31.5 30.236 30.948 30.236 30.2695C30.236 29.5911 30.788 29.0391 31.4664 29.0391C32.1449 29.0391 32.6969 29.5911 32.6969 30.2695C32.6969 30.948 32.1449 31.5 31.4664 31.5Z" fill="white"/>
<path d="M24.6209 38.0372C24.3539 37.7702 23.9212 37.7702 23.6541 38.0372L21.4279 40.2634L20.6671 39.5027C20.4001 39.2357 19.9674 39.2357 19.7003 39.5027C19.4334 39.7696 19.4334 40.2025 19.7003 40.4695L20.9445 41.7135C21.0728 41.8417 21.2466 41.9138 21.4279 41.9138C21.6092 41.9138 21.783 41.8417 21.9113 41.7135L24.6209 39.0039C24.8878 38.737 24.8878 38.3041 24.6209 38.0372Z" fill="white"/>
</g>
<defs>
<clipPath id="clip0">
<rect width="67.1" height="63.9" fill="white"/>
</clipPath>
</defs>
</svg>
