<svg width="68" height="64" viewBox="0 0 68 64" fill="none" xmlns="http://www.w3.org/2000/svg">
<g clip-path="url(#clip0)">
<path d="M54.6001 2H65.1001V12.5H67.1001V0H54.6001V2Z" fill="#F1CC46"/>
<path d="M2 12.6V2H12.1V0H0V12.6H2Z" fill="#F1CC46"/>
<path d="M12.1 61.9H2V51.3H0V63.9H12.1V61.9Z" fill="#F1CC46"/>
<path d="M65.1001 51.1V61.9H54.6001V63.9H67.1001V51.1H65.1001Z" fill="#F1CC46"/>
<path d="M44.7246 17.8406C44.7246 16.2681 43.4565 15 41.8841 15H26.8406C25.2681 15 24 16.2681 24 17.8406V47.1667C24 48.7319 25.2681 50 26.8406 50H41.8913C43.4565 50 44.7319 48.7319 44.7319 47.1594V17.8406H44.7246ZM35.2899 46.0797C35.2899 46.5942 34.8768 47.0072 34.3623 47.0072C33.8478 47.0072 33.4348 46.5942 33.4348 46.0797C33.4348 45.5652 33.8478 45.1522 34.3623 45.1522C34.8768 45.1594 35.2899 45.5725 35.2899 46.0797ZM35.5145 43.0652L35.1522 42.4203L33.1159 38.7609C33.4493 38.558 33.8768 38.6232 34.1304 38.913L34.8696 39.7609C35.029 39.942 35.2826 40.0072 35.5072 39.9203C35.7319 39.8333 35.8841 39.6159 35.8841 39.3768C35.8841 37.2971 35.8841 34.587 35.8841 33.1957C35.8841 33.0725 36.0072 33.0435 36.0725 33.0435H36.3551C36.4493 33.0435 36.5435 33.087 36.5435 33.1957C36.5435 33.529 36.5217 38.0507 36.5217 38.0942C36.5217 38.1232 36.5145 38.1449 36.5145 38.1667V38.4058C36.5145 38.7246 36.7754 38.9855 37.0942 38.9855C37.413 38.9855 37.6739 38.7246 37.6739 38.4058V37.0145C37.6739 36.9783 37.7246 36.9565 37.7609 36.9565H38.3406C38.3551 36.9565 38.3696 36.9565 38.3841 36.971C38.3986 36.9855 38.4058 37 38.3986 37.0145V38.8623C38.3986 39.1812 38.6594 39.442 38.9783 39.442C39.2971 39.442 39.558 39.1812 39.558 38.8623V37.471C39.5652 37.4275 39.5942 37.3986 39.6377 37.3913H40.2101C40.2464 37.3986 40.2826 37.4275 40.2826 37.471V38.8623C40.2826 39.1812 40.5435 39.442 40.8623 39.442C41.1812 39.442 41.442 39.1812 41.442 38.8623V38.6522C41.4348 38.6014 41.4565 38.5435 41.4855 38.5C41.5072 38.4783 41.5362 38.471 41.5652 38.471H41.8696C41.9203 38.471 41.9638 38.4855 42 38.5217C42.0362 38.558 42.058 38.6014 42.058 38.6522C42.058 39.8478 42.058 39.8696 42.058 40.4565C42.058 40.7681 42.058 41.2391 42.058 42.1304C42.058 43.1957 41.1957 44.0507 40.1377 44.058H37.1739C36.5 44.058 35.8551 43.6739 35.5145 43.0652ZM38.6449 35.7464C38.2536 35.5797 37.7174 35.6739 37.7174 35.6739L37.7246 32.9203C37.7246 32.9203 37.3406 32.0145 36.2681 31.9565C35.1957 31.8986 34.7319 32.9203 34.7319 32.9203L34.7246 37.9058C34 37.3478 32.9783 37.3623 32.2754 37.9493L32.0072 38.1449C31.7826 38.3188 31.7101 38.6304 31.8551 38.8768L33.6522 42.0942H25.1594V21.8116H43.5652V42.1014H43.2391C43.2391 41.2319 43.2391 40.7609 43.2391 40.4565C43.2391 39.8696 43.2391 39.8551 43.2391 38.6594C43.2319 37.9203 42.6304 37.3188 41.8913 37.3261H41.587C41.5435 37.3261 41.5 37.3261 41.4493 37.3261C41.3768 36.7101 40.8551 36.2391 40.2319 36.2391H39.6594C39.5507 36.2391 39.4493 36.2536 39.3406 36.2826C39.2826 36.1957 39.058 35.9275 38.6449 35.7464ZM26.8333 16.1594H41.8841C42.8116 16.1594 43.558 16.9348 43.558 17.8623V20.6522H25.1594V17.8623C25.1594 16.9348 25.913 16.1594 26.8333 16.1594ZM41.8913 48.913H26.8333C25.913 48.913 25.1594 48.1377 25.1594 47.2101V43.2609H34.3116L34.5072 43.6232C34.587 43.7681 34.6812 43.9058 34.7826 44.0362C33.9203 43.8551 33.0362 44.2464 32.5797 45C32.1232 45.7536 32.1884 46.7174 32.7464 47.3986C33.3043 48.0797 34.2319 48.3406 35.0652 48.0435C35.8986 47.7464 36.4493 46.9638 36.4565 46.0797C36.4565 45.7101 36.3623 45.3478 36.1739 45.0362C36.5072 45.1522 36.8551 45.2174 37.2029 45.2174H40.1594C41.4275 45.2174 42.558 44.442 43.0217 43.2609H43.5652V47.2101C43.5652 48.1377 42.8116 48.913 41.8913 48.913Z" fill="white"/>
<path d="M31.9132 18.8406H36.8045C37.1234 18.8406 37.3842 18.5797 37.3842 18.2609C37.3842 17.942 37.1234 17.6812 36.8045 17.6812H31.9132C31.5944 17.6812 31.3335 17.942 31.3335 18.2609C31.3335 18.5797 31.5944 18.8406 31.9132 18.8406Z" fill="white"/>
</g>
<defs>
<clipPath id="clip0">
<rect width="67.1" height="63.9" fill="white"/>
</clipPath>
</defs>
</svg>
