<svg width="87" height="91" viewBox="0 0 87 91" fill="none" xmlns="http://www.w3.org/2000/svg">
<g clip-path="url(#clip0)">
<path d="M40.5703 0.03125C40.5703 16.9155 40.5703 33.6463 40.5703 50.5306C39.8801 50.2699 39.2666 50.0552 38.6837 49.7945C31.8274 46.8654 24.9711 43.921 18.1148 40.992C12.3628 38.5383 6.6109 36.0693 0.843618 33.631C0.245416 33.3857 0 33.0636 0 32.3889C0.030677 28.4783 0.0153385 24.5678 0 20.6573C0 20.1972 0.107369 19.9059 0.552186 19.6912C11.3658 14.3851 22.1795 9.04844 32.9931 3.71174C35.2479 2.60759 37.4873 1.50344 39.7267 0.399299C39.9721 0.276616 40.2329 0.169268 40.5703 0.03125Z" fill="#C5C5C5"/>
<path d="M54.5896 15.0746C54.5896 15.6113 54.5896 15.9947 54.5896 16.3934C54.5896 26.2541 54.5743 36.1147 54.6049 45.9753C54.6049 46.7268 54.4516 47.1562 53.6846 47.4629C51.4299 48.3523 49.2058 49.3338 46.9817 50.2846C46.7976 50.3613 46.5982 50.4073 46.3682 50.4686C46.3682 33.6457 46.3682 16.8842 46.3682 -0.0153809C47.9787 0.751387 49.4819 1.48748 50.9851 2.20825C60.587 6.87019 70.1735 11.5015 79.7601 16.1327C81.9688 17.2062 84.1622 18.295 86.371 19.3378C86.8004 19.5372 86.9538 19.8132 86.9538 20.2733C86.9385 24.3372 86.9538 28.401 86.9232 32.4649C86.9232 32.7869 86.7238 33.2777 86.4783 33.385C83.6867 34.6272 80.8644 35.808 77.9655 37.0502C77.9501 36.7281 77.9195 36.5134 77.9195 36.2834C77.9195 32.5723 77.9041 28.8764 77.9348 25.1653C77.9348 24.6132 77.7814 24.2758 77.2752 24.0151C76.1555 23.4017 75.0665 22.7269 73.9775 22.0829C73.8087 21.9909 73.6247 21.9295 73.2872 21.7915C73.2872 22.1749 73.2872 22.4509 73.2872 22.7116C73.2872 27.895 73.2872 33.0783 73.2872 38.277C73.2872 38.6911 73.3179 39.0438 72.7964 39.2585C69.9434 40.4546 67.1058 41.6814 64.2682 42.8929C64.2068 42.9236 64.1301 42.9236 63.9307 42.9389C63.9307 42.4636 63.9307 42.0188 63.9307 41.5741C63.9307 34.4892 63.9307 27.4196 63.9307 20.3346C63.9307 19.8286 63.8387 19.4759 63.3325 19.2305C60.6176 17.927 57.9181 16.5928 55.2031 15.274C55.0958 15.228 54.9577 15.1973 54.5896 15.0746Z" fill="#C5C5C5"/>
<path d="M67.3055 64.4852C67.1214 64.6846 66.9527 64.8379 66.8146 65.0219C66.3238 65.5894 65.9097 65.8654 65.02 65.5433C63.1794 64.8686 61.2928 65.8807 60.5872 67.6596C59.943 69.3005 60.7866 71.2481 62.4738 72.0915C64.0537 72.8736 66.0784 72.2296 67.0754 70.6193C67.2134 70.3893 67.2901 70.1133 67.4895 69.6532C66.7993 69.6532 66.2625 69.6226 65.7256 69.6686C65.0814 69.7299 64.8513 69.4692 64.9127 68.8404C64.9587 68.4877 64.9127 68.135 64.9127 67.6596C66.3545 67.6596 67.7196 67.6443 69.0847 67.675C69.2075 67.675 69.4222 67.9357 69.4222 68.0737C69.4529 69.9599 69.4529 71.8462 69.4222 73.7478C69.4222 73.9011 69.1461 74.1771 68.9774 74.1925C68.5019 74.2538 68.0264 74.2078 67.5509 74.2078C67.4742 73.8398 67.4282 73.5791 67.3515 73.1804C65.4955 74.4379 63.5936 74.7599 61.5842 73.8704C60.3725 73.3337 59.4828 72.4136 58.9306 71.2328C57.7956 68.8558 58.5625 65.9574 60.6025 64.4239C62.9033 62.6603 65.9557 63.1357 67.3055 64.4852Z" fill="#C5C5C5"/>
<path d="M15.5378 63.243C18.6055 63.2736 21.0903 65.758 21.0903 68.8097C21.0903 71.9074 18.5748 74.3918 15.4611 74.3764C12.3474 74.3611 9.89319 71.8614 9.92387 68.733C9.96988 65.6506 12.4547 63.2123 15.5378 63.243ZM15.4764 72.2755C17.3784 72.2755 18.9889 70.7573 18.9889 68.9477C18.9889 66.9235 17.4858 65.3592 15.5224 65.3286C13.6051 65.3132 11.9639 66.9081 11.9639 68.7944C11.9792 70.7113 13.5591 72.2755 15.4764 72.2755Z" fill="#C5C5C5"/>
<path d="M47.9942 63.2432C48.3776 63.4885 48.6691 63.5959 48.8685 63.8106C50.525 65.4668 52.1662 67.1537 53.8228 68.8252C54.0375 69.0399 54.2523 69.224 54.6357 69.5767C54.6357 67.4144 54.6357 65.4821 54.6357 63.4119C55.2186 63.4119 55.6941 63.4272 56.1543 63.4119C56.5377 63.3965 56.6911 63.5499 56.6911 63.9486C56.6758 67.1844 56.6911 70.4354 56.6911 73.6712C56.6911 73.8246 56.5837 73.9779 56.5224 74.1313C56.3076 74.0393 56.0315 73.9932 55.8782 73.8246C54.1909 72.0917 52.5037 70.3434 50.8318 68.5799C50.6324 68.3652 50.5404 68.0431 50.387 67.7671C50.2643 67.8591 50.1262 67.9358 50.0035 68.0278C49.9882 68.2885 49.9575 68.5492 49.9575 68.8099C49.9575 70.3434 49.9422 71.877 49.9728 73.4105C49.9882 73.9933 49.8348 74.2233 49.2059 74.2079C47.6721 74.1619 47.9635 74.3 47.9635 72.9351C47.9635 69.9754 47.9635 67.0157 47.9635 64.0559C47.9635 63.8719 47.9788 63.6726 47.9942 63.2432Z" fill="#C5C5C5"/>
<path d="M0.0152538 68.7484C0.0152538 67.2149 0.0305923 65.6814 -8.47094e-05 64.1478C-0.0154232 63.5804 0.168639 63.3657 0.736163 63.3964C1.88655 63.4731 3.05228 63.3504 4.15665 63.5804C6.82555 64.1172 8.5588 66.5402 8.34406 69.1932C8.12932 71.9229 6.16599 73.9165 3.38972 74.1311C2.46941 74.2078 1.5491 74.1618 0.628794 74.1772C0.137962 74.1925 -0.0307617 73.9625 -0.0307617 73.4717C0.0305923 71.9075 0.0152538 70.328 0.0152538 68.7484ZM2.00926 68.7944C2.0246 68.7944 2.0246 68.7944 2.00926 68.7944C2.0246 69.7146 2.0246 70.6347 2.00926 71.5395C2.00926 71.9075 2.08595 72.1529 2.56145 72.1836C4.61681 72.3216 6.33472 70.8494 6.38073 68.9018C6.42675 66.9235 4.80087 65.4207 2.69949 65.482C2.16264 65.4973 1.97858 65.6967 1.99392 66.2028C2.03994 67.0616 2.00926 67.9203 2.00926 68.7944Z" fill="#C5C5C5"/>
<path d="M78.7633 65.4819C77.2602 65.4819 75.849 65.5126 74.4532 65.4666C73.809 65.4512 73.6096 65.6659 73.6096 66.2947C73.6249 67.6289 73.5943 67.6289 74.9441 67.6289C75.665 67.6289 76.3705 67.6595 77.0914 67.6135C77.6896 67.5828 77.9044 67.7669 77.889 68.3803C77.843 69.8218 77.9964 69.6225 76.6773 69.6378C75.8797 69.6531 75.0974 69.6531 74.2998 69.6378C73.809 69.6225 73.6096 69.8218 73.6249 70.3126C73.6556 72.4288 73.3642 72.1835 75.4195 72.1988C76.2632 72.1988 77.1068 72.2141 77.9504 72.1988C78.5026 72.1835 78.7633 72.3828 78.7173 72.9502C78.702 73.1496 78.702 73.3643 78.7327 73.5637C78.7787 74.0084 78.6253 74.2077 78.1498 74.2077C76.1865 74.1924 74.2231 74.1924 72.2598 74.2077C71.8457 74.2077 71.6616 74.0544 71.6616 73.625C71.677 70.4046 71.677 67.1995 71.6616 63.979C71.6616 63.5343 71.8457 63.4116 72.2598 63.4116C74.2538 63.427 76.2478 63.427 78.2265 63.4116C78.656 63.4116 78.8247 63.5496 78.7787 63.9944C78.7327 64.4391 78.7633 64.8992 78.7633 65.4819Z" fill="#C5C5C5"/>
<path d="M31.9807 63.4118C30.9531 65.6967 30.0174 67.7824 29.0818 69.8833C28.4989 71.1715 27.9314 72.4443 27.3332 73.7171C27.2411 73.9012 27.0571 74.1312 26.8884 74.1465C26.735 74.1619 26.4742 73.9472 26.3975 73.7785C24.879 70.4354 23.3605 67.0769 21.8573 63.7185C21.8267 63.6571 21.842 63.5805 21.8267 63.4118C22.4555 63.4118 23.0537 63.3658 23.6519 63.4424C23.8513 63.4731 24.0661 63.7645 24.1735 63.9945C24.925 65.5894 25.6613 67.1996 26.3975 68.7945C26.5049 69.0245 26.6276 69.2239 26.8577 69.6379C27.3178 68.6718 27.7166 67.859 28.0848 67.0463C28.4989 66.1415 28.9591 65.252 29.3118 64.3166C29.5726 63.6111 29.9714 63.2891 30.7383 63.3964C31.0911 63.4424 31.4439 63.4118 31.9807 63.4118Z" fill="#C5C5C5"/>
<path d="M86.9539 72.1836C86.9539 72.889 86.9539 73.4871 86.9539 74.1465C85.0673 74.1465 83.242 74.1465 81.4014 74.1465C80.8952 74.1465 80.9719 73.7325 80.9719 73.4104C80.9719 70.604 80.9719 67.7977 80.9719 64.9913C80.9719 64.8379 80.9719 64.6846 80.9719 64.5312C80.9719 63.4117 80.9719 63.4578 82.0763 63.3964C82.8279 63.3504 82.9659 63.6725 82.9659 64.3165C82.9506 66.6935 82.9659 69.0705 82.9506 71.4322C82.9506 71.9842 83.0886 72.2143 83.6868 72.1989C84.7452 72.1529 85.8189 72.1836 86.9539 72.1836Z" fill="#C5C5C5"/>
<path d="M42.1809 65.4821C41.2146 65.4821 40.2483 65.4668 39.282 65.4821C38.8371 65.4974 38.6377 65.3747 38.6224 64.884C38.5611 63.4118 38.5304 63.4118 40.0029 63.4118C41.5827 63.4118 43.1626 63.4578 44.7425 63.3965C45.5554 63.3658 45.8162 63.6572 45.6935 64.3933C45.6781 64.4699 45.6781 64.5466 45.6935 64.6233C45.7855 65.2674 45.5401 65.5281 44.8498 65.4821C43.9755 65.4361 43.0706 65.4821 42.1809 65.4821Z" fill="#C5C5C5"/>
<path d="M38.7605 74.1924C38.6684 74.039 38.6531 74.0084 38.6378 73.993C38.4844 72.2294 38.4844 72.2294 40.233 72.2294C41.7822 72.2294 43.3467 72.2448 44.8959 72.2141C45.4481 72.1988 45.7242 72.3215 45.7088 72.9655C45.6935 74.177 45.7242 74.177 44.5278 74.177C42.6104 74.1924 40.6778 74.1924 38.7605 74.1924Z" fill="#C5C5C5"/>
<path d="M0.015282 81.5227C1.38041 81.5227 2.62283 81.4767 3.86525 81.538C4.63217 81.5687 5.21504 82.0441 5.44511 82.7955C5.70587 83.6083 5.56782 84.3597 4.8009 84.9731C4.98496 85.1418 5.15368 85.2798 5.30707 85.4332C5.88993 85.9699 6.15068 86.8287 5.87459 87.5188C5.56782 88.3009 5.0003 88.7763 4.14134 88.7916C2.94494 88.8223 1.74853 88.8223 0.536791 88.7763C0.352729 88.7763 0.153329 88.5156 -5.64698e-05 88.3469C-0.046072 88.2855 -5.64698e-05 88.1475 -5.64698e-05 88.0555C0.015282 85.9086 0.015282 83.777 0.015282 81.5227ZM2.62283 85.4178V85.4025C2.08598 85.4025 1.54913 85.3565 1.01228 85.4332C0.797546 85.4638 0.490776 85.7552 0.475437 85.9392C0.398745 86.5373 0.398745 87.1661 0.475437 87.7641C0.506114 87.9788 0.797546 88.3162 0.981608 88.3316C2.0553 88.3776 3.129 88.3929 4.20269 88.3316C5.01564 88.2856 5.58316 87.6108 5.56782 86.8594C5.55248 86.0619 5.01564 85.4945 4.17202 85.4178C3.65051 85.3872 3.14434 85.4178 2.62283 85.4178ZM2.27004 81.9827C0.429422 81.9521 0.429422 81.9521 0.44476 83.8383C0.44476 83.9917 0.460099 84.145 0.44476 84.2984C0.414083 84.7278 0.598145 84.8964 1.02762 84.8811C1.90192 84.8658 2.76087 84.8964 3.63517 84.8811C4.47879 84.8658 5.15368 84.237 5.18436 83.4856C5.21504 82.8108 4.57082 82.0901 3.80389 81.9981C3.29772 81.9367 2.77621 81.9827 2.27004 81.9827Z" fill="#C5C5C5"/>
<path d="M41.7053 67.6442C42.4876 67.6442 43.2852 67.6595 44.0675 67.6442C44.543 67.6289 44.7884 67.7669 44.7424 68.2883C44.7117 68.5336 44.7117 68.7943 44.727 69.055C44.7424 69.4844 44.5736 69.6378 44.1442 69.6225C42.5183 69.6071 40.8924 69.6071 39.2512 69.6225C38.8064 69.6225 38.5763 69.4844 38.607 69.009C38.6223 68.7483 38.6223 68.503 38.607 68.2423C38.5763 67.7669 38.8064 67.6289 39.2512 67.6442C40.0795 67.6749 40.8924 67.6595 41.7053 67.6442C41.7053 67.6595 41.7053 67.6442 41.7053 67.6442Z" fill="#C5C5C5"/>
<path d="M36.1069 88.1169C34.0362 89.0983 33.2386 89.0523 32.487 87.9942C31.6741 86.8594 31.7354 85.2798 32.6404 84.3137C33.4994 83.3936 34.4197 83.3936 35.9535 84.3751C36.0456 84.1297 36.1223 83.8997 36.2143 83.6696C36.2756 83.6696 36.337 83.6696 36.3984 83.6543C36.4444 83.8997 36.5211 84.145 36.5211 84.3904C36.5211 85.8626 36.5211 87.3501 36.5057 88.8223C36.4904 90.0798 35.7695 90.8926 34.5271 90.9846C33.7755 91.0459 33.0085 91.0613 32.395 90.5245C32.4103 90.4478 32.4257 90.3712 32.441 90.3098C32.7018 90.3558 32.9625 90.3712 33.2079 90.4478C34.5577 90.8159 35.5547 90.5092 35.9382 89.5124C36.0916 89.0983 36.0456 88.6383 36.1069 88.1169ZM36.1529 86.338C36.1836 85.1878 35.34 84.0837 34.3737 84.0377C33.3 83.9917 32.4103 84.9578 32.3797 86.2C32.349 87.3961 33.1619 88.4082 34.1896 88.4542C35.2173 88.4849 36.1069 87.5341 36.1529 86.338Z" fill="#C5C5C5"/>
<path d="M41.6748 88.7917C41.6441 88.5616 41.5981 88.3316 41.5827 88.1016C41.5827 86.1386 41.5981 84.1757 41.5674 82.1974C41.5674 81.6914 41.6748 81.446 42.2423 81.4767C43.0245 81.5227 43.8221 81.4613 44.6197 81.492C46.1229 81.538 47.0892 82.4581 47.1046 83.8383C47.1199 85.1112 46.1996 86.062 44.7731 86.1693C44.1136 86.2153 43.4387 86.2153 42.7791 86.1846C42.1963 86.154 41.9355 86.338 41.9815 86.9667C42.0275 87.5648 41.9969 88.1629 41.9969 88.761C41.9048 88.7763 41.7821 88.7763 41.6748 88.7917ZM42.0122 83.8843C42.0122 84.3444 41.9662 84.8045 42.0429 85.2492C42.0736 85.4332 42.3496 85.7246 42.5337 85.7399C43.3466 85.7859 44.1596 85.8013 44.9725 85.7553C45.8162 85.7093 46.5064 85.0345 46.6751 84.2371C46.8285 83.4396 46.4297 82.4888 45.6628 82.2128C45.1259 82.0134 44.5277 81.9827 43.9449 81.9827C42.0122 81.9521 42.0122 81.9674 42.0122 83.8843Z" fill="#C5C5C5"/>
<path d="M22.1488 81.124C22.1488 83.6696 22.1488 86.2153 22.1488 88.761C22.0875 88.7763 22.0415 88.7763 21.9801 88.7917C21.8881 88.577 21.796 88.3776 21.7654 88.3163C20.9984 88.5156 20.2622 88.8377 19.5413 88.8377C19.1271 88.8377 18.621 88.4083 18.3142 88.0402C17.4246 86.9974 17.5013 85.3412 18.3909 84.2984C19.1578 83.3936 19.9094 83.3936 21.8727 84.4211C21.8727 83.2709 21.8727 82.1821 21.8727 81.1086C21.9494 81.124 22.0415 81.124 22.1488 81.124ZM18.0688 86.2613C18.0688 87.4421 18.9431 88.4696 19.9708 88.4696C20.9984 88.4696 21.8727 87.4575 21.8727 86.2613C21.8727 85.0192 21.0598 84.0377 20.0168 84.0377C18.9124 84.0224 18.0688 84.9885 18.0688 86.2613Z" fill="#C5C5C5"/>
<path d="M60.6637 86.4761C60.7404 87.6263 61.2313 88.3317 62.1362 88.3624C62.8571 88.3931 63.5934 88.0403 64.3757 87.8563C64.0535 88.5617 63.44 88.8224 62.7498 88.9145C61.9215 89.0371 61.2466 88.6998 60.7404 88.0557C59.9121 87.0129 59.9275 85.4793 60.7251 84.4212C61.2926 83.6698 62.305 83.3784 63.1946 83.6851C64.0075 83.9611 64.8511 85.188 64.7438 86.0314C64.7284 86.2001 64.4063 86.4301 64.2069 86.4455C63.3173 86.4915 62.4277 86.4761 61.5227 86.4761C61.2619 86.4761 60.9858 86.4761 60.6637 86.4761ZM62.3663 86.0467C62.3663 86.0467 62.3663 86.0314 62.3663 86.0467C62.8418 86.0314 63.3326 86.0314 63.8081 86.0314C64.2376 86.0314 64.3296 85.8014 64.2223 85.4333C64.0075 84.6206 63.2559 84.0225 62.443 84.0225C61.5994 84.0378 60.9091 84.5899 60.6791 85.4487C60.5564 85.8934 60.6944 86.0621 61.1546 86.0467C61.5534 86.0314 61.9675 86.0467 62.3663 86.0467Z" fill="#C5C5C5"/>
<path d="M52.1509 87.5956C51.9361 88.4697 51.1078 88.9758 50.2182 88.9451C48.8991 88.8838 47.8714 87.5956 47.9481 86.0774C48.0095 84.5438 49.0678 83.501 50.479 83.593C51.5987 83.6697 52.657 84.8199 52.565 85.924C52.5497 86.108 52.2276 86.4148 52.0282 86.4301C51.0618 86.4914 50.0955 86.4454 49.1138 86.4608C48.4236 86.4761 48.3009 86.6755 48.5923 87.2889C49.1599 88.5004 50.4636 88.8071 51.522 87.9943C51.6754 87.9023 51.8441 87.7949 52.1509 87.5956ZM50.2336 86.0467C50.6477 86.0467 51.0465 86.016 51.4606 86.0467C52.1202 86.0774 52.1815 85.7553 51.9821 85.2339C51.6907 84.4978 51.1385 84.0684 50.3869 84.0071C49.5587 83.9304 48.9911 84.3905 48.6384 85.1112C48.2856 85.8013 48.4236 86.0314 49.1752 86.0467C49.5126 86.062 49.8808 86.0467 50.2336 86.0467Z" fill="#C5C5C5"/>
<path d="M78.8552 83.5929C80.3277 83.5776 81.4475 84.7124 81.4321 86.2306C81.4321 87.6875 80.2971 88.9143 78.9473 88.9297C77.5208 88.945 76.4011 87.7795 76.3857 86.246C76.3857 84.7124 77.3981 83.6083 78.8552 83.5929ZM80.9873 86.2153C80.972 84.9578 80.021 83.9763 78.8399 84.007C77.6895 84.0377 76.7999 85.0345 76.7999 86.2613C76.7999 87.5188 77.7662 88.5003 78.9473 88.4696C80.0977 88.4389 81.0026 87.4421 80.9873 86.2153Z" fill="#C5C5C5"/>
<path d="M30.1554 88.8071C30.1247 88.577 30.0634 88.347 30.0634 88.117C30.048 87.3042 30.0787 86.4914 30.0634 85.6633C30.048 84.6819 29.4805 84.0378 28.6216 84.0071C27.7013 83.9764 26.919 84.6359 26.8576 85.556C26.7963 86.3688 26.8423 87.1815 26.827 87.9943C26.827 88.255 26.7809 88.5004 26.5969 88.7611C26.3515 87.0588 26.4128 85.3566 26.4128 83.6544C26.4895 83.6391 26.5662 83.6237 26.6429 83.6084C26.7656 83.7771 26.8883 83.9458 26.919 83.9611C27.6399 83.8231 28.2688 83.6084 28.8977 83.6084C29.6186 83.6084 30.2474 84.1145 30.3395 84.7739C30.5235 86.0774 30.4929 87.4116 30.5542 88.7304C30.4162 88.7764 30.2935 88.7917 30.1554 88.8071Z" fill="#C5C5C5"/>
<path d="M7.79192 83.7004C7.80726 84.0991 7.83794 84.4825 7.83794 84.8812C7.85327 85.5713 7.8226 86.2614 7.86861 86.9515C7.91463 87.8409 8.49749 88.4237 9.31043 88.439C10.2001 88.4697 10.9823 87.8256 11.0437 86.9515C11.0897 86.0927 11.059 85.2186 11.0744 84.3444C11.0744 84.1144 11.1204 83.8844 11.1511 83.6697C11.2277 83.6697 11.3044 83.685 11.3811 83.685C11.3811 85.3872 11.3811 87.0741 11.3811 88.7764C11.3351 88.7917 11.2891 88.7917 11.2431 88.807C11.1357 88.6537 11.0437 88.5003 10.9056 88.301C10.7523 88.393 10.5989 88.4697 10.4608 88.5617C9.15705 89.3591 7.6232 88.6997 7.45447 87.1968C7.33177 86.108 7.4238 85.0039 7.43914 83.915C7.43914 83.8384 7.53117 83.7464 7.59252 83.6697C7.65387 83.685 7.73057 83.7004 7.79192 83.7004Z" fill="#C5C5C5"/>
<path d="M82.9812 88.7765C82.9812 87.0742 82.9812 85.3873 82.9812 83.6851C83.0272 83.6698 83.0886 83.6544 83.1346 83.6391C83.2573 83.8078 83.3647 83.9765 83.426 84.0685C83.9935 83.8998 84.5151 83.6391 85.0519 83.6084C86.0796 83.5471 86.8618 84.2065 86.9385 85.2187C87.0306 86.3075 86.9692 87.4116 86.9539 88.5158C86.9539 88.6078 86.8465 88.6998 86.7852 88.7918C86.7085 88.7918 86.6318 88.7765 86.5551 88.7765C86.5551 88.2857 86.5551 87.8103 86.5551 87.3196C86.5551 86.7522 86.5551 86.2001 86.5397 85.6327C86.5091 84.6512 85.9569 84.0532 85.0826 84.0072C84.1776 83.9765 83.4107 84.6512 83.3647 85.602C83.3186 86.4148 83.3493 87.2429 83.334 88.0557C83.334 88.3011 83.2726 88.5464 83.242 88.8071C83.1653 88.7918 83.0732 88.7918 82.9812 88.7765Z" fill="#C5C5C5"/>
<path d="M60.2651 81.6146C60.0657 81.5839 59.8663 81.5839 59.6823 81.5226C59.1608 81.3539 58.6239 81.4306 58.4092 81.9213C58.2098 82.3814 58.2405 82.9334 58.2251 83.4548C58.2251 83.5162 58.5626 83.6082 58.7466 83.6389C58.992 83.6849 59.2528 83.6849 59.5135 83.7002C59.5135 83.7922 59.5289 83.8689 59.5289 83.9609C59.3141 84.0069 59.0994 84.0989 58.9 84.0836C58.2711 84.0376 58.1177 84.3443 58.1331 84.9117C58.1638 85.9545 58.1484 86.9973 58.1484 88.0554C58.1484 88.3008 58.0871 88.5615 58.0564 88.8069C57.9797 88.8069 57.8877 88.8069 57.811 88.7915C57.7803 88.5615 57.7343 88.3315 57.7343 88.1014C57.7189 87.1507 57.7189 86.2152 57.7343 85.2644C57.7496 84.651 57.8263 84.0222 56.906 83.9302C57.6116 83.3935 57.6116 83.3935 57.7343 82.4427C57.8877 81.1239 59.1301 80.6178 60.2958 81.3846C60.2651 81.4612 60.2651 81.5379 60.2651 81.6146Z" fill="#C5C5C5"/>
<path d="M69.9589 84.4826C69.8055 84.4366 69.6368 84.4212 69.4987 84.3446C68.5017 83.8078 67.4434 83.9459 66.7992 84.728C66.0476 85.6481 66.0476 86.7982 66.7992 87.749C67.382 88.4851 68.5017 88.6538 69.4527 88.1631C69.6061 88.0864 69.7902 88.0864 69.9589 88.0404C69.8515 88.2091 69.7902 88.4391 69.6368 88.5311C68.7932 89.0832 67.7041 89.0372 66.9065 88.4544C65.9402 87.7184 65.5721 86.5222 65.9709 85.3107C66.293 84.2986 67.0906 83.6545 68.0876 83.6085C69.0386 83.5625 69.4374 83.7005 69.9589 84.4826Z" fill="#C5C5C5"/>
<path d="M70.7566 83.823C72.4592 83.639 71.4468 82.2435 72.1064 81.446C72.1524 81.8448 72.1984 82.0441 72.2137 82.2435C72.2598 83.3783 72.2598 83.3783 73.1801 83.7463C73.1647 83.7924 73.1647 83.8844 73.1494 83.8844C72.1831 83.8844 72.1677 84.5285 72.2291 85.2339C72.2598 85.6939 72.2598 86.154 72.2291 86.6141C72.1831 87.4268 72.2598 88.1476 73.1801 88.4696C73.2107 88.485 73.2107 88.6077 73.2414 88.669C72.4745 88.8377 71.8456 88.2856 71.8149 87.3808C71.7843 86.6447 71.8149 85.8933 71.7996 85.1572C71.7843 84.5285 72.0143 83.7463 70.7566 83.823Z" fill="#C5C5C5"/>
<path d="M53.7153 88.7612C53.7153 87.0743 53.7153 85.3721 53.7153 83.6852C53.7613 83.6698 53.8074 83.6545 53.8534 83.6392C53.9607 83.8232 54.0681 84.0225 54.2062 84.2679C54.7277 83.9305 55.2185 83.4398 56.0621 83.7465C55.8474 83.8999 55.74 84.0072 55.6173 84.0379C54.4976 84.4059 54.0528 84.9733 54.0068 86.1388C53.9914 86.7676 54.0068 87.4117 54.0068 88.0404C54.0068 88.2858 53.9914 88.5158 53.9761 88.7612C53.8994 88.7612 53.8074 88.7612 53.7153 88.7612Z" fill="#C5C5C5"/>
<path d="M16.0287 81.0933C16.0287 83.6543 16.0287 86.2153 16.0287 88.7763C15.952 88.7763 15.8907 88.7763 15.814 88.7763C15.814 86.2153 15.814 83.6543 15.814 81.0933C15.8907 81.0933 15.952 81.0933 16.0287 81.0933Z" fill="#C5C5C5"/>
<path d="M13.6972 83.6851C13.6972 85.3719 13.6972 87.0588 13.6972 88.7457C13.6051 88.7457 13.5285 88.7457 13.4364 88.7457C13.3137 87.0588 13.4057 85.3719 13.3904 83.6851C13.4978 83.7004 13.6051 83.6851 13.6972 83.6851Z" fill="#C5C5C5"/>
<path d="M24.2195 88.7611C24.2195 87.0742 24.2195 85.3719 24.2195 83.6851C24.2962 83.6851 24.3575 83.6851 24.4342 83.6851C24.4342 85.3719 24.4342 87.0742 24.4342 88.7611C24.3575 88.7611 24.2962 88.7611 24.2195 88.7611Z" fill="#C5C5C5"/>
<path d="M74.7598 88.9912C74.7598 87.0896 74.7598 85.3873 74.7598 83.6238C75.1586 84.1145 75.2046 88.1477 74.7598 88.9912Z" fill="#C5C5C5"/>
</g>
<defs>
<clipPath id="clip0">
<rect width="87" height="91" fill="white"/>
</clipPath>
</defs>
</svg>
