<svg width="68" height="64" viewBox="0 0 68 64" fill="none" xmlns="http://www.w3.org/2000/svg">
<g clip-path="url(#clip0)">
<path d="M49.4174 14C49.4174 14 49.4172 14 49.4172 14H15.5838C15.2617 13.9999 15.0006 14.261 15.0005 14.583C15.0005 14.5831 15.0005 14.5833 15.0005 14.5833V26.25H16.1672V15.1667H48.8338V28H28.4172V29.1667H49.4172C49.7392 29.1667 50.0004 28.9057 50.0005 28.5836C50.0005 28.5836 50.0005 28.5834 50.0005 28.5833V14.5833C50.0006 14.2613 49.7395 14.0001 49.4174 14Z" fill="white"/>
<path d="M45.9172 16.9166H34.2505V18.0833H45.9172V16.9166Z" fill="white"/>
<path d="M47.6672 20.4166H36.0005V21.5833H47.6672V20.4166Z" fill="white"/>
<path d="M45.3338 23.9166H33.6671V25.0833H45.3338V23.9166Z" fill="white"/>
<path d="M33.6206 19.0294C33.2213 18.0694 32.1194 17.615 31.1595 18.0144C31.1431 18.0212 31.1267 18.0282 31.1106 18.0355L26.3806 20.4892C26.5671 20.1026 26.665 19.6792 26.6672 19.25C26.6672 17.6392 25.3613 16.3334 23.7505 16.3334C22.1397 16.3334 20.8338 17.6392 20.8338 19.25C20.836 19.8832 21.0462 20.4981 21.4321 21H21.4078C19.752 21.0111 18.2739 22.0405 17.6894 23.5898L16.1322 28.9571C15.7614 29.92 16.2415 31.0012 17.2045 31.3719C17.6436 31.5409 18.1304 31.5381 18.5675 31.3639C19.0697 31.1616 19.4606 30.7529 19.6405 30.2422L20.2505 28.3008V36.7433C19.7485 36.3575 19.1336 36.1473 18.5005 36.1451C16.8921 36.1426 15.5862 37.4446 15.5838 39.053C15.5827 39.8408 15.9006 40.5953 16.4652 41.1447C15.5692 41.6024 15.004 42.5223 15.0005 43.5285V48.4167C15.0004 48.7388 15.2615 49 15.5835 49C15.5836 49 15.5837 49 15.5838 49H21.4172C21.7392 49.0001 22.0004 48.7391 22.0005 48.417C22.0005 48.4169 22.0005 48.4168 22.0005 48.4167V43.5285C21.9976 42.7016 21.6135 41.9225 20.9595 41.4167H25.3749C24.7208 41.9225 24.3367 42.7016 24.3339 43.5285V48.4167C24.3338 48.7388 24.5949 49 24.9169 49C24.917 49 24.9172 49 24.9172 49H30.7506C31.0726 49.0001 31.3338 48.7391 31.3339 48.417C31.3339 48.4169 31.3339 48.4168 31.3339 48.4167V43.5285C31.3304 42.5223 30.7652 41.6024 29.8692 41.1447C31.0209 40.0205 31.0433 38.1755 29.9192 37.0238C29.2269 36.3145 28.2216 36.0057 27.2506 36.204V24.271L32.6056 21.4905C33.5655 21.0912 34.0199 19.9893 33.6206 19.0294ZM23.7505 17.5C24.717 17.5 25.5005 18.2835 25.5005 19.25C25.5005 20.2166 24.717 21 23.7505 21C22.7844 20.999 22.0015 20.2161 22.0005 19.25C22.0005 18.2835 22.784 17.5 23.7505 17.5ZM18.5005 37.3117C19.467 37.3117 20.2505 38.0952 20.2505 39.0617C20.2505 40.0282 19.467 40.8117 18.5005 40.8117C17.534 40.8117 16.7505 40.0282 16.7505 39.0617C16.7515 38.0956 17.5344 37.3128 18.5005 37.3117ZM20.8338 47.8334H16.1672V43.5285C16.1683 42.6847 16.8521 42.0011 17.6959 42H19.3051C20.1488 42.0011 20.8327 42.6847 20.8338 43.5285V47.8334ZM30.1672 43.5285V47.8334H25.5005V43.5285C25.5017 42.6847 26.1854 42.0011 27.0292 42H28.6385C29.4823 42.0011 30.166 42.6847 30.1672 43.5285ZM27.8338 37.3117C28.7999 37.3127 29.5828 38.0956 29.5838 39.0617C29.5838 40.0282 28.8003 40.8117 27.8338 40.8117C26.8673 40.8117 26.0838 40.0282 26.0838 39.0617C26.0838 38.0952 26.8673 37.3117 27.8338 37.3117ZM32.5532 20.0025C32.4751 20.2029 32.3148 20.3602 32.1129 20.4344L26.3986 23.3989C26.2052 23.4992 26.0838 23.6989 26.0838 23.9167V36.7433C24.9912 37.5513 24.6127 39.0135 25.1762 40.25H24.3338V30.3334H23.1672V40.25H21.1582C21.3241 39.8833 21.4115 39.4859 21.415 39.0834H21.4172V24.5C21.4171 24.1778 21.1558 23.9167 20.8337 23.9168C20.579 23.9169 20.3537 24.0822 20.2773 24.3252L18.5355 29.8679C18.4035 30.2319 18.0014 30.4201 17.6374 30.288C17.6119 30.2788 17.5868 30.268 17.5625 30.2559C17.226 30.082 17.0831 29.676 17.2367 29.3296L18.7938 23.9623C19.2138 22.8838 20.2504 22.1717 21.4077 22.1667H25.5381C25.6316 22.1669 25.7238 22.1443 25.8067 22.1012L31.6045 19.0917C31.9523 18.9466 32.3532 19.0951 32.5225 19.4318C32.6123 19.6093 32.6234 19.8164 32.5532 20.0025Z" fill="white"/>
<path d="M39.2024 41.1446C40.3562 40.0205 40.3803 38.1739 39.2562 37.0201C38.1321 35.8663 36.2855 35.8423 35.1317 36.9664C33.978 38.0904 33.9539 39.9371 35.078 41.0908C35.0957 41.109 35.1136 41.1269 35.1318 41.1446C34.2359 41.6023 33.6706 42.5223 33.6671 43.5284V48.4166C33.667 48.7387 33.9281 48.9999 34.2502 49C34.2502 49 34.2504 49 34.2504 49H40.0838C40.4059 49 40.667 48.739 40.6671 48.4169C40.6671 48.4168 40.6671 48.4167 40.6671 48.4166V43.5284C40.6636 42.5223 40.0984 41.6023 39.2024 41.1446ZM37.1671 37.3116C38.1336 37.3116 38.9171 38.0951 38.9171 39.0616C38.9171 40.0281 38.1336 40.8116 37.1671 40.8116C36.2006 40.8116 35.4171 40.0281 35.4171 39.0616C35.4181 38.0956 36.201 37.3127 37.1671 37.3116ZM39.5004 47.8333H34.8338V43.5284C34.8349 42.6846 35.5187 42.001 36.3625 42H37.9717C38.8155 42.001 39.4993 42.6846 39.5004 43.5284V47.8333Z" fill="white"/>
<path d="M48.5358 41.1446C49.6896 40.0205 49.7136 38.1739 48.5896 37.0201C47.4655 35.8663 45.6189 35.8423 44.4651 36.9664C43.3113 38.0904 43.2873 39.9371 44.4114 41.0908C44.4291 41.109 44.447 41.1269 44.4652 41.1446C43.5692 41.6023 43.004 42.5223 43.0005 43.5284V48.4166C43.0004 48.7387 43.2615 48.9999 43.5835 49C43.5836 49 43.5837 49 43.5838 49H49.4172C49.7392 49 50.0004 48.739 50.0005 48.4169C50.0005 48.4168 50.0005 48.4167 50.0005 48.4166V43.5284C49.997 42.5223 49.4318 41.6023 48.5358 41.1446ZM46.5005 37.3116C47.467 37.3116 48.2505 38.0951 48.2505 39.0616C48.2505 40.0281 47.467 40.8116 46.5005 40.8116C45.534 40.8116 44.7505 40.0281 44.7505 39.0616C44.7515 38.0956 45.5344 37.3127 46.5005 37.3116ZM48.8338 47.8333H44.1672V43.5284C44.1683 42.6846 44.8521 42.001 45.6959 42H47.3051C48.1488 42.001 48.8327 42.6846 48.8338 43.5284V47.8333Z" fill="white"/>
<path d="M54.6 2H65.1V12.5H67.1V0H54.6V2Z" fill="#F1CC46"/>
<path d="M2 12.6V2H12.1V0H0V12.6H2Z" fill="#F1CC46"/>
<path d="M12.1 61.9001H2V51.3H0V63.9001H12.1V61.9001Z" fill="#F1CC46"/>
<path d="M65.1 51.1V61.9H54.6V63.9H67.1V51.1H65.1Z" fill="#F1CC46"/>
</g>
<defs>
<clipPath id="clip0">
<rect width="67.1" height="63.9" fill="white"/>
</clipPath>
</defs>
</svg>
