<svg width="19" height="18" viewBox="0 0 19 18" fill="none" xmlns="http://www.w3.org/2000/svg">
<g clip-path="url(#clip0)">
<path d="M13.8141 0.00362881L11.5525 0C9.0116 0 7.36958 1.68468 7.36958 4.29216V6.27113H5.09561C4.89911 6.27113 4.73999 6.43043 4.73999 6.62693V9.49424C4.73999 9.69074 4.89929 9.84986 5.09561 9.84986H7.36958V17.085C7.36958 17.2815 7.5287 17.4406 7.7252 17.4406H10.6921C10.8886 17.4406 11.0477 17.2813 11.0477 17.085V9.84986H13.7065C13.903 9.84986 14.0621 9.69074 14.0621 9.49424L14.0632 6.62693C14.0632 6.53258 14.0257 6.44223 13.9591 6.37546C13.8925 6.30869 13.8018 6.27113 13.7074 6.27113H11.0477V4.59353C11.0477 3.78721 11.2399 3.37788 12.2902 3.37788L13.8137 3.37733C14.0101 3.37733 14.1692 3.21803 14.1692 3.02171V0.359252C14.1692 0.163115 14.0102 0.00399169 13.8141 0.00362881Z" fill="white"/>
</g>
<defs>
<clipPath id="clip0">
<rect width="17.4406" height="17.4406" fill="white" transform="translate(0.734375)"/>
</clipPath>
</defs>
</svg>
