<svg width="68" height="64" viewBox="0 0 68 64" fill="none" xmlns="http://www.w3.org/2000/svg">
<g clip-path="url(#clip0)">
<path d="M50.25 23.1667H49.0833V20.25C49.0833 19.2852 48.2982 18.5 47.3333 18.5H45C44.0352 18.5 43.25 19.2852 43.25 20.25V24.9167H41.8768L41.7485 24.59C41.1302 23.0168 39.6386 22 37.9481 22H37.8927C37.6512 21.3227 37.0095 20.8333 36.25 20.8333C35.8002 20.8333 35.3937 21.0089 35.0833 21.2883C34.773 21.0083 34.3664 20.8333 33.9167 20.8333C33.4669 20.8333 33.0603 21.0089 32.75 21.2883C32.4397 21.0083 32.0331 20.8333 31.5833 20.8333C31.1336 20.8333 30.727 21.0089 30.4167 21.2883C30.1063 21.0083 29.6997 20.8333 29.25 20.8333C28.2852 20.8333 27.5 21.6185 27.5 22.5833V24.9167H25.75V20.25C25.75 19.2852 24.9648 18.5 24 18.5H21.6667C20.7018 18.5 19.9167 19.2852 19.9167 20.25V23.1667H18.75C17.7852 23.1667 17 23.9518 17 24.9167V30.75C17 31.7148 17.7852 32.5 18.75 32.5H19.9167V35.4167C19.9167 36.3815 20.7018 37.1667 21.6667 37.1667H24C24.9648 37.1667 25.75 36.3815 25.75 35.4167V30.75H27.073L27.5274 32.1879C27.5478 32.2532 27.5799 32.3145 27.6219 32.3693L29.1788 34.3836L28.1813 44.8637C28.1411 45.282 28.2799 45.7002 28.5628 46.0112C28.8457 46.3215 29.2483 46.5 29.6688 46.5H37.5765C37.9982 46.5 38.4019 46.3209 38.6842 46.0082C38.9672 45.6956 39.1054 45.2762 39.0634 44.8562L38.0443 34.6647C38.0332 34.558 38.0758 34.453 38.1569 34.3836L41.3577 31.6402C41.6377 31.3998 41.8342 31.0895 41.9538 30.75H43.25V35.4167C43.25 36.3815 44.0352 37.1667 45 37.1667H47.3333C48.2982 37.1667 49.0833 36.3815 49.0833 35.4167V32.5H50.25C51.2148 32.5 52 31.7148 52 30.75V24.9167C52 23.9518 51.2148 23.1667 50.25 23.1667ZM19.9167 31.3333H18.75C18.428 31.3333 18.1667 31.0714 18.1667 30.75V24.9167C18.1667 24.5952 18.428 24.3333 18.75 24.3333H19.9167V31.3333ZM24.5833 25.5V30.1667V35.4167C24.5833 35.7381 24.322 36 24 36H21.6667C21.3447 36 21.0833 35.7381 21.0833 35.4167V31.9167V23.75V20.25C21.0833 19.9286 21.3447 19.6667 21.6667 19.6667H24C24.322 19.6667 24.5833 19.9286 24.5833 20.25V25.5ZM35.6667 22.5833C35.6667 22.2619 35.928 22 36.25 22C36.572 22 36.8333 22.2619 36.8333 22.5833V25.5V26.0209C36.8333 26.2426 36.7248 26.4427 36.5673 26.5593C36.5504 26.571 36.5347 26.5838 36.5166 26.5938C36.4857 26.6118 36.4518 26.6217 36.418 26.6322C36.3807 26.6439 36.3427 26.6521 36.3025 26.6556C36.2552 26.6591 36.2092 26.6556 36.1637 26.6486C36.1298 26.6433 36.096 26.6392 36.0645 26.6287C36.0178 26.613 35.9747 26.5873 35.9327 26.5593C35.9076 26.5424 35.8802 26.5296 35.858 26.5092C35.8166 26.4712 35.7862 26.4246 35.7577 26.3773C35.7454 26.3569 35.7279 26.3406 35.718 26.3184C35.6859 26.2455 35.6667 26.1656 35.6667 26.0833V22.5833ZM33.3333 22.5833C33.3333 22.2619 33.5947 22 33.9167 22C34.2387 22 34.5 22.2619 34.5 22.5833V26.0833C34.5 26.4047 34.2387 26.6667 33.9167 26.6667C33.5947 26.6667 33.3333 26.4047 33.3333 26.0833V22.5833ZM31 22.5833C31 22.2619 31.2613 22 31.5833 22C31.9053 22 32.1667 22.2619 32.1667 22.5833V26.0833C32.1667 26.4047 31.9053 26.6667 31.5833 26.6667C31.2613 26.6667 31 26.4047 31 26.0833V22.5833ZM28.6667 25.5V22.5833C28.6667 22.2619 28.928 22 29.25 22C29.572 22 29.8333 22.2619 29.8333 22.5833V26.0833C29.8333 26.1656 29.8141 26.2455 29.7814 26.319C29.7715 26.3412 29.754 26.3575 29.7417 26.3779C29.7132 26.4252 29.6828 26.4713 29.6414 26.5098C29.6198 26.5296 29.5924 26.543 29.5679 26.5593C29.5253 26.5873 29.4822 26.6136 29.4343 26.6293C29.404 26.6398 29.3707 26.6433 29.3387 26.6486C29.292 26.6556 29.2453 26.6597 29.1969 26.6556C29.1572 26.6521 29.1193 26.6439 29.0826 26.6322C29.0482 26.6212 29.0143 26.6112 28.9828 26.5932C28.9647 26.5838 28.9496 26.571 28.9333 26.5593C28.7758 26.4427 28.6667 26.242 28.6667 26.0203V25.5ZM25.75 29.5833V26.0833H27.5C27.5 26.7238 27.8494 27.2786 28.3639 27.5837C28.3954 27.6029 28.4281 27.6187 28.4607 27.6362C28.5132 27.663 28.5652 27.6898 28.62 27.7108C28.6812 27.7353 28.7454 27.7528 28.8102 27.7698C28.8487 27.7797 28.886 27.7925 28.9257 27.8001C28.9379 27.8024 28.9484 27.8071 28.9607 27.8094C29.0015 27.8164 29.0417 27.8123 29.0826 27.8164C29.1386 27.8217 29.1928 27.8333 29.25 27.8333C29.2669 27.8333 29.2827 27.8287 29.299 27.8281C29.3527 27.8263 29.4046 27.8182 29.4571 27.8123C29.5271 27.8042 29.5959 27.7948 29.663 27.7785C29.7132 27.7662 29.761 27.7493 29.81 27.733C29.8753 27.7108 29.9395 27.6863 30.0013 27.6572C30.0486 27.6344 30.0941 27.6087 30.1396 27.5819C30.1979 27.5469 30.2533 27.5096 30.3076 27.4682C30.3321 27.4495 30.3601 27.4367 30.3834 27.4168C30.3951 27.4069 30.4062 27.3976 30.4172 27.3877C30.4511 27.418 30.4907 27.4419 30.5269 27.4693C30.5631 27.4973 30.5981 27.5259 30.6366 27.551C30.6914 27.5866 30.7503 27.6152 30.8092 27.6449C30.8483 27.6642 30.8851 27.6863 30.9253 27.7027C30.993 27.7301 31.0647 27.7493 31.1359 27.768C31.1721 27.7773 31.2059 27.7913 31.2432 27.7989C31.3535 27.8205 31.4667 27.8333 31.5833 27.8333C31.7 27.8333 31.8132 27.8205 31.9234 27.7989C31.9613 27.7913 31.9957 27.7773 32.0325 27.7674C32.1031 27.7482 32.1742 27.7301 32.2413 27.7027C32.2827 27.6857 32.3201 27.6636 32.3597 27.6437C32.4181 27.6146 32.4764 27.586 32.5307 27.551C32.5697 27.5259 32.6047 27.4967 32.6409 27.4688C32.6771 27.4413 32.7162 27.4174 32.75 27.3871C32.7838 27.4174 32.8229 27.4408 32.8591 27.4688C32.8958 27.4967 32.9308 27.5265 32.9699 27.5516C33.0242 27.5866 33.0825 27.6152 33.1408 27.6443C33.1805 27.6642 33.2178 27.6863 33.2592 27.7032C33.3263 27.7307 33.3969 27.7493 33.4681 27.768C33.5048 27.7779 33.5398 27.7919 33.5772 27.7995C33.6868 27.8205 33.8 27.8333 33.9167 27.8333C34.0333 27.8333 34.1465 27.8205 34.2568 27.7989C34.2935 27.7913 34.3279 27.7779 34.3641 27.768C34.4358 27.7487 34.507 27.7301 34.5747 27.7027C34.6155 27.6863 34.6522 27.6642 34.6913 27.6443C34.7502 27.6152 34.8086 27.586 34.8634 27.5504C34.9019 27.5253 34.9363 27.4967 34.9731 27.4688C35.0093 27.4413 35.0489 27.4174 35.0828 27.3871C35.0938 27.397 35.1049 27.4069 35.1166 27.4162C35.1399 27.4361 35.1679 27.4489 35.1918 27.4676C35.2461 27.509 35.3021 27.5469 35.3616 27.5825C35.4059 27.6087 35.4502 27.6338 35.4969 27.656C35.5611 27.6869 35.627 27.7114 35.6952 27.7347C35.7413 27.7505 35.7868 27.7662 35.8341 27.7779C35.9052 27.7954 35.9782 27.8047 36.0517 27.8135C36.1007 27.8193 36.1485 27.8269 36.1981 27.8281C36.2156 27.8287 36.2319 27.8333 36.25 27.8333C36.3083 27.8333 36.3637 27.8217 36.4203 27.8158C36.46 27.8123 36.4997 27.8158 36.5399 27.8094C36.5533 27.8071 36.5656 27.8024 36.579 27.8001C36.6052 27.7948 36.6303 27.7872 36.656 27.7808C36.7307 27.7627 36.803 27.7412 36.873 27.7132C36.9115 27.6986 36.9488 27.6828 36.9856 27.6653C37.0264 27.6455 37.0661 27.6233 37.1052 27.6006C37.5316 27.3591 37.8489 26.9502 37.9568 26.4584C37.9825 26.5237 38 26.5932 38 26.6667V28.7585L37.1752 29.5833H25.75ZM40.9167 30.0622C40.9167 30.3288 40.8006 30.5808 40.5988 30.7547L37.3986 33.4975C37.0276 33.8154 36.8351 34.2949 36.8835 34.7814L37.9026 44.9728C37.9148 45.0994 37.8559 45.1858 37.8192 45.226C37.783 45.2657 37.7025 45.3333 37.5759 45.3333H29.6688C29.5428 45.3333 29.4623 45.2663 29.4262 45.226C29.39 45.1858 29.3305 45.1 29.3422 44.974L30.3618 34.264C30.3758 34.1164 30.3332 33.9694 30.2428 33.8516L28.6083 31.7376L28.2962 30.75H37.1752C37.482 30.75 37.783 30.6257 38 30.4082L38.8248 29.5833C39.0453 29.3628 39.1667 29.07 39.1667 28.7585V26.6667C39.1667 25.9072 38.6772 25.2655 38 25.024V23.1673C39.1859 23.1877 40.2272 23.9087 40.6623 25.0164L40.8817 25.5677C40.9044 25.6137 40.9167 25.6645 40.9167 25.7147V30.0622ZM43.25 29.5833H42.0833V26.0833H43.25V29.5833ZM47.9167 23.75V31.9167V35.4167C47.9167 35.7381 47.6553 36 47.3333 36H45C44.678 36 44.4167 35.7381 44.4167 35.4167V30.1667V25.5V20.25C44.4167 19.9286 44.678 19.6667 45 19.6667H47.3333C47.6553 19.6667 47.9167 19.9286 47.9167 20.25V23.75ZM50.8333 30.75C50.8333 31.0714 50.572 31.3333 50.25 31.3333H49.0833V24.3333H50.25C50.572 24.3333 50.8333 24.5952 50.8333 24.9167V30.75Z" fill="white"/>
<path d="M54.6001 2H65.1001V12.5H67.1001V0H54.6001V2Z" fill="#F1CC46"/>
<path d="M2 12.6V2H12.1V0H0V12.6H2Z" fill="#F1CC46"/>
<path d="M12.1 61.9001H2V51.3H0V63.9001H12.1V61.9001Z" fill="#F1CC46"/>
<path d="M65.1001 51.1V61.9H54.6001V63.9H67.1001V51.1H65.1001Z" fill="#F1CC46"/>
</g>
<defs>
<clipPath id="clip0">
<rect width="67.1" height="63.9" fill="white"/>
</clipPath>
</defs>
</svg>
