<svg width="18" height="18" viewBox="0 0 18 18" fill="none" xmlns="http://www.w3.org/2000/svg">
<path d="M13.1654 0H5.35072C2.6969 0 0.537842 2.15916 0.537842 4.81298V12.6276C0.537842 15.2816 2.6969 17.4406 5.35072 17.4406H13.1654C15.8194 17.4406 17.9785 15.2814 17.9785 12.6276V4.81298C17.9786 2.15916 15.8194 0 13.1654 0ZM16.4311 12.6276C16.4311 14.4283 14.9661 15.8932 13.1655 15.8932H5.35072C3.55014 15.8933 2.08526 14.4283 2.08526 12.6276V4.81298C2.08526 3.01241 3.55014 1.54742 5.35072 1.54742H13.1654C14.966 1.54742 16.431 3.01241 16.431 4.81298V12.6276H16.4311Z" fill="white"/>
<path d="M9.25819 4.22653C6.78014 4.22653 4.76416 6.24251 4.76416 8.72054C4.76416 11.1985 6.78014 13.2143 9.25819 13.2143C11.7362 13.2143 13.7522 11.1985 13.7522 8.72054C13.7522 6.24251 11.7362 4.22653 9.25819 4.22653ZM9.25819 11.6668C7.6335 11.6668 6.31158 10.3451 6.31158 8.72044C6.31158 7.09565 7.63339 5.77385 9.25819 5.77385C10.883 5.77385 12.2048 7.09565 12.2048 8.72044C12.2048 10.3451 10.8829 11.6668 9.25819 11.6668Z" fill="white"/>
<path d="M13.9407 2.91443C13.6425 2.91443 13.3497 3.03513 13.1391 3.24661C12.9275 3.45706 12.8059 3.75003 12.8059 4.0492C12.8059 4.34744 12.9276 4.64032 13.1391 4.8518C13.3496 5.06224 13.6425 5.18397 13.9407 5.18397C14.2399 5.18397 14.5318 5.06224 14.7433 4.8518C14.9548 4.64032 15.0755 4.34734 15.0755 4.0492C15.0755 3.75003 14.9548 3.45706 14.7433 3.24661C14.5328 3.03513 14.2399 2.91443 13.9407 2.91443Z" fill="white"/>
</svg>
