<svg width="34" height="32" viewBox="0 0 34 32" fill="none" xmlns="http://www.w3.org/2000/svg">
<g clip-path="url(#clip0)">
<path d="M32.8072 26.4828H0.945212C0.631003 26.4828 0.376221 26.2357 0.376221 25.931V6.06899C0.376221 5.7643 0.631003 5.51724 0.945212 5.51724H32.8072C33.1214 5.51724 33.3762 5.7643 33.3762 6.06899V25.931C33.3762 26.2358 33.1214 26.4828 32.8072 26.4828Z" fill="#41479B"/>
<path d="M33.3762 9.37943H0.376221V22.6207H33.3762V9.37943Z" fill="#F5F5F5"/>
<path d="M19.8325 16L21.3106 13.5175H18.3544L16.8761 11.0345L15.3978 13.5175H12.4417L13.9198 16L12.4417 18.4826H15.3978L16.8761 20.9655L18.3544 18.4826H21.3105L19.8325 16ZM19.8604 14.3294L19.3491 15.1882L18.8378 14.3294H19.8604ZM18.8657 16L17.871 17.6707H15.8811L14.8865 16L15.8812 14.3294H17.871L18.8657 16ZM16.8761 12.6584L17.3876 13.5175H16.3646L16.8761 12.6584ZM13.8918 14.3294H14.9143L14.403 15.1882L13.8918 14.3294ZM13.8918 17.6707L14.4031 16.8119L14.9144 17.6707H13.8918ZM16.8761 19.3417L16.3646 18.4825H17.3876L16.8761 19.3417ZM19.3491 16.8119L19.8604 17.6707H18.8378L19.3491 16.8119Z" fill="#41479B"/>
</g>
<defs>
<clipPath id="clip0">
<rect width="33" height="32" fill="white" transform="translate(0.376221)"/>
</clipPath>
</defs>
</svg>
