<svg width="122" height="43" viewBox="0 0 122 43" fill="none" xmlns="http://www.w3.org/2000/svg">
<path d="M61.5867 18.7742C59.8859 21.6736 59.5292 21.649 57.7856 18.5329V19.6109C57.7856 23.0723 57.7856 26.5354 57.801 30.0038C57.801 30.7947 57.5884 31.413 56.7723 31.5891C55.9562 31.7653 55.2738 31.1188 55.2635 30.1324C55.2463 28.4589 55.2635 26.7855 55.2635 25.1138C55.2635 21.0354 55.2635 16.9569 55.2635 12.8784C55.2635 12.1879 55.3869 11.5732 56.0813 11.2931C56.7757 11.013 57.4341 11.3389 57.8078 12.1597C58.4319 13.5284 59.0303 14.9112 59.7298 16.4948C60.4431 14.9359 61.0843 13.5584 61.7084 12.1703C61.9845 11.552 62.3771 11.161 63.0903 11.2438C63.7762 11.3248 64.1568 11.8462 64.1602 12.7798C64.1688 15.0979 64.1602 17.4161 64.1602 19.7342C64.1602 23.168 64.1602 26.6011 64.1602 30.0337C64.1602 31.0906 63.7659 31.5874 62.96 31.5944C62.0788 31.5944 61.6433 31.1135 61.6381 30.046C61.6244 26.4949 61.6278 22.9454 61.6227 19.396C61.6158 19.2533 61.6038 19.1177 61.5867 18.7742Z" fill="#C5C5C5"/>
<path d="M36.1977 13.3595L37.2007 13.8879L37.3825 14.0746C39.5754 15.357 40.5887 17.3986 40.9127 19.8876C41.3551 23.2697 39.7211 26.62 36.8801 28.1666L36.7001 28.2565C36.6961 28.274 36.6869 28.2897 36.6736 28.3014C36.6603 28.3132 36.6438 28.3202 36.6264 28.3216L36.5784 28.3393L36.1806 28.5048C36.0537 28.3005 35.6319 28.0204 35.8068 27.9306C36.7532 27.4462 35.9286 26.7962 35.8394 26.4298C35.7621 26.1768 35.7346 25.9106 35.7585 25.6466C35.7823 25.3826 35.857 25.1261 35.9783 24.892C35.229 24.9184 34.9993 25.498 34.7267 25.9366C34.3049 26.613 33.4991 26.967 33.2865 27.802L30.5569 28.9699C30.1763 28.91 29.7888 28.8695 29.487 28.5788C28.9898 28.0962 28.5115 27.5853 27.7845 27.4779C27.7451 27.3017 27.6131 27.27 27.4742 27.2683L27.4656 27.2595C27.4519 26.125 27.956 25.0717 27.9628 23.939C29.5642 24.1786 31.1347 24.6806 32.7807 24.545C34.3529 24.4164 35.5239 23.7171 36.0863 22.1194C36.9693 19.6374 34.9958 17.0269 32.4052 17.2823C32.1789 17.3052 31.956 17.3563 31.7314 17.3933C31.8377 17.2171 31.2616 17.4867 31.5359 16.9529C31.8788 16.2959 31.8017 15.3676 31.7228 14.5643C31.6885 14.2244 31.5788 13.8597 31.5513 13.4863C32.0657 13.5532 32.364 14.1345 32.923 14.0799C33.7271 15.0575 34.6855 15.9031 35.3233 17.0287C35.3431 17.0767 35.3742 17.1189 35.4136 17.1516C35.4531 17.1844 35.4999 17.2066 35.5497 17.2164C35.5996 17.2261 35.651 17.2231 35.6994 17.2076C35.7478 17.192 35.7918 17.1645 35.8274 17.1273C35.8718 17.1025 35.9098 17.0673 35.9385 17.0245C35.9672 16.9818 35.9857 16.9328 35.9926 16.8813C35.9994 16.8299 35.9944 16.7775 35.9779 16.7285C35.9614 16.6794 35.9339 16.635 35.8977 16.5989C35.7828 16.465 35.6268 16.3311 35.7382 16.1514C36.3778 15.1227 35.7965 14.1222 35.6902 13.1111L36.0143 13.2221L36.1977 13.3595ZM35.9937 24.2948C36.016 24.1768 36.0126 24.043 35.8823 24.0201C35.6971 23.9866 35.6799 24.1821 35.6148 24.2966C35.5496 24.4111 35.5565 24.5362 35.7022 24.5556C35.848 24.5749 35.9388 24.434 35.9937 24.2948ZM36.004 17.6734C35.9748 17.5501 35.9303 17.4549 35.8325 17.4972C35.8021 17.5219 35.7772 17.5531 35.7597 17.5887C35.7422 17.6244 35.7326 17.6635 35.7314 17.7033C35.7314 17.7914 35.7897 17.8795 35.8925 17.8425C35.9491 17.8213 35.9766 17.7209 36.004 17.6734Z" fill="#C5C5C5"/>
<path d="M49.3878 19.7041C49.1735 20.8068 48.9557 21.9112 48.7448 23.0157C48.2853 25.4307 47.8361 27.8475 47.3732 30.2607C47.176 31.2736 46.7834 31.6277 45.981 31.5889C45.1237 31.5466 44.6608 30.8843 44.8442 29.9102C45.5301 26.2897 46.2216 22.671 46.9188 19.0541C47.3372 16.8716 47.7761 14.6944 48.1756 12.5066C48.3145 11.7368 48.6591 11.263 49.4461 11.2418C50.2673 11.2207 50.5914 11.7579 50.7268 12.4942C51.8127 18.3319 52.8986 24.1683 53.9844 30.0036C54.1336 30.8051 53.7736 31.3952 53.0912 31.5537C52.2956 31.7298 51.6732 31.3775 51.5069 30.4968C50.9583 27.6238 50.4559 24.7402 49.9364 21.8654C49.8061 21.1491 49.6752 20.4327 49.5438 19.7164L49.3878 19.7041Z" fill="#C5C5C5"/>
<path d="M69.3417 11.2209C69.9692 11.2209 70.5967 11.2209 71.2277 11.2209C72.9422 11.2209 73.2851 11.6666 72.8273 13.3347C71.4557 18.2669 70.0927 23.1868 68.6764 28.0961C68.457 28.8606 68.5479 29.0755 69.328 29.0227C70.1276 28.9806 70.929 28.9835 71.7283 29.0315C72.5616 29.0702 73.0416 29.5864 73.0245 30.3491C73.0074 31.1118 72.5376 31.5927 71.6735 31.6033C70.1029 31.6209 68.5324 31.6156 66.9619 31.6033C65.6297 31.5874 65.2371 31.0237 65.6177 29.6815C66.511 26.5354 67.418 23.3929 68.3181 20.2486C68.8582 18.3674 69.3777 16.479 69.9452 14.6118C70.1338 13.9847 70.0104 13.7857 69.3588 13.8227C68.5016 13.8702 67.6443 13.8403 66.787 13.8227C65.9692 13.8033 65.4548 13.2942 65.4548 12.5491C65.4548 11.804 65.9692 11.2791 66.775 11.2544C67.6323 11.228 68.4896 11.2544 69.3468 11.2544L69.3417 11.2209Z" fill="#C5C5C5"/>
<path d="M13.7681 2.81841C13.6567 3.1848 13.3035 3.2306 13.0394 3.3768C9.68408 5.23695 7.10713 7.88448 5.17827 11.2736C4.07982 13.2106 3.29029 15.3159 2.83964 17.5093C2.39803 19.6838 2.33476 21.9214 2.65276 24.1185C2.96556 26.4221 3.60742 28.6658 4.55761 30.777C5.31894 32.4428 6.34579 33.9664 7.59577 35.2846C8.28158 36.0139 8.9674 36.7414 9.65321 37.4671L9.58806 37.5358C9.47147 37.527 9.33774 37.5358 9.37546 37.6926C9.3926 37.7631 9.54691 37.7965 9.63264 37.8476C9.83838 38.1841 9.93268 38.5223 9.65836 38.871C8.54905 38.4518 7.81695 37.5112 7.04712 36.6921C5.57605 35.1261 4.27128 33.4157 3.318 31.4287C1.47487 27.6027 0.657039 23.5636 1.12854 19.3765C1.89151 12.5225 5.08569 7.07948 10.7299 3.26054C11.6524 2.63697 12.7017 2.21245 13.6927 1.69633C13.7497 1.65189 13.8208 1.63088 13.8922 1.63739C13.9635 1.64391 14.0299 1.67748 14.0784 1.73156C13.6258 2.14199 13.0326 2.29348 12.5353 2.61231C12.4016 2.69863 12.0639 2.68101 12.2079 2.96461C12.3159 3.18128 12.5079 3.36447 12.8302 3.18128C13.1234 3.02274 13.4012 2.78494 13.7681 2.81841ZM8.65878 36.9915C8.58858 36.9936 8.5205 37.0167 8.46293 37.058C8.40535 37.0993 8.36079 37.157 8.33473 37.224C8.29016 37.3562 8.36903 37.4636 8.50619 37.4231C8.64246 37.391 8.76366 37.3113 8.8491 37.1976C8.90568 37.0778 8.78223 37.0056 8.65878 36.9915Z" fill="#C5C5C5"/>
<path d="M106.983 25.2246C106.983 27.0143 106.953 28.8039 106.996 30.5919C107.015 31.4004 106.825 31.7809 105.949 31.7069C105.073 31.6329 104.179 31.7069 103.295 31.6875C101.643 31.6664 100.32 30.5373 100.099 28.8691C99.9183 27.5007 99.9276 26.113 100.126 24.7472C100.368 23.0932 101.872 21.8249 103.351 21.9411C103.684 21.9676 104.09 21.9411 104.109 22.452C104.128 22.9628 103.756 22.9804 103.406 23.035C101.691 23.3045 101.038 24.0761 101.03 25.8446C101.03 26.6655 101.009 27.4881 101.042 28.3107C101.098 29.7569 101.988 30.6518 103.375 30.6835C104.088 30.7011 104.803 30.6676 105.517 30.6958C105.897 30.7099 105.998 30.5619 105.997 30.1902C105.985 26.5827 106.007 22.9681 105.974 19.3658C105.957 18.8196 105.745 18.299 105.377 17.904C105.009 17.509 104.513 17.2674 103.982 17.2256C102.712 17.141 101.774 17.8826 101.472 19.1263C101.381 19.5032 101.643 20.2871 100.908 20.1391C100.236 20.0035 100.519 19.3376 100.616 18.8779C101.001 17.0618 102.341 15.945 103.927 16.0877C105.659 16.2444 106.912 17.6043 106.965 19.5173C107.019 21.4303 106.977 23.3292 106.977 25.2369L106.983 25.2246Z" fill="#C5C5C5"/>
<path d="M80.2666 26.8769C80.2666 26.3202 80.2666 25.7618 80.2666 25.2052C80.2666 24.8159 80.4158 24.5728 80.8135 24.5905C81.177 24.6063 81.2782 24.8617 81.2765 25.1982C81.2765 26.1652 81.2765 27.1358 81.2765 28.1029C81.2867 29.7446 82.1234 30.6394 83.6631 30.6676C85.2662 30.6958 86.1578 29.8309 86.2126 28.154C86.24 27.3331 86.228 26.5105 86.2126 25.6879C86.1886 23.9264 85.3794 23.1319 83.5825 23.065C81.9674 23.0051 80.8118 22.0962 80.3712 20.5408C80.172 19.8314 80.1948 19.0756 80.4363 18.3803C80.6778 17.6849 81.1258 17.0851 81.7171 16.6655C82.1779 16.3087 82.7293 16.0964 83.3049 16.0542C83.8804 16.012 84.4556 16.1417 84.961 16.4277C86.0909 17.0142 86.703 17.9901 86.7887 19.2971C86.8144 19.6988 86.8058 20.1162 86.2743 20.1215C85.7926 20.1215 85.8063 19.7217 85.76 19.3641C85.616 18.131 84.7964 17.2503 83.7025 17.1411C83.2013 17.1044 82.7023 17.2382 82.2824 17.5219C81.8625 17.8055 81.5452 18.2232 81.3793 18.7106C81.2077 19.2434 81.2146 19.8198 81.3988 20.3482C81.5831 20.8765 81.9341 21.3263 82.3961 21.6258C82.8058 21.883 83.2533 21.9165 83.7128 21.9341C85.8749 22.0151 87.0905 23.22 87.1848 25.4377C87.2323 26.4943 87.2249 27.5527 87.1625 28.6084C87.0407 30.606 85.6588 31.765 83.5362 31.7192C81.7222 31.6787 80.3335 30.31 80.2546 28.4693C80.2323 27.9408 80.2546 27.4124 80.2546 26.8839L80.2666 26.8769Z" fill="#C5C5C5"/>
<path d="M110.348 23.8596C110.348 22.3623 110.286 20.8651 110.364 19.3713C110.456 17.6098 111.528 16.4208 113.107 16.1301C114.928 15.7955 116.443 16.4824 117.103 18.0678C118.082 20.4159 116.99 23.3946 114.237 23.4633C113.832 23.4738 113.277 23.6112 113.27 22.9348C113.27 22.3306 113.784 22.4293 114.165 22.3923C115.389 22.2707 116.148 21.6049 116.366 20.4546C116.625 19.0771 116.141 17.9181 115.085 17.3843C113.371 16.5212 111.44 17.5605 111.377 19.5087C111.283 22.4398 111.307 25.378 111.356 28.3162C111.379 29.7166 112.318 30.6167 113.618 30.7013C115.176 30.8034 116.114 30.1024 116.407 28.6139C116.425 28.5274 116.436 28.4396 116.442 28.3514C116.457 27.9991 116.531 27.6662 116.956 27.6856C117.431 27.7085 117.434 28.1224 117.436 28.473C117.436 30.0196 116.188 31.4675 114.672 31.6895C112.052 32.0717 110.35 30.5639 110.334 27.8441C110.334 26.523 110.334 25.2019 110.334 23.8825L110.348 23.8596Z" fill="#C5C5C5"/>
<path d="M6.89294 15.1365C7.65323 14.2764 8.64014 13.6614 9.73393 13.3662C9.77856 13.3866 9.82206 13.4096 9.86423 13.4349C9.86413 13.4487 9.86135 13.4624 9.85605 13.4751C9.85075 13.4878 9.84304 13.4993 9.83337 13.5089C9.61734 13.6516 9.26071 13.685 9.4476 14.1148C9.69621 14.6873 9.61905 15.3003 9.61905 15.9028C9.61905 16.204 9.61905 16.4894 9.98768 16.5704C10.0065 16.8769 9.87109 17.0988 9.71164 17.3631C9.17327 18.2438 8.78407 19.1668 8.95381 20.2431V22.1508C8.78236 23.5776 9.57447 24.6662 10.166 25.8271L10.1248 25.8799C9.81965 25.8799 9.43903 25.901 9.75621 26.3361C9.97053 26.6356 9.93796 26.9262 9.96196 27.2363C10.0134 27.9197 9.7425 28.4887 9.37902 29.0295C8.9681 28.9502 8.58382 28.764 8.26285 28.4887C8.17541 28.1082 7.87194 28.0413 7.56332 27.9796C7.56332 27.726 7.42616 27.6273 7.19641 27.659C7.18902 27.5681 7.15052 27.4829 7.08774 27.4184C7.02496 27.3539 6.94198 27.3143 6.8535 27.3067C6.8295 27.1306 6.70777 27.0936 6.56718 27.0777V27.0672C6.56718 23.2095 6.56318 19.3518 6.55518 15.4941C6.60155 15.4987 6.64833 15.4925 6.69206 15.476C6.73579 15.4595 6.77535 15.4331 6.80779 15.3988C6.84024 15.3645 6.86474 15.323 6.87948 15.2776C6.89422 15.2322 6.89882 15.184 6.89294 15.1365Z" fill="#C5C5C5"/>
<path d="M9.38257 29.0297C9.74605 28.4889 10.0169 27.9199 9.96551 27.2365C9.94151 26.9265 9.97408 26.6358 9.75977 26.3364C9.45115 25.9013 9.8232 25.8819 10.1284 25.8801C11.0573 27.2566 12.3997 28.2825 13.9501 28.8007C13.8781 27.8671 13.7289 27.0075 13.7786 26.1584C13.8095 25.5261 13.6689 25.1456 13.0928 24.9377L13.4049 24.8197L13.6123 24.7404L13.9844 24.6664C14.2038 24.6488 14.4164 24.6206 14.449 24.33L14.4713 24.3071C15.0045 24.1591 15.2429 23.717 15.4657 23.259C15.9441 22.5403 16.5853 22.417 17.3243 22.7552C17.9491 23.0446 18.5191 23.4454 19.008 23.9389C19.5223 24.4674 19.7264 25.0998 19.2994 25.8414C18.5565 27.1267 17.4501 28.1491 16.1276 28.7725C13.9261 29.84 11.6715 30.0725 9.38257 29.0297Z" fill="#C5C5C5"/>
<path d="M121.993 20.8244C121.993 24.1642 121.993 27.5052 121.993 30.8473C121.993 31.219 122.089 31.6735 121.518 31.6805C120.948 31.6876 121.004 31.2366 121.004 30.8614C120.995 24.1807 120.989 17.4987 120.985 10.8156C120.984 10.7279 120.988 10.6403 120.996 10.5531C121.023 10.2166 121.073 9.86611 121.496 9.87492C121.963 9.88549 121.995 10.2272 121.995 10.6253C121.989 14.025 121.989 17.4247 121.993 20.8244Z" fill="#C5C5C5"/>
<path d="M90.5794 23.8509C90.5794 21.6209 90.5983 19.389 90.5691 17.1572C90.5589 16.3364 90.8178 15.9805 91.6682 16.0475C92.5769 16.1179 93.4959 16.0475 94.4114 16.0633C95.2471 16.0861 96.0437 16.4316 96.6424 17.0311C97.2411 17.6305 97.5979 18.4398 97.6416 19.2975C97.6587 19.6498 97.7256 20.0637 97.2524 20.1394C96.7792 20.2152 96.738 19.8382 96.6557 19.4683C96.3128 17.742 95.6836 17.2277 93.9536 17.1977C93.4101 17.1977 92.8632 17.2418 92.3265 17.1784C91.6802 17.1026 91.5824 17.3968 91.5859 17.9763C91.6047 22.2621 91.5962 26.5478 91.5859 30.8353C91.5859 31.1559 91.747 31.6068 91.2258 31.679C90.5503 31.7742 90.5863 31.2422 90.5846 30.8089C90.5743 28.489 90.5794 26.1708 90.5794 23.8509Z" fill="#C5C5C5"/>
<path d="M31.5634 13.4755C31.584 13.8437 31.6937 14.2153 31.7348 14.5553C31.8137 15.3515 31.884 16.2869 31.548 16.9439C31.2736 17.4723 31.8497 17.1993 31.7434 17.3843C31.0319 17.7982 30.3581 18.2351 29.8283 18.9203C29.2196 19.7042 28.5372 19.6866 27.4468 19.0137C27.5376 18.6614 27.8411 18.4271 27.8291 17.9955C27.7914 16.7625 27.8291 15.5294 27.8377 14.2964C28.3796 13.7233 29.0707 13.3227 29.8283 13.1426C30.3958 13.2905 31.0576 12.9559 31.5634 13.4755Z" fill="#C5C5C5"/>
<path d="M13.7684 2.81845C13.4015 2.78322 13.1237 3.02102 12.8339 3.18308C12.5116 3.35923 12.3196 3.18308 12.2116 2.96642C12.0675 2.67577 12.4053 2.69338 12.539 2.61412C13.0397 2.29176 13.6329 2.14027 14.0821 1.73337C17.1357 0.188529 20.3848 -0.176102 23.7195 0.070508C27.9356 0.378771 31.6716 1.99407 35.0183 4.60109C35.4915 4.96924 35.9065 5.41666 36.3471 5.83414C36.3608 6.02967 36.2785 6.12831 36.0831 6.1107C33.7124 3.85922 30.8287 2.25642 27.6973 1.44976C24.0062 0.448194 20.1122 0.561956 16.4825 1.7774C15.9681 1.94475 15.4726 2.1297 14.9685 2.29705C14.5776 2.25653 14.2381 2.32699 14.0581 2.74271L13.7684 2.81845Z" fill="#C5C5C5"/>
<path d="M6.55165 15.4907C6.55165 19.3484 6.55565 23.2061 6.56366 27.0638C5.81955 26.7009 5.51607 25.9417 5.19203 25.2741C3.59236 22.0365 3.93527 18.561 6.26361 15.6281C6.31505 15.5506 6.45221 15.5348 6.55165 15.4907Z" fill="#C5C5C5"/>
<path d="M17.8591 18.45C16.5921 18.1964 15.3267 17.9216 14.0545 17.6979C13.5025 17.5992 12.9332 17.6027 12.3726 17.5605C12.3143 17.2082 12.8869 17.2751 12.7926 16.7554C12.6521 15.9363 12.4857 15.0468 12.9641 14.2383C12.9641 14.2383 12.7926 14.1273 12.7155 14.0621C13.0498 13.5636 13.8591 13.7045 14.0734 13.0352C15.445 13.354 16.7549 13.7591 17.6859 14.9411C17.4168 14.9217 17.2436 14.5765 16.9007 14.7015C16.995 14.9112 17.0841 15.1032 17.1716 15.2969C17.0327 15.3181 16.8835 15.3322 16.8612 15.5171C16.8321 15.7532 16.995 15.799 17.1716 15.8219C16.7481 16.8788 16.9315 17.7683 17.8591 18.45Z" fill="#C5C5C5"/>
<path d="M17.1715 15.2986C17.0841 15.1049 17.0001 14.9129 16.9006 14.7033C17.2435 14.5782 17.415 14.9234 17.6859 14.9428C18.9838 15.5541 20.0537 16.5282 21.2161 17.342C22.6581 18.3619 24.0674 19.4276 25.4665 20.5655C22.8604 20.1392 20.3726 19.2462 17.8591 18.4517C16.9315 17.77 16.748 16.8805 17.1732 15.8253C17.3721 15.7549 17.571 16.079 17.7905 15.8253C17.619 15.5858 17.4904 15.3356 17.1732 15.2969L17.1715 15.2986Z" fill="#C5C5C5"/>
<path d="M76.8494 23.886C76.8494 26.2018 76.8494 28.5187 76.8494 30.8369C76.8494 31.2086 76.9248 31.6771 76.371 31.6859C75.7863 31.6859 75.8172 31.2156 75.8172 30.8052C75.8172 26.2006 75.8172 21.596 75.8172 16.9915C75.8172 16.5722 75.7863 16.0949 76.3693 16.1107C76.9968 16.1213 76.8476 16.6533 76.8494 17.0338C76.8545 19.3114 76.8494 21.5996 76.8494 23.886Z" fill="#C5C5C5"/>
<path d="M9.64828 38.864C9.9226 38.5117 9.8283 38.177 9.62256 37.8406L10.2981 38.0291C12.4293 39.4999 14.641 40.8105 17.1442 41.4992C18.1215 41.767 19.1177 41.9625 20.1052 42.1915C20.0247 42.4046 19.9338 42.6195 19.8601 42.8344C18.3564 42.9665 16.9453 42.4592 15.5634 42.0153C13.7049 41.4164 11.9132 40.6061 10.3358 39.3836C10.336 39.337 10.3261 39.291 10.3067 39.2488C10.2873 39.2067 10.259 39.1695 10.2238 39.1401C10.1886 39.1107 10.1474 39.0898 10.1033 39.0789C10.0592 39.068 10.0133 39.0674 9.9689 39.0771C9.94428 39.0142 9.90074 38.9609 9.84461 38.9251C9.78849 38.8893 9.72271 38.8728 9.65685 38.8781L9.64828 38.864Z" fill="#C5C5C5"/>
<path d="M27.968 23.93C27.968 25.0627 27.4537 26.1161 27.4708 27.2505C26.4421 26.7872 25.6311 25.9769 24.7275 25.3128C24.7291 25.265 24.72 25.2175 24.701 25.1738C24.682 25.1301 24.6536 25.0915 24.6179 25.0608C24.5822 25.0301 24.5402 25.0081 24.4951 24.9965C24.4499 24.9849 24.4028 24.9841 24.3572 24.994L24.2286 24.9288C24.1515 24.462 23.3902 24.3598 23.4794 24.0798C23.7966 23.081 23.097 23.502 22.689 23.4192C23.1125 23.0845 23.5119 22.7974 24.0177 22.7146L24.2423 22.8132L24.5372 22.8784L24.6092 22.9013H24.6847L27.968 23.93Z" fill="#C5C5C5"/>
<path d="M13.0926 24.9358C13.6618 25.1436 13.8024 25.5241 13.7784 26.1565C13.7356 27.0073 13.8847 27.8669 13.9499 28.7988C12.3995 28.2805 11.0571 27.2547 10.1282 25.8782L10.1693 25.8253C10.3408 25.8535 10.6151 25.8711 10.598 25.7003C10.5037 24.7684 11.1123 24.8495 11.6764 24.8618L13.0926 24.9358Z" fill="#C5C5C5"/>
<path d="M19.8599 42.8346C19.9422 42.6197 20.0313 42.4048 20.105 42.1917L21.9687 42.2991C21.9687 42.4189 22.015 42.5493 22.1402 42.5334C22.2122 42.5246 22.2671 42.3872 22.3305 42.3062C25.8727 42.3978 29.1715 41.4607 32.2954 39.7996C32.4668 39.7996 32.592 39.8524 32.5766 40.0638C28.6349 42.4348 24.4102 43.4212 19.8599 42.8346Z" fill="#C5C5C5"/>
<path d="M12.7138 14.0674C12.7995 14.1273 12.9641 14.2435 12.9624 14.2435C12.4857 15.0521 12.652 15.9416 12.7909 16.7607C12.8801 17.2804 12.3126 17.2064 12.3708 17.5657C11.9216 17.8793 11.3524 17.7648 10.8741 18.0484C10.0257 18.5573 9.35413 19.3268 8.95378 20.2485C8.78233 19.1722 9.17495 18.2404 9.71332 17.3684C9.87277 17.1113 10.0082 16.8823 9.98936 16.5758V16.5599C10.13 16.5493 10.2517 16.5088 10.2963 16.3485C10.9666 15.4308 11.8205 14.7262 12.7138 14.0674Z" fill="#C5C5C5"/>
<path d="M35.7006 13.1037C35.8069 14.1148 36.3864 15.1154 35.7486 16.1441C35.6372 16.3202 35.7932 16.4576 35.9081 16.5915C35.9443 16.6277 35.9718 16.6721 35.9883 16.7211C36.0048 16.7702 36.0098 16.8226 36.0029 16.874C35.9961 16.9254 35.9776 16.9745 35.9489 17.0172C35.9202 17.0599 35.8821 17.0951 35.8378 17.12C35.8022 17.1571 35.7582 17.1847 35.7098 17.2002C35.6613 17.2157 35.6099 17.2188 35.5601 17.209C35.5102 17.1993 35.4635 17.177 35.424 17.1443C35.3845 17.1115 35.3535 17.0693 35.3337 17.0213C34.701 15.8957 33.7426 15.0502 32.9333 14.0726C32.9889 14.0701 33.0432 14.0545 33.092 14.027C33.1408 13.9995 33.1827 13.9609 33.2145 13.914C33.2464 13.8671 33.2673 13.8133 33.2756 13.7568C33.2839 13.7003 33.2795 13.6426 33.2625 13.5881C33.1768 13.1443 33.434 12.8501 33.65 12.5312C34.3478 12.6827 35.0988 12.607 35.7006 13.1037Z" fill="#C5C5C5"/>
<path d="M12.7137 14.0675C11.8204 14.7263 10.9666 15.4309 10.3013 16.3434C10.1607 16.3557 10.0321 16.3839 9.99442 16.5548V16.5706C9.62922 16.4896 9.62408 16.2042 9.6258 15.903C9.6258 15.3006 9.69952 14.6876 9.45434 14.1151C9.26746 13.6853 9.6258 13.6518 9.84011 13.5091C9.84979 13.4995 9.8575 13.488 9.8628 13.4753C9.8681 13.4626 9.87088 13.449 9.87097 13.4351C9.8288 13.4098 9.7853 13.3868 9.74067 13.3664C11.1167 12.7979 12.6305 12.6822 14.0733 13.0353C13.859 13.7046 13.0497 13.5637 12.7137 14.0675Z" fill="#C5C5C5"/>
<path d="M33.2865 27.7877C33.4991 26.9527 34.305 26.5987 34.7267 25.9223C34.9994 25.4836 35.2291 24.9041 35.9784 24.8777C35.8571 25.1117 35.7824 25.3682 35.7586 25.6322C35.7347 25.8963 35.7622 26.1625 35.8395 26.4155C35.9286 26.7819 36.7533 27.4319 35.8069 27.9163C35.6354 28.0061 36.0538 28.2862 36.1807 28.4905C35.5549 29.0894 34.7147 28.9855 33.9706 29.1951C33.5797 29.1 33.2042 28.8111 33.386 28.4535C33.5677 28.096 33.1648 28.0167 33.2865 27.7877Z" fill="#C5C5C5"/>
<path d="M27.8309 14.2983C27.8223 15.5314 27.7846 16.7644 27.8223 17.9975C27.8343 18.4291 27.5309 18.6651 27.44 19.0156C26.1678 18.4872 25.554 17.7703 25.7992 16.8067C26.0872 15.6987 26.7182 14.7563 27.8309 14.2983Z" fill="#C5C5C5"/>
<path d="M36.0828 6.1037C36.2782 6.12132 36.3605 6.02268 36.3468 5.82715C37.2812 6.28866 37.7407 7.23635 38.394 7.97442C39.4227 9.15462 40.1976 10.5356 40.9778 11.8885C41.2881 12.4293 41.5916 13.1303 41.4338 14.0252C39.9045 11.0976 38.4145 8.29325 36.0828 6.1037Z" fill="#C5C5C5"/>
<path d="M24.0195 22.7058C23.5137 22.7974 23.1142 23.0845 22.6907 23.4104C23.0988 23.4932 23.7983 23.0722 23.4811 24.0709C23.3919 24.351 24.1532 24.4532 24.2303 24.92C22.5758 24.1132 21.3156 22.734 19.6714 21.6894C20.7035 21.6066 22.9702 22.1615 24.0195 22.7058Z" fill="#C5C5C5"/>
<path d="M33.655 12.5348C33.4321 12.8483 33.1818 13.1425 33.2675 13.5917C33.2844 13.6461 33.2889 13.7039 33.2806 13.7604C33.2722 13.8169 33.2514 13.8707 33.2195 13.9175C33.1877 13.9644 33.1457 14.0031 33.0969 14.0306C33.0482 14.0581 32.9939 14.0737 32.9383 14.0761C32.3759 14.1307 32.081 13.5477 31.5667 13.4825C31.0609 12.954 30.3991 13.2958 29.8247 13.1496C31.0043 12.3534 32.3296 12.4238 33.655 12.5348Z" fill="#C5C5C5"/>
<path d="M35.7144 37.3315C37.3226 35.806 38.6976 34.0674 40.0007 32.2637C39.1161 34.3176 37.7515 36.1153 36.0281 37.4971C35.9767 37.3438 35.8481 37.328 35.7144 37.3315Z" fill="#C5C5C5"/>
<path d="M33.2864 27.7878C33.1647 28.0168 33.5625 28.1067 33.3859 28.4519C33.2093 28.7972 33.5796 29.0984 33.9705 29.1935C32.8012 29.5758 31.6713 29.3873 30.5569 28.9557L33.2864 27.7878Z" fill="#C5C5C5"/>
<path d="M11.6766 24.8636C11.1056 24.8513 10.5038 24.7702 10.5981 25.7021C10.6153 25.8782 10.3375 25.8553 10.1695 25.8271C9.57284 24.661 8.78244 23.5777 8.95732 22.1509C9.45282 23.4896 10.3992 24.351 11.6766 24.8636Z" fill="#C5C5C5"/>
<path d="M35.7142 37.3315C35.848 37.3315 35.9748 37.3439 36.0331 37.4971C35.0044 38.5188 33.8831 39.4348 32.5732 40.0636C32.5886 39.8523 32.4583 39.8065 32.292 39.7994C33.4202 38.9574 34.6529 38.2704 35.7142 37.3315Z" fill="#C5C5C5"/>
<path d="M77.0141 14.0446C76.9541 14.3669 76.8272 14.6206 76.4398 14.6717C76.018 14.7174 75.7539 14.5184 75.7419 14.1097C75.7282 13.7803 75.8585 13.4756 76.2717 13.4545C76.6849 13.4333 76.9147 13.6253 77.0141 14.0446Z" fill="#C5C5C5"/>
<path d="M27.7847 27.4636C28.5116 27.5711 28.9848 28.0819 29.4872 28.5646C28.8134 28.3726 28.1996 28.0784 27.7847 27.4636Z" fill="#C5C5C5"/>
<path d="M15.4656 23.252C15.2427 23.7099 15.0044 24.1521 14.4712 24.3C14.7061 23.866 15.0493 23.5042 15.4656 23.252Z" fill="#C5C5C5"/>
<path d="M14.0581 2.74274C14.2296 2.32702 14.5725 2.25656 14.9685 2.29708C14.8545 2.43144 14.7149 2.54032 14.5583 2.61698C14.4017 2.69364 14.2315 2.73644 14.0581 2.74274Z" fill="#C5C5C5"/>
<path d="M10.298 38.0289L9.62246 37.8404C9.60703 37.7365 9.5916 37.6326 9.57788 37.5287L9.64303 37.46C9.92593 37.5815 10.2586 37.6291 10.298 38.0289Z" fill="#C5C5C5"/>
<path d="M7.56665 27.9797C7.87527 28.0414 8.17874 28.1083 8.26618 28.4888C7.91813 28.4853 7.72782 28.2563 7.56665 27.9797Z" fill="#C5C5C5"/>
<path d="M14.449 24.3281C14.4164 24.6188 14.2038 24.647 13.9844 24.6646C14.004 24.5574 14.0635 24.4624 14.1503 24.3996C14.237 24.3367 14.3442 24.3111 14.449 24.3281Z" fill="#C5C5C5"/>
<path d="M24.3589 24.9942C24.4044 24.9842 24.4516 24.9851 24.4967 24.9967C24.5419 25.0082 24.5839 25.0302 24.6196 25.0609C24.6553 25.0917 24.6837 25.1303 24.7027 25.174C24.7217 25.2176 24.7308 25.2652 24.7292 25.313C24.6839 25.3209 24.6375 25.3186 24.5931 25.3063C24.5488 25.2939 24.5076 25.2718 24.4723 25.2415C24.4371 25.2112 24.4087 25.1733 24.3891 25.1306C24.3696 25.0879 24.3592 25.0414 24.3589 24.9942Z" fill="#C5C5C5"/>
<path d="M9.96887 39.0772C10.0132 39.0675 10.0592 39.0681 10.1033 39.079C10.1474 39.0899 10.1886 39.1108 10.2238 39.1402C10.259 39.1696 10.2873 39.2067 10.3067 39.2489C10.3261 39.291 10.336 39.3371 10.3358 39.3837C10.2912 39.3957 10.2446 39.3967 10.1995 39.3866C10.1545 39.3766 10.1125 39.3558 10.0767 39.326C10.041 39.2961 10.0126 39.258 9.99387 39.2148C9.97513 39.1716 9.96657 39.1245 9.96887 39.0772Z" fill="#C5C5C5"/>
<path d="M6.89288 15.1367C6.89806 15.1843 6.89275 15.2324 6.87735 15.2776C6.86194 15.3228 6.83684 15.3638 6.80391 15.3976C6.77097 15.4315 6.73104 15.4572 6.68708 15.4731C6.64312 15.4889 6.59626 15.4943 6.54997 15.489C6.5414 15.2406 6.66827 15.1385 6.89288 15.1367Z" fill="#C5C5C5"/>
<path d="M7.19995 27.6555C7.4297 27.6326 7.56686 27.7225 7.56686 27.9761C7.47696 27.983 7.38806 27.9532 7.3194 27.8932C7.25073 27.8332 7.20782 27.7478 7.19995 27.6555Z" fill="#C5C5C5"/>
<path d="M22.3271 42.3059C22.2637 42.3869 22.2088 42.5243 22.1368 42.5331C22.0151 42.549 21.9653 42.4186 21.9653 42.2988L22.3271 42.3059Z" fill="#C5C5C5"/>
<path d="M6.85522 27.3035C6.94369 27.3111 7.02668 27.3506 7.08946 27.4151C7.15224 27.4796 7.19074 27.5649 7.19813 27.6558C7.10719 27.6558 7.01997 27.6186 6.95566 27.5526C6.89135 27.4865 6.85522 27.3969 6.85522 27.3035Z" fill="#C5C5C5"/>
<path d="M9.65674 38.8764C9.7226 38.8712 9.78838 38.8877 9.8445 38.9234C9.90062 38.9592 9.94416 39.0125 9.96878 39.0755C9.82305 39.079 9.69274 39.0579 9.65674 38.8764Z" fill="#C5C5C5"/>
<path d="M37.3824 14.0673L37.2007 13.8806C37.3996 13.7995 37.3841 13.9405 37.3824 14.0673Z" fill="#C5C5C5"/>
<path d="M27.4795 27.2593C27.6252 27.2593 27.7504 27.298 27.7898 27.4689C27.6527 27.4513 27.5138 27.4389 27.4795 27.2593Z" fill="#C5C5C5"/>
<path d="M6.57056 27.0745C6.71115 27.0903 6.83288 27.1326 6.85688 27.3035C6.71629 27.2876 6.59285 27.2489 6.57056 27.0745Z" fill="#C5C5C5"/>
<path d="M36.5784 28.325L36.6272 28.3074L36.6115 28.369L36.5784 28.325Z" fill="#C5C5C5"/>
<path d="M13.6122 24.7384L13.4048 24.8177C13.4476 24.7173 13.5162 24.6768 13.6122 24.7384Z" fill="#C5C5C5"/>
<path d="M36.1978 13.3593L36.0264 13.2148C36.1138 13.2237 36.1978 13.2395 36.1978 13.3593Z" fill="#C5C5C5"/>
<path d="M24.688 22.8995H24.6125L24.5405 22.8766C24.604 22.7762 24.6605 22.7832 24.688 22.8995Z" fill="#C5C5C5"/>
<path d="M24.2458 22.8045L24.0212 22.7058L24.2458 22.8045Z" fill="#C5C5C5"/>
<path d="M36.7002 28.2422L36.8802 28.1523L36.7002 28.2422Z" fill="#C5C5C5"/>
<path d="M35.9936 24.2964C35.9387 24.4338 35.8684 24.5765 35.7021 24.5554C35.5358 24.5342 35.5513 24.4092 35.6147 24.2964C35.6781 24.1837 35.697 23.9864 35.8822 24.0199C36.0125 24.0428 36.0159 24.1767 35.9936 24.2964Z" fill="#C5C5C5"/>
<path d="M36.0041 17.6731C35.975 17.7207 35.9492 17.8211 35.8909 17.8493C35.7881 17.8951 35.7195 17.7982 35.7298 17.7101C35.731 17.6702 35.7406 17.6311 35.7581 17.5955C35.7756 17.5599 35.8004 17.5287 35.8309 17.504C35.9304 17.4547 35.9767 17.5498 36.0041 17.6731Z" fill="#C5C5C5"/>
<path d="M8.65875 36.9916C8.7822 37.0074 8.90565 37.0796 8.83021 37.1977C8.74477 37.3114 8.62357 37.3911 8.4873 37.4231C8.35699 37.4637 8.27813 37.3562 8.31585 37.2241C8.3431 37.154 8.39056 37.0942 8.45185 37.0526C8.51314 37.0111 8.58534 36.9898 8.65875 36.9916Z" fill="#C5C5C5"/>
<path d="M9.58482 37.5359C9.59854 37.6398 9.61397 37.7438 9.6294 37.8477C9.53853 37.7966 9.38937 37.7632 9.37222 37.6927C9.3345 37.5412 9.46824 37.5201 9.58482 37.5359Z" fill="#C5C5C5"/>
<path d="M17.1715 15.8235C17.0001 15.8006 16.8286 15.7548 16.8612 15.5188C16.8835 15.3426 17.0326 15.3197 17.1715 15.2986V15.827V15.8235Z" fill="#C5C5C5"/>
<path d="M17.1665 15.8287V15.3003C17.4837 15.3408 17.6209 15.5909 17.7837 15.8287C17.5643 16.0824 17.3654 15.7583 17.1665 15.8287Z" fill="#C5C5C5"/>
<path d="M9.99463 16.5581C10.0323 16.3819 10.1661 16.359 10.3015 16.3467C10.2587 16.5035 10.1352 16.544 9.99463 16.5581Z" fill="#C5C5C5"/>
</svg>
