<svg width="68" height="64" viewBox="0 0 68 64" fill="none" xmlns="http://www.w3.org/2000/svg">
<g clip-path="url(#clip0)">
<path d="M54.6001 2H65.1001V12.5H67.1001V0H54.6001V2Z" fill="#F1CC46"/>
<path d="M2 12.6V2H12.1V0H0V12.6H2Z" fill="#F1CC46"/>
<path d="M12.1 61.9001H2V51.3H0V63.9001H12.1V61.9001Z" fill="#F1CC46"/>
<path d="M65.1001 51.1V61.9H54.6001V63.9H67.1001V51.1H65.1001Z" fill="#F1CC46"/>
<path d="M36.5237 43.6328H30.4761C30.163 43.6328 29.9092 43.8866 29.9092 44.1998C29.9092 44.513 30.163 44.7667 30.4761 44.7667H36.5237C36.8368 44.7667 37.0906 44.513 37.0906 44.1998C37.0906 43.8866 36.8368 43.6328 36.5237 43.6328Z" fill="white"/>
<path d="M36.5237 41.2139H30.4761C30.163 41.2139 29.9092 41.4676 29.9092 41.7808C29.9092 42.094 30.163 42.3478 30.4761 42.3478H36.5237C36.8368 42.3478 37.0906 42.094 37.0906 41.7808C37.0906 41.4676 36.8368 41.2139 36.5237 41.2139Z" fill="white"/>
<path d="M36.5237 19.4427H30.4761C30.163 19.4427 29.9092 19.6965 29.9092 20.0097C29.9092 20.3229 30.163 20.5767 30.4761 20.5767H36.5237C36.8368 20.5767 37.0906 20.3229 37.0906 20.0097C37.0906 19.6965 36.8368 19.4427 36.5237 19.4427Z" fill="white"/>
<path d="M36.5237 17.0238H30.4761C30.163 17.0238 29.9092 17.2776 29.9092 17.5908C29.9092 17.9039 30.163 18.1577 30.4761 18.1577H36.5237C36.8368 18.1577 37.0906 17.9039 37.0906 17.5908C37.0906 17.2776 36.8368 17.0238 36.5237 17.0238Z" fill="white"/>
<path d="M30.4761 33.8812C30.7892 33.8812 31.0431 33.6274 31.0431 33.3142V30.8952C31.0431 30.582 30.7892 30.3282 30.4761 30.3282C30.163 30.3282 29.9092 30.582 29.9092 30.8952V33.3142C29.9092 33.6274 30.163 33.8812 30.4761 33.8812Z" fill="white"/>
<path d="M30.4761 29.0432C30.6251 29.0432 30.7717 28.9827 30.8768 28.8769C30.9826 28.7718 31.0431 28.6259 31.0431 28.4763C31.0431 28.3266 30.9826 28.1807 30.8768 28.0756C30.7717 27.9698 30.6258 27.9093 30.4761 27.9093C30.3272 27.9093 30.1806 27.9698 30.0755 28.0756C29.9697 28.1807 29.9092 28.3273 29.9092 28.4763C29.9092 28.6252 29.9697 28.7718 30.0755 28.8769C30.1806 28.9827 30.3272 29.0432 30.4761 29.0432Z" fill="white"/>
<path d="M48.6188 14H40.1523C39.6853 14 39.2602 14.1813 38.9428 14.477C38.6253 14.1813 38.2002 14 37.7332 14H29.2667C28.7998 14 28.3746 14.1813 28.0572 14.477C27.7398 14.1813 27.3147 14 26.8477 14H18.3812C17.4016 14 16.6047 14.7969 16.6047 15.7765V46.014C16.6047 46.7954 17.112 47.46 17.8142 47.6972V48.433C17.8142 48.7462 18.0681 49 18.3812 49C18.6943 49 18.9481 48.7462 18.9481 48.433V47.7905H26.2808V48.433C26.2808 48.7462 26.5346 49 26.8477 49C27.1608 49 27.4147 48.7462 27.4147 48.433V47.6972C27.6562 47.6157 27.8746 47.4837 28.0572 47.3136C28.2399 47.4837 28.4582 47.6157 28.6998 47.6972V48.433C28.6998 48.7462 28.9536 49 29.2667 49C29.5798 49 29.8337 48.7462 29.8337 48.433V47.7905H37.1663V48.433C37.1663 48.7462 37.4201 49 37.7332 49C38.0464 49 38.3002 48.7462 38.3002 48.433V47.6972C38.5417 47.6157 38.7601 47.4837 38.9428 47.3136C39.1254 47.4837 39.3438 47.6157 39.5853 47.6972V48.433C39.5853 48.7462 39.8391 49 40.1523 49C40.4654 49 40.7192 48.7462 40.7192 48.433V47.7905H48.0518V48.433C48.0518 48.7462 48.3057 49 48.6188 49C48.9319 49 49.1857 48.7462 49.1857 48.433V47.6972C49.888 47.46 50.3952 46.7954 50.3952 46.014V15.7765C50.3952 14.7969 49.5983 14 48.6188 14ZM26.8477 46.6566H18.3812C18.0269 46.6566 17.7386 46.3684 17.7386 46.014V15.7765C17.7386 15.4221 18.0269 15.1339 18.3812 15.1339H26.8477C27.202 15.1339 27.4903 15.4221 27.4903 15.7765V46.014C27.4903 46.3684 27.202 46.6566 26.8477 46.6566ZM37.7332 46.6566H29.2667C28.9124 46.6566 28.6242 46.3684 28.6242 46.014V15.7765C28.6242 15.4221 28.9124 15.1339 29.2667 15.1339H37.7332C38.0876 15.1339 38.3758 15.4221 38.3758 15.7765V46.014C38.3758 46.3684 38.0876 46.6566 37.7332 46.6566ZM49.2613 46.014C49.2613 46.3684 48.9731 46.6566 48.6188 46.6566H40.1523C39.7979 46.6566 39.5097 46.3684 39.5097 46.014V15.7765C39.5097 15.4221 39.7979 15.1339 40.1523 15.1339H48.6188C48.9731 15.1339 49.2613 15.4221 49.2613 15.7765V46.014Z" fill="white"/>
<path d="M47.4094 43.6328H41.3619C41.0488 43.6328 40.7949 43.8866 40.7949 44.1998C40.7949 44.513 41.0488 44.7667 41.3619 44.7667H47.4094C47.7225 44.7667 47.9763 44.513 47.9763 44.1998C47.9763 43.8866 47.7225 43.6328 47.4094 43.6328Z" fill="white"/>
<path d="M47.4094 41.2139H41.3619C41.0488 41.2139 40.7949 41.4676 40.7949 41.7808C40.7949 42.094 41.0488 42.3478 41.3619 42.3478H47.4094C47.7225 42.3478 47.9763 42.094 47.9763 41.7808C47.9763 41.4676 47.7225 41.2139 47.4094 41.2139Z" fill="white"/>
<path d="M47.4094 19.4427H41.3619C41.0488 19.4427 40.7949 19.6965 40.7949 20.0097C40.7949 20.3229 41.0488 20.5767 41.3619 20.5767H47.4094C47.7225 20.5767 47.9763 20.3229 47.9763 20.0097C47.9763 19.6965 47.7225 19.4427 47.4094 19.4427Z" fill="white"/>
<path d="M47.4094 17.0238H41.3619C41.0488 17.0238 40.7949 17.2776 40.7949 17.5908C40.7949 17.9039 41.0488 18.1577 41.3619 18.1577H47.4094C47.7225 18.1577 47.9763 17.9039 47.9763 17.5908C47.9763 17.2776 47.7225 17.0238 47.4094 17.0238Z" fill="white"/>
<path d="M41.3619 33.8812C41.675 33.8812 41.9288 33.6274 41.9288 33.3142V30.8952C41.9288 30.582 41.675 30.3282 41.3619 30.3282C41.0488 30.3282 40.7949 30.582 40.7949 30.8952V33.3142C40.7949 33.6274 41.0488 33.8812 41.3619 33.8812Z" fill="white"/>
<path d="M41.3619 29.0432C41.5108 29.0432 41.6567 28.9827 41.7625 28.8769C41.8684 28.7718 41.9288 28.6252 41.9288 28.4763C41.9288 28.3273 41.8684 28.1807 41.7625 28.0756C41.6574 27.9698 41.5108 27.9093 41.3619 27.9093C41.213 27.9093 41.0663 27.9698 40.9612 28.0756C40.8554 28.1807 40.7949 28.3265 40.7949 28.4763C40.7949 28.6259 40.8554 28.7718 40.9612 28.8769C41.0663 28.9827 41.213 29.0432 41.3619 29.0432Z" fill="white"/>
<path d="M25.6382 43.6328H19.5906C19.2775 43.6328 19.0237 43.8866 19.0237 44.1998C19.0237 44.513 19.2775 44.7667 19.5906 44.7667H25.6382C25.9513 44.7667 26.2051 44.513 26.2051 44.1998C26.2051 43.8866 25.9513 43.6328 25.6382 43.6328Z" fill="white"/>
<path d="M25.6382 41.2139H19.5906C19.2775 41.2139 19.0237 41.4676 19.0237 41.7808C19.0237 42.094 19.2775 42.3478 19.5906 42.3478H25.6382C25.9513 42.3478 26.2051 42.094 26.2051 41.7808C26.2051 41.4676 25.9513 41.2139 25.6382 41.2139Z" fill="white"/>
<path d="M25.6382 19.4427H19.5906C19.2775 19.4427 19.0237 19.6965 19.0237 20.0097C19.0237 20.3229 19.2775 20.5767 19.5906 20.5767H25.6382C25.9513 20.5767 26.2051 20.3229 26.2051 20.0097C26.2051 19.6965 25.9513 19.4427 25.6382 19.4427Z" fill="white"/>
<path d="M25.6382 17.0238H19.5906C19.2775 17.0238 19.0237 17.2776 19.0237 17.5908C19.0237 17.9039 19.2775 18.1577 19.5906 18.1577H25.6382C25.9513 18.1577 26.2051 17.9039 26.2051 17.5908C26.2051 17.2776 25.9513 17.0238 25.6382 17.0238Z" fill="white"/>
<path d="M19.5906 33.8812C19.9037 33.8812 20.1576 33.6274 20.1576 33.3142V30.8952C20.1576 30.582 19.9037 30.3282 19.5906 30.3282C19.2775 30.3282 19.0237 30.582 19.0237 30.8952V33.3142C19.0237 33.6274 19.2775 33.8812 19.5906 33.8812Z" fill="white"/>
<path d="M19.5906 29.0432C19.7396 29.0432 19.8855 28.9827 19.9913 28.8769C20.0971 28.7718 20.1576 28.6252 20.1576 28.4763C20.1576 28.3273 20.0971 28.1807 19.9913 28.0756C19.8862 27.9698 19.7396 27.9093 19.5906 27.9093C19.4417 27.9093 19.2951 27.9698 19.19 28.0756C19.0842 28.1807 19.0237 28.3273 19.0237 28.4763C19.0237 28.6252 19.0842 28.7718 19.19 28.8769C19.2958 28.9827 19.4417 29.0432 19.5906 29.0432Z" fill="white"/>
</g>
<defs>
<clipPath id="clip0">
<rect width="67.1" height="63.9" fill="white"/>
</clipPath>
</defs>
</svg>
