<svg width="133" height="50" viewBox="0 0 133 50" fill="none" xmlns="http://www.w3.org/2000/svg">
<path d="M21.1366 49.4939H0V44.0007H9.66517V34.5617C9.66517 33.2778 9.07887 32.8982 7.05552 32.8982C4.49079 32.8982 0 33.5686 0 33.5686V27.9126C2.75532 27.3736 5.55431 27.0816 8.36284 27.0402C13.7842 27.0402 18.0704 28.3291 18.0704 34.6086V44.0007H21.8527L21.1366 49.4939Z" fill="white"/>
<path d="M23.4519 49.4939V37.7261L31.8596 37.0188V49.4939H23.4519ZM36.9242 49.4939V34.9536C36.9242 33.1619 34.5266 32.9106 33.601 32.9106C30.2804 32.9106 23.4719 33.6228 23.4719 33.6228V27.9594C23.4719 27.9594 30.0309 27.0402 34.1998 27.0402C39.6212 27.0402 45.3369 28.3291 45.3369 34.6086V49.4939H36.9242Z" fill="white"/>
<path d="M47.0684 27.4591V32.945H51.5666L50.4689 38.6823L51.5666 49.4865H59.9719L58.2529 37.9726L59.4679 32.945H62.7462L63.4597 27.4591H47.0684Z" fill="white"/>
<path d="M69.899 42.2977V31.905H66.8328L67.3791 27.4591H75.7844V41.6717L69.899 42.2977Z" fill="white"/>
<path d="M90.1198 49.4939V34.1502C90.1198 31.9864 87.7672 31.7449 85.5392 31.7449C83.8552 31.7449 78.5137 32.3216 78.5137 32.3216V27.8855C78.5137 27.8855 84.0223 27.0525 86.8416 27.0525C92.1382 27.0525 96.0002 28.1369 96.0002 34.1995V49.4939H90.1198Z" fill="white"/>
<path d="M99.1562 49.4939V38.5172L105.034 37.9701V49.4939H99.1562ZM112.606 49.4939V34.1502C112.606 31.9864 109.363 31.7449 107.145 31.7449C105.463 31.7449 99.1612 32.3216 99.1612 32.3216V27.8855C99.1612 27.8855 105.635 27.0525 108.452 27.0525C113.746 27.0525 118.496 28.1369 118.496 34.1995V49.4939H112.606Z" fill="white"/>
<path d="M99.9423 5.94188C91.2701 6.35098 84.6537 9.2763 77.8102 11.3193C73.8059 12.522 68.3297 12.798 63.9113 11.9256C59.1036 10.9866 51.2498 8.33734 45.8159 8.46056C30.9689 8.83023 15.0466 22.858 13.7044 23.4987L13.2353 23.4223L12.9409 22.9787C13.1081 21.091 35.3948 4.2759 50.3117 5.27894C59.1061 5.87287 66.9775 10.5554 75.5424 7.71137C82.4956 5.39723 93.3583 -0.30308 103.156 0.534838C117.474 1.74736 126.595 16.4701 131.166 26.328C131.166 26.328 134.571 34.096 129.604 37.0706C129.604 37.0706 115.76 5.18775 99.9423 5.94188Z" fill="#F0CC47"/>
</svg>
