<svg width="68" height="65" viewBox="0 0 68 65" fill="none" xmlns="http://www.w3.org/2000/svg">
<path d="M42.6623 30.5788C42.5532 30.4692 42.4049 30.4076 42.2502 30.4076H27.3247L24.3678 27.4462C25.1878 26.231 25.0318 24.6044 23.9955 23.568L22.2455 21.8153C21.0504 20.6215 19.1161 20.6215 17.9209 21.8153L16.1709 23.568C15.943 23.7962 15.943 24.1659 16.1709 24.3941L25.2545 33.4923L23.3877 39.4689C23.1114 40.3561 23.2726 41.322 23.8226 42.0706C24.3727 42.8191 25.2454 43.261 26.1734 43.2607H40.8266C41.7543 43.2605 42.6262 42.8183 43.1756 42.0697C43.725 41.3212 43.8863 40.3558 43.6097 39.4689L42.347 35.4204L48.2545 41.3369C48.482 41.5648 48.8515 41.5648 49.0791 41.3369L50.8291 39.5842C51.0569 39.356 51.0569 38.9863 50.8291 38.758L42.6623 30.5788ZM21.4209 22.6415L23.1709 24.3941C23.7509 24.975 23.8921 25.8636 23.5207 26.5961L19.2235 22.2931C19.954 21.9217 20.8404 22.0621 21.4209 22.6415ZM42.2365 41.3777C41.9087 41.829 41.384 42.0948 40.8266 42.0923H26.1734C25.616 42.0926 25.0919 41.8267 24.762 41.3768C24.4319 40.9267 24.3359 40.3461 24.5031 39.8138L26.3454 33.913H40.6546L42.4969 39.8138C42.6663 40.3467 42.5695 40.9287 42.2365 41.3777ZM48.6669 40.0977L41.4957 32.9157C41.4871 32.9069 41.4754 32.904 41.4666 32.8958C41.4293 32.8635 41.3883 32.8361 41.3441 32.8142C41.3253 32.8048 41.3085 32.7931 41.2894 32.7854C41.2236 32.7594 41.1539 32.7457 41.0835 32.7446H26.158L17.4079 23.9811L18.3333 23.0545L26.671 31.4049C26.7803 31.5145 26.9285 31.5761 27.0834 31.5761H42.0086L49.592 39.1711L48.6669 40.0977Z" fill="white"/>
<g clip-path="url(#clip0)">
<path d="M54.6 2.47548H65.1V12.9916H67.1V0.472412H54.6V2.47548Z" fill="#F1CC46"/>
<path d="M2 13.0917V2.47548H12.1V0.472412H0V13.0917H2Z" fill="#F1CC46"/>
<path d="M12.1 62.4673H2V51.8511H0V64.4704H12.1V62.4673Z" fill="#F1CC46"/>
<path d="M65.1 51.6508V62.4673H54.6V64.4704H67.1V51.6508H65.1Z" fill="#F1CC46"/>
</g>
<defs>
<clipPath id="clip0">
<rect width="67.1" height="63.998" fill="white" transform="translate(0 0.472412)"/>
</clipPath>
</defs>
</svg>
