<svg width="63" height="87" viewBox="0 0 63 87" fill="none" xmlns="http://www.w3.org/2000/svg">
<g clip-path="url(#clip0)">
<path d="M27.9548 8.91403C27.5528 9.89237 27.1874 11.0157 26.7123 12.0665C25.616 14.5304 24.4466 16.9944 23.3138 19.4584C22.4002 21.4151 21.4867 23.3355 20.6096 25.2922C20.4269 25.6908 20.1711 25.872 19.6961 25.872C18.746 25.8357 17.8324 25.872 16.8823 25.872C16.5168 25.872 16.261 25.727 16.1149 25.3647C14.0319 20.8715 11.949 16.3784 9.86602 11.8491C9.39097 10.8345 9.06208 9.78367 8.62356 8.66039C8.62356 8.84156 8.62356 8.95026 8.58702 9.05897C8.44085 11.4867 8.33122 13.9507 8.14851 16.3784C8.03888 18.1177 7.89271 19.857 7.78308 21.56C7.6369 23.2993 7.52728 25.0386 7.3811 26.7416C7.34456 27.2489 7.30802 27.7924 7.27148 28.2997C7.16185 30.4013 6.32136 31.271 4.20187 31.3434C2.95941 31.3797 1.75349 31.3434 0.511034 31.3434C0.109062 31.3434 -0.0371094 31.1623 -0.0371094 30.7999C-0.0371094 29.7491 -0.0371094 28.6983 -0.0371094 27.6837C-0.000566449 27.2489 0.109062 27.1764 0.620663 27.1764C0.986093 27.1764 1.31498 27.1764 1.68041 27.1764C2.26509 27.1764 2.48435 26.9952 2.5209 26.4155C2.63052 25.256 2.70361 24.0965 2.81324 22.9007C2.95941 20.8715 3.14213 18.8424 3.2883 16.8132C3.43447 15.2189 3.5441 13.6246 3.65373 11.994C3.7999 10.3272 3.90953 8.66039 4.0557 7.02981C4.16533 5.47171 4.3115 3.87738 4.42113 2.31928C4.45767 1.66705 4.53076 1.05106 4.5673 0.398828C4.64039 0.145184 4.75001 0.000244141 5.04236 0.000244141C6.43099 0.000244141 7.81962 0.000244141 9.20825 0.000244141C9.53714 0.000244141 9.64677 0.217654 9.7564 0.471298C10.67 2.53669 11.6201 4.60208 12.5337 6.66747C14.105 10.1823 15.6763 13.697 17.2477 17.2118C17.6131 18.0815 17.942 18.9511 18.344 19.9294C18.4536 19.6758 18.4902 19.5309 18.5632 19.3497C19.7326 16.6321 20.902 13.8782 22.1079 11.1606C23.6792 7.60957 25.2871 4.09479 26.8585 0.543768C27.0412 0.145184 27.2605 0.000244141 27.7355 0.000244141C29.0145 0.036479 30.2935 0.036479 31.536 0.000244141C31.938 0.000244141 32.0841 0.145184 32.1207 0.543768C32.3399 3.5875 32.5957 6.63123 32.8515 9.67496C33.0342 12.1752 33.2535 14.7116 33.4728 17.2118C33.692 20.1106 33.9478 23.0094 34.1671 25.9082C34.1671 25.9444 34.1671 25.9807 34.1671 25.9807C34.2767 27.1039 34.3498 27.1402 35.4826 27.1402C36.6154 27.1402 36.6885 26.959 36.6885 28.3359C36.6885 29.1331 36.6885 29.9665 36.6885 30.7637C36.6885 31.3072 36.5789 31.4159 36.0673 31.4159C34.7152 31.4159 33.3631 31.4159 32.011 31.3434C30.4762 31.2347 29.7088 30.51 29.5627 28.9519C29.3799 27.5025 29.3069 26.0531 29.1972 24.64C29.0511 22.9007 28.9049 21.1614 28.7953 19.4584C28.6856 17.864 28.5395 16.2697 28.4298 14.7116C28.174 12.7549 28.1009 10.7982 27.9548 8.91403Z" fill="#C5C5C5"/>
<path d="M18.2349 33.3361C27.2244 33.1912 34.533 40.5469 34.4965 49.7868C34.4599 58.773 27.1148 65.7664 18.1253 65.7301C9.17224 65.6939 1.93674 58.5919 2.00983 49.6418C2.04637 40.4019 9.3915 33.1912 18.2349 33.3361ZM18.2714 37.8655C17.9425 37.8655 17.6137 37.8655 17.3213 37.8655C17.1386 37.8655 16.9559 37.9017 16.7732 37.938C13.667 38.3728 11.1821 39.8946 9.35495 42.4311C7.49126 45.0038 6.79695 47.9026 7.12583 51.0188C7.45472 54.2437 8.87989 56.9613 11.4744 58.9542C13.7036 60.6935 16.2981 61.4182 19.1485 61.1645C21.8526 60.9471 24.1548 59.9325 26.0551 58.0483C28.1746 55.9467 29.3074 53.374 29.4536 50.4028C29.5997 47.9388 29.0881 45.6198 27.8457 43.4819C25.6896 39.8584 22.5104 37.9742 18.2714 37.8655Z" fill="#C5C5C5"/>
<path d="M54.6315 52.2145C55.3623 52.7942 55.7278 53.6276 56.1297 54.4611C57.1895 56.5264 58.2492 58.5918 59.2724 60.6935C59.6013 61.3457 60.0764 61.7443 60.8438 61.708C61.1727 61.708 61.465 61.7805 61.7939 61.7805C62.0497 61.7805 62.1593 61.9254 62.1593 62.1791C62.1593 63.3024 62.1593 64.4256 62.1593 65.5852C62.1593 65.7301 61.9401 65.9837 61.8304 65.9837C60.4783 65.9837 59.0897 66.0925 57.7376 65.8026C56.9702 65.6214 56.349 65.1866 55.9105 64.5344C55.6181 64.0995 55.3623 63.6647 55.1065 63.1937C53.7544 60.5485 52.3658 57.9034 51.0503 55.222C50.5021 54.1349 49.6982 53.6276 48.4923 53.6276C47.3229 53.6639 46.117 53.6276 44.9476 53.6276C44.3264 53.6276 44.3264 53.6276 44.3264 54.2436C44.3264 57.9034 44.3264 61.5631 44.3264 65.1866C44.3264 65.9113 44.2898 65.9475 43.559 65.9475C42.4627 65.9475 41.3664 65.9475 40.2701 65.9475C39.4662 65.9475 39.4662 65.9475 39.4662 65.1866C39.4662 57.7584 39.4662 50.3303 39.4662 42.9021C39.4662 41.6701 39.4662 40.4744 39.4662 39.2424C39.4662 38.88 39.32 38.7351 38.9546 38.7351C38.3333 38.7713 37.7121 38.7351 37.0543 38.7351C36.6889 38.7351 36.5427 38.5902 36.5427 38.2641C36.5427 37.177 36.5427 36.1262 36.5427 35.0391C36.5427 34.6768 36.6889 34.5681 37.0543 34.5681C41.7684 34.5681 46.4824 34.4956 51.1599 34.6043C53.7544 34.6406 56.0566 35.6189 57.8107 37.6118C58.8339 38.8076 59.4917 40.2207 59.7109 41.7426C60.0398 43.808 59.9667 45.8371 59.1262 47.7938C58.2492 49.7505 56.8606 51.1999 54.8873 52.0333C54.8142 52.0695 54.7411 52.1058 54.7046 52.1058C54.7046 52.1058 54.668 52.142 54.6315 52.2145ZM44.2898 44.0616C44.2898 45.6922 44.2898 47.3228 44.2898 48.9171C44.2898 49.2795 44.3995 49.4244 44.7649 49.3882C45.2765 49.3519 45.8246 49.3882 46.3362 49.3882C47.7979 49.3519 49.2962 49.3882 50.7579 49.2795C52.2562 49.1708 53.4621 48.4461 54.193 47.1054C54.8873 45.8734 55.0334 44.5327 54.8873 43.1195C54.5949 40.3657 52.8043 38.7351 50.0271 38.6989C48.3095 38.6989 46.592 38.6989 44.838 38.6989C44.2898 38.6989 44.2533 38.6989 44.2533 39.2786C44.2898 40.9092 44.2898 42.5035 44.2898 44.0616Z" fill="#C5C5C5"/>
<path d="M49.9176 13.3343C50.7946 11.8487 51.5985 10.3993 52.4756 8.98615C53.8642 6.66712 55.2528 4.34808 56.6415 2.02905C57.482 0.652123 58.6513 -0.0363404 60.2958 -0.000105468C61.0266 0.0361294 61.7575 -0.000105468 62.4883 -0.000105468C62.8172 -0.000105468 62.9999 0.108599 62.9999 0.470948C62.9999 1.558 62.9999 2.64504 62.9999 3.73209C62.9999 4.0582 62.8538 4.20314 62.5249 4.20314C62.4883 4.20314 62.4518 4.20314 62.4518 4.20314C61.2093 3.98573 60.515 4.63796 59.9303 5.6163C57.5185 9.56591 55.0336 13.4793 52.5852 17.4289C52.439 17.6463 52.4025 17.9362 52.4025 18.226C52.4025 22.3568 52.4025 26.4876 52.4025 30.6184C52.4025 31.4156 52.3659 31.4518 51.562 31.4518C50.4292 31.4518 49.2963 31.4518 48.2 31.4518C47.5788 31.4518 47.5057 31.3793 47.5057 30.7271C47.5057 26.5601 47.5057 22.3931 47.5057 18.2623C47.5057 17.8999 47.3961 17.5014 47.1769 17.2115C44.7285 13.2619 42.207 9.31226 39.7586 5.36266C39.2836 4.60173 38.6989 4.09444 37.7488 4.23938C37.6757 4.23938 37.6391 4.23938 37.5661 4.23938C36.8717 4.23938 36.8352 4.20314 36.8352 3.51468C36.8352 2.53634 36.8352 1.558 36.8352 0.615888C36.8352 0.217304 36.9814 0.0361294 37.4199 0.0723643C38.4796 0.108599 39.5394 0.0723643 40.5991 0.144834C41.5492 0.217304 42.3166 0.724593 42.7917 1.48553C43.7418 2.89869 44.6554 4.38432 45.5324 5.83371C46.9941 8.26145 48.4193 10.7254 49.881 13.1894C49.8079 13.2256 49.8445 13.2619 49.9176 13.3343Z" fill="#C5C5C5"/>
<path d="M5.33521 83.1228C5.33521 82.5068 5.33521 81.8908 5.33521 81.2386C5.33521 80.84 5.48138 80.6951 5.88335 80.6951C6.46804 80.7313 7.05272 80.6951 7.63741 80.7675C8.51444 80.8762 9.02604 81.3473 9.09913 82.1807C9.17221 82.8329 9.17221 83.4852 9.06258 84.1374C8.95295 84.9708 8.33173 85.4418 7.49124 85.4781C6.90655 85.5143 6.35841 85.4781 5.77372 85.4781C5.44483 85.4781 5.33521 85.3331 5.33521 85.007C5.33521 84.4273 5.33521 83.775 5.33521 83.1228ZM6.06606 83.0866C6.06606 83.5576 6.06606 84.0287 6.06606 84.4635C6.06606 84.7534 6.17569 84.8983 6.46804 84.8983C6.79692 84.8983 7.12581 84.8983 7.49124 84.8983C8.03938 84.8621 8.36827 84.536 8.40481 83.9924C8.44135 83.7026 8.40481 83.4489 8.40481 83.159C8.51444 81.6009 8.11247 81.3111 6.54112 81.3473C6.21224 81.3473 6.06606 81.456 6.06606 81.7821C6.06606 82.2169 6.06606 82.6518 6.06606 83.0866Z" fill="#C5C5C5"/>
<path d="M38.6624 85.4782C38.2605 85.5144 37.8585 85.5869 37.4931 85.5144C36.8353 85.442 36.5064 85.0434 36.5064 84.3912C36.4699 83.9563 36.4699 83.5215 36.5064 83.0867C36.543 82.3983 36.9084 81.9634 37.6027 81.891C38.0412 81.8185 38.5163 81.8547 38.9548 81.891C39.2471 81.891 39.4298 82.0721 39.4298 82.3982C39.4298 83.4491 39.4298 84.4999 39.4298 85.5144C39.3933 86.529 38.7721 87.0725 37.7489 86.9638C37.4931 86.9276 37.2373 86.8914 36.9815 86.7827C36.8718 86.7464 36.8353 86.5653 36.7622 86.4566C36.8718 86.3841 36.9815 86.3116 37.0911 86.3116C37.3834 86.3116 37.6392 86.3479 37.9316 86.3479C38.5528 86.3841 38.699 86.2029 38.6624 85.4782ZM38.6624 83.6665C38.6624 83.3766 38.6624 83.1229 38.6624 82.8331C38.6624 82.7244 38.6259 82.5794 38.5528 82.507C38.1508 82.1446 37.2007 82.507 37.1276 83.0505C37.0911 83.3766 37.0911 83.7027 37.0911 83.9926C37.0911 84.826 37.2738 84.9709 38.1143 84.9347C38.4797 84.9347 38.6624 84.7897 38.6624 84.3912C38.6624 84.21 38.6624 83.9563 38.6624 83.6665Z" fill="#C5C5C5"/>
<path d="M42.0974 83.1229C42.0974 82.4707 42.0974 81.8547 42.0974 81.2025C42.0974 80.9489 42.1705 80.7314 42.4628 80.7314C42.7552 80.7314 42.7917 80.9489 42.7917 81.1663C42.7917 81.5648 42.7917 81.9634 42.7917 82.3982C42.7917 82.6881 42.9014 82.7968 43.1937 82.7968C43.7053 82.7968 44.2534 82.7968 44.765 82.7968C45.0574 82.7968 45.167 82.6881 45.1305 82.3982C45.1305 81.9997 45.1305 81.6011 45.1305 81.1663C45.1305 80.9126 45.167 80.7314 45.4959 80.7314C45.7882 80.7314 45.8613 80.9126 45.8613 81.1663C45.8613 82.4707 45.8613 83.8114 45.8613 85.1159C45.8613 85.3333 45.8248 85.5145 45.5324 85.5145C45.2401 85.5145 45.1305 85.3695 45.1305 85.1159C45.1305 84.681 45.1305 84.21 45.1305 83.7752C45.1305 83.4853 45.0208 83.3404 44.7285 83.3766C44.2169 83.3766 43.7053 83.3766 43.1937 83.3766C42.8648 83.3766 42.7917 83.5215 42.7917 83.8114C42.7917 84.2462 42.7917 84.6448 42.7917 85.0796C42.7917 85.3333 42.7917 85.5507 42.4628 85.5507C42.0974 85.5507 42.0974 85.297 42.0974 85.0434C42.0974 84.3912 42.0974 83.7389 42.0974 83.1229Z" fill="#C5C5C5"/>
<path d="M37.493 76.6367C37.1641 76.6729 36.8352 76.7454 36.5063 76.7454C35.8486 76.7454 35.4101 76.3831 35.337 75.7308C35.3004 75.2236 35.3004 74.68 35.337 74.1727C35.4101 73.4843 35.9217 73.0857 36.5794 73.0857C36.9449 73.0857 37.3468 73.0857 37.7123 73.0857C38.0411 73.0857 38.1873 73.2669 38.1873 73.593C38.1873 74.68 38.2239 75.7308 38.1873 76.8179C38.1508 77.7238 37.6392 78.1948 36.7256 78.1948C36.3967 78.1948 36.0678 78.1223 35.739 78.0499C35.6293 78.0136 35.5928 77.8325 35.5197 77.7238C35.6293 77.6875 35.7389 77.5788 35.8851 77.5788C36.2505 77.5788 36.5794 77.6513 36.9449 77.6151C37.493 77.5064 37.7123 77.144 37.493 76.6367ZM37.5295 74.8612C37.5295 74.5713 37.5295 74.3177 37.5295 74.0278C37.5295 73.7379 37.4199 73.593 37.1276 73.593C36.9449 73.593 36.7621 73.593 36.616 73.593C36.2505 73.6292 36.0678 73.8104 36.0678 74.1727C36.0678 74.6438 36.0678 75.0786 36.0678 75.5497C36.0678 75.9845 36.2871 76.1294 36.8718 76.1294C37.4199 76.1294 37.5661 76.0207 37.5661 75.5497C37.5295 75.3685 37.5295 75.1149 37.5295 74.8612Z" fill="#C5C5C5"/>
<path d="M11.1455 74.3177C11.1455 73.7017 11.1455 73.0857 11.1455 72.5059C11.1455 72.1436 11.2551 71.9262 11.6571 71.9624C12.388 71.9987 13.1188 71.9624 13.8497 71.9624C14.0689 71.9624 14.2882 71.9624 14.2882 72.2523C14.2882 72.5422 14.0689 72.5784 13.8497 72.5784C13.3381 72.5784 12.863 72.5784 12.3514 72.5784C11.986 72.5784 11.8398 72.6871 11.8398 73.0495C11.8764 74.1003 11.7667 73.9553 12.7534 73.9553C13.0457 73.9553 13.3381 73.9191 13.6304 73.9916C13.7766 74.0278 13.8862 74.1728 14.0324 74.2815C13.8862 74.3902 13.7766 74.5713 13.6304 74.5713C13.1919 74.6076 12.7169 74.6076 12.2783 74.5713C11.986 74.5713 11.8764 74.68 11.8764 74.9699C11.9129 76.3106 11.7302 76.057 12.9727 76.0932C13.3015 76.0932 13.6304 76.057 13.9959 76.0932C14.1055 76.0932 14.2151 76.2744 14.3613 76.3831C14.2517 76.4918 14.142 76.673 14.0324 76.7092C13.2285 76.7454 12.388 76.7092 11.584 76.7092C11.2551 76.7092 11.2186 76.4918 11.2186 76.2381C11.1455 75.6221 11.1455 74.9699 11.1455 74.3177Z" fill="#C5C5C5"/>
<path d="M19.1119 76.5643C19.1119 76.9991 19.1119 77.3977 19.1119 77.7962C19.1119 78.0137 19.0388 78.2311 18.783 78.1948C18.6368 78.1586 18.4175 77.9412 18.4175 77.8325C18.381 76.4193 18.381 75.0062 18.4175 73.593C18.4175 73.4481 18.6368 73.1944 18.783 73.1582C19.2946 73.0857 19.8427 73.0857 20.3543 73.1219C20.939 73.1944 21.2679 73.6292 21.2679 74.209C21.2679 74.5713 21.2679 74.9699 21.2679 75.3323C21.2679 76.3469 20.4274 76.9628 19.4042 76.673C19.3677 76.673 19.2946 76.6367 19.1119 76.5643ZM20.6832 74.9337C20.6832 73.7379 20.5736 73.6292 19.5138 73.7017H19.4773C19.2215 73.7017 19.1119 73.8466 19.1119 74.0641C19.1119 74.6076 19.1119 75.1511 19.1119 75.6946C19.1119 75.8396 19.2215 76.0207 19.3677 76.0932C20.0254 76.4193 20.6467 76.0207 20.6467 75.296C20.6832 75.1873 20.6832 75.0424 20.6832 74.9337Z" fill="#C5C5C5"/>
<path d="M42.1706 76.1295C42.3898 76.1295 42.6091 76.1295 42.8284 76.1295C43.413 76.1295 43.5592 75.9483 43.5958 75.4048C43.5958 74.7526 43.4496 74.5352 42.8649 74.4989C42.5726 74.4989 42.3168 74.4989 42.0244 74.4989C41.3301 74.4627 40.9281 74.1366 40.8916 73.4844C40.8185 72.651 41.1474 72.035 41.8417 71.9625C42.4264 71.89 43.0111 71.9263 43.5958 71.9625C43.7419 71.9625 43.8516 72.1799 43.9612 72.2886C43.815 72.3611 43.7054 72.506 43.5592 72.506C43.0842 72.5423 42.6091 72.5422 42.1706 72.5422C41.7686 72.5422 41.6224 72.7597 41.6224 73.122C41.6224 73.4481 41.5859 73.8105 42.0975 73.8467C42.4264 73.8829 42.7553 73.8829 43.0842 73.9192C43.815 73.9554 44.217 74.2815 44.3266 74.97C44.4362 75.8034 44.1804 76.4556 43.4496 76.6006C42.7553 76.7455 42.0244 76.673 41.3301 76.673C41.2205 76.673 41.1108 76.4556 41.0012 76.3469C41.1474 76.2744 41.257 76.1295 41.4032 76.1295C41.6224 76.0933 41.8782 76.0933 42.1706 76.1295C42.1706 76.0933 42.1706 76.1295 42.1706 76.1295Z" fill="#C5C5C5"/>
<path d="M45.8613 74.9699C45.8613 75.4772 45.8613 75.8758 45.8613 76.2744C45.8613 76.528 45.8248 76.7454 45.4959 76.7454C45.2035 76.7454 45.167 76.528 45.167 76.2744C45.167 74.8612 45.167 73.448 45.167 72.0349C45.167 71.7812 45.167 71.5638 45.4959 71.5276C45.8248 71.5276 45.8613 71.745 45.8613 71.9986C45.8613 72.6871 45.8613 73.3756 45.8613 74.0278C45.8613 74.1727 45.8613 74.3539 45.8613 74.4989C46.2998 74.1003 46.7383 73.7017 47.1403 73.3031C47.4327 73.0132 47.6154 72.977 48.0539 73.2306C47.5423 73.7379 47.0672 74.209 46.5922 74.7525C47.1403 75.3685 47.6519 75.9483 48.2001 76.5642C47.8346 76.7817 47.5423 76.7092 47.323 76.4555C46.9576 76.057 46.5556 75.6584 46.1902 75.2236C46.1171 75.2236 46.044 75.1148 45.8613 74.9699Z" fill="#C5C5C5"/>
<path d="M58.5784 81.9632C59.0169 81.927 59.3823 81.8545 59.7477 81.8908C60.4055 81.9632 60.7344 82.2893 60.7709 82.9416C60.8075 83.6663 60.8075 84.4272 60.7709 85.1519C60.7709 85.2606 60.5517 85.3693 60.442 85.5143C60.3324 85.4055 60.1497 85.2968 60.1497 85.1519C60.1132 84.4997 60.1497 83.8837 60.1131 83.2315C60.1131 82.9778 59.967 82.5792 59.8208 82.543C59.4554 82.4343 59.0534 82.5068 58.688 82.543C58.6149 82.543 58.5418 82.8329 58.5053 82.9778C58.4687 83.6663 58.5053 84.3547 58.5053 85.007C58.5053 85.2244 58.5418 85.478 58.2129 85.478C57.884 85.478 57.884 85.2606 57.884 85.0432C57.884 83.63 57.884 82.2169 57.884 80.8037C57.884 80.5863 57.884 80.3689 58.2129 80.3689C58.5418 80.3689 58.5784 80.5863 58.5784 80.84C58.5784 81.2023 58.5784 81.6009 58.5784 81.9632Z" fill="#C5C5C5"/>
<path d="M52.2197 83.3402C52.4024 82.7605 52.2197 82.5068 51.5985 82.5068C51.3427 82.5068 51.0869 82.543 50.7945 82.543C50.6849 82.543 50.5753 82.4343 50.4291 82.3981C50.5022 82.2894 50.5387 82.1082 50.6118 82.072C51.1965 81.8908 51.8177 81.7821 52.3659 82.1082C52.5852 82.2532 52.8044 82.5793 52.841 82.8329C52.914 83.4127 52.914 83.9924 52.9506 84.5722C52.9506 84.7171 53.0602 84.8983 53.0968 85.0433C53.1333 85.152 53.2795 85.2607 53.2429 85.3331C53.2064 85.4418 53.0602 85.5505 52.9506 85.5505C52.6948 85.5505 52.4755 85.4781 52.2197 85.4056C51.7812 85.623 51.3427 85.768 50.8311 85.623C50.2464 85.4418 50.0271 85.0433 50.1002 84.3186C50.1368 83.775 50.4657 83.4489 51.0503 83.4127C51.4523 83.304 51.8177 83.3402 52.2197 83.3402ZM51.562 83.8837C51.4889 83.8837 51.4523 83.8837 51.3792 83.8837C51.0138 83.8837 50.7945 83.9924 50.7945 84.391C50.7945 84.8258 50.9407 84.9708 51.3427 85.007C51.4889 85.007 51.5985 85.007 51.7447 85.007C52.1101 85.007 52.2563 84.8621 52.2563 84.4635C52.2563 83.92 52.2197 83.8837 51.562 83.8837Z" fill="#C5C5C5"/>
<path d="M20.9755 83.6663C20.9389 83.8837 20.9389 84.1011 20.9024 84.3185C20.6831 85.4781 19.4407 86.0216 18.4175 85.4056C17.7597 85.007 17.7597 84.3548 17.7231 83.6663C17.7231 83.5576 17.7597 83.4489 17.7597 83.3764C17.8693 82.072 19.1849 81.4198 20.3177 82.1082C20.7928 82.3619 20.9755 82.7967 20.9755 83.6663ZM20.2446 83.7388C20.2446 83.5214 20.2446 83.3402 20.2446 83.1228C20.2081 82.7242 19.9888 82.5068 19.5503 82.4706C18.856 82.4343 18.6002 82.543 18.5271 82.9779C18.454 83.3402 18.454 83.7388 18.454 84.1011C18.4905 84.7534 18.7829 85.007 19.4772 84.9708C20.0254 84.9345 20.2446 84.7171 20.2446 84.0649C20.2446 83.9562 20.2446 83.8475 20.2446 83.7388Z" fill="#C5C5C5"/>
<path d="M26.9321 74.9338C26.8956 75.1512 26.8956 75.3686 26.8225 75.6222C26.6398 76.4556 26.0916 76.7818 25.105 76.7455C24.301 76.7093 23.826 76.3469 23.7164 75.5135C23.6433 75.0425 23.6798 74.5714 23.7529 74.1004C23.826 73.5206 24.3376 73.122 24.9588 73.0496C25.105 73.0496 25.2146 73.0496 25.3608 73.0496C26.3109 73.0496 26.7129 73.3757 26.8956 74.3178C26.9321 74.499 26.9321 74.7164 26.9321 74.9338ZM26.2013 74.8975C26.2013 74.7526 26.2013 74.5714 26.2013 74.4265C26.1647 73.883 25.8724 73.6293 25.3242 73.6293C24.7396 73.6293 24.4472 73.883 24.4107 74.4265C24.3741 74.7164 24.4107 75.0062 24.4107 75.2961C24.4472 75.9121 24.703 76.202 25.3242 76.202C25.9089 76.202 26.2013 75.9121 26.2013 75.2599C26.2013 75.1512 26.2013 75.0062 26.2013 74.8975Z" fill="#C5C5C5"/>
<path d="M50.9406 75.2235C50.9406 75.5859 50.9406 75.9482 50.9406 76.3106C50.9406 76.5642 50.8676 76.7454 50.5752 76.7454C50.3194 76.7454 50.2463 76.5642 50.2463 76.3468C50.2463 75.441 50.2463 74.5351 50.2463 73.593C50.2463 73.3031 50.3925 73.1219 50.6483 73.1219C51.233 73.0857 51.8177 73.0494 52.4024 73.1219C52.8409 73.1582 53.1332 73.4843 53.1698 73.9553C53.2063 74.7887 53.2429 75.5859 53.2063 76.4193C53.2063 76.528 52.9505 76.6367 52.8409 76.7454C52.7313 76.6005 52.5485 76.4918 52.5485 76.3468C52.512 75.6946 52.5485 75.0061 52.512 74.3539C52.512 73.8466 52.3658 73.7017 51.8542 73.7017C51.8177 73.7017 51.7811 73.7017 51.7081 73.7017C50.9407 73.7017 50.9406 73.7017 50.9406 74.4626C50.9406 74.68 50.9406 74.9699 50.9406 75.2235Z" fill="#C5C5C5"/>
<path d="M49.5521 83.3765C49.5521 84.0649 49.5521 84.0649 48.8578 84.0649C48.5655 84.0649 48.2366 84.0287 47.9442 84.0649C47.7981 84.0649 47.6153 84.1736 47.4692 84.2461C47.5788 84.4635 47.6153 84.7534 47.7981 84.8259C48.0539 84.9346 48.3827 84.8983 48.6751 84.9346C48.9309 84.9346 49.2598 84.7534 49.3329 85.1157C49.4059 85.5143 49.004 85.4781 48.7482 85.5143C48.4193 85.5505 48.0904 85.5505 47.7981 85.5143C47.323 85.4418 46.9576 85.152 46.8845 84.6447C46.8114 84.1012 46.7749 83.5214 46.8479 82.9779C46.921 82.1807 47.5057 81.7821 48.3097 81.8546C49.1501 81.9271 49.5521 82.3619 49.5887 83.159C49.5521 83.2315 49.5521 83.304 49.5521 83.3765ZM48.2 83.5214C48.4558 83.4489 48.9309 83.7026 48.9309 83.1228C48.9309 82.688 48.7116 82.5068 48.2 82.5068C47.6884 82.5068 47.5057 82.688 47.4692 83.0866C47.4326 83.7026 47.9077 83.4489 48.2 83.5214Z" fill="#C5C5C5"/>
<path d="M27.9918 83.3766C27.9918 84.065 27.9918 84.065 27.2975 84.065C27.0052 84.065 26.6763 84.0288 26.3839 84.065C26.2378 84.065 26.055 84.21 25.9089 84.2462C26.0185 84.4636 26.055 84.7535 26.2378 84.826C26.4936 84.9347 26.8224 84.8984 27.1148 84.9347C27.3706 84.9347 27.6995 84.7173 27.7726 85.1158C27.8457 85.5144 27.4437 85.4782 27.1879 85.5507C27.0052 85.5869 26.859 85.6231 26.6763 85.6231C25.8358 85.6231 25.3607 85.2245 25.2511 84.3911C25.178 83.9926 25.178 83.594 25.2511 83.1954C25.3973 82.2533 25.9089 81.8547 26.7494 81.8909C27.5899 81.9272 27.9918 82.3982 27.9918 83.3766ZM26.6032 83.5215C26.859 83.4128 27.3341 83.7389 27.3341 83.1229C27.3341 82.6519 27.1148 82.4707 26.5666 82.4707C26.055 82.4707 25.8723 82.6519 25.8723 83.0867C25.8723 83.6664 26.3109 83.449 26.6032 83.5215Z" fill="#C5C5C5"/>
<path d="M34.5697 75.1875C34.5697 75.5498 34.5697 75.9484 34.5697 76.3107C34.5697 76.5282 34.5331 76.7093 34.2408 76.7093C33.9484 76.7093 33.9119 76.5282 33.9119 76.3107C33.9119 75.6585 33.9119 75.0425 33.9119 74.3903C33.9119 73.8105 33.7657 73.6656 33.181 73.6656C33.108 73.6656 32.9983 73.6656 32.9252 73.6656C32.3771 73.6656 32.3406 73.7018 32.3406 74.2816C32.3406 74.9338 32.3406 75.586 32.3406 76.2383C32.3406 76.3832 32.2309 76.6369 32.1213 76.6731C31.902 76.7818 31.6828 76.7093 31.6462 76.4194C31.6462 75.4411 31.6462 74.4628 31.6462 73.4844C31.6462 73.3757 31.8655 73.1583 31.9751 73.1583C32.5964 73.1221 33.2176 73.0858 33.8388 73.1583C34.2773 73.1945 34.5331 73.5569 34.5331 74.0279C34.5697 74.3903 34.5697 74.7889 34.5697 75.1875Z" fill="#C5C5C5"/>
<path d="M32.7789 83.775C32.7789 83.3039 32.7424 82.8329 32.7789 82.3981C32.7789 82.2531 32.9617 81.9995 33.1078 81.9995C33.6925 81.9633 34.3137 81.927 34.8984 81.9633C35.41 82.0357 35.7024 82.3618 35.7024 82.9054C35.7389 83.6663 35.7389 84.4272 35.7024 85.1882C35.7024 85.2969 35.4831 85.4418 35.3735 85.5505C35.2639 85.4418 35.0811 85.2969 35.0811 85.1882C35.0446 84.5359 35.0811 83.9199 35.0811 83.2677C35.0811 82.688 34.935 82.5068 34.3503 82.5068C33.4733 82.4705 33.4733 82.4705 33.4733 83.3764C33.4733 83.9562 33.4733 84.4997 33.4733 85.0795C33.4733 85.2969 33.5098 85.5505 33.1444 85.5505C32.8155 85.5505 32.8155 85.2969 32.8155 85.0795C32.7789 84.6084 32.7789 84.2098 32.7789 83.775Z" fill="#C5C5C5"/>
<path d="M16.2981 75.3687C16.0423 75.731 15.8231 76.0571 15.6038 76.3833C15.5307 76.492 15.3846 76.6369 15.2749 76.7094C15.1288 76.7456 14.9826 76.6731 14.8364 76.6731C14.873 76.5282 14.873 76.3833 14.9461 76.2746C15.2019 75.9122 15.4577 75.5499 15.75 75.1875C15.9327 74.9701 15.9327 74.7889 15.75 74.5715C15.5307 74.2816 15.3115 73.9555 15.0922 73.6294C15.0191 73.4845 15.0191 73.3395 14.9826 73.1946C15.2019 73.2308 15.4577 73.1583 15.5673 73.267C15.7865 73.4482 15.9327 73.7381 16.1154 73.9917C16.1885 74.1005 16.2616 74.2092 16.4078 74.3903C16.627 74.0642 16.8097 73.7743 16.9925 73.5207C17.0655 73.412 17.1752 73.2671 17.2848 73.2308C17.431 73.1946 17.6137 73.2308 17.7964 73.2308C17.7599 73.3758 17.7599 73.5207 17.6868 73.6656C17.4675 73.9917 17.2483 74.3541 16.9925 74.6802C16.8463 74.8614 16.8463 75.0426 16.9925 75.2237C17.2483 75.5499 17.5406 75.9122 17.7599 76.2746C17.8329 76.4195 17.8695 76.6007 17.906 76.7456C17.6868 76.7094 17.3944 76.7456 17.2483 76.6369C16.9925 76.3833 16.8097 76.0571 16.5905 75.7673C16.5174 75.5861 16.4443 75.5136 16.2981 75.3687Z" fill="#C5C5C5"/>
<path d="M21.4141 81.9996C21.743 81.8909 21.9988 81.9272 22.145 82.3257C22.4008 83.1229 22.7297 83.8838 23.0586 84.826C23.3509 83.9926 23.6067 83.3041 23.8625 82.6156C23.9356 82.4707 23.9356 82.2533 24.0818 82.1446C24.2279 82.0359 24.4472 82.0359 24.6299 81.9996C24.6299 82.1446 24.703 82.2895 24.6665 82.3982C24.301 83.3403 23.9356 84.2824 23.5702 85.2245C23.4971 85.3695 23.3144 85.5144 23.1682 85.5144C23.022 85.5144 22.7297 85.4419 22.6931 85.3332C22.2546 84.2824 21.8527 83.1954 21.4507 82.1083C21.3776 82.0721 21.3776 82.0359 21.4141 81.9996Z" fill="#C5C5C5"/>
<path d="M12.2783 84.9709C12.4976 84.9709 12.6438 84.9709 12.7899 84.9709C13.1554 84.9709 13.3381 84.8259 13.3381 84.4636C13.3381 84.1012 13.1554 83.9201 12.7899 83.9563C12.6438 83.9563 12.4976 83.9563 12.3514 83.9563C11.7667 83.8838 11.5475 83.6302 11.4744 83.0867C11.4378 82.5431 11.6936 82.0359 12.2052 81.9634C12.6072 81.8909 13.0457 81.9634 13.4477 81.9996C13.5573 81.9996 13.6304 82.1808 13.7035 82.2895C13.5939 82.362 13.4842 82.4707 13.3746 82.4707C13.0823 82.5069 12.7899 82.4344 12.4976 82.5069C12.3514 82.5431 12.1687 82.7243 12.1322 82.8693C12.0591 83.0867 12.1687 83.3403 12.461 83.4128C12.6438 83.449 12.8265 83.449 12.9726 83.449C13.5573 83.4853 13.8497 83.7027 13.9593 84.2099C14.0689 84.8622 13.8497 85.4057 13.3015 85.5144C12.8265 85.6231 12.3149 85.5506 11.8398 85.5144C11.7302 85.5144 11.6571 85.297 11.584 85.1883C11.6936 85.1158 11.8398 85.0434 11.9494 85.0071C12.0591 84.9347 12.2052 84.9709 12.2783 84.9709Z" fill="#C5C5C5"/>
<path d="M15.2749 83.739C15.2749 84.9347 15.3845 85.0072 16.5904 84.9347C16.7 84.9347 16.8097 84.8985 16.8827 84.9347C16.9924 84.971 17.1385 85.0434 17.1385 85.1159C17.1385 85.2246 17.0655 85.3695 16.9924 85.442C16.0057 86.0218 14.7633 85.4058 14.6536 84.2825C14.6171 83.9201 14.6171 83.5578 14.6536 83.1954C14.7267 82.362 15.0921 81.9635 15.9692 81.891C16.2981 81.8548 16.6269 81.9272 16.9193 81.9997C17.0289 82.0359 17.102 82.2533 17.2116 82.362C17.0655 82.4345 16.9558 82.507 16.8097 82.5432C16.6269 82.5432 16.4442 82.507 16.2615 82.507C15.5307 82.507 15.3479 82.6882 15.3479 83.4129C15.2749 83.4853 15.2749 83.6303 15.2749 83.739Z" fill="#C5C5C5"/>
<path d="M22.1083 73.9553C22.1083 73.3756 22.1083 72.7596 22.1083 72.1798C22.1083 71.9262 21.9987 71.5276 22.4372 71.5276C22.9123 71.5276 22.8026 71.8899 22.8026 72.1798C22.8026 73.3393 22.8026 74.4626 22.8026 75.6221C22.8026 75.912 22.7661 76.1657 23.1315 76.2744C23.3508 76.3468 23.3142 76.5642 23.095 76.7092C22.693 76.9628 22.1814 76.7092 22.1083 76.2381C22.0718 76.0932 22.0718 75.9482 22.0718 75.8033C22.1083 75.1873 22.1083 74.5713 22.1083 73.9553Z" fill="#C5C5C5"/>
<path d="M53.8641 82.8329C53.8641 82.1806 53.8641 81.4922 53.8641 80.84C53.8641 80.5863 53.9007 80.3689 54.2295 80.3689C54.5584 80.3689 54.5584 80.5863 54.5584 80.84C54.5584 82.0357 54.5584 83.2314 54.5584 84.4272C54.5584 84.6808 54.5219 84.9345 54.8873 85.0432C55.1066 85.1157 55.1066 85.3331 54.9239 85.478C54.5219 85.7679 53.9372 85.5505 53.9007 85.0432C53.8276 84.4634 53.8641 83.8474 53.8641 83.2677C53.8641 83.1227 53.8641 82.9778 53.8641 82.8329Z" fill="#C5C5C5"/>
<path d="M55.7646 83.7752C55.7646 83.4853 55.7646 83.2317 55.7646 82.9418C55.7646 82.6881 55.7646 82.507 55.4357 82.4345C55.1799 82.362 55.1799 82.1446 55.3992 82.0359C55.655 81.891 55.728 81.746 55.7646 81.4562C55.7646 81.3112 55.9473 81.13 56.0569 81.0938C56.3127 81.0213 56.4224 81.2387 56.3858 81.4562C56.3493 81.7823 56.4954 81.9272 56.8243 81.9272C56.934 81.9272 57.0436 82.1084 57.1532 82.1809C57.0436 82.2533 56.934 82.4345 56.8243 82.4345C56.4589 82.4345 56.3858 82.6157 56.3858 82.9056C56.3858 83.4128 56.3858 83.9201 56.3858 84.4274C56.3858 84.7898 56.4589 85.0434 56.934 84.9709C57.007 84.9709 57.1167 85.0434 57.2263 85.0797C57.1532 85.1884 57.1167 85.3695 57.0436 85.4058C56.4954 85.7319 55.8377 85.4058 55.8011 84.7535C55.7646 84.4999 55.7646 84.1375 55.7646 83.7752Z" fill="#C5C5C5"/>
<path d="M30.5498 82.5794C30.3671 82.5432 30.1479 82.507 29.9652 82.507C29.6363 82.4707 29.4901 82.6157 29.4901 82.9418C29.4901 83.6302 29.4901 84.3187 29.4901 85.0434C29.4901 85.1883 29.4536 85.3695 29.3439 85.4782C29.1612 85.6956 28.7958 85.5145 28.7958 85.2246C28.7958 84.4274 28.7592 83.6303 28.7958 82.8331C28.8323 82.1446 29.7459 81.6373 30.4037 81.9272C30.6229 81.9997 30.6595 82.1446 30.5498 82.5794Z" fill="#C5C5C5"/>
<path d="M28.3206 75.1875C28.3206 75.5498 28.3206 75.9484 28.3206 76.3108C28.3206 76.5282 28.2475 76.7093 27.9552 76.7093C27.6994 76.7093 27.5897 76.5644 27.5897 76.3108C27.5897 75.5498 27.5532 74.8251 27.5897 74.0642C27.6263 73.3033 28.4668 72.796 29.1976 73.0858C29.3072 73.1221 29.3438 73.3757 29.4534 73.5207C29.3438 73.5931 29.2342 73.6656 29.088 73.7018C28.9784 73.7381 28.8322 73.7018 28.686 73.7018C28.4302 73.7018 28.284 73.8105 28.284 74.1004C28.3571 74.4628 28.3206 74.8251 28.3206 75.1875Z" fill="#C5C5C5"/>
<path d="M30.769 74.9337C30.769 75.4047 30.769 75.8758 30.769 76.3106C30.769 76.528 30.6959 76.7092 30.4401 76.7092C30.1843 76.7092 30.0747 76.5642 30.0747 76.3106C30.0747 75.3685 30.0747 74.3901 30.0747 73.448C30.0747 73.1944 30.1843 73.0132 30.4401 73.0857C30.5863 73.1219 30.769 73.3031 30.769 73.448C30.8056 73.9553 30.769 74.4264 30.769 74.9337Z" fill="#C5C5C5"/>
<path d="M49.3694 74.9336C49.3694 75.4047 49.3694 75.8758 49.3694 76.3106C49.3694 76.528 49.2963 76.7092 49.0039 76.7092C48.7481 76.7092 48.675 76.528 48.675 76.3106C48.675 75.3685 48.675 74.4264 48.675 73.4843C48.675 73.2306 48.7847 73.0494 49.077 73.0857C49.3694 73.0857 49.4059 73.3031 49.4059 73.5205C49.3694 73.9915 49.3694 74.4626 49.3694 74.9336Z" fill="#C5C5C5"/>
<path d="M31.2075 83.7387C31.2075 83.2676 31.2075 82.7965 31.2075 82.3617C31.2075 82.1443 31.2441 81.9631 31.5364 81.9631C31.7922 81.9631 31.9018 82.1081 31.9018 82.3617C31.9018 83.3038 31.9018 84.2459 31.9018 85.188C31.9018 85.4055 31.7922 85.5866 31.5364 85.5504C31.2441 85.5504 31.2075 85.3692 31.2075 85.1518C31.2075 84.6445 31.2075 84.2097 31.2075 83.7387Z" fill="#C5C5C5"/>
<path d="M10.7069 83.7387C10.7069 84.1736 10.7069 84.6446 10.7069 85.0794C10.7069 85.2969 10.7069 85.478 10.4146 85.5143C10.1222 85.5143 10.0857 85.3331 10.0857 85.1157C10.0857 84.1736 10.0857 83.2677 10.0857 82.3256C10.0857 82.1082 10.1222 81.927 10.4146 81.927C10.7069 81.927 10.7435 82.1444 10.7435 82.3618C10.7069 82.8329 10.7069 83.3039 10.7069 83.7387Z" fill="#C5C5C5"/>
<path d="M32.0847 81.1662C31.8289 81.3474 31.6827 81.4923 31.5731 81.4923C31.4635 81.4561 31.2808 81.2749 31.2808 81.13C31.2808 81.0575 31.4635 80.8401 31.5731 80.8401C31.6827 80.8401 31.8289 80.985 32.0847 81.1662Z" fill="#C5C5C5"/>
<path d="M48.9675 72.7595C48.8944 72.6146 48.7117 72.4696 48.7117 72.3609C48.7117 72.2522 48.9309 72.071 49.0406 72.071C49.1136 72.071 49.3329 72.2522 49.3329 72.3609C49.3329 72.5059 49.1867 72.6508 49.1136 72.7595C49.0771 72.7595 49.004 72.7595 48.9675 72.7595Z" fill="#C5C5C5"/>
<path d="M30.3307 72.7595C30.2576 72.6146 30.0749 72.4696 30.1115 72.3609C30.148 72.2522 30.3307 72.071 30.4769 72.071C30.55 72.071 30.7692 72.2885 30.7692 72.3972C30.7692 72.5421 30.5865 72.6508 30.5134 72.7957C30.4404 72.7595 30.3673 72.7595 30.3307 72.7595Z" fill="#C5C5C5"/>
<path d="M9.90308 81.1662C10.1589 81.0212 10.305 80.84 10.4147 80.8763C10.5243 80.8763 10.707 81.0937 10.6705 81.2024C10.6339 81.3111 10.4878 81.4923 10.3416 81.5285C10.2685 81.4923 10.1223 81.3473 9.90308 81.1662Z" fill="#C5C5C5"/>
</g>
<defs>
<clipPath id="clip0">
<rect width="63" height="87" fill="white"/>
</clipPath>
</defs>
</svg>
