<svg width="75" height="77" viewBox="0 0 75 77" fill="none" xmlns="http://www.w3.org/2000/svg">
<path d="M71.1 37.4C69 37 67 36.4 64.9 36.2C57.3 35.7 49.9 36.2 42.7 39C42.2 39.2 41.7 39.4 41.2 39.7C38 41.3 37.6 42.3 38.2 45.5C37.2 45.3 36.1 45.1 34.9 45C31.6 44.8 29.7 42.7 28.2 40.2C25.7 36.2 24.4 31.7 24.1 27.1C23.8 22.4 24 17.6 24 12.6C15.4 24.8 7.3 37.5 0.6 51C0.4 51 0.2 50.9 0 50.8C0.3 49.6 0.4 48.3 1 47.3C5.1 39.9 9.2 32.5 13.6 25.3C17.3 19.3 21.5 13.6 25.3 7.79998C26.4 6.19998 27 4.19998 28 2.49998C29.6 -0.400019 33.5 -0.800019 35.6 1.69998C36 2.09998 36 3.29998 35.6 3.69998C31.1 8.89998 30.4 15.3 30 21.7C29.7 26.4 30.4 31.1 30.7 35.8C30.8 36.6 31.1 37.4 31.4 38.3C35 31.6 38.5 25 42.2 18.6C45.3 13.3 48.7 8.19998 52 2.99998C52.9 1.49998 54.2 0.699981 56.4 1.39998C55.8 2.39998 55.3 3.29998 54.7 4.09998C46.8 14.7 39.8 25.8 33.7 37.6C31.9 41 32.4 42.1 36.3 43.6C37.2 37.9 41.4 35.2 46.3 33.6C53.2 31.4 60.3 31.3 67.4 32.5C68.3 32.7 69.3 33 70.2 33.3C73.4 34.3 75.5 37.4 73.7 40.7C72.6 40.8 71.7 40.7 71.2 41C65 44.6 58.6 47.9 52.6 51.9C46.1 56 40.2 61 34 65.6C39.5 65.6 44.8 65.3 50 65.7C55.1 66.1 60.1 67 65.1 68.1C66.8 68.4 68.5 69.6 69.9 70.6C71.9 72.1 72.1 74.1 70.8 76.3C70.4 73.1 69.9 72.4 66.5 71.9C59.1 70.7 51.7 71.4 44.3 72.1C39.2 72.6 34.2 73.5 29.1 74.2C28.4 74.3 27.5 74.5 27 74.2C26.2 73.7 25.3 73 25 72.1C24.8 71.6 25.3 70.3 25.9 69.9C35.2 64 42.3 55.4 51.4 49.3C57.7 45.1 64 40.8 71.2 38.1C71 37.9 71.1 37.7 71.1 37.4Z" fill="#C5C5C5"/>
</svg>
