<svg width="10" height="10" viewBox="0 0 10 10" fill="none" xmlns="http://www.w3.org/2000/svg">
<path d="M9.77582 7.90952L8.23147 6.3615C7.92387 6.05444 7.41447 6.06377 7.09615 6.38293L6.3181 7.16256C6.26895 7.13541 6.21807 7.10705 6.16457 7.07696C5.67324 6.8041 5.00078 6.43012 4.29315 5.72037C3.58342 5.00912 3.20994 4.33409 2.93686 3.84133C2.90805 3.78913 2.88044 3.73879 2.85318 3.69099L3.37536 3.1684L3.63208 2.91078C3.95089 2.59116 3.95968 2.08075 3.6528 1.7728L2.10845 0.224608C1.80157 -0.0829161 1.29194 -0.0735867 0.973129 0.246031L0.53788 0.684772L0.549774 0.696606C0.403829 0.883251 0.281873 1.09852 0.191117 1.33066C0.107458 1.55163 0.0553714 1.76249 0.0315548 1.97378C-0.172366 3.66816 0.600165 5.21669 2.69672 7.31802C5.59478 10.2225 7.93025 10.003 8.031 9.99233C8.25043 9.96604 8.46073 9.91349 8.67445 9.83031C8.90406 9.74041 9.11869 9.61835 9.3048 9.47239L9.31431 9.48086L9.75525 9.04811C10.0734 8.72855 10.0826 8.21796 9.77582 7.90952Z" fill="black"/>
</svg>
