<svg width="68" height="65" viewBox="0 0 68 65" fill="none" xmlns="http://www.w3.org/2000/svg">
<g clip-path="url(#clip0)">
<path d="M54.6001 2.01076H65.1001V12.5269H67.1001V0.00769043H54.6001V2.01076Z" fill="#F1CC46"/>
<path d="M2 12.627V2.01076H12.1V0.00769043H0V12.627H2Z" fill="#F1CC46"/>
<path d="M12.1 62.0026H2V51.3864H0V64.0057H12.1V62.0026Z" fill="#F1CC46"/>
<path d="M65.1001 51.186V62.0026H54.6001V64.0057H67.1001V51.186H65.1001Z" fill="#F1CC46"/>
<path d="M51.8163 28.2073L45.3892 31.8705V28.6168L52.5997 24.5072C52.9798 24.2906 53.1126 23.8063 52.8963 23.4257C52.6799 23.0449 52.1965 22.912 51.8163 23.1287L45.3892 26.7918V20.5224C45.3892 20.0844 45.0346 19.7293 44.5973 19.7293H39.9614V15.8247C39.9614 15.3867 39.6068 15.0316 39.1695 15.0316H27.886C25.8731 15.0316 24.2355 16.6717 24.2355 18.6876V20.4957C24.2355 20.5002 24.2361 20.5046 24.2362 20.509C24.2361 20.5135 24.2355 20.5178 24.2355 20.5223V23.0247H18.7919C18.3546 23.0247 18 23.3797 18 23.8178V33.4626C18 33.7571 18.163 34.0274 18.4232 34.1645L24.2355 37.2276V47.855C24.2355 48.293 24.5901 48.648 25.0274 48.648V49.2919C25.0274 49.7299 25.382 50.085 25.8192 50.085C26.2565 50.085 26.6111 49.7299 26.6111 49.2919V48.648H43.0136V49.2919C43.0136 49.7299 43.3682 50.085 43.8055 50.085C44.2428 50.085 44.5973 49.7299 44.5973 49.2919V48.648C45.0346 48.648 45.3892 48.293 45.3892 47.855V33.6954L52.5997 29.5858C52.9798 29.3692 53.1126 28.885 52.8963 28.5043C52.6799 28.1236 52.1964 27.9906 51.8163 28.2073ZM43.8055 47.0621H32.8506V44.9462H43.8055V47.0621ZM32.8506 43.3599V41.244H43.8055V43.3599H32.8506ZM32.8506 39.6579V37.542H43.8055V39.6579H32.8506ZM25.8192 18.6876C25.8192 17.5463 26.7463 16.6177 27.886 16.6177H38.3777V19.7026H25.8192V18.6876ZM25.8192 21.3155H43.8055V23.0248H41.7179C41.2806 23.0248 40.926 23.3798 40.926 23.8178C40.926 24.2558 41.2806 24.6109 41.7179 24.6109H43.8055V35.9558H32.0588C31.6215 35.9558 31.2669 36.3109 31.2669 36.7489V47.062H25.8192V36.742C25.8192 36.7405 25.8192 36.739 25.8192 36.7374V24.6109H38.5504C38.9876 24.6109 39.3422 24.2558 39.3422 23.8178C39.3422 23.3798 38.9876 23.0248 38.5504 23.0248H25.8192V21.3155ZM19.5837 32.9839V24.6109H24.2355V35.4354L19.5837 32.9839Z" fill="white"/>
</g>
<defs>
<clipPath id="clip0">
<rect width="67.1" height="63.998" fill="white" transform="translate(0 0.00769043)"/>
</clipPath>
</defs>
</svg>
