<svg width="68" height="65" viewBox="0 0 68 65" fill="none" xmlns="http://www.w3.org/2000/svg">
<g clip-path="url(#clip0)">
<path d="M54.6001 2.74391H65.1001V13.26H67.1001V0.740845H54.6001V2.74391Z" fill="#F1CC46"/>
<path d="M2 13.3602V2.74391H12.1V0.740845H0V13.3602H2Z" fill="#F1CC46"/>
<path d="M12.1 62.7358H2V52.1195H0V64.7388H12.1V62.7358Z" fill="#F1CC46"/>
<path d="M65.1001 51.9192V62.7358H54.6001V64.7388H67.1001V51.9192H65.1001Z" fill="#F1CC46"/>
<path d="M49.5345 23.1736H43.0005V19.4804C43.0005 19.0699 42.6681 18.7371 42.2583 18.7371H26.7417C26.3319 18.7371 25.9995 19.0699 25.9995 19.4804V23.1737H19.4654C18.106 23.1736 17 24.2814 17 25.6429V37.4761C17 38.8376 18.106 39.9454 19.4654 39.9454H25.9995V47.1009C25.9995 47.5113 26.3319 47.8442 26.7417 47.8442H42.2584C42.6682 47.8442 43.0006 47.5113 43.0006 47.1009V39.9454H49.5346C50.894 39.9454 52.0001 38.8377 52.0001 37.4761V25.6429C52 24.2814 50.8939 23.1736 49.5345 23.1736ZM43.0004 24.6602H44.7707V26.7405H43.0004V24.6602ZM27.4838 20.2237H41.5161V26.7405H27.4838V20.2237ZM24.2292 24.6602H25.9995V26.7405H24.2292V24.6602ZM41.5162 46.3576H27.4838V36.5686H41.5161V46.3576H41.5162ZM50.5158 37.4761H50.5157C50.5157 38.018 50.0755 38.4588 49.5346 38.4588H43.0005V36.5687H44.3543C44.7642 36.5687 45.0965 36.2358 45.0965 35.8254C45.0965 35.4149 44.7642 35.0821 44.3543 35.0821H42.2584H26.7417H24.6457C24.2359 35.0821 23.9035 35.4149 23.9035 35.8254C23.9035 36.2358 24.2359 36.5687 24.6457 36.5687H25.9996V38.4588H19.4654C18.9245 38.4588 18.4844 38.018 18.4844 37.4761V25.6429C18.4844 25.1011 18.9245 24.6602 19.4654 24.6602H22.7449V27.4837C22.7449 27.8942 23.0772 28.227 23.4871 28.227H45.513C45.9228 28.227 46.2551 27.8942 46.2551 27.4837V24.6602H49.5346C50.0755 24.6602 50.5158 25.101 50.5158 25.6429V37.4761Z" fill="white"/>
<path d="M21.703 31.7067C22.2165 31.7067 22.6328 31.2898 22.6328 30.7755C22.6328 30.2612 22.2165 29.8442 21.703 29.8442C21.1895 29.8442 20.7732 30.2612 20.7732 30.7755C20.7732 31.2898 21.1895 31.7067 21.703 31.7067Z" fill="white"/>
<path d="M34.2845 42.2222H30.8201C30.4102 42.2222 30.0779 42.5549 30.0779 42.9655C30.0779 43.3759 30.4102 43.7088 30.8201 43.7088H34.2845C34.6943 43.7088 35.0267 43.3759 35.0267 42.9655C35.0267 42.5549 34.6943 42.2222 34.2845 42.2222Z" fill="white"/>
<path d="M38.1798 38.4585H30.8201C30.4102 38.4585 30.0779 38.7914 30.0779 39.2018C30.0779 39.6123 30.4102 39.9451 30.8201 39.9451H38.1797C38.5895 39.9451 38.9219 39.6123 38.9219 39.2018C38.9219 38.7914 38.5896 38.4585 38.1798 38.4585Z" fill="white"/>
</g>
<defs>
<clipPath id="clip0">
<rect width="67.1" height="63.998" fill="white" transform="translate(0 0.740845)"/>
</clipPath>
</defs>
</svg>
