<svg width="68" height="64" viewBox="0 0 68 64" fill="none" xmlns="http://www.w3.org/2000/svg">
<g clip-path="url(#clip0)">
<path d="M54.6 2H65.1V12.5H67.1V0H54.6V2Z" fill="#F1CC46"/>
<path d="M2 12.6V2H12.1V0H0V12.6H2Z" fill="#F1CC46"/>
<path d="M12.1 61.9001H2V51.3H0V63.9001H12.1V61.9001Z" fill="#F1CC46"/>
<path d="M65.1 51.1V61.9H54.6V63.9H67.1V51.1H65.1Z" fill="#F1CC46"/>
<path d="M50.3857 22.9108H22.6153C20.622 22.9108 19.0005 24.5323 19.0005 26.5256V35.6064C19.0005 37.5067 20.4747 39.0679 22.3391 39.2097V41.366C22.3391 41.7654 22.6627 42.089 23.0621 42.089H28.5905C28.9899 42.089 29.3135 41.7654 29.3135 41.366V39.2212H43.6876V41.366C43.6876 41.7654 44.0112 42.089 44.4106 42.089H49.939C50.3384 42.089 50.6619 41.7654 50.6619 41.366V39.2097C52.5266 39.0679 54.0006 37.5067 54.0006 35.6064V26.5256C54.0005 24.5324 52.3789 22.9108 50.3857 22.9108ZM27.8675 40.6431H23.785V39.2212H27.8676V40.6431H27.8675ZM45.1335 40.6431V39.2212H49.216V40.6431H45.1335ZM52.5546 35.6064C52.5546 36.8023 51.5816 37.7753 50.3857 37.7753H22.6153C21.4194 37.7753 20.4464 36.8023 20.4464 35.6064V26.5256C20.4464 25.3297 21.4194 24.3567 22.6153 24.3567H50.3857C51.5816 24.3567 52.5546 25.3297 52.5546 26.5256V35.6064Z" fill="white"/>
<path d="M44.6964 36.4779C41.7123 36.4779 39.2845 34.05 39.2845 31.0658C39.2845 28.0817 41.7123 25.6539 44.6964 25.6539C47.6807 25.6539 50.1085 28.0817 50.1085 31.0658C50.1085 34.0501 47.6807 36.4779 44.6964 36.4779ZM44.6964 27.1C42.5096 27.1 40.7305 28.879 40.7305 31.0659C40.7305 33.2529 42.5096 35.0321 44.6964 35.0321C46.8834 35.0321 48.6626 33.2529 48.6626 31.0659C48.6626 28.879 46.8834 27.1 44.6964 27.1Z" fill="white"/>
<path d="M42.2905 31.7889C41.8911 31.7889 41.5675 31.4653 41.5675 31.0659C41.5675 29.3406 42.9713 27.937 44.6964 27.937C45.0958 27.937 45.4193 28.2606 45.4193 28.66C45.4193 29.0593 45.0958 29.3829 44.6964 29.3829C43.7684 29.3829 43.0134 30.1379 43.0134 31.0659C43.0134 31.4653 42.6898 31.7889 42.2905 31.7889Z" fill="white"/>
<path d="M31.8311 28.8834H22.7761C22.3767 28.8834 22.0531 28.5597 22.0531 28.1605C22.0531 27.7611 22.3767 27.4375 22.7761 27.4375H31.8311C32.2305 27.4375 32.5541 27.7611 32.5541 28.1605C32.5541 28.5598 32.2305 28.8834 31.8311 28.8834Z" fill="white"/>
<path d="M31.8311 31.7888H22.7761C22.3767 31.7888 22.0531 31.4652 22.0531 31.0659C22.0531 30.6665 22.3767 30.3429 22.7761 30.3429H31.8311C32.2305 30.3429 32.5541 30.6665 32.5541 31.0659C32.5541 31.4652 32.2305 31.7888 31.8311 31.7888Z" fill="white"/>
<path d="M31.8311 34.6943H22.7761C22.3767 34.6943 22.0531 34.3707 22.0531 33.9714C22.0531 33.572 22.3767 33.2484 22.7761 33.2484H31.8311C32.2305 33.2484 32.5541 33.572 32.5541 33.9714C32.5541 34.3706 32.2305 34.6943 31.8311 34.6943Z" fill="white"/>
</g>
<defs>
<clipPath id="clip0">
<rect width="67.1" height="63.9" fill="white"/>
</clipPath>
</defs>
</svg>
