<svg width="97" height="92" viewBox="0 0 97 92" fill="none" xmlns="http://www.w3.org/2000/svg">
<g clip-path="url(#clip0)">
<path d="M33.0376 39.0752C38.0209 39.0752 42.0752 35.0209 42.0752 30.0376C42.0752 25.0543 38.0209 21 33.0376 21C28.0543 21 24 25.0543 24 30.0376C24 35.0209 28.0543 39.0752 33.0376 39.0752ZM33.0376 22.9531C36.9439 22.9531 40.1221 26.1312 40.1221 30.0376C40.1221 33.9439 36.9439 37.1221 33.0376 37.1221C29.1312 37.1221 25.9531 33.9439 25.9531 30.0376C25.9531 26.1312 29.1312 22.9531 33.0376 22.9531Z" fill="white"/>
<path d="M33.8146 32.1842C34.0052 32.3741 34.2547 32.469 34.5041 32.469C34.7545 32.469 35.0051 32.3733 35.1958 32.1819C35.5764 31.7999 35.5755 31.1815 35.1935 30.8008L34.0209 29.632V25.2969C34.0209 24.7576 33.5836 24.3203 33.0443 24.3203C32.5051 24.3203 32.0677 24.7576 32.0677 25.2969V30.0376C32.0677 30.2972 32.1712 30.5461 32.3549 30.7293L33.8146 32.1842Z" fill="white"/>
<path d="M73.0234 53.422H67.013C66.1868 52.2468 64.9454 51.4144 63.5295 51.1048L59.2361 50.166C60.9931 48.981 62.1509 46.9725 62.1509 44.6984V42.314V41.2107V40.9625C62.1509 37.3285 59.1944 34.3721 55.5604 34.3721C51.9265 34.3721 48.97 37.3285 48.97 40.9625V41.2107V42.314V44.6984C48.97 46.9695 50.1248 48.9761 51.878 50.1616L47.5874 51.1029C47.4041 51.1432 47.2239 51.1925 47.0469 51.2496V43.1681C47.0469 42.6288 46.6096 42.1915 46.0703 42.1915H39.4297C38.8904 42.1915 38.4531 42.6288 38.4531 43.1681C38.4531 43.7073 38.8904 44.1446 39.4297 44.1446H45.0938V57.8165H38.4531V52.9337C38.4531 51.3183 37.1389 50.004 35.5234 50.004C33.908 50.004 32.5938 51.3183 32.5938 52.9337V57.8165H25.9531V44.1446H31.6172C32.1564 44.1446 32.5938 43.7073 32.5938 43.1681C32.5938 42.6288 32.1564 42.1915 31.6172 42.1915H24.9766C24.4373 42.1915 24 42.6288 24 43.1681V58.7931C24 59.3323 24.4373 59.7696 24.9766 59.7696H32.5938V61.6251H32.4961C30.8268 61.6251 29.4688 62.9831 29.4688 64.6524V65.1407H24.9766C24.4373 65.1407 24 65.578 24 66.1173V70.0235C24 70.5628 24.4373 71.0001 24.9766 71.0001H73.0234C73.5627 71.0001 74 70.5628 74 70.0235V66.1173V62.211V58.3048V54.3985C74 53.8593 73.5627 53.422 73.0234 53.422ZM67.0839 65.1407H61.5V63.1876H72.0469V65.1407H67.0839ZM72.0469 61.2345H61.5V59.2813H72.0469V61.2345ZM72.0469 57.3282H61.5V55.3751H66.4682C66.4711 55.3751 66.474 55.3757 66.4769 55.3757C66.4799 55.3757 66.483 55.3751 66.486 55.3751H72.0469V57.3282ZM50.923 40.9626C50.923 38.4056 53.0034 36.3253 55.5604 36.3253C57.9952 36.3253 59.9978 38.2114 60.1836 40.5994L57.9135 39.2657C57.5022 39.024 56.9767 39.1149 56.6703 39.4805C55.6814 40.6606 54.2312 41.3376 52.6914 41.3376H50.9231V41.2109V40.9626H50.923ZM50.923 43.2906H52.6914C54.5298 43.2906 56.2754 42.5895 57.5942 41.3434L60.1978 42.8729V44.6985C60.1978 47.2556 58.1174 49.3358 55.5604 49.3358C53.0035 49.3358 50.9231 47.2555 50.9231 44.6985V43.2906H50.923ZM57.0902 51.1078L55.5458 55.2381L53.9985 51.1004C54.4995 51.2227 55.0223 51.289 55.5604 51.289C56.0871 51.289 56.5989 51.2251 57.0902 51.1078ZM46.0703 59.7696C46.6096 59.7696 47.0469 59.3323 47.0469 58.7931V53.3611C47.3481 53.2023 47.6693 53.0846 48.0059 53.0107L52.2773 52.0736L54.6312 58.3683C54.7738 58.7498 55.1384 59.0027 55.5458 59.0027C55.9532 59.0027 56.3178 58.7498 56.4604 58.3682L58.8144 52.0731L63.1123 53.0129C63.4896 53.0953 63.8476 53.235 64.177 53.4219H60.5234C59.9842 53.4219 59.5469 53.8592 59.5469 54.3984V58.3047V62.2109V65.1406H45.0136V59.7695H46.0703V59.7696ZM43.0604 59.7696V65.1407H41.5781V64.6524C41.5781 62.9831 40.2201 61.6251 38.5508 61.6251H38.4531V59.7696H43.0604ZM34.5469 52.9337C34.5469 52.3952 34.985 51.9571 35.5234 51.9571C36.0619 51.9571 36.5 52.3952 36.5 52.9337V61.6251H34.5469V52.9337ZM31.4219 64.6524C31.4219 64.0601 31.9038 63.5782 32.4961 63.5782H33.5703H37.4766H38.5508C39.1431 63.5782 39.625 64.0601 39.625 64.6524V65.1407H31.4219V64.6524ZM72.0469 69.047H25.9531V67.0938H72.0469V69.047Z" fill="white"/>
<path d="M34.833 42.4775C34.6514 42.6592 34.5469 42.9111 34.5469 43.168C34.5469 43.4248 34.6513 43.6768 34.833 43.8583C35.0146 44.0399 35.2666 44.1445 35.5234 44.1445C35.7803 44.1445 36.0322 44.04 36.2138 43.8583C36.3955 43.6768 36.5 43.4248 36.5 43.168C36.5 42.9111 36.3955 42.6592 36.2138 42.4775C36.0322 42.2959 35.7803 42.1914 35.5234 42.1914C35.2666 42.1914 35.0146 42.2958 34.833 42.4775Z" fill="white"/>
<path d="M78.9299 2.8795H94.1088V17.9969H97V0H78.9299V2.8795Z" fill="#F1CC46"/>
<path d="M2.89121 18.1408V2.8795H17.4918V0H0V18.1408H2.89121Z" fill="#F1CC46"/>
<path d="M17.4918 89.1205H2.89121V73.8591H0V92H17.4918V89.1205Z" fill="#F1CC46"/>
<path d="M94.1088 73.5713V89.1206H78.9299V92.0001H97V73.5713H94.1088Z" fill="#F1CC46"/>
</g>
<defs>
<clipPath id="clip0">
<rect width="97" height="92" fill="white"/>
</clipPath>
</defs>
</svg>
