<svg width="78" height="78" viewBox="0 0 78 78" fill="none" xmlns="http://www.w3.org/2000/svg">
<path d="M38.9712 0C60.5898 0 78 17.4678 78 39.0865C78 60.5898 60.4745 78 38.8559 78C17.4102 78 0 60.4745 0 38.8559C0 17.4678 17.5255 0 38.9712 0ZM36.3769 51.2506C36.204 51.4812 36.031 51.7118 35.8581 51.9423C35.6851 52.1729 35.5122 52.4035 35.3969 52.6918C35.051 53.3836 35.3969 54.0177 36.1463 54.0754C36.6075 54.0754 37.0687 53.9024 37.4723 53.8448C37.6452 53.8448 37.9335 53.7871 38.0488 53.9024C39.1441 54.6519 40.7007 54.4213 41.6231 53.3259C40.9313 52.5765 40.2395 53.4989 39.3171 53.3259C39.663 52.8647 39.8936 52.4612 40.2395 52.1153C40.5854 51.7118 41.0466 51.4235 41.3925 51.02C41.7384 50.6164 41.5654 50.2705 41.0466 50.1552C40.816 50.0976 40.5854 50.0976 40.3548 50.1552C38.6253 50.2129 36.9534 50.2705 35.2239 50.3282C34.6474 50.3282 34.1863 50.6164 33.8404 51.0776C33.3792 51.7118 32.918 52.3459 32.3415 52.8647C31.8803 53.3259 31.2461 53.6142 30.6696 53.9601C30.612 53.9024 30.4967 53.7871 30.439 53.7295C30.612 53.3259 30.7849 52.8647 31.0155 52.4612C31.4191 51.8847 31.9379 51.4235 32.3415 50.9047C32.5144 50.6741 32.5144 50.3858 32.5721 50.1552C32.2838 50.0976 31.8803 49.9823 31.6497 50.0976C31.1885 50.3282 30.8426 50.6741 30.4967 51.02C29.1131 52.3459 27.4412 53.0377 25.7118 53.7295C25.5388 52.9224 25.8271 52.4035 26.3459 51.9423C26.7494 51.5388 27.153 51.1929 27.4989 50.7894C27.9024 50.3282 27.7871 50.0399 27.2106 50.0399C26.4612 50.0399 25.7118 50.1552 24.9623 50.3282C24.3282 50.5011 23.7517 50.7317 23.0599 51.02C23.4058 50.4435 23.6364 49.9823 23.867 49.5211C24.0399 49.1752 24.2129 48.8293 24.2705 48.4834C24.5588 47.3304 23.7517 46.408 22.5987 46.5809C21.7339 46.7539 20.8692 47.0421 19.9468 47.3304C20.0044 47.0998 20.0621 46.8692 20.0621 46.6386C20.1774 45.7162 19.6585 45.1397 18.7938 45.1397C17.2372 45.1397 15.2772 46.408 14.7583 47.8492C14.643 48.1951 14.7583 48.5987 14.7583 49.0022C15.2195 48.9446 15.6807 48.9446 16.0843 48.8869C16.3149 48.8293 16.5455 48.6563 16.7761 48.541C16.7184 48.4257 16.6608 48.3681 16.5455 48.2528C16.3149 48.1951 16.1419 48.1375 15.9113 48.0798C16.3725 47.0421 17.1796 46.408 18.2173 46.0621C18.7361 45.8891 18.9091 46.1774 18.8514 46.5809C18.6785 47.6186 18.3326 48.4834 17.4678 49.1752C16.0266 50.3858 14.7007 51.6541 13.4324 53.0377C12.9712 53.5565 12.6253 54.1907 12.2794 54.8248C11.9335 55.5166 12.2217 55.9778 13.0288 55.8625C13.5477 55.8049 14.1818 55.5743 14.5277 55.2284C16.0843 53.4989 17.6408 51.7694 18.9667 49.867C19.8315 48.541 20.9268 47.9069 22.3104 47.4457C22.8293 47.2727 23.1175 47.5033 23.0022 47.9645C22.8869 48.5987 22.714 49.2328 22.3681 49.7517C20.8115 51.7694 19.1973 53.7871 17.6408 55.8049C16.4302 57.3614 15.5654 59.0333 15.3925 60.9933C15.2772 62.204 15.6807 62.7228 16.8337 63.0687C18.4479 63.4723 20.2927 62.5499 21.2727 60.878C20.9268 60.4745 20.5809 60.5898 20.235 60.8204C19.6585 61.2239 19.1397 61.7428 18.5055 62.031C18.1596 62.204 17.6408 62.204 17.2949 62.031C17.0643 61.9157 16.949 61.3392 16.949 61.051C17.2372 57.9379 19.3126 55.8625 21.1574 53.5565C21.561 54.7672 21.9069 54.8825 23.0022 54.4789C23.4634 54.306 23.867 54.0754 24.1552 53.9024C26 55.4013 27.5565 54.0177 29.1131 53.4989C29.3437 54.5942 29.8049 54.9401 30.9002 54.7672C31.3038 54.7095 31.765 54.5366 32.1685 54.3636C33.4368 53.7871 34.4169 52.9224 35.1663 51.7694C35.3392 51.2506 35.7428 51.0776 36.3769 51.2506ZM29.9202 31.3614C29.9778 31.3614 30.0931 31.3614 30.1508 31.4191C30.3237 31.1885 30.5543 30.9002 30.7273 30.6696C33.0909 26.9224 36.031 23.8093 40.0089 21.6763C40.2395 21.561 40.4701 21.388 40.643 21.1574C41.1042 20.6962 41.0466 20.0621 40.816 19.5432C40.7007 19.255 40.2395 18.9667 39.9512 18.9091C37.5876 18.7361 35.2239 18.9667 33.0333 19.9468C30.7273 20.9845 29.286 22.7716 29.0554 25.2506C28.9401 26.5188 29.2284 27.8448 29.4013 29.1131C29.5166 29.9202 29.7472 30.612 29.9202 31.3614ZM51.3659 62.8381C51.0776 62.7228 50.7894 62.5499 50.5588 62.5499C49.867 62.4922 49.3481 62.1463 49.1175 61.5122C48.8293 60.6474 48.541 59.7827 48.5987 58.918C48.7716 55.9778 49.3481 53.0953 50.7317 50.3858C50.9623 49.9246 51.1353 49.4058 51.1353 48.9446C51.1353 48.3681 51.3659 48.1375 51.8847 48.0222C53.3259 47.561 54.6519 46.8115 55.7472 45.7738C56.2084 45.3126 56.612 44.7938 56.9002 44.2749C57.1885 43.7561 57.0155 43.2949 56.4967 43.0066C55.8049 42.6608 55.1131 42.7184 54.4213 42.949C52.6918 43.5255 51.2506 44.5632 49.9823 45.7738C49.5211 46.235 49.0022 46.5809 48.3104 46.6386C47.2151 46.7539 46.9845 47.3304 47.388 48.1951C45.8891 50.1552 44.3902 52 43.0066 53.9601C42.4302 54.7672 41.969 55.6896 41.5078 56.612C41.2195 57.1885 41.4501 57.5344 42.0843 57.4767C42.5455 57.4191 43.122 57.3038 43.4102 57.0155C44.3326 56.0931 45.255 55.2284 45.9468 54.133C46.9268 52.5188 47.7339 50.7894 48.6563 49.1175C48.9446 48.5987 49.2905 48.2528 50.0976 48.4257C49.8093 49.1752 49.5787 49.867 49.2905 50.5588C48.7716 52 48.1375 53.4412 47.7339 54.8825C47.2727 56.612 46.9845 58.3415 47.2151 60.1286C47.4457 61.7428 48.3681 62.8381 49.7517 63.0687C50.2705 63.2417 50.847 63.4146 51.3659 62.8381ZM51.827 28.0177C52.0576 27.5565 52.2882 27.2106 52.4035 26.8071C53.0377 24.3858 52.8647 22.0222 51.8847 19.7162C51.3659 18.4479 50.3858 17.6408 49.0599 17.3526C48.2528 17.1796 47.5033 16.949 46.6962 16.949C45.255 16.8914 43.7561 16.949 42.2572 17.0067C41.969 17.0067 41.3925 17.4102 41.3925 17.6408C41.3925 17.9867 41.6807 18.3902 41.9113 18.7361C42.0266 18.9091 42.2572 18.9091 42.4302 19.0244C43.4102 19.4279 44.3326 19.8315 45.3126 20.1774C46.6962 20.7539 47.7916 21.561 48.541 22.8869C49.4634 24.3858 50.3858 25.9423 51.3082 27.4412C51.5388 27.5565 51.6541 27.7295 51.827 28.0177ZM26.8647 24.847C26.8071 24.7894 26.7494 24.7894 26.6918 24.7317C26.4612 24.9623 26.1729 25.1929 26 25.4812C25.3659 26.6918 24.7317 27.9601 24.2705 29.2284C23.2905 31.9379 23.2328 34.7051 24.3282 37.4146C25.1929 39.49 26.8071 40.643 28.9978 40.9313C29.3437 40.9889 29.8049 40.8736 30.0355 40.643C30.3814 40.2971 30.3237 39.7783 30.0355 39.3747C29.8625 39.1441 29.7472 38.9135 29.5743 38.6829C28.4213 37.0111 27.5565 35.2239 27.2106 33.2062C26.7494 30.6696 26.7494 28.133 26.8071 25.5388C26.8647 25.3082 26.8647 25.0776 26.8647 24.847ZM23.2328 26.5765C23.3481 26.5765 23.4634 26.5765 23.5211 26.5765C24.3858 25.3082 25.2506 24.0399 26.1153 22.714C27.2106 21.0998 28.5366 19.7162 30.2661 18.8514C32.3991 17.8137 34.5321 16.8337 37.0111 16.6031C37.5876 16.5455 38.0488 16.3725 38.0488 15.6231C38.0488 15.0466 37.5876 14.7007 36.8958 14.7007C35.5122 14.7007 34.071 14.7007 32.6874 14.7583C29.9778 14.9313 27.6718 15.9113 25.9424 18.0443C24.2129 20.1197 23.4634 22.6563 22.9446 25.2506C22.8869 25.6541 23.1752 26.1153 23.2328 26.5765ZM38.0488 26.6918C38.3947 26.5765 38.6253 26.4612 38.7982 26.4035C39.9512 26.1153 41.1042 25.7118 42.2572 25.4812C43.7561 25.1929 44.7938 26.1153 44.8514 27.6142C44.9091 28.9401 44.6208 30.2084 44.0443 31.4191C43.8137 31.8803 43.5255 32.3415 43.4102 32.8603C43.2949 33.3215 43.4102 33.8404 43.4102 34.3016C43.4678 34.3592 43.5831 34.3592 43.6408 34.4169C43.929 34.1286 44.3326 33.898 44.5632 33.5521C45.4856 32.1109 46.408 30.612 47.2727 29.1131C47.9645 27.9601 48.1951 26.6918 48.1951 25.4235C48.1375 23.0599 45.9468 21.5033 43.7561 22.1375C42.8914 22.4257 41.969 22.6563 41.1619 23.0022C40.5277 23.2905 39.8936 23.6364 39.3747 24.0399C38.51 24.6741 38.1064 25.5388 38.0488 26.6918ZM43.0066 41.8537C43.8137 41.4501 44.6208 40.9889 45.3703 40.643C47.1574 39.8359 48.714 38.7406 50.0976 37.357C50.7894 36.6652 51.1353 35.8581 51.1353 34.878C51.1353 33.0909 51.1353 31.3038 51.1353 29.459C51.1353 29.1707 51.0776 28.8248 51.02 28.5366C50.9623 28.4789 50.847 28.4213 50.7894 28.4213C50.3858 28.8825 49.867 29.3437 49.5211 29.8625C47.2727 33.3215 45.082 36.7805 42.8337 40.2971C42.4302 40.816 42.4878 41.3348 43.0066 41.8537ZM36.7228 28.133C36.6652 28.133 36.6075 28.0754 36.4922 28.0754C36.204 28.3636 35.9157 28.5942 35.6851 28.8825C34.4169 30.3814 33.7827 32.2262 33.4368 34.1286C33.2062 35.3969 33.8404 36.3769 35.1086 36.6652C36.2616 36.9534 37.2993 36.5499 38.2217 35.9157C40.3548 34.4169 41.4501 32.2262 42.3149 29.9202C42.4302 29.6319 42.4302 29.286 42.4302 28.9401C42.4302 28.306 42.1996 27.7295 41.5078 27.5565C40.5854 27.3259 39.8359 27.6718 39.2018 28.306C38.6253 28.8248 38.3947 29.6319 38.7982 30.2661C39.4324 31.3038 38.9712 31.8803 38.2217 32.4568C37.9911 32.6297 37.8182 32.918 37.5876 33.0333C37.4146 33.1486 37.0687 33.3792 36.9534 33.3215C36.7805 33.2062 36.6075 32.8603 36.6075 32.6297C36.6075 31.3614 36.6652 30.0931 36.7228 28.8248C36.7228 28.5942 36.7228 28.3636 36.7228 28.133ZM30.4967 34.3016C29.8625 34.7051 29.6896 35.2239 29.8625 35.8581C30.4967 37.8182 31.4767 39.5477 33.2639 40.7007C37.2993 43.2372 42.0843 41.3925 42.8914 36.8958C42.949 36.6075 42.8914 36.2616 42.8337 35.9734C42.4878 36.031 42.1419 35.9734 41.8537 36.0887C40.2395 36.6652 38.6829 37.357 37.0687 37.9335C34.5322 38.8559 32.3991 37.9335 31.1885 35.5698C31.0155 35.1663 30.7849 34.7627 30.4967 34.3016ZM64.337 52.5188C64.51 52.1153 64.6829 51.827 64.7982 51.4235C65.0288 50.7894 65.2018 50.1552 64.6829 49.5787C64.2217 49.0022 63.5299 49.0599 62.8958 49.2328C62.7228 49.2905 62.6075 49.3481 62.4346 49.3481C62.204 49.3481 61.9157 49.4634 61.6851 49.3481C61.051 49.0599 60.4168 49.1752 59.7827 49.3481C59.2062 49.5211 58.5721 49.6364 57.9956 49.867C57.6497 49.9823 57.3614 49.9246 57.3038 49.5787C57.1885 48.9446 56.7273 48.7716 56.2084 48.7716C55.5166 48.7716 54.8825 48.9446 54.1907 49.0022C52.6341 49.1752 50.847 50.6741 50.4435 52.1153C50.1552 53.2106 50.6741 54.0177 51.827 54.133C53.7295 54.306 55.4013 53.6718 56.4967 52.1153C57.1885 51.0776 57.9956 50.6741 59.0909 50.4435C59.4945 50.3858 59.898 50.2129 60.3015 50.1552C60.4745 50.0976 60.7051 50.2129 60.9357 50.2129C60.878 50.3858 60.8204 50.6741 60.7051 50.7894C60.1286 51.5388 59.4945 52.173 58.9756 52.9224C58.8603 53.0953 58.8027 53.3836 58.745 53.6142C58.9756 53.6718 59.2062 53.7871 59.4368 53.7871C60.7051 53.7295 62.0887 52.4035 62.4346 51.0776C62.4922 50.7894 62.5499 50.5011 62.7805 50.3282C62.9534 50.1552 63.2417 50.1552 63.5299 50.0399C63.5876 50.2705 63.7029 50.5588 63.6452 50.7894C63.4723 51.2506 63.2417 51.7118 63.0111 52.1729C62.6075 53.0377 62.9534 53.6142 63.8758 53.6142C64.5676 53.6142 65.2018 53.6142 65.8936 53.4412C66.816 53.2683 67.6807 52.8647 68.2572 52.0577C67.9113 52 67.6231 51.9424 67.3348 52.0577C66.3548 52.3459 65.4324 52.8071 64.337 52.5188Z" fill="#C5C5C5"/>
</svg>
