<svg width="68" height="65" viewBox="0 0 68 65" fill="none" xmlns="http://www.w3.org/2000/svg">
<g clip-path="url(#clip0)">
<path d="M54.6001 2.87734H65.1001V13.3934H67.1001V0.874268H54.6001V2.87734Z" fill="#F1CC46"/>
<path d="M2 13.4936V2.87734H12.1V0.874268H0V13.4936H2Z" fill="#F1CC46"/>
<path d="M12.1 62.8692H2V52.2529H0V64.8723H12.1V62.8692Z" fill="#F1CC46"/>
<path d="M65.1001 52.0526V62.8692H54.6001V64.8722H67.1001V52.0526H65.1001Z" fill="#F1CC46"/>
<path d="M48.5418 39.5843L42.6564 31.0968C42.4377 30.782 42.1534 30.5285 41.8449 30.3058C42.1539 30.083 42.4385 29.8292 42.6578 29.5139L48.5418 21.0271C48.8418 20.5943 49.0001 20.0934 49.0001 19.5786C49 18.1013 47.701 16.8988 46.1048 16.8988H20.8952C19.299 16.8988 18 18.1013 18 19.5786C18 20.0934 18.1583 20.5943 18.4583 21.0271L24.3437 29.5146C24.5624 29.8294 24.8467 30.0829 25.1551 30.3056C24.8462 30.5284 24.5615 30.7822 24.3423 31.0974L18.4582 39.5843C18.1583 40.017 18 40.518 18 41.0328C18 41.1577 18.0219 41.2771 18.0399 41.3976C18.0209 41.4616 18 41.5255 18 41.5957V45.1238C18 46.6805 19.2646 47.9463 20.8182 47.9463H46.1819C47.7355 47.9463 49.0001 46.6805 49.0001 45.1238V41.5957C49.0001 41.5254 48.9792 41.4616 48.9602 41.3976C48.9781 41.2771 49.0001 41.1577 49.0001 41.0327C49 40.518 48.8418 40.017 48.5418 39.5843ZM19.6169 20.2223C19.4806 20.0266 19.4091 19.804 19.4091 19.5787C19.4091 18.8793 20.0751 18.3101 20.8952 18.3101H46.1048C46.9249 18.3101 47.5909 18.8793 47.5909 19.5787C47.5909 19.804 47.5194 20.0266 47.3831 20.2223L41.5004 28.7084C41.1179 29.2583 40.4244 29.6001 39.6882 29.6001H27.3118C26.5756 29.6001 25.8821 29.2583 25.5009 28.7091L19.6169 20.2223ZM47.5909 45.1239C47.5909 45.9018 46.9593 46.5351 46.1819 46.5351H20.8182C20.0407 46.5351 19.4091 45.9018 19.4091 45.1239V43.3204C19.8451 43.5641 20.35 43.7127 20.8953 43.7127H46.1048C46.65 43.7127 47.155 43.5641 47.5909 43.3204V45.1239ZM46.1048 42.3014H20.8952C20.0751 42.3014 19.4091 41.7322 19.4091 41.0328C19.4091 40.8074 19.4806 40.5848 19.6169 40.3892L25.4996 31.903C25.8822 31.3531 26.5757 31.0114 27.3119 31.0114H39.6882C40.4244 31.0114 41.118 31.3532 41.4992 31.9024L47.3832 40.3892C47.5195 40.5849 47.591 40.8075 47.591 41.0328C47.5909 41.7322 46.9249 42.3014 46.1048 42.3014Z" fill="white"/>
<path d="M40.2634 32.7216C40.1326 32.5342 39.918 32.4225 39.6895 32.4225L27.2375 32.4039H27.2361C27.0049 32.4039 26.7888 32.5169 26.6567 32.7071L21.7524 39.782C21.6038 39.9976 21.5859 40.2788 21.707 40.5117C21.8295 40.7439 22.0689 40.89 22.3317 40.89H44.6542C44.9171 40.89 45.1579 40.7432 45.2803 40.509C45.4014 40.2754 45.3822 39.9935 45.2294 39.7779L40.2634 32.7216ZM23.679 39.4788L27.6049 33.8159L39.3221 33.8331L43.2962 39.4788H23.679Z" fill="white"/>
<path d="M41.25 45.8295C41.6391 45.8295 41.9545 45.5136 41.9545 45.1239C41.9545 44.7341 41.6391 44.4182 41.25 44.4182C40.8609 44.4182 40.5454 44.7341 40.5454 45.1239C40.5454 45.5136 40.8609 45.8295 41.25 45.8295Z" fill="white"/>
<path d="M44.0681 45.8295C44.4572 45.8295 44.7727 45.5136 44.7727 45.1239C44.7727 44.7341 44.4572 44.4182 44.0681 44.4182C43.679 44.4182 43.3635 44.7341 43.3635 45.1239C43.3635 45.5136 43.679 45.8295 44.0681 45.8295Z" fill="white"/>
</g>
<defs>
<clipPath id="clip0">
<rect width="67.1" height="63.998" fill="white" transform="translate(0 0.874268)"/>
</clipPath>
</defs>
</svg>
