<svg width="112" height="33" viewBox="0 0 112 33" fill="none" xmlns="http://www.w3.org/2000/svg">
<path d="M5.37863 14.007C3.64133 12.2982 1.90403 10.5894 0.166735 8.88056C-0.00414656 8.70968 -0.0895881 8.59576 0.138254 8.36792C2.13188 6.40278 4.1255 4.46612 6.09064 2.50098C6.11912 2.6149 6.1476 2.7573 6.23304 2.81426C7.48618 4.06739 8.68235 5.37749 9.99244 6.5167C10.5051 7.0863 11.0462 7.65591 11.5589 8.254C11.3595 8.42488 11.1601 8.59576 10.9608 8.76664C9.36588 10.3615 7.77098 11.9564 6.17608 13.5513C5.97672 13.7792 5.77736 14.0355 5.37863 14.007Z" fill="#C5C5C5"/>
<path d="M106.769 17.5382C107.424 16.0572 108.05 14.7756 108.591 13.4371C108.819 12.8674 109.133 12.6681 109.702 12.725C110.215 12.782 110.756 12.7535 111.269 12.725C111.639 12.6966 111.781 12.8105 111.781 13.2092C111.753 15.8579 111.781 18.5065 111.781 21.1837C111.781 21.5255 111.696 21.6109 111.326 21.6394C109.816 21.7248 109.816 21.7248 109.816 20.2438C109.816 18.7059 109.816 17.168 109.645 15.5731C109.303 16.2851 108.962 16.9971 108.62 17.7376C108.421 18.1933 108.193 18.6489 107.993 19.1046C107.566 20.0445 107.196 20.2154 106.171 20.016C105.857 19.959 105.829 19.7312 105.715 19.5318C105.088 18.1933 104.462 16.8547 103.75 15.3452C103.721 15.687 103.693 15.8579 103.693 16.0288C103.693 17.7091 103.693 19.3894 103.693 21.0413C103.693 21.44 103.636 21.6394 103.152 21.6394C101.699 21.6394 101.699 21.6679 101.699 20.2438C101.699 17.9654 101.728 15.687 101.699 13.4371C101.699 12.9244 101.813 12.8105 102.354 12.725C104.063 12.4687 105.06 13.0383 105.516 14.7471C105.772 15.6585 106.285 16.5129 106.769 17.5382Z" fill="#C5C5C5"/>
<path d="M106.911 4.89318C107.566 3.41221 108.193 2.07363 108.762 0.706579C108.961 0.222413 109.218 -0.00542992 109.759 0.0515307C110.442 0.108491 111.382 -0.176312 111.753 0.193932C112.208 0.592657 111.895 1.53251 111.895 2.24451C111.923 4.2951 111.895 6.34568 111.923 8.42474C111.923 8.85194 111.81 8.99435 111.354 8.99435C109.958 8.99435 109.958 9.02283 109.958 7.6273C109.958 6.06088 109.958 4.46598 109.816 2.8426C109.588 3.29829 109.389 3.75397 109.161 4.20966C108.819 4.92167 108.506 5.63367 108.164 6.34568C107.68 7.37097 107.509 7.45641 106.37 7.31401C106.056 7.28553 105.971 7.08617 105.886 6.88681C105.344 5.74759 104.832 4.5799 104.291 3.44069C104.205 3.24132 104.091 3.04196 103.863 2.87108C103.863 4.5799 103.863 6.28872 103.863 7.99754C103.863 8.31082 104.034 8.82347 103.75 8.90891C103.208 9.05131 102.61 8.96587 102.041 8.93739C101.87 8.93739 101.927 8.70954 101.927 8.56714C101.927 5.88999 101.927 3.21284 101.927 0.535695C101.927 0.193931 102.041 0.0515324 102.383 0.0800127C102.439 0.0800127 102.468 0.0800127 102.525 0.0800127C103.265 0.0800127 104.12 -0.147833 104.718 0.16545C105.316 0.478734 105.401 1.41858 105.715 2.10211C106.056 2.95652 106.455 3.83941 106.911 4.89318Z" fill="#C5C5C5"/>
<path d="M35.9665 14.2632C35.4823 14.7474 35.0267 15.2601 34.514 15.7442C34.2292 16.0006 34.2577 16.1714 34.514 16.4278C35.1406 17.0258 35.7387 17.6809 36.3368 18.3075C36.0235 18.3644 35.7672 18.5353 35.5393 18.7631C33.9729 20.3296 32.4065 21.896 30.8401 23.4624C30.6122 23.6902 30.3844 23.9466 30.3559 24.3168C29.5869 23.5478 28.818 22.8073 28.0205 22.0384C28.3053 22.0099 28.5047 21.839 28.6186 21.5827C29.0743 20.8992 29.9287 20.5859 30.3274 19.8454C31.4666 18.7347 32.5774 17.6524 33.7166 16.5702C34.0868 16.2284 34.1438 15.9721 33.7451 15.5733C32.5774 14.4626 31.4666 13.2664 30.2135 12.2411C29.7008 11.6146 29.1028 11.045 28.4762 10.5323C28.3623 10.333 28.2199 10.1906 28.0205 10.1051C28.6471 9.47856 29.2736 8.88047 29.9002 8.25391C29.9002 8.48175 30.0426 8.59567 30.185 8.73807C31.8084 10.3899 33.4318 12.0418 35.0551 13.6652C35.3684 13.893 35.5678 14.2632 35.9665 14.2632Z" fill="#C5C5C5"/>
<path d="M66.5544 4.52284C66.5544 3.21275 66.5544 1.90265 66.5544 0.592561C66.5544 0.193836 66.6398 0.0799167 67.067 0.0514364C68.6049 0.0229561 68.6049 0.0229579 68.6049 1.50393C68.6049 1.9881 68.6334 2.47226 68.6049 2.92795C68.5765 3.35515 68.6904 3.583 69.1745 3.55452C70.0574 3.52604 70.9403 3.52604 71.8232 3.55452C72.2789 3.583 72.3928 3.41211 72.3643 2.98491C72.3359 2.18746 72.3928 1.41849 72.3359 0.621043C72.3074 0.165358 72.4783 0.0514364 72.9055 0.0514364C74.4149 0.0514364 74.4149 0.0229552 74.4149 1.53241C74.4149 3.81084 74.3864 6.06078 74.4149 8.33921C74.4149 8.85185 74.2725 8.96577 73.7599 8.96577C72.3074 8.93729 72.3074 8.96577 72.3074 7.4848C72.3074 6.85823 72.3074 6.23167 72.3074 5.63358C72.3074 5.26333 72.2219 5.12093 71.8232 5.12093C70.8834 5.14941 69.972 5.14941 69.0321 5.12093C68.5765 5.12093 68.5195 5.32029 68.548 5.69054C68.5765 6.60191 68.548 7.51328 68.548 8.42465C68.548 8.79489 68.491 8.96577 68.0638 8.96577C66.5259 8.99425 66.5259 9.02273 66.5259 7.45632C66.5544 6.48799 66.5544 5.51965 66.5544 4.52284Z" fill="#C5C5C5"/>
<path d="M90.7626 17.6808C91.9303 18.6492 91.9303 20.0162 92.2721 21.2694C92.3005 21.3833 92.3575 21.5542 92.1866 21.5542C91.7309 21.5826 91.2753 21.5542 90.8196 21.6111C90.0791 21.6966 90.193 21.127 90.1076 20.7282C89.9652 20.2725 89.8797 19.7884 89.7658 19.3327C89.6804 18.9909 89.538 18.6492 89.1677 18.5068C88.2563 18.108 87.7722 18.4213 87.7722 19.3896C87.7722 19.9877 87.7722 20.5858 87.7722 21.1839C87.7722 21.4972 87.6867 21.6396 87.345 21.5826C87.288 21.5826 87.2595 21.5826 87.2026 21.5826C85.6931 21.6111 85.6931 21.6111 85.6931 20.1301C85.6931 17.8517 85.6931 15.6018 85.6931 13.3233C85.6931 12.8677 85.807 12.6968 86.2912 12.6968C87.5159 12.7537 88.7405 12.6683 89.9367 12.7537C91.2468 12.8677 91.8164 13.4373 92.0727 14.605C92.329 16.0575 91.9588 16.9973 90.7626 17.6808ZM88.3987 14.2917C87.8291 14.1493 87.6298 14.4056 87.6867 15.0606C87.7437 15.5448 87.6867 16.0005 87.6867 16.4847C87.6867 16.6555 87.6583 16.8264 87.8291 16.9119C88.5696 17.3391 89.9082 16.684 89.9936 15.8581C90.193 14.7474 89.7373 14.2917 88.3987 14.2917Z" fill="#C5C5C5"/>
<path d="M14.7486 23.6046C14.8056 23.5477 14.8341 23.5192 14.8626 23.4622C15.0619 23.3483 15.2613 23.2344 15.4322 23.1489C15.603 23.4337 15.5746 23.747 15.5746 24.0603C15.5746 26.7374 15.5746 29.3861 15.5746 32.0633C15.4891 32.0633 15.3752 32.0633 15.2898 32.0633C14.2075 31.8069 13.0968 32.0063 11.986 31.9493C10.2203 31.9493 8.426 31.9493 6.51782 31.9493C7.11591 31.2943 7.62855 30.7816 8.1412 30.2405C9.13801 29.2722 10.1348 28.3323 11.1032 27.3355C12.3278 26.0824 13.6094 24.9147 14.7486 23.6046Z" fill="#C5C5C5"/>
<path d="M70.9973 16.7979C71.8801 15.6302 72.7915 14.4625 73.6459 13.2663C73.9307 12.8676 74.244 12.6967 74.6997 12.7252C75.2408 12.7537 75.782 12.7252 76.494 12.7252C75.668 13.779 74.8991 14.7188 74.1586 15.6872C73.0763 17.0542 73.0763 17.0542 74.1871 18.4213C74.9845 19.4466 75.8104 20.4719 76.7218 21.6111C75.8959 21.6111 75.2123 21.6111 74.5288 21.6111C74.187 21.6111 74.1016 21.3547 73.9307 21.1554C72.9339 19.8738 71.9656 18.5637 70.9688 17.2821C70.7125 17.4529 70.8264 17.6808 70.8264 17.8801C70.7979 18.6491 70.8264 19.4181 70.8264 20.1871C70.8264 21.6395 70.8264 21.6111 69.3454 21.6111C68.8897 21.6111 68.7473 21.4971 68.7473 21.013C68.7758 18.4498 68.7758 15.8865 68.7473 13.3518C68.7473 12.9246 68.8043 12.7252 69.3169 12.7252C70.8264 12.7252 70.8264 12.6967 70.8264 14.2062C70.8264 15.0606 70.8264 15.915 70.8264 16.7694C70.8833 16.7694 70.9403 16.7979 70.9973 16.7979Z" fill="#C5C5C5"/>
<path d="M75.8958 8.96572C76.6932 6.94362 77.4622 5.00696 78.2311 3.0703C78.5729 2.21589 78.9147 1.38996 79.2279 0.53555C79.3419 0.193786 79.5128 0.0513857 79.883 0.0513857C81.5349 0.0229054 81.5349 0.0229045 82.1614 1.53236C83.0443 3.75383 83.9557 6.00377 84.8386 8.22523C84.924 8.45308 85.0664 8.65244 85.0095 8.93724C84.7816 8.93724 84.5253 8.93724 84.2974 8.93724C82.9304 8.93724 82.9304 8.93724 82.4462 7.65563C82.3323 7.34234 82.1899 7.19994 81.8481 7.19994C80.9652 7.22843 80.0824 7.22843 79.1995 7.19994C78.8292 7.19994 78.6583 7.34235 78.5444 7.68411C78.0887 8.93724 78.0887 8.93724 76.7502 8.93724C76.4938 8.96572 76.2375 8.96572 75.8958 8.96572ZM80.538 2.30133C80.1393 3.41206 79.7691 4.43735 79.3988 5.43416C79.2564 5.77593 79.4843 5.77593 79.7121 5.77593C80.2248 5.77593 80.7659 5.74745 81.2785 5.77593C81.6773 5.80441 81.7057 5.63353 81.5918 5.32024C81.2785 4.35191 80.9368 3.38358 80.538 2.30133Z" fill="#C5C5C5"/>
<path d="M77.9464 16.3706C77.9464 15.4022 77.9749 14.4054 77.9464 13.4371C77.9179 12.9245 78.0318 12.7251 78.6014 12.7251C80.1394 12.7536 81.6488 12.7536 83.1868 12.7251C83.6425 12.7251 83.8133 12.8105 83.8133 13.3232C83.7564 14.6333 83.9273 14.377 82.7596 14.4054C82.0191 14.4054 81.2786 14.4339 80.5381 14.4054C80.1394 14.377 80.0254 14.5194 79.997 14.9466C79.9685 16.1997 79.9685 16.1997 81.2216 16.1997C81.5634 16.1997 81.8767 16.1997 82.2184 16.1997C83.2152 16.1997 83.4716 16.5415 83.2437 17.5098C83.1868 17.7946 82.9874 17.7376 82.8165 17.7376C82.0191 17.7376 81.2501 17.7661 80.4527 17.7376C80.1109 17.7376 79.9685 17.8516 79.997 18.1933C80.0254 18.3642 79.997 18.5351 79.997 18.706C79.997 19.8167 80.2248 20.0445 81.3355 20.0445C81.9906 20.0445 82.6172 20.073 83.2722 20.0445C83.614 20.0445 83.8133 20.13 83.7848 20.5287C83.7564 20.7565 83.7564 21.0129 83.7848 21.2407C83.8133 21.5255 83.7279 21.6964 83.3861 21.6679C82.1615 21.6394 80.9368 21.6964 79.7406 21.611C78.6299 21.554 78.0888 21.0414 78.0033 19.9021C77.9179 18.7344 77.9749 17.5667 77.9749 16.3991C77.9749 16.3706 77.9464 16.3706 77.9464 16.3706Z" fill="#C5C5C5"/>
<path d="M94.0092 16.3424C94.0092 15.4026 94.0662 14.4627 93.9808 13.5513C93.9238 12.8393 94.2086 12.7254 94.8352 12.7539C96.2022 12.8109 97.5693 12.7539 98.9363 12.7824C99.9901 12.7824 99.8192 12.6685 99.8762 13.6937C99.9047 14.2634 99.7623 14.4912 99.1357 14.4627C98.3382 14.4058 97.5123 14.4627 96.6864 14.4342C96.2307 14.4058 96.0598 14.5197 96.0598 15.0323C96.0598 16.2285 96.0313 16.2285 97.199 16.2285C97.5693 16.2285 97.911 16.2285 98.2813 16.2285C99.2781 16.2285 99.5344 16.5418 99.3066 17.5386C99.2211 17.8804 98.9933 17.7664 98.8224 17.7664C98.0534 17.7664 97.2845 17.7949 96.5155 17.7664C96.1737 17.7664 96.0313 17.8804 96.0598 18.2221C96.0883 18.4215 96.0598 18.6493 96.0598 18.8772C96.0883 19.817 96.3161 20.0449 97.256 20.0733C97.9395 20.0733 98.5946 20.1018 99.2781 20.0733C99.7053 20.0449 99.9047 20.1873 99.8477 20.6429C99.8192 20.8423 99.8192 21.0702 99.8477 21.298C99.8762 21.6113 99.7623 21.7252 99.449 21.7252C98.2528 21.6967 97.0566 21.7537 95.8605 21.6967C94.6358 21.6398 94.0947 21.0132 94.0377 19.6746C93.9807 18.4784 94.0092 17.3962 94.0092 16.3424Z" fill="#C5C5C5"/>
<path d="M96.8858 0.0798255C97.6832 0.0798255 98.4522 0.108306 99.2496 0.0798255C99.7338 0.0513452 99.8477 0.250707 99.7908 0.649432C99.7623 0.820314 99.7623 0.991192 99.7908 1.16207C99.8477 1.58928 99.7053 1.76016 99.2496 1.73168C98.3952 1.7032 97.5408 1.73168 96.6579 1.7032C96.1738 1.67472 95.9744 1.78864 95.9744 2.32977C96.0029 3.52594 95.9744 3.52594 97.1136 3.52594C97.6548 3.52594 98.2244 3.55442 98.7655 3.52594C99.1357 3.49746 99.2496 3.63986 99.2496 4.0101C99.2781 5.06388 99.2781 5.06388 98.1959 5.06388C97.6263 5.06388 97.0567 5.09236 96.4871 5.06388C96.1168 5.06388 95.9459 5.14932 95.9744 5.54804C96.0029 5.74741 95.9744 5.97525 95.9744 6.20309C96.0029 7.0575 96.2592 7.31382 97.0851 7.3423C97.7687 7.37078 98.4807 7.37078 99.1642 7.3423C99.6484 7.31382 99.8193 7.4847 99.7623 7.94039C99.7338 8.13975 99.7623 8.36759 99.7623 8.59544C99.7623 8.85176 99.7053 8.99416 99.4205 8.99416C98.1389 8.9372 96.8288 9.10808 95.5472 8.90872C94.5219 8.73784 94.0093 8.28215 93.9808 7.25686C93.9238 4.97844 93.9523 2.72849 93.9238 0.450066C93.9238 0.0513417 94.1802 0.136783 94.408 0.108303C95.2624 0.0798229 96.0883 0.0798255 96.8858 0.0798255Z" fill="#C5C5C5"/>
<path d="M60.5735 8.96577C60.0324 8.96577 59.4628 8.93729 58.9217 8.96577C58.5514 8.99425 58.3806 8.88033 58.4375 8.4816C58.466 8.28224 58.466 8.0544 58.4375 7.82656C58.3806 7.39935 58.5799 7.28543 58.9787 7.28543C59.8046 7.31391 60.602 7.31391 61.428 7.28543C61.7697 7.28543 62.1969 7.37087 62.3393 6.91519C62.4817 6.4595 62.14 6.20318 61.8552 5.97534C61.0862 5.37725 60.3457 4.80764 59.5767 4.23804C59.2065 3.95323 58.8647 3.61147 58.6084 3.18427C57.811 1.81721 58.4945 0.279273 60.0324 0.108391C61.3425 -0.0340105 62.6526 0.0514295 63.9627 0.0229492C64.219 0.0229492 64.3045 0.136874 64.276 0.364716C64.276 0.450157 64.276 0.507114 64.276 0.592555C64.3045 1.67481 64.3045 1.67481 63.2507 1.67481C62.5387 1.67481 61.8267 1.67481 61.0862 1.67481C60.8014 1.67481 60.4881 1.67481 60.3742 2.04505C60.2603 2.38682 60.4312 2.64314 60.6875 2.8425C61.4564 3.41211 62.2539 3.95324 63.0229 4.49436C63.6209 4.92157 64.1051 5.43421 64.3045 6.1747C64.7032 7.59871 63.9057 8.79489 62.4248 8.90881C61.8267 8.99425 61.2001 8.96577 60.5735 8.96577Z" fill="#C5C5C5"/>
<path d="M15.4606 23.1493C15.2613 23.2632 15.0619 23.3771 14.891 23.4625C14.0081 22.5512 13.0968 21.6683 12.2139 20.7569C12.4987 20.6715 12.6696 20.4151 12.8689 20.2158C14.4069 18.6778 15.9448 17.1399 17.4827 15.602C17.739 15.3456 18.0808 15.1178 18.2232 14.7476C19.1631 15.6874 20.1029 16.6273 21.0428 17.5671C20.6156 17.9658 20.1029 18.2506 19.7611 18.7063C19.3624 19.2474 18.7074 19.5607 18.3371 20.1303C17.8814 20.7284 17.2834 21.1841 16.7707 21.6968C16.315 22.2094 15.8878 22.6936 15.4606 23.1493Z" fill="#C5C5C5"/>
<path d="M30.3844 24.317C30.4129 23.9752 30.6407 23.7189 30.8686 23.4626C32.435 21.8961 34.0014 20.3297 35.5678 18.7633C35.7957 18.5355 36.0235 18.3646 36.3653 18.3076C37.1058 18.9342 37.8178 19.6177 38.4443 20.3582C38.3589 20.643 38.1026 20.8139 37.9032 21.0132C36.4222 22.5227 34.9128 24.0037 33.4033 25.5131C33.09 25.8264 32.7767 26.1682 32.6628 26.6239C31.8654 25.9119 31.1249 25.1144 30.3844 24.317Z" fill="#C5C5C5"/>
<path d="M30.6122 2.21631C30.6122 3.12768 30.6407 4.03905 30.6407 4.95042C30.6407 5.20674 30.5553 5.4061 30.3274 5.5485C29.9572 5.46306 29.5869 5.37762 29.2167 5.37762C26.8528 5.4061 24.4889 5.37762 22.1536 5.37762C22.0966 4.32385 22.0966 3.27008 22.1536 2.21631C24.9731 2.21631 27.7927 2.21631 30.6122 2.21631Z" fill="#C5C5C5"/>
<path d="M42.1466 24.0605C42.7447 24.6302 43.3143 25.1998 43.9409 25.7694C44.1687 25.9972 44.1687 26.1111 43.9409 26.339C42.0897 28.1617 40.2385 29.9845 38.4157 31.8357C38.1879 32.0635 38.0455 32.035 37.8461 31.8072C37.305 31.2091 36.6499 30.7249 36.1658 30.0699C36.7639 29.6996 37.0487 29.0731 37.5328 28.6174C39.0708 27.1079 40.6087 25.57 42.1466 24.0605Z" fill="#C5C5C5"/>
<path d="M18.2232 14.7757C18.0808 15.1459 17.7391 15.3738 17.4827 15.6301C15.9448 17.1681 14.4069 18.706 12.8689 20.2439C12.6696 20.4433 12.4987 20.6996 12.2139 20.785C11.5303 20.1015 10.8753 19.4465 10.1918 18.763C10.4766 18.6775 10.6475 18.4497 10.8468 18.2503C12.1569 16.9402 13.467 15.6016 14.8056 14.32C15.3182 13.8359 15.717 13.2378 16.429 12.9814C16.9701 13.6365 17.7106 14.0637 18.2232 14.7757Z" fill="#C5C5C5"/>
<path d="M86.3766 3.81103C86.3766 2.75726 86.4051 1.70349 86.3766 0.649722C86.3766 0.250998 86.4336 0.0801158 86.9178 0.0801158C88.4272 0.0801158 88.4272 0.0516345 88.4272 1.56109C88.4272 3.01359 88.4272 4.46608 88.4272 5.94706C88.4272 7.05779 88.712 7.34259 89.8512 7.37107C90.5063 7.37107 91.1328 7.39955 91.7879 7.37107C92.3005 7.34259 92.4714 7.54195 92.4145 8.02612C92.386 8.22548 92.4145 8.45333 92.4145 8.68117C92.4145 8.90901 92.329 9.05141 92.0727 9.02293C90.7056 8.96597 89.3386 9.16533 88 8.90901C86.9462 8.70965 86.4621 8.14004 86.4336 7.08627C86.3481 5.94706 86.3766 4.86481 86.3766 3.81103Z" fill="#C5C5C5"/>
<path d="M14.7487 23.6045C13.6095 24.9146 12.3279 26.0823 11.1032 27.3069C10.1349 28.2753 9.13806 29.2436 8.14125 30.2119C7.91341 29.7562 7.85645 29.2721 7.85645 28.7594C7.85645 27.0506 7.85645 25.3133 7.85645 23.6045C10.1634 23.633 12.4418 23.6045 14.7487 23.6045Z" fill="#C5C5C5"/>
<path d="M32.6912 26.6236C32.8051 26.1679 33.1184 25.8546 33.4317 25.5128C34.9411 24.0034 36.4221 22.5224 37.9315 21.013C38.1309 20.8136 38.3872 20.6427 38.4727 20.3579C39.2132 21.013 39.9252 21.6965 40.5802 22.4655C40.2954 22.4655 40.1815 22.6933 40.0391 22.8642C39.5264 23.4338 38.9568 24.0034 38.4157 24.5445C37.8176 25.1711 37.1911 25.7692 36.5645 26.3673C35.881 27.0508 35.1689 27.7058 34.4854 28.3609C33.8589 27.7913 33.2892 27.1932 32.6912 26.6236Z" fill="#C5C5C5"/>
<path d="M28.6756 21.5825C28.5617 21.8389 28.3908 22.0098 28.0775 22.0382C27.4509 21.5256 26.9098 20.9275 26.3687 20.3294C26.3117 19.7028 26.2548 19.0478 26.2548 18.4212C26.2263 16.5985 26.2548 14.7758 26.2548 12.953C26.2548 12.6682 26.3402 12.3549 25.97 12.2125C26.682 11.5005 27.394 10.817 28.106 10.105C28.3054 10.1904 28.4478 10.3328 28.5617 10.5322C28.4193 10.6461 28.4193 10.817 28.4193 10.9879C28.4193 14.3485 28.4193 17.7377 28.4193 21.0984C28.3908 21.3262 28.3623 21.5541 28.6756 21.5825Z" fill="#C5C5C5"/>
<path d="M16.429 12.9817C15.7455 13.2381 15.3183 13.8362 14.8056 14.3203C13.467 15.6019 12.1854 16.9405 10.8469 18.2506C10.6475 18.45 10.4766 18.6778 10.1918 18.7633C9.56524 18.2221 8.96715 17.624 8.42603 16.9975C9.99244 15.2032 11.9291 13.7507 13.524 11.9849C13.8088 11.6717 14.1506 11.4153 14.4639 11.1021C15.2328 11.6432 15.8309 12.3267 16.429 12.9817Z" fill="#C5C5C5"/>
<path d="M22.125 5.37744C24.4889 5.37744 26.8527 5.37744 29.1881 5.37744C29.5868 5.37744 29.9286 5.46288 30.2988 5.54833C29.2451 6.6021 28.1913 7.65587 27.1375 8.70964C27.0236 8.68116 26.9097 8.56724 26.7958 8.59572C25.2293 8.79508 23.6629 8.6242 22.0965 8.68116C22.068 7.57043 22.0965 6.48817 22.125 5.37744Z" fill="#C5C5C5"/>
<path d="M36.3082 1.93124C36.8494 1.39012 37.3905 0.848989 37.9031 0.279383C38.1025 0.0515408 38.2449 0.108499 38.4158 0.307861C40.267 2.15908 42.1182 3.98182 43.9694 5.80456C44.1973 6.0324 44.1688 6.17481 43.9409 6.37417C43.4283 6.82985 42.9441 7.31402 42.4315 7.79818C41.7195 7.08618 40.922 6.43113 40.267 5.66216C39.3841 4.63687 38.3588 3.78246 37.4474 2.78565C37.1626 2.50085 36.8209 2.04516 36.3082 1.93124Z" fill="#C5C5C5"/>
<path d="M18.6221 8.53879C16.5145 8.59575 14.407 8.59575 12.2994 8.53879C12.3849 8.28246 12.7266 8.16854 12.7266 7.82678C13.7804 6.88693 14.7772 5.86164 15.7456 4.80786C16.6569 3.98194 17.5683 3.15601 18.4797 2.33008C18.5936 2.7288 18.6221 3.12753 18.6221 3.52625C18.6221 5.20659 18.6221 6.85845 18.6221 8.53879Z" fill="#C5C5C5"/>
<path d="M40.865 9.39299C40.3239 10.0196 39.7543 10.5892 39.1277 11.1018C38.7005 10.9879 38.4727 10.6746 38.1878 10.3898C36.4506 8.65251 34.7133 6.94369 32.976 5.20639C33.4601 4.6083 34.0012 4.09565 34.5993 3.58301C35.0835 3.98173 35.6246 4.35198 36.0803 4.80766C37.4758 6.23168 38.9568 7.51329 40.2384 9.05123C40.3808 9.27907 40.6372 9.36451 40.865 9.39299Z" fill="#C5C5C5"/>
<path d="M40.865 9.39299C40.6087 9.36451 40.3809 9.27907 40.2385 9.07971C38.9568 7.54177 37.4759 6.26016 36.0803 4.83614C35.6247 4.38046 35.112 4.01021 34.5994 3.61149C35.1405 3.0134 35.6816 2.4438 36.2797 1.93115C36.7923 2.04507 37.1341 2.47228 37.4474 2.81404C38.3303 3.81085 39.3841 4.66526 40.2669 5.69055C40.922 6.45952 41.691 7.11457 42.4315 7.82658C42.0327 8.45314 41.3492 8.82339 40.865 9.39299Z" fill="#C5C5C5"/>
<path d="M33.0045 5.23486C34.7418 6.94368 36.4791 8.68098 38.2164 10.4183C38.5012 10.7031 38.729 11.0164 39.1562 11.1303C38.6151 11.8138 37.9601 12.3549 37.3335 12.953C36.9348 12.3549 36.5076 11.7853 35.9664 11.3297C34.5424 10.1335 33.2893 8.73794 31.9507 7.45633C31.7514 7.25697 31.5805 7.02912 31.552 6.71584C31.9792 6.14623 32.4919 5.69055 33.0045 5.23486Z" fill="#C5C5C5"/>
<path d="M34.457 28.3896C35.1406 27.7345 35.8526 27.051 36.5361 26.3959C37.1627 25.7979 37.7892 25.1713 38.3873 24.5732C38.9284 24.0321 39.4696 23.4625 40.0107 22.8929C40.1816 22.722 40.2955 22.4941 40.5518 22.4941C41.0645 23.0637 41.691 23.4625 42.1467 24.089C40.6088 25.5985 39.0708 27.1364 37.5044 28.6459C37.0203 29.1016 36.7355 29.7566 36.1374 30.0984C35.5393 29.5573 34.9982 28.9877 34.457 28.3896Z" fill="#C5C5C5"/>
<path d="M2.70151 32.0634C1.96102 32.0918 1.04965 32.3766 0.565487 31.9779C0.109802 31.5792 0.451565 30.6393 0.423085 29.9273C0.394605 28.0192 0.423086 26.111 0.394605 24.2028C0.394605 23.7471 0.480046 23.5477 0.964211 23.6047C1.53382 23.6617 2.10342 23.6332 2.67303 23.6332C2.70151 26.4243 2.70151 29.2438 2.70151 32.0634Z" fill="#C5C5C5"/>
<path d="M12.7266 7.82653C12.7266 8.16829 12.3849 8.25374 12.2994 8.53854L12.2425 8.56702H12.1855C11.9577 8.48158 11.8437 8.25374 11.5874 8.25374C11.0748 7.68413 10.5336 7.11452 10.021 6.51644C10.4482 6.43099 10.2773 6.06075 10.3058 5.80443C10.3058 3.92473 10.3058 2.04503 10.3058 0.193807C11.1032 -0.090996 11.9292 0.108365 12.7551 0.108365C12.7266 2.67159 12.7266 5.2633 12.7266 7.82653Z" fill="#C5C5C5"/>
<path d="M18.3372 20.1584C18.7074 19.5603 19.3624 19.2755 19.7612 18.7344C20.0745 18.9907 20.046 19.3609 20.046 19.7312C20.046 22.9779 20.046 26.2532 20.046 29.4999C20.046 29.7563 19.8751 30.098 20.3023 30.2119C19.8181 30.867 19.1916 31.3511 18.622 31.9208C18.4226 30.9524 18.4796 29.9841 18.4796 29.0158C18.4796 26.3671 18.4796 23.7184 18.4796 21.0698C18.4796 20.7565 18.508 20.4432 18.3372 20.1584Z" fill="#C5C5C5"/>
<path d="M12.7266 7.82656C12.7266 5.26334 12.7266 2.67163 12.7266 0.108398C13.2107 0.108398 13.6949 0.108398 14.1791 0.108398C14.3784 0.27928 14.6347 0.222322 14.8626 0.222322C15.3752 0.165362 15.6031 0.33624 15.6885 0.877366C15.8879 2.18746 15.6316 3.52604 15.774 4.83613C14.8056 5.86142 13.8088 6.88671 12.7266 7.82656Z" fill="#C5C5C5"/>
<path d="M31.552 6.6875C31.5805 7.00078 31.7229 7.22862 31.9507 7.42799C33.2893 8.7096 34.514 10.1051 35.9665 11.3013C36.5076 11.757 36.9348 12.3266 37.3335 12.9247C36.9348 13.4089 36.4791 13.8645 35.9949 14.2633C35.5962 14.2348 35.3684 13.893 35.1405 13.6652C33.4887 12.0418 31.8938 10.3899 30.2704 8.73808C30.128 8.59568 29.9856 8.48176 29.9856 8.25392C30.4413 7.68431 30.9824 7.17167 31.552 6.6875Z" fill="#C5C5C5"/>
<path d="M30.6123 2.2161C27.7927 2.2161 24.9447 2.2161 22.1251 2.2161C21.9258 0.0800781 21.9258 0.0800781 24.0048 0.0800781C25.9984 0.0800781 28.0205 0.108558 30.0142 0.0800781C30.5268 0.0800781 30.6977 0.222476 30.6407 0.735122C30.6123 1.21929 30.6407 1.73194 30.6123 2.2161Z" fill="#C5C5C5"/>
<path d="M14.4638 11.1017C14.1505 11.3865 13.8087 11.6713 13.5239 11.9846C11.929 13.7504 9.99237 15.2029 8.42595 16.9972C7.85635 16.513 7.31522 16.0003 6.83105 15.4307C7.2013 15.4023 7.37218 15.089 7.60002 14.8611C8.53987 13.8928 9.45124 12.9245 10.3911 11.9846C11.217 11.1587 12.043 10.3328 12.8974 9.50684C13.4385 10.0195 14.0935 10.4467 14.4638 11.1017Z" fill="#C5C5C5"/>
<path d="M22.9794 19.4751C24.2325 20.6998 25.4572 21.9529 26.7388 23.1775C27.0521 23.4908 27.0521 23.6617 26.7388 23.9465C25.5996 24.9718 24.6312 26.2249 23.3781 27.1648C23.2072 27.3072 23.2357 27.5635 22.9794 27.6489C22.837 27.3357 22.78 27.0224 22.78 26.6806C22.78 24.6016 22.78 22.5225 22.78 20.4719C22.78 20.1017 22.8085 19.7599 22.9794 19.4751Z" fill="#C5C5C5"/>
<path d="M7.8565 23.6333C7.8565 25.3421 7.8565 27.0794 7.8565 28.7882C7.8565 29.3009 7.94194 29.7851 8.1413 30.2407C7.62866 30.7819 7.14449 31.2945 6.51793 31.9496C8.42611 31.9496 10.2204 31.9496 11.9861 31.9496C11.9861 31.978 11.9861 32.035 11.9861 32.0635C9.8786 32.0635 7.77106 32.0635 5.66352 32.0635C5.74896 29.2439 5.49264 26.4244 5.80592 23.6333C6.51793 23.6333 7.20145 23.6333 7.8565 23.6333Z" fill="#C5C5C5"/>
<path d="M64.39 16.7122C64.2761 16.8261 64.1907 16.94 64.0767 17.054C63.3078 17.8229 62.5388 18.5634 61.7983 19.3324C61.542 19.5887 61.3711 19.5887 61.1148 19.3324C60.3743 18.5634 59.6053 17.7944 58.8364 17.054C58.58 16.7976 58.5516 16.6267 58.8364 16.3704C59.6053 15.6299 60.3743 14.861 61.1148 14.092C61.2857 13.9211 61.4281 13.7218 61.6844 14.0066C62.5103 14.8325 63.3362 15.6584 64.1622 16.4843C64.2761 16.5413 64.3331 16.5983 64.39 16.7122Z" fill="#C5C5C5"/>
<path d="M25.9414 12.2124C26.3116 12.3548 26.2262 12.6681 26.2262 12.9529C26.2262 14.7756 26.2262 16.5984 26.2262 18.4211C26.2262 19.0477 26.3116 19.7027 26.3401 20.3293C24.9731 18.9907 23.6345 17.6521 22.2674 16.3136C22.0681 16.1142 22.0681 16.0003 22.2674 15.8009C23.5206 14.6332 24.7452 13.4086 25.9414 12.2124Z" fill="#C5C5C5"/>
<path d="M10.3057 0.193848C10.3057 2.07355 10.3057 3.95325 10.3057 5.80447C10.3057 6.06079 10.4766 6.40255 10.0209 6.51648C8.68237 5.34878 7.51468 4.03869 6.26154 2.81404C6.1761 2.72859 6.1761 2.5862 6.11914 2.50075C6.77419 1.81723 7.45772 1.16218 8.11276 0.478651C8.36909 0.193848 8.65389 0.22233 8.93869 0.22233C9.39438 0.22233 9.85006 0.193848 10.3057 0.193848Z" fill="#C5C5C5"/>
<path d="M18.3372 20.1587C18.5081 20.4435 18.4796 20.7568 18.4796 21.0701C18.4796 23.7187 18.4796 26.3674 18.4796 29.0161C18.4796 29.9844 18.4226 30.9527 18.622 31.9211C18.0808 32.2343 17.4828 32.0065 16.9132 32.035C16.9701 31.7787 17.0556 31.5223 17.0556 31.266C17.0556 28.2756 17.0556 25.2851 17.0556 22.2662C17.0556 22.0384 17.141 21.7536 16.7708 21.7251C17.2834 21.2125 17.8815 20.7568 18.3372 20.1587Z" fill="#C5C5C5"/>
<path d="M12.8975 9.47823C12.0715 10.3042 11.2171 11.1301 10.3912 11.956C9.45135 12.8959 8.53998 13.8927 7.60013 14.8325C7.37228 15.0604 7.2014 15.3737 6.83116 15.4021C6.31851 14.9464 5.80587 14.4908 5.37866 13.9781C5.77739 14.0351 5.97675 13.7503 6.20459 13.5224C7.79949 11.9275 9.39438 10.3326 10.9893 8.73774C11.1602 8.56686 11.388 8.39598 11.5874 8.2251C11.8437 8.2251 11.9861 8.45294 12.1855 8.53838C12.2709 8.99407 12.7551 9.10799 12.8975 9.47823Z" fill="#C5C5C5"/>
<path d="M20.3024 30.212C19.9036 30.0981 20.046 29.7278 20.046 29.5C20.046 26.2532 20.046 22.978 20.046 19.7312C20.046 19.361 20.0745 19.0192 19.7612 18.7344C20.103 18.2787 20.6156 17.9939 21.0428 17.5952C21.2707 17.7376 21.4985 17.9085 21.584 18.1648C21.2422 18.2503 21.3276 18.5351 21.3276 18.7344C21.3276 21.9527 21.3276 25.1425 21.3276 28.3608C21.3276 28.5886 21.2422 28.8734 21.584 28.9304C21.3276 29.5 20.7296 29.7563 20.3024 30.212Z" fill="#C5C5C5"/>
<path d="M111.582 30.2122C111.582 30.6964 111.553 31.1806 111.582 31.6363C111.61 32.0065 111.439 32.0635 111.126 32.0635C110.756 32.0635 110.756 31.8641 110.756 31.6078C110.756 30.7534 110.756 29.899 110.756 29.0161C110.756 28.0477 110.471 27.7345 109.731 27.7345C108.99 27.7345 108.734 28.0477 108.734 28.9876C108.734 29.7566 108.762 30.5255 108.705 31.2945C108.705 31.5793 108.962 32.0635 108.306 32.0919C107.651 32.1204 107.908 31.6363 107.879 31.3514C107.851 30.5255 107.879 29.6711 107.851 28.8452C107.822 28.0762 107.509 27.7629 106.826 27.7629C106.17 27.7629 105.857 28.0762 105.857 28.8167C105.829 29.7566 105.829 30.6679 105.857 31.6078C105.857 31.9211 105.8 32.0919 105.43 32.0919C105.031 32.0919 105.031 31.8926 105.031 31.6078C105.031 30.2977 105.06 28.9876 105.031 27.649C105.031 27.0794 105.458 27.0509 105.658 27.2218C106 27.5066 106.199 27.2788 106.484 27.2218C107.082 27.0794 107.68 27.0509 108.193 27.4781C108.42 27.6775 108.534 27.649 108.762 27.4781C109.389 27.0224 110.129 27.0509 110.813 27.3357C111.468 27.6205 111.525 28.2471 111.553 28.8452C111.61 29.3009 111.582 29.7566 111.582 30.2122Z" fill="#C5C5C5"/>
<path d="M74.415 30.8958C74.7568 29.7851 75.07 28.7313 75.3833 27.6775C75.4688 27.4497 75.4688 27.1934 75.8675 27.1934C76.2377 27.1934 76.3517 27.3927 76.4371 27.6775C76.7504 28.7313 77.0922 29.7851 77.6048 30.8388C77.8611 29.842 78.1174 28.8452 78.3738 27.8484C78.5446 27.1934 78.5446 27.1934 79.3991 27.2503C79.1712 28.0193 78.9434 28.7883 78.7155 29.5572C78.5162 30.2123 78.3168 30.8673 78.1174 31.5509C78.032 31.8641 78.0035 32.1205 77.5478 32.1205C77.0637 32.1205 77.0352 31.8357 76.9213 31.5224C76.6365 30.554 76.3232 29.5857 75.9814 28.5035C75.6681 28.9022 75.6112 29.3294 75.4973 29.7281C75.2694 30.4116 75.0701 31.0952 74.8707 31.7787C74.8137 32.0065 74.6998 32.1489 74.415 32.1205C74.1872 32.092 73.9308 32.1774 73.8169 31.8641C73.3897 30.4116 72.934 28.9876 72.5068 27.5636C72.4499 27.3642 72.4783 27.2218 72.7347 27.2503C72.991 27.2788 73.2758 27.1649 73.3897 27.5921C73.5891 28.4465 73.8454 29.3009 74.0732 30.1553C74.1302 30.3262 74.1302 30.611 74.415 30.8958Z" fill="#C5C5C5"/>
<path d="M21.6124 28.9306C21.2706 28.8736 21.3561 28.5888 21.3561 28.361C21.3561 25.1427 21.3561 21.9529 21.3561 18.7346C21.3561 18.5068 21.2706 18.222 21.6124 18.165C21.9826 18.6777 22.5237 19.0479 22.9794 19.4751C22.8085 19.7884 22.7801 20.1017 22.7801 20.4435C22.7801 22.5225 22.7801 24.6016 22.7801 26.6522C22.7801 26.9939 22.837 27.3072 22.9794 27.6205C22.6092 28.1331 22.0965 28.5034 21.6124 28.9306Z" fill="#C5C5C5"/>
<path d="M16.7707 21.7534C17.1125 21.8104 17.0556 22.0952 17.0556 22.2945C17.0556 25.285 17.0556 28.2754 17.0556 31.2943C17.0556 31.5506 16.9701 31.807 16.9132 32.0633C16.4859 32.0633 16.0587 32.0633 15.6315 32.0633C15.6315 29.3861 15.6315 26.7375 15.6315 24.0603C15.6315 23.747 15.66 23.4338 15.4891 23.149C15.8879 22.6933 16.3151 22.2091 16.7707 21.7534Z" fill="#C5C5C5"/>
<path d="M18.622 8.53859C18.622 6.88674 18.622 5.2064 18.622 3.55454C18.622 3.15582 18.5935 2.75709 18.4796 2.35837C19.0777 1.64636 19.7612 0.991313 20.4732 0.364746C20.4732 2.95645 20.4732 5.54816 20.5017 8.13987C20.5017 8.48163 20.3878 8.59555 20.046 8.56707C19.5619 8.53859 19.1062 8.53859 18.622 8.53859Z" fill="#C5C5C5"/>
<path d="M2.70142 32.0635C2.70142 29.2439 2.70142 26.4529 2.70142 23.6333C3.21406 23.6333 3.75519 23.6333 4.26783 23.6333C4.26783 26.4529 4.26783 29.2439 4.26783 32.0635C3.75519 32.0635 3.21406 32.0635 2.70142 32.0635Z" fill="#C5C5C5"/>
<path d="M22.1251 8.68114C23.6915 8.62418 25.258 8.79507 26.8244 8.5957C26.9383 8.5957 27.0522 8.68114 27.1661 8.70962C25.5712 10.3615 23.9479 12.0133 22.2675 13.6082C22.239 13.5798 22.1821 13.5513 22.1251 13.5798C22.1251 11.9279 22.1251 10.3045 22.1251 8.68114Z" fill="#C5C5C5"/>
<path d="M20.4733 0.364579C19.7613 0.991145 19.1062 1.64619 18.4796 2.3582C17.5683 3.18413 16.6569 4.01006 15.7455 4.83599C15.6031 3.52589 15.8595 2.2158 15.6601 0.877221C15.5746 0.307615 15.3468 0.165217 14.8342 0.222177C14.6063 0.250657 14.35 0.307615 14.1506 0.108253C16.1158 0.108253 18.1094 0.108256 20.0745 0.0797757C20.3024 0.0797757 20.5302 0.0512953 20.4733 0.364579Z" fill="#C5C5C5"/>
<path d="M4.26782 32.0635C4.26782 29.2439 4.26782 26.4529 4.26782 23.6333C4.78047 23.6333 5.32159 23.6333 5.83424 23.6333C5.52096 26.4529 5.77728 29.2439 5.69184 32.0635C5.23615 32.0635 4.75199 32.0635 4.26782 32.0635Z" fill="#C5C5C5"/>
<path d="M69.4306 30.2121C69.4022 30.8102 69.6015 31.5791 69.2882 31.9494C68.9465 32.3766 68.1206 32.0348 67.5225 32.0918C67.3516 32.0918 67.1807 32.0918 67.0098 32.0918C66.4402 32.1203 65.9276 31.9494 65.7567 31.3513C65.5858 30.7247 65.6712 30.0982 66.2409 29.671C66.782 29.2722 67.4085 29.1298 68.0066 28.9305C68.2345 28.8735 68.5762 28.9305 68.5762 28.5318C68.5478 28.19 68.3769 27.9622 68.0351 27.8482C67.5225 27.7058 66.9813 27.8197 66.4687 27.7628C66.2408 27.7343 65.8991 27.9052 65.8991 27.4495C65.8991 27.0508 66.2408 27.1932 66.4402 27.1932C66.9529 27.1647 67.494 27.1647 68.0066 27.1932C68.861 27.2501 69.2882 27.6204 69.3452 28.4748C69.4022 29.0444 69.3452 29.614 69.3452 30.1836C69.3737 30.2121 69.4022 30.2121 69.4306 30.2121ZM68.5762 30.5539C68.5762 30.2121 68.5762 29.9273 68.5762 29.6425C68.5762 29.4146 68.4908 29.3292 68.2914 29.4146C67.7788 29.5855 67.2377 29.6994 66.8105 30.0412C66.3548 30.4399 66.2978 31.1235 66.782 31.3798C67.2946 31.6646 67.9212 31.5791 68.4338 31.4652C68.8041 31.3513 68.4908 30.8102 68.5762 30.5539Z" fill="#C5C5C5"/>
<path d="M87.6299 28.9593C87.6299 28.1333 87.6584 27.2789 87.6299 26.453C87.6299 26.0258 87.7153 25.8549 88.171 25.8834C89.1393 25.9119 90.0792 25.8834 91.0475 25.9119C91.2469 25.9119 91.5317 25.798 91.5602 26.1967C91.5887 26.6524 91.2754 26.5384 91.019 26.5384C90.364 26.5384 89.6805 26.5669 89.0254 26.5384C88.6552 26.5384 88.4843 26.6239 88.4558 27.0511C88.3989 28.4751 88.3989 28.4751 89.7944 28.4751C90.1077 28.4751 90.421 28.4751 90.7342 28.4751C90.9336 28.4751 91.1899 28.4181 91.1899 28.7599C91.1899 29.1017 90.9906 29.0732 90.7627 29.0732C90.1931 29.0732 89.6235 29.1017 89.0539 29.0732C88.5697 29.0447 88.4558 29.2441 88.4558 29.6998C88.4843 30.3548 88.4558 30.9814 88.4558 31.6364C88.4558 31.9497 88.4273 32.1206 88.0286 32.1206C87.6299 32.1206 87.6299 31.9212 87.6299 31.6364C87.6299 30.725 87.6299 29.8422 87.6299 28.9593Z" fill="#C5C5C5"/>
<path d="M59.719 28.3609C59.719 29.0444 59.719 29.7565 59.719 30.44C59.719 31.0666 60.0038 31.4083 60.6873 31.3798C61.2569 31.3514 61.8265 31.3798 62.3961 31.3798C62.624 31.3798 62.7949 31.4083 62.8234 31.7216C62.8234 32.0349 62.6809 32.0634 62.4246 32.0634C61.6272 32.0634 60.8582 32.0918 60.0608 32.0349C59.3772 32.0064 58.9215 31.6646 58.9215 30.9241C58.8931 29.3577 58.8931 27.7628 58.8931 26.1964C58.8931 25.8262 59.0924 25.8262 59.3488 25.8262C59.6051 25.8262 59.7475 25.9116 59.719 26.1964C59.719 26.9369 59.719 27.6489 59.719 28.3609Z" fill="#C5C5C5"/>
<path d="M100.161 27.8481C100.588 27.4778 100.987 27.193 101.5 27.193C101.699 27.193 101.898 27.193 101.87 27.4778C101.87 27.7057 101.87 27.8481 101.557 27.905C100.389 28.1329 100.161 28.4177 100.161 29.5569C100.161 30.2404 100.161 30.9524 100.161 31.636C100.161 31.9208 100.133 32.0632 99.7909 32.0916C99.4206 32.0916 99.3637 31.9492 99.3352 31.636C99.3067 30.2404 99.4491 28.8734 99.2213 27.4778C99.1928 27.307 99.2213 27.1645 99.4206 27.193C99.62 27.2215 99.9048 27.0222 100.019 27.3924C100.047 27.5348 100.104 27.6487 100.161 27.8481Z" fill="#C5C5C5"/>
<path d="M95.5758 29.6711C95.5758 30.3262 95.5758 31.0097 95.5758 31.6648C95.5758 31.9496 95.5188 32.092 95.177 32.092C94.8353 32.092 94.7783 31.9496 94.7783 31.6648C94.7783 30.3262 94.7783 28.9876 94.7783 27.649C94.7783 27.3073 94.8638 27.1934 95.234 27.1934C95.6327 27.1934 95.5758 27.4212 95.5758 27.6775C95.5758 28.3326 95.5758 28.9876 95.5758 29.6711Z" fill="#C5C5C5"/>
<path d="M95.5472 25.8546C95.5472 26.1109 95.6042 26.3388 95.2054 26.3388C94.8637 26.3388 94.7498 26.2249 94.7498 25.8831C94.7498 25.5698 94.8067 25.3989 95.177 25.3989C95.5472 25.4274 95.5757 25.5983 95.5472 25.8546Z" fill="#C5C5C5"/>
<path d="M12.0146 32.0633C12.0146 32.0348 12.0146 31.9778 12.0146 31.9494C13.1254 32.0063 14.2361 31.807 15.3184 32.0633C14.2076 32.0633 13.1254 32.0633 12.0146 32.0633Z" fill="#C5C5C5"/>
<path d="M22.1251 13.5513C22.1821 13.5513 22.2106 13.5513 22.2675 13.5798C22.239 13.6082 22.1821 13.6367 22.1536 13.6367C22.1251 13.6367 22.1251 13.5797 22.1251 13.5513Z" fill="#C5C5C5"/>
<path d="M30.2704 12.2695C31.5236 13.2948 32.6343 14.491 33.802 15.6017C34.2007 16.0005 34.1438 16.2568 33.7735 16.5985C32.6343 17.6808 31.5236 18.7915 30.3844 19.8738C29.9856 19.7883 30.128 19.475 30.128 19.2472C30.128 17.1397 30.128 15.0321 30.128 12.9531C30.0995 12.6967 30.0426 12.4404 30.2704 12.2695Z" fill="#C5C5C5"/>
<path d="M30.2705 12.2695C30.0427 12.4404 30.1281 12.6967 30.1281 12.9246C30.1281 15.0321 30.1281 17.1397 30.1281 19.2187C30.1281 19.4466 29.9857 19.7883 30.3844 19.8453C29.9857 20.5858 29.1313 20.8706 28.6756 21.5826C28.3623 21.5541 28.3908 21.2978 28.3908 21.0984C28.3908 17.7377 28.3908 14.3486 28.3908 10.9879C28.3908 10.817 28.3908 10.6461 28.5332 10.5322C29.1598 11.0734 29.7294 11.643 30.2705 12.2695Z" fill="#C5C5C5"/>
</svg>
