<svg width="68" height="64" viewBox="0 0 68 64" fill="none" xmlns="http://www.w3.org/2000/svg">
<g clip-path="url(#clip0)">
<path d="M54.6001 2H65.1001V12.5H67.1001V0H54.6001V2Z" fill="#F1CC46"/>
<path d="M2 12.6V2H12.1V0H0V12.6H2Z" fill="#F1CC46"/>
<path d="M12.1 61.9001H2V51.3H0V63.9001H12.1V61.9001Z" fill="#F1CC46"/>
<path d="M65.1001 51.1V61.9H54.6001V63.9H67.1001V51.1H65.1001Z" fill="#F1CC46"/>
<path d="M47.0779 16H33.0427C30.4667 16 28.3708 18.0957 28.3708 20.6719V22.638C28.3708 22.8024 28.3929 22.9654 28.437 23.1222C28.5259 23.4438 28.8584 23.6321 29.1798 23.5423C29.5009 23.453 29.6888 23.1201 29.5996 22.7994C29.5851 22.7474 29.5778 22.6932 29.5778 22.638V20.6719C29.5778 18.7613 31.1323 17.207 33.0427 17.207H47.0777C47.4104 17.207 47.6811 17.4776 47.6811 17.8103C47.6811 18.1431 47.4104 18.4137 47.0777 18.4137H33.0427C31.7976 18.4137 30.7846 19.4266 30.7846 20.6719V22.638C30.7846 22.6944 30.777 22.7496 30.7623 22.8024C30.6714 23.1231 30.858 23.4565 31.1783 23.5476C31.2333 23.563 31.2888 23.5706 31.3431 23.5706C31.6061 23.5702 31.8482 23.3971 31.9233 23.1312C31.9686 22.9711 31.9915 22.8054 31.9915 22.638V20.6719C31.9915 20.0922 32.4632 19.6207 33.0427 19.6207H47.0777C48.0761 19.6207 48.8881 18.8087 48.8881 17.8103C48.8882 16.812 48.0762 16 47.0779 16Z" fill="white"/>
<path d="M40.7413 26.8622H20.2239C19.0592 26.8622 18.1118 27.81 18.1118 28.9743C18.1118 30.1387 19.0592 31.0865 20.2239 31.0865H40.7412C41.9059 31.0865 42.8533 30.1387 42.8533 28.9743C42.8533 27.81 41.9059 26.8622 40.7413 26.8622ZM40.7413 29.8795H20.2239C19.7249 29.8795 19.3188 29.4734 19.3188 28.9743C19.3188 28.4752 19.7249 28.0691 20.2239 28.0691H40.7412C41.2402 28.0691 41.6463 28.4752 41.6463 28.9743C41.6465 29.4732 41.2404 29.8795 40.7413 29.8795Z" fill="white"/>
<path d="M35.0088 22.6379H25.957C23.2953 22.6379 21.1294 24.8036 21.1294 27.4656C21.1294 27.7987 21.3997 28.069 21.7328 28.069H39.2329C39.5659 28.069 39.8363 27.7987 39.8363 27.4656C39.8364 24.8036 37.6706 22.6379 35.0088 22.6379ZM22.3867 26.862C22.6749 25.1519 24.166 23.8447 25.9574 23.8447H35.0091C36.7999 23.8447 38.2913 25.1517 38.5794 26.862H22.3867Z" fill="white"/>
<path d="M23.5433 32.2932C23.2103 32.2932 22.9399 32.5635 22.9399 32.8966V34.1036C22.9399 34.4366 23.2103 34.707 23.5433 34.707C23.8764 34.707 24.1467 34.4366 24.1467 34.1036V32.8966C24.1467 32.5635 23.8764 32.2932 23.5433 32.2932Z" fill="white"/>
<path d="M23.5433 44.2756C23.2103 44.2756 22.9399 44.546 22.9399 44.879V47.0343C22.9399 47.3674 23.2103 47.6377 23.5433 47.6377C23.8764 47.6377 24.1467 47.3677 24.1467 47.0343V44.879C24.1467 44.546 23.8764 44.2756 23.5433 44.2756Z" fill="white"/>
<path d="M23.5433 39.9653C23.2103 39.9653 22.9399 40.2356 22.9399 40.5687V42.724C22.9399 43.0571 23.2103 43.3274 23.5433 43.3274C23.8764 43.3274 24.1467 43.0574 24.1467 42.724V40.5687C24.1467 40.2356 23.8764 39.9653 23.5433 39.9653Z" fill="white"/>
<path d="M23.5433 35.655C23.2103 35.655 22.9399 35.9253 22.9399 36.2584V38.4137C22.9399 38.7468 23.2103 39.0171 23.5433 39.0171C23.8764 39.0171 24.1467 38.7471 24.1467 38.4137V36.2584C24.1467 35.9253 23.8764 35.655 23.5433 35.655Z" fill="white"/>
<path d="M23.5433 48.5862C23.2103 48.5862 22.9399 48.8565 22.9399 49.1896V50.3965C22.9399 50.7296 23.2103 50.9999 23.5433 50.9999C23.8764 50.9999 24.1467 50.7296 24.1467 50.3965V49.1896C24.1467 48.8565 23.8764 48.5862 23.5433 48.5862Z" fill="white"/>
<path d="M27.7672 32.2932C27.4341 32.2932 27.1638 32.5635 27.1638 32.8966V34.1036C27.1638 34.4366 27.4341 34.707 27.7672 34.707C28.1003 34.707 28.3706 34.4366 28.3706 34.1036V32.8966C28.3706 32.5635 28.1003 32.2932 27.7672 32.2932Z" fill="white"/>
<path d="M27.7672 44.2756C27.4341 44.2756 27.1638 44.546 27.1638 44.879V47.0343C27.1638 47.3674 27.4341 47.6377 27.7672 47.6377C28.1003 47.6377 28.3706 47.3677 28.3706 47.0343V44.879C28.3706 44.546 28.1003 44.2756 27.7672 44.2756Z" fill="white"/>
<path d="M27.7672 39.9653C27.4341 39.9653 27.1638 40.2356 27.1638 40.5687V42.724C27.1638 43.0571 27.4341 43.3274 27.7672 43.3274C28.1003 43.3274 28.3706 43.0574 28.3706 42.724V40.5687C28.3706 40.2356 28.1003 39.9653 27.7672 39.9653Z" fill="white"/>
<path d="M27.7672 35.655C27.4341 35.655 27.1638 35.9253 27.1638 36.2584V38.4137C27.1638 38.7468 27.4341 39.0171 27.7672 39.0171C28.1003 39.0171 28.3706 38.7471 28.3706 38.4137V36.2584C28.3706 35.9253 28.1003 35.655 27.7672 35.655Z" fill="white"/>
<path d="M27.7672 48.5862C27.4341 48.5862 27.1638 48.8565 27.1638 49.1896V50.3965C27.1638 50.7296 27.4341 50.9999 27.7672 50.9999C28.1003 50.9999 28.3706 50.7296 28.3706 50.3965V49.1896C28.3706 48.8565 28.1003 48.5862 27.7672 48.5862Z" fill="white"/>
<path d="M31.9913 32.2932C31.6583 32.2932 31.3879 32.5635 31.3879 32.8966V34.1036C31.3879 34.4366 31.6583 34.707 31.9913 34.707C32.3244 34.707 32.5947 34.4366 32.5947 34.1036V32.8966C32.5949 32.5635 32.3246 32.2932 31.9913 32.2932Z" fill="white"/>
<path d="M31.9913 39.9653C31.6583 39.9653 31.3879 40.2356 31.3879 40.5687V42.724C31.3879 43.0571 31.6583 43.3274 31.9913 43.3274C32.3244 43.3274 32.5947 43.0574 32.5947 42.724V40.5687C32.5949 40.2356 32.3246 39.9653 31.9913 39.9653Z" fill="white"/>
<path d="M31.9913 44.2756C31.6583 44.2756 31.3879 44.546 31.3879 44.879V47.0343C31.3879 47.3674 31.6583 47.6377 31.9913 47.6377C32.3244 47.6377 32.5947 47.3677 32.5947 47.0343V44.879C32.5949 44.546 32.3246 44.2756 31.9913 44.2756Z" fill="white"/>
<path d="M31.9913 35.655C31.6583 35.655 31.3879 35.9253 31.3879 36.2584V38.4137C31.3879 38.7468 31.6583 39.0171 31.9913 39.0171C32.3244 39.0171 32.5947 38.7471 32.5947 38.4137V36.2584C32.5949 35.9253 32.3246 35.655 31.9913 35.655Z" fill="white"/>
<path d="M31.9913 48.5862C31.6583 48.5862 31.3879 48.8565 31.3879 49.1896V50.3965C31.3879 50.7296 31.6583 50.9999 31.9913 50.9999C32.3244 50.9999 32.5947 50.7296 32.5947 50.3965V49.1896C32.5949 48.8565 32.3246 48.5862 31.9913 48.5862Z" fill="white"/>
<path d="M36.2154 32.2932C35.8824 32.2932 35.6121 32.5635 35.6121 32.8966V34.1036C35.6121 34.4366 35.8824 34.707 36.2154 34.707C36.5485 34.707 36.8188 34.4366 36.8188 34.1036V32.8966C36.8188 32.5635 36.5485 32.2932 36.2154 32.2932Z" fill="white"/>
<path d="M36.2154 44.2756C35.8824 44.2756 35.6121 44.546 35.6121 44.879V47.0343C35.6121 47.3674 35.8824 47.6377 36.2154 47.6377C36.5485 47.6377 36.8188 47.3677 36.8188 47.0343V44.879C36.8188 44.546 36.5485 44.2756 36.2154 44.2756Z" fill="white"/>
<path d="M36.2154 39.9653C35.8824 39.9653 35.6121 40.2356 35.6121 40.5687V42.724C35.6121 43.0571 35.8824 43.3274 36.2154 43.3274C36.5485 43.3274 36.8188 43.0574 36.8188 42.724V40.5687C36.8188 40.2356 36.5485 39.9653 36.2154 39.9653Z" fill="white"/>
<path d="M36.2154 35.655C35.8824 35.655 35.6121 35.9253 35.6121 36.2584V38.4137C35.6121 38.7468 35.8824 39.0171 36.2154 39.0171C36.5485 39.0171 36.8188 38.7471 36.8188 38.4137V36.2584C36.8188 35.9253 36.5485 35.655 36.2154 35.655Z" fill="white"/>
<path d="M36.2154 48.5862C35.8824 48.5862 35.6121 48.8565 35.6121 49.1896V50.3965C35.6121 50.7296 35.8824 50.9999 36.2154 50.9999C36.5485 50.9999 36.8188 50.7296 36.8188 50.3965V49.1896C36.8188 48.8565 36.5485 48.5862 36.2154 48.5862Z" fill="white"/>
</g>
<defs>
<clipPath id="clip0">
<rect width="67.1" height="63.9" fill="white"/>
</clipPath>
</defs>
</svg>
