<svg width="68" height="64" viewBox="0 0 68 64" fill="none" xmlns="http://www.w3.org/2000/svg">
<g clip-path="url(#clip0)">
<path fill-rule="evenodd" clip-rule="evenodd" d="M41.9932 22.0289H34.0464C33.6923 22.0289 33.4055 22.3159 33.4055 22.6698C33.4055 23.0239 33.6923 23.3107 34.0464 23.3107H41.9932C44.5374 23.3107 46.6074 25.3807 46.6074 27.9249V35.666C46.6074 38.2105 44.5374 40.2803 41.9932 40.2803C41.8231 40.2803 41.6603 40.3478 41.5401 40.4679L35.5801 46.428V40.9212C35.5801 40.5673 35.2931 40.2803 34.9392 40.2803H20.9727C18.4284 40.2803 16.3584 38.2105 16.3584 35.666V27.9249C16.3584 25.3805 18.4284 23.3107 20.9727 23.3107H28.9194C29.2735 23.3107 29.5603 23.0239 29.5603 22.6698C29.5603 22.3159 29.2735 22.0289 28.9194 22.0289H20.9727C17.7214 22.0289 15.0767 24.6737 15.0767 27.9249V35.666C15.0767 38.917 17.7214 41.562 20.9727 41.562H34.2983V47.9751C34.2983 48.2343 34.4545 48.468 34.6941 48.5671C34.7732 48.6002 34.8565 48.616 34.9392 48.616C35.1058 48.616 35.2698 48.5509 35.3922 48.4283L42.2647 41.556C45.3902 41.4134 47.8892 38.8259 47.8892 35.6662V27.9249C47.8892 24.6737 45.2444 22.0289 41.9932 22.0289Z" fill="white"/>
<path fill-rule="evenodd" clip-rule="evenodd" d="M20.3761 35.3718C20.4865 35.5838 20.7056 35.7166 20.9447 35.7166H24.9119C25.2655 35.7166 25.5527 35.4298 25.5527 35.0758C25.5527 34.7219 25.2655 34.4349 24.9119 34.4349H22.1747L25.4368 29.7714C25.5738 29.5757 25.5906 29.3197 25.48 29.1081C25.3697 28.896 25.1506 28.7632 24.9117 28.7632H20.9447C20.5906 28.7632 20.3038 29.0502 20.3038 29.4041C20.3038 29.7581 20.5906 30.0449 20.9447 30.0449H23.6814L20.4196 34.7087C20.2826 34.9041 20.2658 35.1599 20.3761 35.3718Z" fill="white"/>
<path fill-rule="evenodd" clip-rule="evenodd" d="M42.5899 29.8771C42.4795 29.6652 42.26 29.5322 42.0213 29.5322H38.5922C38.2381 29.5322 37.9514 29.8192 37.9514 30.1731C37.9514 30.5272 38.2381 30.814 38.5922 30.814H40.7908L38.0669 34.7087C37.9299 34.9043 37.9135 35.1599 38.0239 35.3718C38.1342 35.5839 38.3533 35.7166 38.5922 35.7166H42.0213C42.3754 35.7166 42.6622 35.4298 42.6622 35.0758C42.6622 34.7219 42.3754 34.4349 42.0213 34.4349H39.8225L42.5464 30.5404C42.6834 30.3447 42.7002 30.089 42.5899 29.8771Z" fill="white"/>
<path fill-rule="evenodd" clip-rule="evenodd" d="M34.892 27.0413C34.7816 26.8292 34.5627 26.6964 34.3238 26.6964H28.9111C28.5572 26.6964 28.2702 26.9834 28.2702 27.3373C28.2702 27.6914 28.5572 27.9781 28.9111 27.9781H33.0933L28.3859 34.7087C28.2488 34.9043 28.2323 35.1599 28.3427 35.3718C28.453 35.5838 28.6721 35.7166 28.9111 35.7166H34.3238C34.6777 35.7166 34.9647 35.4298 34.9647 35.0758C34.9647 34.7219 34.6777 34.4349 34.3238 34.4349H30.1413L34.8487 27.7046C34.9857 27.5089 35.0025 27.2532 34.892 27.0413Z" fill="white"/>
<path fill-rule="evenodd" clip-rule="evenodd" d="M31.4829 23.3107C31.8358 23.3107 32.1238 23.0229 32.1238 22.6698C32.1238 22.3169 31.8358 22.0289 31.4829 22.0289C31.13 22.0289 30.842 22.3169 30.842 22.6698C30.842 23.0229 31.13 23.3107 31.4829 23.3107Z" fill="white"/>
<path d="M54.6 2H65.1V12.5H67.1V0H54.6V2Z" fill="#F1CC46"/>
<path d="M2 12.6V2H12.1V0H0V12.6H2Z" fill="#F1CC46"/>
<path d="M12.1 61.9001H2V51.3H0V63.9001H12.1V61.9001Z" fill="#F1CC46"/>
<path d="M65.1 51.1V61.9H54.6V63.9H67.1V51.1H65.1Z" fill="#F1CC46"/>
</g>
<defs>
<clipPath id="clip0">
<rect width="67.1" height="63.9" fill="white"/>
</clipPath>
</defs>
</svg>
