<svg width="68" height="64" viewBox="0 0 68 64" fill="none" xmlns="http://www.w3.org/2000/svg">
<g clip-path="url(#clip0)">
<path d="M45.3262 43.8047C45.3262 44.1823 45.0202 44.4883 44.6426 44.4883C44.265 44.4883 43.959 44.1823 43.959 43.8047C43.959 43.4271 44.265 43.1211 44.6426 43.1211C45.0202 43.1211 45.3262 43.4271 45.3262 43.8047Z" fill="white"/>
<path d="M39.8574 43.8047C39.8574 44.1823 39.5514 44.4883 39.1738 44.4883C38.7962 44.4883 38.4902 44.1823 38.4902 43.8047C38.4902 43.4271 38.7962 43.1211 39.1738 43.1211C39.5514 43.1211 39.8574 43.4271 39.8574 43.8047Z" fill="white"/>
<path d="M28.5098 43.8047C28.5098 44.1823 28.2038 44.4883 27.8262 44.4883C27.4486 44.4883 27.1426 44.1823 27.1426 43.8047C27.1426 43.4271 27.4486 43.1211 27.8262 43.1211C28.2038 43.1211 28.5098 43.4271 28.5098 43.8047Z" fill="white"/>
<path d="M23.041 43.8047C23.041 44.1823 22.735 44.4883 22.3574 44.4883C21.9798 44.4883 21.6738 44.1823 21.6738 43.8047C21.6738 43.4271 21.9798 43.1211 22.3574 43.1211C22.735 43.1211 23.041 43.4271 23.041 43.8047Z" fill="white"/>
<path d="M48.9492 39.7031H40.541V36.9688H41.9082C43.0391 36.9688 43.959 36.0488 43.959 34.918V26.7148H47.377C47.7545 26.7148 48.0605 26.4088 48.0605 26.0312C48.0605 25.6537 47.7545 25.3477 47.377 25.3477H43.959V21.2461C43.959 20.1152 43.0391 19.1953 41.9082 19.1953H37.8066V15.7773C37.8066 15.3998 37.5006 15.0938 37.123 15.0938H30.082C29.7045 15.0938 29.3984 15.3998 29.3984 15.7773V19.1953H25.0918C23.9609 19.1953 23.041 20.1152 23.041 21.2461V25.3477H19.623C19.2455 25.3477 18.9395 25.6537 18.9395 26.0312C18.9395 26.4088 19.2455 26.7148 19.623 26.7148H23.041V34.918C23.041 36.0488 23.9609 36.9688 25.0918 36.9688H26.459V39.7031H18.0508C16.9199 39.7031 16 40.623 16 41.7539V45.8555C16 46.9863 16.9199 47.9062 18.0508 47.9062H48.9492C50.0801 47.9062 51 46.9863 51 45.8555V41.7539C51 40.623 50.0801 39.7031 48.9492 39.7031ZM30.7656 16.4609H36.4395V19.1953H30.7656V16.4609ZM25.0918 20.5625H41.9082C42.2852 20.5625 42.5918 20.869 42.5918 21.2461V21.9297H24.4082V21.2461C24.4082 20.869 24.7148 20.5625 25.0918 20.5625ZM27.8262 36.9688H30.4238C30.8014 36.9688 31.1074 36.6627 31.1074 36.2852C31.1074 35.9076 30.8014 35.6016 30.4238 35.6016H25.0918C24.7148 35.6016 24.4082 35.295 24.4082 34.918V23.2969H42.5918V34.918C42.5918 35.295 42.2852 35.6016 41.9082 35.6016H36.5762C36.1986 35.6016 35.8926 35.9076 35.8926 36.2852C35.8926 36.6627 36.1986 36.9688 36.5762 36.9688H39.1738V39.7031H27.8262V36.9688ZM17.3672 45.8555V41.7539C17.3672 41.3769 17.6737 41.0703 18.0508 41.0703H32.8164V46.5391H18.0508C17.6737 46.5391 17.3672 46.2325 17.3672 45.8555ZM49.6328 45.8555C49.6328 46.2325 49.3263 46.5391 48.9492 46.5391H34.1836V41.0703H48.9492C49.3263 41.0703 49.6328 41.3769 49.6328 41.7539V45.8555Z" fill="white"/>
<path d="M34.1836 36.2852C34.1836 36.6627 33.8776 36.9688 33.5 36.9688C33.1224 36.9688 32.8164 36.6627 32.8164 36.2852C32.8164 35.9076 33.1224 35.6016 33.5 35.6016C33.8776 35.6016 34.1836 35.9076 34.1836 36.2852Z" fill="white"/>
<path d="M54.6001 2H65.1001V12.5H67.1001V0H54.6001V2Z" fill="#F1CC46"/>
<path d="M2 12.6V2H12.1V0H0V12.6H2Z" fill="#F1CC46"/>
<path d="M12.1 61.9001H2V51.3H0V63.9001H12.1V61.9001Z" fill="#F1CC46"/>
<path d="M65.1001 51.1V61.9H54.6001V63.9H67.1001V51.1H65.1001Z" fill="#F1CC46"/>
</g>
<defs>
<clipPath id="clip0">
<rect width="67.1" height="63.9" fill="white"/>
</clipPath>
</defs>
</svg>
