<svg width="68" height="64" viewBox="0 0 68 64" fill="none" xmlns="http://www.w3.org/2000/svg">
<g clip-path="url(#clip0)">
<path d="M48.0833 25.6667V24.9375C48.0833 22.3412 46.5215 19.9248 43.6857 18.1338C41.1277 16.5182 37.7931 15.5824 34.2291 15.4699V14H32.7708V15.4699C29.2068 15.5824 25.8722 16.5182 23.3142 18.1339C20.4784 19.9248 18.9166 22.3412 18.9166 24.9375V25.6667H32.7708V32.9583H18.9166V38.0625H21.1041V49H22.5625V42.7396L27.2396 38.0625H32.7708V49H34.2291V38.0625H39.7604L44.4375 42.7396V49H45.8958V38.0625H48.0833V32.9583H34.2291V25.6667H48.0833ZM22.5625 40.6771V38.0625H25.177L22.5625 40.6771ZM44.4375 40.6771L41.8229 38.0625H44.4375V40.6771ZM46.625 36.6042H20.375V34.4167H46.625V36.6042ZM33.5 16.9167C34.4362 16.9167 35.3913 17.7091 36.1205 19.0906C36.8481 20.4692 37.284 22.2652 37.3715 24.2083H29.6284C29.716 22.2652 30.1518 20.4692 30.8794 19.0906C31.6086 17.7091 32.5637 16.9167 33.5 16.9167ZM46.5705 24.2083H38.8322C38.7108 21.2502 37.8553 18.7098 36.5784 17.1401C38.9612 17.4921 41.1428 18.2526 42.9069 19.3668C45.0223 20.7028 46.2991 22.4001 46.5705 24.2083ZM24.0929 19.3668C25.857 18.2526 28.0387 17.4921 30.4215 17.1401C29.1445 18.7098 28.289 21.2502 28.1676 24.2083H20.4294C20.7008 22.4001 21.9776 20.7028 24.0929 19.3668Z" fill="white"/>
<path d="M54.6 2H65.1V12.5H67.1V0H54.6V2Z" fill="#F1CC46"/>
<path d="M2 12.6V2H12.1V0H0V12.6H2Z" fill="#F1CC46"/>
<path d="M12.1 61.9001H2V51.3H0V63.9001H12.1V61.9001Z" fill="#F1CC46"/>
<path d="M65.1 51.1V61.9H54.6V63.9H67.1V51.1H65.1Z" fill="#F1CC46"/>
</g>
<defs>
<clipPath id="clip0">
<rect width="67.1" height="63.9" fill="white"/>
</clipPath>
</defs>
</svg>
