<svg width="68" height="64" viewBox="0 0 68 64" fill="none" xmlns="http://www.w3.org/2000/svg">
<g clip-path="url(#clip0)">
<path d="M35.5446 15C27.573 15 21.0882 21.4848 21.0882 29.4564C21.0882 31.9946 21.7506 34.3794 22.9042 36.4551L15.2242 44.1358C14.9266 44.4334 14.9266 44.9141 15.2242 45.2117L19.7894 49.7769C19.9376 49.9255 20.1323 49.9998 20.3273 49.9998C20.522 49.9998 20.7167 49.9255 20.8649 49.7769L28.5453 42.0969C30.6217 43.2501 33.0061 43.9129 35.5446 43.9129C35.8091 43.9129 36.0755 43.9055 36.3464 43.8902C36.716 47.3193 39.6265 49.9998 43.1533 49.9998C46.9294 49.9998 50.0011 46.9274 50.0011 43.152C50.0011 40.9638 48.9653 39.0167 47.3622 37.7621C49.0626 35.3428 50.0011 32.4278 50.0011 29.4564C50.0011 21.4848 43.5159 15 35.5446 15ZM20.3273 48.163L16.8377 44.6738L23.7267 37.7851C24.6793 39.1363 25.8655 40.3218 27.216 41.2736L20.3273 48.163ZM48.4793 43.152C48.4793 46.0892 46.0894 48.4781 43.1533 48.4781C40.2168 48.4781 37.8272 46.0892 37.8272 43.152C37.8272 40.2152 40.2168 37.826 43.1533 37.826C46.0894 37.826 48.4793 40.2152 48.4793 43.152ZM46.0641 36.9633C45.1792 36.5446 44.1946 36.3042 43.1533 36.3042C39.6439 36.3042 36.7472 38.9583 36.3549 42.3629C36.08 42.3808 35.8099 42.3912 35.5446 42.3912C32.9689 42.3912 30.573 41.6258 28.5545 40.3233C28.3443 40.1884 28.141 40.0432 27.9397 39.8964C27.7562 39.7623 27.5715 39.6323 27.3954 39.4892C27.1993 39.3302 27.0157 39.1567 26.8288 38.9862C26.5458 38.7276 26.2757 38.4575 26.0167 38.1744C25.8458 37.9872 25.6716 37.8026 25.5111 37.6045C25.3688 37.4296 25.2384 37.2449 25.1054 37.0621C24.9579 36.8597 24.8123 36.6557 24.677 36.445C23.3752 34.4281 22.6099 32.0322 22.6099 29.4564C22.6099 22.3241 28.4123 16.5217 35.5446 16.5217C42.6766 16.5217 48.4793 22.3241 48.4793 29.4564C48.4793 32.147 47.6193 34.784 46.0641 36.9633Z" fill="white"/>
<path d="M35.5439 19.5652C30.0896 19.5652 25.6526 24.0026 25.6526 29.4565C25.6526 29.8767 25.9925 30.2174 26.4135 30.2174C26.834 30.2174 27.1743 29.8767 27.1743 29.4565C27.1743 24.8419 30.9289 21.0869 35.5439 21.0869C35.9644 21.0869 36.3048 20.7462 36.3048 20.3261C36.3048 19.9062 35.9644 19.5652 35.5439 19.5652Z" fill="white"/>
<path d="M54.6 2H65.1V12.5H67.1V0H54.6V2Z" fill="#F1CC46"/>
<path d="M2 12.6V2H12.1V0H0V12.6H2Z" fill="#F1CC46"/>
<path d="M12.1 61.9001H2V51.3H0V63.9001H12.1V61.9001Z" fill="#F1CC46"/>
<path d="M65.1 51.1V61.9H54.6V63.9H67.1V51.1H65.1Z" fill="#F1CC46"/>
</g>
<defs>
<clipPath id="clip0">
<rect width="67.1" height="63.9" fill="white"/>
</clipPath>
</defs>
</svg>
