<svg width="97" height="92" viewBox="0 0 97 92" fill="none" xmlns="http://www.w3.org/2000/svg">
<g clip-path="url(#clip0)">
<path d="M78.9299 2.8795H94.1088V17.9969H97V0H78.9299V2.8795Z" fill="#F1CC46"/>
<path d="M2.89121 18.1408V2.8795H17.4918V0H0V18.1408H2.89121Z" fill="#F1CC46"/>
<path d="M17.4918 89.1205H2.89121V73.8591H0V92H17.4918V89.1205Z" fill="#F1CC46"/>
<path d="M94.1088 73.5713V89.1206H78.9299V92.0001H97V73.5713H94.1088Z" fill="#F1CC46"/>
<path d="M68.1134 44.17C66.4121 43.3194 63.2221 43.3096 63.0872 43.3096C62.6827 43.3096 62.3547 43.6375 62.3547 44.042C62.3547 44.4465 62.6827 44.7744 63.0872 44.7744C63.9103 44.7745 66.3002 44.9013 67.4584 45.4803C67.5635 45.5329 67.6753 45.5577 67.7853 45.5577C68.054 45.5577 68.3127 45.4093 68.441 45.1527C68.6219 44.7909 68.4753 44.351 68.1134 44.17Z" fill="white"/>
<path d="M71.7648 54.5979L68.7399 53.7336C68.6094 53.6963 68.5182 53.5754 68.5182 53.4396V52.4299C68.7643 52.2594 68.999 52.0686 69.2185 51.8556C70.2819 50.8236 70.8676 49.4393 70.8676 47.9577V46.5644L71.1601 45.9795C71.4811 45.3375 71.6507 44.6186 71.6507 43.9008V40.1264C71.6507 39.7219 71.3228 39.394 70.9183 39.394H63.8701C61.3072 39.394 59.2221 41.4792 59.2221 44.042V44.0857C59.2221 44.6826 59.3632 45.2803 59.6301 45.8141L60.0052 46.5643V47.7606C60.0052 49.6565 60.9395 51.3576 62.3546 52.3812L62.3548 53.4394C62.3548 53.6026 62.3548 53.6702 61.75 53.843L60.274 54.2647L56.0044 52.7122C56.0197 52.5107 55.9518 52.3058 55.8048 52.1514L54.4404 50.718V48.3118C54.5847 48.1929 54.7269 48.0708 54.8646 47.9417C56.5858 46.3285 57.5729 44.0507 57.5729 41.6926V39.7709C58.0927 38.64 58.3561 37.4432 58.3561 36.2107V28.3796C58.3561 27.9751 58.0281 27.6472 57.6236 27.6472H46.6599C42.8015 27.6472 39.6625 30.7863 39.6625 34.6446V36.2109C39.6625 37.4434 39.9259 38.6402 40.4456 39.7711V41.4246C40.4456 44.1625 41.663 46.6291 43.5781 48.2552V50.7181L42.2138 52.1515C42.0668 52.3059 41.9988 52.5108 42.0142 52.7123L37.5078 54.3508C37.1813 54.4696 36.8778 54.6304 36.6023 54.8252L35.8947 54.4714C38.0012 53.5545 38.6685 52.265 38.7005 52.2009C38.8036 51.9948 38.8036 51.752 38.7005 51.5459C38.1725 50.4898 38.1085 48.5541 38.0571 46.9989C38.04 46.4811 38.0238 45.9919 37.9929 45.5564C37.7432 42.0433 35.0725 39.394 31.7805 39.394C28.4885 39.394 25.8177 42.0432 25.5681 45.5564C25.5371 45.992 25.5209 46.4812 25.5038 46.9991C25.4524 48.5542 25.3884 50.4897 24.8604 51.5458C24.7573 51.7519 24.7573 51.9947 24.8604 52.2008C24.8925 52.2649 25.5584 53.5518 27.669 54.4698L25.7035 55.4525C24.6527 55.9783 24 57.0344 24 58.2091V63.6202C24 64.0247 24.3279 64.3526 24.7324 64.3526C25.1369 64.3526 25.4648 64.0247 25.4648 63.6202V58.2091C25.4648 57.5927 25.8073 57.0385 26.3586 56.7628L28.8062 55.5391L29.6575 56.3482C30.2528 56.9139 31.0165 57.1966 31.7805 57.1966C32.5442 57.1966 33.3083 56.9137 33.9034 56.3482L34.7547 55.5392L35.5527 55.9382C35.177 56.5395 34.9637 57.2446 34.9637 57.9832V63.6204C34.9637 64.0249 35.2916 64.3528 35.6961 64.3528C36.1006 64.3528 36.4285 64.0249 36.4285 63.6204V57.9832C36.4285 56.9777 37.0634 56.0712 38.0084 55.7276L42.7596 54L44.7374 56.9668C44.9902 57.3461 45.3954 57.5894 45.849 57.6343C45.8996 57.6393 45.9499 57.6417 46.0001 57.6417C46.4003 57.6417 46.7836 57.4842 47.0701 57.1978L48.2768 55.9912V63.6205C48.2768 64.025 48.6047 64.3529 49.0092 64.3529C49.4137 64.3529 49.7416 64.025 49.7416 63.6205V55.9912L50.9482 57.1978C51.2347 57.4843 51.618 57.6418 52.0183 57.6418C52.0684 57.6418 52.1187 57.6394 52.1692 57.6344C52.6229 57.5895 53.0281 57.3462 53.281 56.9669L55.2589 54.0001L60.01 55.7278C60.9549 56.0714 61.5898 56.9779 61.5898 57.9834V63.6206C61.5898 64.0251 61.9178 64.353 62.3223 64.353C62.7268 64.353 63.0547 64.0251 63.0547 63.6206V57.9834C63.0547 56.965 62.6501 56.0099 61.9714 55.3036L62.1523 55.2519C62.3349 55.1998 62.5839 55.1284 62.8339 55.0058L64.7039 56.8758V63.6206C64.7039 64.0251 65.0318 64.353 65.4363 64.353C65.8408 64.353 66.1688 64.0251 66.1688 63.6206V56.8758L68.0258 55.0188C68.1245 55.069 68.2282 55.1114 68.3374 55.1425L71.3624 56.0068C72.0528 56.2041 72.5352 56.8434 72.5352 57.5616V63.6206C72.5352 64.0251 72.8631 64.353 73.2676 64.353C73.6721 64.353 74 64.0251 74 63.6206V57.5616C74 56.1926 73.0809 54.974 71.7648 54.5979ZM28.6987 53.3042C27.3287 52.8113 26.6415 52.1541 26.3481 51.7952C26.5481 51.2723 26.6778 50.6735 26.7656 50.0414C27.1695 51.0098 27.846 51.8366 28.6987 52.4264V53.3042ZM32.8945 55.2865C32.2698 55.88 31.2912 55.8799 30.6667 55.2864L29.9855 54.6391C30.1005 54.4238 30.1637 54.1796 30.1637 53.9239V53.1432C30.6746 53.3029 31.2178 53.389 31.7807 53.389C32.3429 53.389 32.8857 53.3025 33.3976 53.1437L33.3975 53.9238C33.3975 54.1796 33.4605 54.4239 33.5756 54.6393L32.8945 55.2865ZM31.7809 51.9242C29.5938 51.9242 27.8146 50.1449 27.8146 47.9579C27.8146 47.5534 27.4866 47.2254 27.0821 47.2254C27.0411 47.2254 27.0011 47.2296 26.9619 47.2362C26.9641 47.1732 26.9661 47.1101 26.9683 47.0477C26.9846 46.5441 27.0003 46.0684 27.0293 45.6604C27.1229 44.3444 27.6487 43.1317 28.5101 42.2456C29.3791 41.3514 30.5406 40.859 31.7807 40.859C33.0207 40.859 34.1821 41.3514 35.0513 42.2456C35.9126 43.1317 36.4385 44.3444 36.532 45.6604C36.5609 46.0683 36.5768 46.5439 36.5934 47.0474C36.5948 47.0907 36.5963 47.1345 36.5978 47.1781C35.8009 45.9503 34.5702 45.0456 32.9801 44.5346C31.511 44.0626 30.2476 44.0918 30.1942 44.0932C30.0024 44.0986 29.8204 44.1789 29.6873 44.3169L28.3658 45.6875C28.0851 45.9787 28.0935 46.4423 28.3847 46.7231C28.6759 47.0039 29.1396 46.9954 29.4203 46.7042L30.5199 45.5639C31.4669 45.6102 34.5135 45.9645 35.6983 48.5736C35.4002 50.4962 33.7477 51.9242 31.7809 51.9242ZM34.8622 53.3067L34.8623 52.4332C35.7144 51.8465 36.3918 51.0213 36.796 50.0456C36.8838 50.6762 37.0134 51.2737 37.213 51.7954C36.9213 52.1508 36.2309 52.8139 34.8622 53.3067ZM41.9104 41.4245V39.6073C41.9104 39.497 41.8855 39.3881 41.8376 39.2888C41.3663 38.3128 41.1273 37.2773 41.1273 36.2109V34.6447C41.1273 31.594 43.6093 29.1122 46.6599 29.1122H56.8912V36.211C56.8912 37.2774 56.6522 38.3129 56.181 39.2889C56.133 39.3882 56.1081 39.4971 56.1081 39.6074V41.6928C56.1081 43.6763 55.3107 45.5161 53.8629 46.8732C53.6821 47.0425 53.4945 47.2013 53.3006 47.3493C53.2963 47.3522 53.2922 47.3554 53.288 47.3584C51.9316 48.3882 50.2703 48.8887 48.5354 48.7763C44.8204 48.5358 41.9104 45.3065 41.9104 41.4245ZM46.0344 56.1619C46.0293 56.1669 46.0175 56.179 45.9936 56.1764C45.9697 56.1741 45.9604 56.1601 45.9563 56.1541L43.6785 52.7373L44.4115 51.967L47.8671 54.3291L46.0344 56.1619ZM49.0093 53.3354L45.043 50.6243V49.2571C46.0692 49.8119 47.2184 50.1588 48.4405 50.2379C48.6336 50.2504 48.8255 50.2566 49.0168 50.2566C50.4173 50.2566 51.7651 49.9218 52.9756 49.2864V50.6243L49.0093 53.3354ZM52.0622 56.1542C52.0582 56.1603 52.0488 56.1743 52.025 56.1766C52.0011 56.1796 51.9894 56.167 51.9842 56.1621L50.1515 54.3293L53.607 51.9672L54.3401 52.7375L52.0622 56.1542ZM65.4363 55.5363L63.7742 53.8743C63.8032 53.7425 63.8196 53.5983 63.8195 53.4392L63.8194 53.1301C64.2807 53.2815 64.7668 53.3713 65.2698 53.3864C65.3263 53.3881 65.3822 53.3889 65.4385 53.3889C65.9943 53.3889 66.5369 53.3049 67.0533 53.1447V53.4396C67.0533 53.5857 67.0717 53.7289 67.1063 53.8665L65.4363 55.5363ZM68.1983 50.8044C67.4221 51.5578 66.3966 51.9556 65.3139 51.9222C63.1943 51.8586 61.47 49.9917 61.47 47.7608V46.3916C61.47 46.2778 61.4436 46.1657 61.3927 46.064L60.9402 45.1591C60.7745 44.8276 60.6869 44.4565 60.6869 44.0858V44.0421C60.6869 42.2869 62.1149 40.8589 63.8701 40.8589H70.1858V43.9009C70.1858 44.3925 70.0696 44.8848 69.8498 45.3246L69.4801 46.064C69.4292 46.1658 69.4027 46.2778 69.4027 46.3916V47.9578C69.4027 49.0398 68.975 50.0507 68.1983 50.8044Z" fill="white"/>
<path d="M70.135 58.189C69.7305 58.189 69.4026 58.5169 69.4026 58.9214V63.6201C69.4026 64.0246 69.7305 64.3525 70.135 64.3525C70.5395 64.3525 70.8674 64.0246 70.8674 63.6201V58.9214C70.8674 58.517 70.5395 58.189 70.135 58.189Z" fill="white"/>
<path d="M27.865 59.157C27.4605 59.157 27.1326 59.4849 27.1326 59.8894V63.62C27.1326 64.0245 27.4605 64.3524 27.865 64.3524C28.2695 64.3524 28.5974 64.0245 28.5974 63.62V59.8894C28.5974 59.485 28.2695 59.157 27.865 59.157Z" fill="white"/>
<path d="M55.009 36.4761C52.2389 33.706 46.4431 34.2355 44.0796 34.5918C43.3352 34.704 42.7949 35.334 42.7949 36.0897V37.777C42.7949 38.1815 43.1229 38.5095 43.5273 38.5095C43.9318 38.5095 44.2598 38.1815 44.2598 37.777V36.0896C44.2598 36.0647 44.2762 36.0434 44.298 36.0401C45.2421 35.8978 47.1154 35.6783 49.0564 35.8077C51.3403 35.9598 52.9946 36.5331 53.9733 37.5118C54.2593 37.7978 54.7231 37.7978 55.009 37.5118C55.295 37.2258 55.295 36.762 55.009 36.4761Z" fill="white"/>
<path d="M40.3948 59.7551C39.9903 59.7551 39.6624 60.0831 39.6624 60.4875V63.6201C39.6624 64.0246 39.9903 64.3525 40.3948 64.3525C40.7993 64.3525 41.1272 64.0246 41.1272 63.6201V60.4875C41.1272 60.0832 40.7993 59.7551 40.3948 59.7551Z" fill="white"/>
<path d="M57.6238 59.7551C57.2193 59.7551 56.8914 60.0831 56.8914 60.4875V63.6201C56.8914 64.0246 57.2193 64.3525 57.6238 64.3525C58.0283 64.3525 58.3562 64.0246 58.3562 63.6201V60.4875C58.3562 60.0832 58.0283 59.7551 57.6238 59.7551Z" fill="white"/>
</g>
<defs>
<clipPath id="clip0">
<rect width="97" height="92" fill="white"/>
</clipPath>
</defs>
</svg>
