<svg width="93" height="108" viewBox="0 0 93 108" fill="none" xmlns="http://www.w3.org/2000/svg">
<path d="M83.2833 12.2351H79.5818C79.1612 12.2351 78.8247 12.4468 78.6144 12.9972L71.0852 36.3668L68.7718 44.3261L66.4584 36.3668L58.7609 12.9972C58.6348 12.5315 58.2983 12.2351 57.8356 12.2351H53.9658C53.377 12.2351 53.1666 12.7008 53.3349 13.3359L66.7107 51.8196C66.8369 52.3276 67.2575 52.5816 67.6782 52.5816H69.571C69.9916 52.5816 70.3281 52.37 70.5384 51.8196L83.8722 13.3359C84.1246 12.7008 83.8722 12.2351 83.2833 12.2351Z" fill="#9E9E9E"/>
<path d="M43.5345 52.5393H46.8995C47.3622 52.5393 47.6567 52.2006 47.6567 51.5656V13.2088C47.6567 12.5738 47.3622 12.2351 46.8995 12.2351H43.5345C43.0719 12.2351 42.7354 12.5738 42.7354 13.2088V51.5656C42.7354 52.2006 43.0298 52.5393 43.5345 52.5393Z" fill="#9E9E9E"/>
<path d="M35.4585 47.2472H16.0257L35.7109 16.5957C35.9633 16.2146 36.0474 15.8336 36.0474 15.4102V13.2511C36.0474 12.616 35.753 12.2773 35.2482 12.2773H10.7679C10.3052 12.2773 9.96872 12.616 9.96872 13.2511V16.511C9.96872 17.1037 10.3052 17.4847 10.7679 17.4847H29.4436L9.88459 48.3479C9.63222 48.7289 9.5481 49.0253 9.5481 49.491V51.5655C9.5481 52.2005 9.84253 52.5392 10.3052 52.5392H35.4585C35.9212 52.5392 36.2577 52.2005 36.2577 51.5655V48.2209C36.2577 47.6705 35.9212 47.2472 35.4585 47.2472Z" fill="#9E9E9E"/>
<path d="M83.2414 60.8795C83.2414 60.3714 83.0731 59.9057 82.7787 59.5247C82.4422 59.1013 81.9795 58.932 81.4327 58.932H74.9551C74.7868 58.932 74.7027 59.0167 74.7027 59.1437V60.3714C74.7027 60.5408 74.7868 60.5831 74.913 60.5831H80.8018C80.8438 60.5831 80.8438 60.5831 80.8859 60.5831C80.9279 60.5831 80.97 60.6254 81.0121 60.6254C81.1383 60.6678 81.2224 60.7524 81.2644 60.8795C81.3906 61.0911 81.4327 61.3452 81.4327 61.6838V70.2781C81.4327 70.3205 81.4327 70.3205 81.4327 70.3628V70.4475C81.4748 70.5321 81.5168 70.5745 81.5589 70.5745H82.9469C83.0731 70.5745 83.1152 70.4898 83.1152 70.2781V60.8795H83.2414ZM76.5114 64.3087C76.5114 64.097 76.4273 64.0123 76.3011 64.0123H74.9551C74.8289 64.0123 74.7868 64.097 74.7868 64.3087V70.2781C74.7868 70.4898 74.8289 70.5745 74.9551 70.5745H76.3431C76.4693 70.5745 76.5114 70.4898 76.5114 70.2781V64.3087ZM71.4218 59.2283C71.4218 59.1013 71.4218 59.0167 71.3798 58.9743C71.3377 58.932 71.2957 58.932 71.2536 58.932H69.8655C69.7814 58.932 69.7393 58.932 69.7393 58.9743C69.6973 59.0167 69.6973 59.1013 69.6973 59.2283L69.7393 65.4518C69.7393 66.1715 69.6132 66.7219 69.4028 67.0606C69.1925 67.3993 68.814 67.6533 68.2672 67.8226L66.0799 68.5847C66.0379 68.5847 65.9958 68.5847 65.9537 68.5423C65.9117 68.5 65.9537 68.4577 65.9958 68.373L66.6688 67.6956C66.7529 67.6109 66.795 67.4839 66.7529 67.3569L64.5657 59.186C64.5236 59.059 64.4815 58.9743 64.4815 58.932C64.4395 58.8896 64.3974 58.8896 64.3554 58.8896H62.9252C62.757 58.8896 62.7149 58.9743 62.757 59.1437L65.4069 68.7964L62.6729 69.6431C62.5467 69.6854 62.5046 69.7701 62.5046 69.9394V71.1672C62.5046 71.2519 62.5046 71.2942 62.5467 71.2942L68.6878 69.3044C69.6973 68.9657 70.4123 68.5 70.833 67.865C71.2536 67.2299 71.4639 66.3832 71.4639 65.2824L71.4218 59.2283ZM59.6864 60.8371C59.6864 60.3291 59.5182 59.8634 59.2237 59.5247C58.8872 59.1437 58.4666 58.932 57.9198 58.932H56.4897C56.3635 58.932 56.2794 59.0167 56.2794 59.1437V60.3714C56.2794 60.5408 56.3214 60.5831 56.4476 60.5831H57.2889C57.3309 60.5831 57.3309 60.5831 57.373 60.5831C57.4151 60.5831 57.4571 60.6254 57.4992 60.6254C57.6254 60.6678 57.7095 60.7524 57.7516 60.8795C57.8357 61.0488 57.9198 61.3452 57.9198 61.6838V65.2824C57.9198 65.3248 57.9198 65.4094 57.9619 65.4941C58.0039 65.5788 58.046 65.6211 58.0881 65.6211H59.4761C59.6023 65.6211 59.6444 65.4941 59.6444 65.2824V60.8371H59.6864ZM53.9659 59.1437C54.008 59.059 54.008 59.0167 53.9659 58.9743L53.9239 58.932H52.4938C52.4096 58.932 52.3255 59.0167 52.2414 59.186L50.643 64.2664C50.5589 64.478 50.5168 64.5204 50.4327 64.3934L47.1518 59.2283C47.0256 59.059 46.8574 58.932 46.6471 58.932H44.9646C44.7963 58.932 44.7122 59.059 44.7122 59.2707V60.0327C44.7122 60.2444 44.7543 60.3291 44.8805 60.3714H45.1749C45.4693 60.4138 45.8058 60.6678 46.1003 61.1335L50.9795 68.881H45.7217C45.5955 68.881 45.5114 68.9657 45.5114 69.1774V70.2358C45.5114 70.4475 45.5535 70.5321 45.6796 70.5321H52.8723C52.9985 70.5321 53.1247 70.4898 53.1668 70.3628L53.5033 69.8124C53.5453 69.6854 53.5453 69.5584 53.4612 69.4314L50.7271 65.0708C50.643 64.9437 50.6851 64.8591 50.8113 64.8591H51.7787C51.9469 64.8591 52.0311 64.7321 52.1152 64.478L53.9659 59.1437ZM42.1043 60.8371C42.1043 60.3291 41.9361 59.8634 41.6417 59.5247C41.3052 59.1437 40.8845 58.932 40.3377 58.932H38.9076C38.7814 58.932 38.6973 59.0167 38.6973 59.1437V60.3714C38.6973 60.5408 38.7393 60.5831 38.8655 60.5831H39.7068C39.7488 60.5831 39.7488 60.5831 39.7909 60.5831C39.833 60.5831 39.875 60.6254 39.9171 60.6254C40.0433 60.6678 40.1274 60.7524 40.1695 60.8795C40.2536 61.0488 40.2957 61.3452 40.2957 61.6838V70.2781C40.2957 70.3205 40.2957 70.4051 40.3377 70.4475C40.3798 70.5321 40.4218 70.5745 40.4639 70.5745H41.852C41.9782 70.5745 42.0202 70.4898 42.0202 70.2781V60.8371H42.1043ZM36.6783 69.135C36.6783 69.008 36.5942 68.9234 36.468 68.9234L34.2387 68.881C34.1545 68.881 34.1125 68.8387 34.1125 68.7964C34.1125 68.754 34.1545 68.7117 34.1966 68.6693L35.122 68.119C35.3323 67.992 35.4164 67.865 35.4164 67.6533V60.8371C35.4164 60.3291 35.2482 59.8634 34.9537 59.5247C34.6172 59.1437 34.1966 58.932 33.6498 58.932H27.8872C27.7611 58.932 27.6769 59.0167 27.6769 59.1437V60.3714C27.6769 60.5408 27.719 60.5831 27.8452 60.5831H33.0189C33.0609 60.5831 33.0609 60.5831 33.103 60.5831C33.145 60.5831 33.1871 60.6254 33.2292 60.6254C33.3554 60.6678 33.4395 60.7524 33.4815 60.8795C33.6077 61.0911 33.6498 61.3452 33.6498 61.6838V68.9234H27.9293C27.8031 68.9234 27.719 69.008 27.6349 69.1774L27.2142 70.3205C27.1722 70.4898 27.1722 70.5745 27.2563 70.5745H36.468H36.51C36.5521 70.5745 36.5521 70.5745 36.5521 70.5321C36.5521 70.4898 36.5942 70.4898 36.5942 70.4475C36.5942 70.4051 36.6362 70.3628 36.6362 70.3205L36.6783 69.135ZM24.3961 60.8371C24.3961 60.3291 24.2278 59.8634 23.9334 59.5247C23.5969 59.1437 23.1763 58.932 22.6294 58.932H21.1993C21.0731 58.932 20.989 59.0167 20.989 59.1437V60.3714C20.989 60.5408 21.0311 60.5831 21.1573 60.5831H21.9985C22.0406 60.5831 22.0406 60.5831 22.0826 60.5831C22.1247 60.5831 22.1668 60.6254 22.2088 60.6254C22.335 60.6678 22.4191 60.7524 22.4612 60.8795C22.5453 61.0488 22.6294 61.3452 22.6294 61.6838V65.2824C22.6294 65.3248 22.6294 65.4094 22.6715 65.4941C22.7136 65.5788 22.7556 65.6211 22.7977 65.6211H24.1858C24.3119 65.6211 24.354 65.4941 24.354 65.2824V60.8371H24.3961ZM18.3811 60.8371C18.3811 60.3291 18.2129 59.8634 17.8764 59.5247C17.5399 59.1437 17.0772 58.932 16.5304 58.932H9.59009C9.4639 58.932 9.37978 58.9743 9.33772 59.0167C9.33772 59.0167 9.29565 59.059 9.29565 59.1013C9.29565 59.1013 9.29565 59.1437 9.29565 59.186V60.2867C9.29565 60.4984 9.33772 60.5831 9.4639 60.5831H10.8099C10.894 60.5831 10.9361 60.6254 10.9361 60.6678C10.9782 60.7101 10.9361 60.7524 10.852 60.7948C10.4313 61.0065 10.0948 61.2181 9.84247 61.4298C9.71628 61.5145 9.63215 61.6838 9.63215 61.9379V70.2358C9.63215 70.4475 9.67422 70.5321 9.8004 70.5321H18.1708C18.297 70.5321 18.3391 70.4475 18.3391 70.2358V60.8371H18.3811ZM11.3988 68.881V60.7101C11.3988 60.6254 11.4408 60.5408 11.525 60.5408H16.0677C16.1098 60.5408 16.1098 60.5408 16.1518 60.5408C16.1939 60.5408 16.236 60.5831 16.278 60.5831C16.4042 60.6254 16.4883 60.7101 16.5304 60.8371C16.6566 61.0488 16.6986 61.3028 16.6986 61.6415V68.881H11.3988Z" fill="#9E9E9E"/>
<path d="M71.8005 97.1195C71.8005 96.8232 71.7164 96.6115 71.5482 96.3998C71.3799 96.1881 71.1275 96.0611 70.8331 96.0611H70.076C69.9919 96.0611 69.9919 96.1035 69.9919 96.1881V96.8655C69.9919 96.9502 70.0339 96.9925 70.076 96.9925H70.5387H70.5807C70.6228 96.9925 70.6228 96.9925 70.6649 97.0349C70.749 97.0772 70.791 97.1195 70.791 97.1619C70.8331 97.2465 70.8752 97.4159 70.8752 97.5852V102.242C70.8752 102.285 70.8752 102.285 70.9172 102.327C70.9172 102.369 70.9593 102.412 71.0014 102.412H71.7585C71.8426 102.412 71.8426 102.369 71.8426 102.242V97.1195H71.8005ZM69.0665 97.1195C69.0665 96.8232 68.9824 96.5692 68.8141 96.3998C68.6459 96.1881 68.3935 96.0611 68.099 96.0611H64.6079C64.5238 96.0611 64.4817 96.1035 64.4817 96.1881V96.8655C64.4817 96.9502 64.5238 96.9925 64.6079 96.9925H67.7626H67.8046C67.8467 96.9925 67.8467 96.9925 67.8887 97.0349C67.9729 97.0772 68.0149 97.1195 68.0149 97.1619C68.057 97.2889 68.099 97.4159 68.099 97.5852V102.242V102.285V102.327C68.099 102.369 68.1411 102.412 68.1411 102.412H68.8982C68.9824 102.412 68.9824 102.369 68.9824 102.242V97.1195H69.0665ZM65.4491 98.9823C65.4491 98.8553 65.4071 98.813 65.365 98.813H64.6499C64.5658 98.813 64.5658 98.8553 64.5658 98.9823V102.242C64.5658 102.369 64.6079 102.412 64.6499 102.412H65.4071C65.4491 102.412 65.4912 102.369 65.4912 102.242V98.9823H65.4491ZM63.2619 97.1195C63.2619 96.8232 63.1778 96.5692 63.0095 96.3998C62.8413 96.1881 62.5889 96.0611 62.2944 96.0611H59.1398C59.0556 96.0611 59.0136 96.1035 59.0136 96.1881L58.8453 99.1517C58.8453 99.321 58.8874 99.448 59.0136 99.5327C59.0977 99.6174 59.2239 99.6597 59.308 99.6597H60.6961C60.7381 99.6597 60.7802 99.6174 60.7802 99.4904V98.8977C60.7802 98.813 60.7381 98.7707 60.6961 98.7707H59.8969C59.8548 98.7707 59.8128 98.7707 59.8128 98.7283L59.7707 98.686V98.6436L59.8548 96.8655H62.0421H62.0841C62.1262 96.8655 62.1262 96.8655 62.1683 96.9079C62.2524 96.9502 62.2944 96.9925 62.2944 97.0349C62.3365 97.1619 62.3786 97.2889 62.3786 97.4582L62.5048 101.396H59.0977C59.0136 101.396 58.9715 101.438 58.9715 101.523L58.7191 102.158C58.6771 102.242 58.6771 102.285 58.7612 102.285H63.2619C63.3039 102.285 63.3039 102.242 63.346 102.2C63.3881 102.158 63.3881 102.115 63.3881 102.031L63.2619 97.1195ZM57.7096 96.9925C57.7517 96.7385 57.7517 96.5268 57.6255 96.3575C57.4993 96.1881 57.3311 96.1035 57.0787 96.1035H52.9145C52.8304 96.1035 52.7883 96.1458 52.7883 96.2728V96.8232C52.7883 96.9502 52.8304 96.9925 52.9145 96.9925H56.7843L55.5645 102.285C55.5224 102.369 55.5645 102.412 55.6065 102.412H56.3636C56.4057 102.412 56.4478 102.369 56.4898 102.242L57.7096 96.9925ZM53.7978 98.94C53.7978 98.813 53.7558 98.7707 53.7137 98.7707H52.9986C52.9145 98.7707 52.8725 98.813 52.8725 98.94V103.936C52.8725 104.063 52.9145 104.105 52.9566 104.105H53.7137C53.7558 104.105 53.7978 104.063 53.7978 103.936V98.94ZM51.6106 97.1195C51.6106 96.8232 51.5265 96.6115 51.3582 96.3998C51.19 96.1881 50.9376 96.0611 50.6432 96.0611H49.886C49.8019 96.0611 49.8019 96.1035 49.8019 96.1881V96.8655C49.8019 96.9502 49.844 96.9925 49.886 96.9925H50.3487H50.3908C50.4328 96.9925 50.4328 96.9925 50.4749 97.0349C50.559 97.0772 50.6011 97.1195 50.6011 97.1619C50.6432 97.2465 50.6852 97.4159 50.6852 97.5852V102.242C50.6852 102.285 50.6852 102.285 50.7273 102.327C50.7273 102.369 50.7693 102.412 50.8114 102.412H51.5685C51.6526 102.412 51.6527 102.369 51.6527 102.242V97.1195H51.6106ZM48.8765 97.1619C48.8765 96.8655 48.7924 96.6538 48.5821 96.4422C48.3718 96.2305 48.1194 96.1035 47.825 96.1035H43.7449H43.7029C43.7029 96.1035 43.6608 96.1035 43.6608 96.1458C43.6187 96.1881 43.6187 96.1881 43.6187 96.1881V96.8232C43.6187 96.9502 43.6608 96.9925 43.7449 96.9925H44.8385C44.8806 96.9925 44.8806 96.9925 44.8806 97.0349C44.8806 97.0772 44.8806 97.0772 44.8385 97.0772C44.7965 97.1195 44.7124 97.1619 44.5441 97.2465C44.502 97.2889 44.4179 97.3312 44.3759 97.3312C44.3338 97.3736 44.2917 97.3736 44.2917 97.3736C44.2076 97.4159 44.1655 97.5006 44.1655 97.6699L44.2076 101.523H43.3243C43.2822 101.523 43.2402 101.565 43.1981 101.65L42.9878 102.285C42.9457 102.369 42.9457 102.454 42.9878 102.454H45.0068C45.0489 102.454 45.0909 102.369 45.0909 102.242L45.0068 97.3736V96.9502H47.4464H47.4885C47.5305 96.9502 47.5305 96.9502 47.5726 96.9925C47.6567 97.0349 47.6988 97.0772 47.6988 97.1195C47.7408 97.2465 47.7829 97.3736 47.7829 97.5429V102.2C47.7829 102.327 47.825 102.369 47.867 102.369H48.6242C48.7083 102.369 48.7083 102.327 48.7083 102.2V97.1619H48.8765ZM40.1696 96.1881C40.1696 96.1035 40.1275 96.0611 40.0434 96.0611H35.5848C35.5007 96.0611 35.4586 96.1035 35.4586 96.1881V96.8232C35.4586 96.9502 35.5007 96.9925 35.5848 96.9925H39.1181C39.1601 96.9925 39.2022 96.9925 39.2022 97.0349C39.2022 97.0772 39.2022 97.0772 39.1181 97.1195L38.4871 97.5006C38.403 97.5429 38.3609 97.6276 38.3609 97.7969V102.242C38.3609 102.369 38.403 102.412 38.4451 102.412H39.2022C39.2863 102.412 39.2863 102.369 39.2863 102.242V97.5852C39.2863 97.3736 39.3284 97.2042 39.4546 97.1195C39.4966 97.0772 39.6228 97.0349 39.749 96.9925L39.8752 96.9502H39.9172C40.0014 96.9502 40.0434 96.9079 40.0855 96.9079C40.1276 96.9079 40.1696 96.8655 40.1696 96.7809V96.1881ZM34.365 97.1195C34.365 96.8232 34.2809 96.5692 34.1126 96.3998C33.9444 96.1881 33.692 96.0611 33.3976 96.0611H30.2429C30.1588 96.0611 30.1167 96.1035 30.1167 96.1881L29.9484 99.1517C29.9484 99.321 29.9905 99.448 30.1167 99.5327C30.2008 99.6174 30.327 99.6597 30.4111 99.6597H31.7992C31.8413 99.6597 31.8833 99.6174 31.8833 99.4904V98.8977C31.8833 98.813 31.8413 98.7707 31.7992 98.7707H31C30.9579 98.7707 30.9159 98.7707 30.9159 98.7283L30.8738 98.686V98.6436L30.9579 96.8655H33.1452H33.1873C33.2293 96.8655 33.2293 96.8655 33.2714 96.9079C33.3555 96.9502 33.3976 96.9925 33.3976 97.0349C33.4396 97.1619 33.4817 97.2889 33.4817 97.4582L33.6079 101.396H30.2008C30.1167 101.396 30.0746 101.438 30.0746 101.523L29.8223 102.158C29.7802 102.242 29.7802 102.285 29.8643 102.285H34.365C34.4071 102.285 34.4071 102.242 34.4491 102.2C34.4912 102.158 34.4912 102.115 34.4912 102.031L34.365 97.1195ZM28.6866 97.1195C28.6866 96.8232 28.6024 96.6115 28.4342 96.3998C28.2659 96.1881 28.0136 96.0611 27.7191 96.0611H26.962C26.8779 96.0611 26.8779 96.1035 26.8779 96.1881V96.8655C26.8779 96.9502 26.92 96.9925 26.962 96.9925H27.4247H27.4668C27.5088 96.9925 27.5088 96.9925 27.5509 97.0349C27.635 97.0772 27.6771 97.1195 27.6771 97.1619C27.7191 97.2465 27.7612 97.4159 27.7612 97.5852V102.242C27.7612 102.285 27.7612 102.285 27.8033 102.327C27.8033 102.369 27.8453 102.412 27.8874 102.412H28.6024C28.6866 102.412 28.6866 102.369 28.6866 102.242V97.1195ZM25.9525 96.8655C25.9525 96.6115 25.9105 96.3998 25.8263 96.2728C25.7422 96.1035 25.574 96.0188 25.3216 96.0188H21.0312C20.9471 96.0188 20.905 96.0611 20.905 96.1458V96.7385C20.905 96.8655 20.9471 96.9079 20.9892 96.9079H21.6201C21.6622 96.9079 21.7042 96.9079 21.7042 96.9502C21.7042 96.9925 21.7042 96.9925 21.6622 97.0349L21.1574 97.3736C21.0733 97.4159 21.0312 97.5429 21.0733 97.6699L21.536 102.242C21.536 102.327 21.578 102.412 21.6622 102.412H23.5129C24.3541 102.412 24.9851 102.158 25.4057 101.607C25.8263 101.099 25.9946 100.379 25.9946 99.4057V96.8655H25.9525ZM25.0692 99.4904C25.0692 99.8714 25.0271 100.168 24.943 100.464C24.8589 100.718 24.7327 100.93 24.6065 101.099C24.4803 101.268 24.27 101.353 24.0597 101.438C23.8494 101.523 23.6391 101.523 23.3867 101.523H22.3352L21.9566 97.2042C21.9566 97.0772 22.0407 96.9925 22.209 96.9925H24.8168C24.943 96.9925 25.0271 97.0349 25.0692 97.1195C25.1113 97.1619 25.1113 97.2889 25.1113 97.4159V99.4904H25.0692Z" fill="#9E9E9E"/>
<path d="M83.9565 86.239C83.9565 85.9849 83.9144 85.7733 83.8303 85.6462C83.7462 85.4769 83.5779 85.3922 83.3256 85.3922H78.9931C78.909 85.3922 78.8669 85.4346 78.8669 85.5192V86.1119C78.8669 86.2389 78.909 86.2813 78.9511 86.2813H79.582C79.6241 86.2813 79.6661 86.2813 79.6661 86.3236C79.6661 86.366 79.6661 86.366 79.6241 86.4083L79.1193 86.747C79.0352 86.7893 78.9931 86.9163 79.0352 87.0433L79.4979 91.6157C79.4979 91.7003 79.5399 91.785 79.6241 91.785H81.4748C82.316 91.785 82.947 91.531 83.3676 90.9806C83.7882 90.4726 83.9565 89.7529 83.9565 88.7791V86.239ZM83.0732 88.8638C83.0732 89.2448 83.0311 89.5412 82.947 89.8375C82.8629 90.0916 82.7367 90.3032 82.6105 90.4726C82.4843 90.6419 82.274 90.7266 82.0637 90.8113C81.8534 90.896 81.6431 90.896 81.3907 90.896H80.3391L79.9606 86.5776C79.9606 86.4506 80.0447 86.366 80.2129 86.366H82.8208C82.947 86.366 83.0311 86.4083 83.0732 86.493C83.1152 86.5353 83.1152 86.6623 83.1152 86.7893V88.8638H83.0732ZM77.7312 85.6039C77.7312 85.4769 77.6892 85.4346 77.563 85.4346H75.4599C75.4178 85.4346 75.4178 85.4346 75.3758 85.4769C75.3337 85.5192 75.3337 85.5192 75.3337 85.5616V86.2813C75.3337 86.3236 75.3337 86.3236 75.3758 86.366L75.4178 86.4083H76.4273H76.4694C76.5114 86.4083 76.5114 86.4083 76.5114 86.4083C76.5535 86.4083 76.5956 86.366 76.6376 86.3236L76.7217 86.1966C76.7638 86.1543 76.7638 86.1543 76.8059 86.1966C76.8479 86.239 76.8479 86.239 76.8479 86.2813C76.8479 86.2813 76.8059 86.3236 76.8059 86.366V86.4083V88.9485C76.8059 89.6259 76.6376 90.1339 76.3011 90.4303C76.0067 90.7266 75.6281 90.8536 75.0813 90.8536H73.9456L73.6512 85.6039C73.6512 85.5192 73.6512 85.4769 73.6091 85.4346C73.6091 85.4346 73.5671 85.3922 73.525 85.3922H72.7679C72.6838 85.3922 72.6417 85.4346 72.6838 85.5616L73.0623 91.6157C73.0623 91.7003 73.1044 91.7427 73.1885 91.7427H75.0813C75.8805 91.7427 76.4694 91.531 76.9321 91.0653C77.1844 90.8113 77.3527 90.5149 77.4789 90.1762C77.6051 89.7952 77.6892 89.3718 77.6892 88.9061L77.7312 85.6039ZM71.5901 86.493C71.5901 86.1966 71.506 85.9849 71.3378 85.7733C71.1695 85.5616 70.9171 85.4346 70.6227 85.4346H69.8656C69.7815 85.4346 69.7814 85.4769 69.7814 85.5616V86.239C69.7814 86.3236 69.8235 86.366 69.8656 86.366H70.3283H70.3703C70.4124 86.366 70.4124 86.366 70.4544 86.4083C70.5386 86.4506 70.5806 86.493 70.5806 86.5353C70.6227 86.62 70.6648 86.7893 70.6648 86.9587V91.6157C70.6648 91.658 70.6648 91.658 70.7068 91.7003C70.7068 91.7427 70.7489 91.785 70.791 91.785H71.5481C71.6322 91.785 71.6322 91.7427 71.6322 91.6157V86.493H71.5901ZM68.9823 85.5616C68.9823 85.4769 68.9402 85.4346 68.8561 85.4346H64.3975C64.3133 85.4346 64.2713 85.4769 64.2713 85.5616V86.1966C64.2713 86.3236 64.3133 86.366 64.3975 86.366H67.9307C67.9728 86.366 68.0148 86.366 68.0148 86.4083C68.0148 86.4506 68.0148 86.4506 67.9307 86.493L67.2998 86.874C67.2156 86.9163 67.1736 87.001 67.1736 87.1703V91.6157C67.1736 91.7427 67.2156 91.785 67.2577 91.785H68.0148C68.099 91.785 68.099 91.7427 68.099 91.6157V86.9587C68.099 86.747 68.141 86.5776 68.2672 86.493C68.3093 86.4506 68.4355 86.4083 68.5616 86.366L68.6878 86.3236H68.7299C68.814 86.3236 68.8561 86.2813 68.8981 86.2813C68.9402 86.2813 68.9823 86.239 68.9823 86.1543V85.5616ZM63.1777 86.493C63.1777 86.1966 63.0935 85.9849 62.9253 85.7733C62.757 85.5616 62.5047 85.4346 62.2102 85.4346H61.4531C61.369 85.4346 61.369 85.4769 61.369 85.5616V86.239C61.369 86.3236 61.411 86.366 61.4531 86.366H61.9158H61.9578C61.9999 86.366 61.9999 86.366 62.042 86.4083C62.1261 86.4506 62.1682 86.493 62.1682 86.5353C62.2102 86.62 62.2523 86.7893 62.2523 86.9587V88.9061C62.2523 88.9485 62.2523 88.9908 62.2943 88.9908C62.2943 89.0332 62.3364 89.0755 62.3785 89.0755H63.1356C63.2197 89.0755 63.2197 89.0332 63.2197 88.9061V86.493H63.1777ZM60.4436 86.493C60.4436 86.1966 60.3595 85.9849 60.1912 85.7733C60.023 85.5616 59.7706 85.4346 59.4762 85.4346H58.719C58.6349 85.4346 58.6349 85.4769 58.6349 85.5616V86.239C58.6349 86.3236 58.677 86.366 58.719 86.366H59.1817H59.2238C59.2659 86.366 59.2658 86.366 59.3079 86.4083C59.392 86.4506 59.4341 86.493 59.4341 86.5353C59.4762 86.62 59.5182 86.7893 59.5182 86.9587V91.6157C59.5182 91.658 59.5182 91.658 59.5603 91.7003C59.5603 91.7427 59.6023 91.785 59.6444 91.785H60.4015C60.4857 91.785 60.4857 91.7427 60.4857 91.6157V86.493H60.4436ZM55.7747 86.3236C55.8588 86.0696 55.8167 85.8579 55.6905 85.6886C55.5644 85.5192 55.4382 85.4346 55.2279 85.4346H52.1994V83.8681L52.7041 83.7411C52.7462 83.7411 52.7882 83.6988 52.7882 83.6141V83.1907C52.7882 83.1484 52.7882 83.1484 52.7462 83.1061C52.7041 83.0637 52.7041 83.0637 52.7041 83.0637H51.4422H51.4002C51.4002 83.0637 51.3581 83.0637 51.3581 83.1061C51.3161 83.1484 51.3161 83.1907 51.3161 83.2331V86.1543C51.3161 86.239 51.3581 86.3236 51.4002 86.3236H54.8072L53.2509 91.6157C53.2089 91.7003 53.2509 91.7427 53.335 91.7427H54.0922C54.1342 91.7427 54.1763 91.7003 54.2184 91.6157L55.7747 86.3236ZM50.2645 85.6039C50.2645 85.5192 50.2645 85.4769 50.2224 85.4769C50.2224 85.4769 50.1804 85.4346 50.1383 85.4346H49.3812C49.3391 85.4346 49.3391 85.4346 49.2971 85.4769C49.255 85.5192 49.255 85.5616 49.255 85.6039L49.2971 88.9908C49.2971 89.3718 49.255 89.6682 49.0867 89.8799C48.9606 90.0492 48.7502 90.2186 48.4558 90.3032L47.2781 90.7266C47.236 90.7266 47.236 90.7266 47.1939 90.7266C47.1939 90.6843 47.1939 90.6843 47.1939 90.6419L47.5725 90.2609C47.6146 90.2186 47.6566 90.1339 47.6146 90.0916L46.4368 85.6462C46.4368 85.5616 46.3947 85.5192 46.3947 85.5192C46.3947 85.5192 46.3527 85.4769 46.3106 85.4769H45.5535C45.4694 85.4769 45.4273 85.5192 45.4694 85.6039L46.8995 90.8536L45.4273 91.3193C45.3853 91.3193 45.3432 91.404 45.3432 91.4887V92.166C45.3432 92.2084 45.3432 92.2507 45.3853 92.2507L48.7082 91.1923C49.255 91.023 49.6336 90.7689 49.8859 90.3879C50.1383 90.0492 50.2224 89.5835 50.2224 88.9908L50.2645 85.6039ZM44.4599 86.493C44.4599 86.1966 44.3758 85.9849 44.2075 85.7733C44.0393 85.5616 43.7869 85.4346 43.4924 85.4346H42.7353C42.6512 85.4346 42.6512 85.4769 42.6512 85.5616V86.239C42.6512 86.3236 42.6933 86.366 42.7353 86.366H43.198H43.2401C43.2821 86.366 43.2821 86.366 43.3242 86.4083C43.4083 86.4506 43.4504 86.493 43.4504 86.5353C43.4924 86.62 43.5345 86.7893 43.5345 86.9587V88.9061C43.5345 88.9485 43.5345 88.9908 43.5766 88.9908C43.5766 89.0332 43.6186 89.0755 43.6607 89.0755H44.4178C44.5019 89.0755 44.5019 89.0332 44.5019 88.9061V86.493H44.4599ZM41.8941 85.5616C41.8941 85.5192 41.8941 85.4769 41.8941 85.4769C41.8941 85.4769 41.8941 85.4769 41.852 85.4769H41.0949C41.0528 85.4769 41.0108 85.5192 40.9687 85.6039L40.0854 88.3558C40.0433 88.4828 40.0013 88.4828 39.9592 88.4404L38.1926 85.6039C38.1505 85.5192 38.0243 85.4346 37.9402 85.4346H37.0148C36.9307 85.4346 36.8886 85.4769 36.8886 85.6039V86.0273C36.8886 86.1543 36.9307 86.1966 36.9728 86.1966H37.141C37.3093 86.1966 37.4775 86.366 37.6458 86.62L40.2957 90.8113H37.4775C37.3934 90.8113 37.3513 90.8536 37.3513 90.9806V91.531C37.3513 91.658 37.3934 91.7003 37.4355 91.7003H41.3052C41.3893 91.7003 41.4314 91.658 41.4734 91.6157L41.6417 91.3193C41.6838 91.277 41.6838 91.1923 41.5996 91.1076L40.1275 88.7368C40.0854 88.6521 40.0854 88.6098 40.1695 88.6098H40.6743C40.7584 88.6098 40.8004 88.5251 40.8846 88.3981L41.8941 85.5616ZM36.0474 86.493C36.0474 86.1966 35.9633 85.9849 35.795 85.7733C35.6268 85.5616 35.3744 85.4346 35.08 85.4346H34.3228C34.2387 85.4346 34.2387 85.4769 34.2387 85.5616V86.239C34.2387 86.3236 34.2808 86.366 34.3228 86.366H34.7855H34.8276C34.8696 86.366 34.8696 86.366 34.9117 86.4083C34.9958 86.4506 35.0379 86.493 35.0379 86.5353C35.08 86.62 35.122 86.7893 35.122 86.9587V91.6157C35.122 91.658 35.122 91.658 35.1641 91.7003C35.1641 91.7427 35.2061 91.785 35.2482 91.785H36.0053C36.0895 91.785 36.0895 91.7427 36.0895 91.6157V86.493H36.0474ZM33.6498 90.9806C33.6498 90.896 33.6078 90.8536 33.5236 90.8536H32.3038C32.2618 90.8536 32.2618 90.8536 32.2618 90.8113C32.2618 90.7689 32.2618 90.7689 32.3038 90.7266L32.8086 90.4303C32.8927 90.3456 32.9768 90.2609 32.9768 90.1762V86.493C32.9768 86.1966 32.8927 85.9849 32.7245 85.7733C32.5562 85.5616 32.3038 85.4346 32.0094 85.4346H28.8968C28.8127 85.4346 28.7706 85.4769 28.7706 85.5616V86.239C28.7706 86.3236 28.8127 86.366 28.8547 86.366H31.6308H31.6729C31.715 86.366 31.715 86.366 31.757 86.4083C31.7991 86.4506 31.8832 86.493 31.8832 86.5353C31.9253 86.6623 31.9673 86.7893 31.9673 86.9587V90.896H28.8547C28.7706 90.896 28.7285 90.9383 28.6865 91.023L28.4762 91.658C28.4341 91.7427 28.4341 91.785 28.5182 91.785H33.4816C33.4816 91.785 33.4816 91.785 33.5236 91.785H33.5657C33.5657 91.785 33.5657 91.7427 33.6078 91.7427C33.6078 91.7427 33.6078 91.7003 33.6078 91.658L33.6498 90.9806ZM24.9009 86.2813C24.8588 86.0273 24.7747 85.8156 24.6485 85.6886C24.4802 85.5192 24.312 85.4346 24.0596 85.4346H22.7557C22.6715 85.4346 22.6715 85.4769 22.6715 85.5616V86.239C22.6715 86.3236 22.7136 86.366 22.7557 86.366H23.7231C23.8493 86.366 23.9334 86.4083 24.0175 86.5353C24.0596 86.62 24.1017 86.747 24.1017 86.874L24.4382 89.6682C24.4382 89.7105 24.3961 89.7952 24.354 89.8799C24.312 89.9222 24.312 89.9646 24.2279 90.0069L24.1017 90.1762C23.9755 90.3032 23.8493 90.4303 23.7652 90.5149C23.681 90.5996 23.5969 90.6419 23.5549 90.6843C23.5128 90.7266 23.4287 90.7266 23.3866 90.7689H23.3445H22.335C22.2509 90.7689 22.2089 90.8113 22.2089 90.9383V91.6157C22.2089 91.7427 22.2509 91.8274 22.335 91.8274C22.3771 91.8274 22.5033 91.8274 22.7136 91.8274H23.2604C23.3866 91.8274 23.5128 91.7427 23.639 91.5733L24.4802 90.4726C24.5223 90.4303 24.5644 90.4303 24.5644 90.4726L24.7326 91.5733C24.7747 91.7003 24.8167 91.785 24.8588 91.785H25.5318C25.5739 91.785 25.6159 91.7427 25.5739 91.6157L24.9009 86.2813ZM21.3255 86.493C21.3255 86.1966 21.2414 85.9849 21.0732 85.7733C20.8629 85.5616 20.6526 85.4346 20.3581 85.4346H17.2034C17.1193 85.4346 17.1193 85.4769 17.1193 85.5616V86.239C17.1193 86.3236 17.1614 86.366 17.2034 86.366H20.0637H20.1057C20.1478 86.366 20.1478 86.366 20.1899 86.4083C20.2319 86.4506 20.3161 86.493 20.3161 86.5353C20.3581 86.6623 20.4002 86.7893 20.4002 86.9587V91.6157C20.4002 91.658 20.4002 91.658 20.4422 91.7003C20.4422 91.7427 20.4843 91.785 20.5264 91.785H21.2835C21.3676 91.785 21.3676 91.7427 21.3676 91.6157V86.493H21.3255ZM16.0257 86.493C16.0257 86.1966 15.9416 85.9426 15.7733 85.7733C15.6051 85.5616 15.3527 85.4346 15.0582 85.4346H11.9036C11.8194 85.4346 11.7774 85.4769 11.7774 85.5616L11.6091 88.5251C11.6091 88.6945 11.6512 88.8215 11.7774 88.9061C11.8615 88.9908 11.9877 89.0332 12.0718 89.0332H13.4599C13.5019 89.0332 13.544 88.9908 13.544 88.8638V88.2711C13.544 88.1864 13.5019 88.1441 13.4599 88.1441H12.6607C12.6186 88.1441 12.5766 88.1441 12.5766 88.1018L12.5345 88.0594V88.0171L12.6186 86.239H14.8059H14.8479C14.89 86.239 14.89 86.239 14.9321 86.2813C15.0162 86.3236 15.0582 86.366 15.0582 86.4083C15.1003 86.5353 15.1424 86.6623 15.1424 86.8317L15.2686 90.7689H11.8615C11.7774 90.7689 11.7353 90.8113 11.7353 90.896L11.4829 91.531C11.4409 91.6157 11.4409 91.658 11.525 91.658H16.0257C16.0677 91.658 16.0677 91.6157 16.1098 91.5733C16.1519 91.531 16.1519 91.4887 16.1519 91.404L16.0257 86.493ZM10.3473 86.493C10.3473 86.1966 10.2631 85.9849 10.0949 85.7733C9.92663 85.5616 9.67426 85.4346 9.37982 85.4346H8.6227C8.53857 85.4346 8.53857 85.4769 8.53857 85.5616V86.239C8.53857 86.3236 8.58064 86.366 8.6227 86.366H9.08539H9.12745C9.16951 86.366 9.16951 86.366 9.21157 86.4083C9.2957 86.4506 9.33776 86.493 9.33776 86.5353C9.37982 86.62 9.42189 86.7893 9.42189 86.9587V88.9061C9.42189 88.9485 9.42189 88.9908 9.46395 88.9908C9.46395 89.0332 9.50601 89.0755 9.54807 89.0755H10.3052C10.3893 89.0755 10.3893 89.0332 10.3893 88.9061V86.493H10.3473Z" fill="#9E9E9E"/>
</svg>
